G04*
G04 #@! TF.GenerationSoftware,Altium Limited,Altium Designer,19.0.4 (130)*
G04*
G04 Layer_Color=65535*
%FSLAX25Y25*%
%MOIN*%
G70*
G01*
G75*
%ADD10C,0.02362*%
%ADD11C,0.00787*%
%ADD12C,0.00984*%
%ADD13C,0.01000*%
%ADD14C,0.00394*%
%ADD15C,0.00800*%
%ADD16C,0.00591*%
%ADD17R,0.01181X0.04724*%
D10*
X51935Y17520D02*
G03*
X51935Y17520I-557J0D01*
G01*
X75754Y100197D02*
G03*
X75754Y100197I-557J0D01*
G01*
X99244Y41307D02*
G03*
X99244Y41307I-1181J0D01*
G01*
D11*
X130799Y26701D02*
G03*
X129224Y28276I-1575J0D01*
G01*
X129224Y22055D02*
G03*
X130799Y23630I-0J1575D01*
G01*
X118713Y23630D02*
G03*
X120287Y22055I1575J0D01*
G01*
Y28276D02*
G03*
X118713Y26701I0J-1575D01*
G01*
X105563Y11854D02*
G03*
X103988Y10279I0J-1575D01*
G01*
Y7209D02*
G03*
X105563Y5634I1575J0D01*
G01*
X114500Y5634D02*
G03*
X116075Y7209I-0J1575D01*
G01*
X116075Y10279D02*
G03*
X114500Y11854I-1575J0D01*
G01*
X88933Y62748D02*
G03*
X90508Y64323I-0J1575D01*
G01*
Y67394D02*
G03*
X88933Y68968I-1575J0D01*
G01*
X79996Y68968D02*
G03*
X78421Y67394I0J-1575D01*
G01*
X78421Y64323D02*
G03*
X79996Y62748I1575J0D01*
G01*
X130665Y33661D02*
G03*
X129091Y35236I-1575J0D01*
G01*
X129091Y29016D02*
G03*
X130665Y30591I-0J1575D01*
G01*
X118579Y30591D02*
G03*
X120153Y29016I1575J-0D01*
G01*
Y35236D02*
G03*
X118579Y33661I0J-1575D01*
G01*
X151260Y48130D02*
G03*
X149685Y49705I-1575J-0D01*
G01*
X146614D02*
G03*
X145039Y48130I0J-1575D01*
G01*
X145039Y39193D02*
G03*
X146614Y37618I1575J0D01*
G01*
X149685Y37618D02*
G03*
X151260Y39193I0J1575D01*
G01*
X101248Y5634D02*
G03*
X102823Y7209I-0J1575D01*
G01*
Y10279D02*
G03*
X101248Y11854I-1575J0D01*
G01*
X92311Y11854D02*
G03*
X90736Y10279I0J-1575D01*
G01*
X90736Y7209D02*
G03*
X92311Y5634I1575J0D01*
G01*
X173346Y16791D02*
G03*
X174921Y18366I0J1575D01*
G01*
X168701Y18366D02*
G03*
X170276Y16791I1575J0D01*
G01*
X170276Y28878D02*
G03*
X168701Y27303I0J-1575D01*
G01*
X174921D02*
G03*
X173346Y28878I-1575J-0D01*
G01*
X130543Y113965D02*
G03*
X128969Y115539I-1575J-0D01*
G01*
X125898D02*
G03*
X124323Y113965I0J-1575D01*
G01*
X124323Y105027D02*
G03*
X125898Y103453I1575J0D01*
G01*
X128968Y103453D02*
G03*
X130543Y105027I0J1575D01*
G01*
X149067Y74055D02*
G03*
X147492Y72480I0J-1575D01*
G01*
Y69409D02*
G03*
X149067Y67835I1575J0D01*
G01*
X158004Y67835D02*
G03*
X159579Y69409I-0J1575D01*
G01*
X159579Y72480D02*
G03*
X158004Y74055I-1575J0D01*
G01*
X88933Y29016D02*
G03*
X90508Y30591I-0J1575D01*
G01*
Y33661D02*
G03*
X88933Y35236I-1575J0D01*
G01*
X79996Y35236D02*
G03*
X78421Y33661I0J-1575D01*
G01*
X78421Y30591D02*
G03*
X79996Y29016I1575J0D01*
G01*
X142756Y37618D02*
G03*
X144331Y39193I0J1575D01*
G01*
X138110Y39193D02*
G03*
X139685Y37618I1575J0D01*
G01*
X139685Y49705D02*
G03*
X138110Y48130I0J-1575D01*
G01*
X144331D02*
G03*
X142756Y49705I-1575J-0D01*
G01*
X123439Y113965D02*
G03*
X121864Y115539I-1575J-0D01*
G01*
X118793D02*
G03*
X117218Y113965I0J-1575D01*
G01*
X117218Y105027D02*
G03*
X118793Y103453I1575J0D01*
G01*
X121864Y103453D02*
G03*
X123439Y105027I0J1575D01*
G01*
X120287Y28276D02*
X123181D01*
X130799Y23630D02*
Y26701D01*
X118713Y23630D02*
Y26701D01*
X126331Y28276D02*
X129224D01*
X126331Y22055D02*
X129224D01*
X120287Y22055D02*
X123181D01*
X105563Y5634D02*
X108457D01*
X111606Y5634D02*
X114500D01*
X111606Y11854D02*
X114500D01*
X103988Y7209D02*
Y10279D01*
X116075Y7209D02*
Y10279D01*
X105563Y11854D02*
X108457D01*
X65735Y54599D02*
Y59067D01*
Y46980D02*
Y51449D01*
X59514Y54599D02*
Y59067D01*
Y46980D02*
X65735D01*
X59514Y59067D02*
X65735D01*
X59514Y46980D02*
Y51449D01*
X57488Y64693D02*
Y67055D01*
X86039Y68968D02*
X88933D01*
X79996Y68968D02*
X82890D01*
X79996Y62748D02*
X82890D01*
X90508Y64323D02*
Y67394D01*
X78421Y64323D02*
Y67394D01*
X86039Y62748D02*
X88933D01*
X116567Y37370D02*
Y59811D01*
X94126Y37370D02*
Y59811D01*
X116567D01*
X94126Y37370D02*
X116567D01*
X52497Y46980D02*
Y51449D01*
Y54598D02*
Y59067D01*
X58718Y46980D02*
Y51449D01*
X52497Y59067D02*
X58718D01*
X52497Y46980D02*
X58718D01*
Y54598D02*
Y59067D01*
X72752Y54599D02*
Y59067D01*
Y46980D02*
Y51449D01*
X66531Y54599D02*
Y59067D01*
Y46980D02*
X72752D01*
X66531Y59067D02*
X72752D01*
X66531Y46980D02*
Y51449D01*
X72716Y67449D02*
Y71917D01*
Y59831D02*
Y64299D01*
X66496Y67449D02*
Y71917D01*
Y59831D02*
X72716D01*
X66496Y71917D02*
X72716D01*
X66496Y59831D02*
Y64299D01*
X118433Y61916D02*
Y66384D01*
Y74002D02*
X124653D01*
X118433Y61916D02*
X124653D01*
X118433Y69534D02*
Y74002D01*
X124653Y61916D02*
Y66384D01*
Y69534D02*
Y74002D01*
X124858Y1854D02*
Y6323D01*
Y13941D02*
X131079D01*
X124858Y1854D02*
X131079D01*
X124858Y9472D02*
Y13941D01*
X131079Y1854D02*
Y6323D01*
Y9472D02*
Y13941D01*
X124921Y9472D02*
Y13941D01*
X118701Y1854D02*
X124921D01*
X118701Y13941D02*
X124921D01*
Y1854D02*
Y6323D01*
X118701Y9472D02*
Y13941D01*
Y1854D02*
Y6323D01*
X88819Y103484D02*
X160094D01*
Y114040D01*
X158563Y115571D02*
X160094Y114040D01*
X88819Y115571D02*
X152051D01*
X88819Y103484D02*
Y115571D01*
X150713D02*
X158563D01*
X120153Y35236D02*
X123047D01*
X130665Y30591D02*
Y33661D01*
X118579Y30591D02*
Y33661D01*
X126197Y35236D02*
X129091D01*
X126197Y29016D02*
X129091D01*
X120153Y29016D02*
X123047D01*
X145039Y45236D02*
Y48130D01*
X145039Y39193D02*
Y42087D01*
X151260Y39193D02*
Y42087D01*
X146614Y49705D02*
X149685D01*
X146614Y37618D02*
X149685D01*
X151260Y45236D02*
Y48130D01*
X132933Y66992D02*
X137402D01*
X140551D02*
X144095D01*
X132933Y60772D02*
X137402D01*
X144882Y61532D02*
Y66232D01*
X132933Y60772D02*
Y66992D01*
X140551Y60772D02*
X144095D01*
X144882Y61532D01*
X144095Y66992D02*
X144882Y66232D01*
X103009Y103453D02*
Y107921D01*
Y111071D02*
Y115539D01*
X109229Y103453D02*
Y107921D01*
X103009Y115539D02*
X109229D01*
X103009Y103453D02*
X109229D01*
Y111071D02*
Y115539D01*
X98354Y11854D02*
X101248D01*
X92311Y11854D02*
X95205D01*
X92311Y5634D02*
X95205D01*
X102823Y7209D02*
Y10279D01*
X90736Y7209D02*
Y10279D01*
X98354Y5634D02*
X101248D01*
X174921Y24409D02*
Y27303D01*
X170276Y16791D02*
X173346D01*
X170276Y28878D02*
X173346D01*
X174921Y18366D02*
Y21260D01*
X168701Y18366D02*
Y21260D01*
X168701Y24409D02*
Y27303D01*
X187236Y82693D02*
X191705D01*
X179618D02*
X184087D01*
X187236Y88913D02*
X191705D01*
X179618Y82693D02*
Y88913D01*
X191705Y82693D02*
Y88913D01*
X179618D02*
X184087D01*
X179618Y36575D02*
X184087D01*
X191705Y30354D02*
Y36575D01*
X179618Y30354D02*
Y36575D01*
X187236D02*
X191705D01*
X179618Y30354D02*
X184087D01*
X187236D02*
X191705D01*
X131882Y69587D02*
Y74055D01*
X125662Y61968D02*
X131882D01*
X125662Y74055D02*
X131882D01*
Y61968D02*
Y66437D01*
X125662Y69587D02*
Y74055D01*
Y61968D02*
Y66437D01*
X88799Y103453D02*
Y107921D01*
Y115539D02*
X95020D01*
X88799Y103453D02*
X95020D01*
X88799Y111071D02*
Y115539D01*
X95020Y103453D02*
Y107921D01*
Y111071D02*
Y115539D01*
X95904Y103453D02*
Y107921D01*
Y111071D02*
Y115539D01*
X102124Y103453D02*
Y107921D01*
X95904Y115539D02*
X102124D01*
X95904Y103453D02*
X102124D01*
Y111071D02*
Y115539D01*
X124323Y111071D02*
Y113965D01*
X124323Y105027D02*
Y107921D01*
X130543Y105027D02*
Y107921D01*
X125898Y115539D02*
X128968D01*
X125898Y103453D02*
X128968D01*
X130543Y111071D02*
Y113965D01*
X116334Y111071D02*
Y115539D01*
X110113Y103453D02*
X116334D01*
X110113Y115539D02*
X116334D01*
Y103453D02*
Y107921D01*
X110113Y111071D02*
Y115539D01*
Y103453D02*
Y107921D01*
X132902Y74055D02*
X137370D01*
X140520D02*
X144988D01*
X132902Y67835D02*
X137370D01*
X144988D02*
Y74055D01*
X132902Y67835D02*
Y74055D01*
X140520Y67835D02*
X144988D01*
X149067Y67835D02*
X151961D01*
X155110Y67835D02*
X158004D01*
X155110Y74055D02*
X158004D01*
X147492Y69409D02*
Y72480D01*
X159579Y69409D02*
Y72480D01*
X149067Y74055D02*
X151961D01*
X86039Y35236D02*
X88933D01*
X79996Y35236D02*
X82890D01*
X79996Y29016D02*
X82890D01*
X90508Y30591D02*
Y33661D01*
X78421Y30591D02*
Y33661D01*
X86039Y29016D02*
X88933D01*
X144331Y45236D02*
Y48130D01*
X139685Y37618D02*
X142756D01*
X139685Y49705D02*
X142756D01*
X144331Y39193D02*
Y42087D01*
X138110Y39193D02*
Y42087D01*
X138110Y45236D02*
Y48130D01*
X155142Y60736D02*
X159610D01*
X147524D02*
X151992D01*
X155142Y66957D02*
X159610D01*
X147524Y60736D02*
Y66957D01*
X159610Y60736D02*
Y66957D01*
X147524D02*
X151992D01*
X152028Y37598D02*
Y42795D01*
Y46339D02*
Y51535D01*
X160177Y46339D02*
Y51535D01*
Y37598D02*
Y42795D01*
X152028Y37598D02*
X160177D01*
X152028Y51535D02*
X160177D01*
X51701Y54599D02*
Y59067D01*
X45480Y46980D02*
X51701D01*
X45480Y59067D02*
X51701D01*
Y46980D02*
Y51449D01*
X45480Y54599D02*
Y59067D01*
Y46980D02*
Y51449D01*
X118799Y21315D02*
X123268D01*
X130886Y15094D02*
Y21315D01*
X118799Y15094D02*
Y21315D01*
X126417D02*
X130886D01*
X118799Y15094D02*
X123268D01*
X126417D02*
X130886D01*
X155142Y53677D02*
X159610D01*
X147524D02*
Y59898D01*
X159610Y53677D02*
Y59898D01*
X147524Y53677D02*
X151992D01*
X155142Y59898D02*
X159610D01*
X147524D02*
X151992D01*
X140370Y53677D02*
X144839D01*
X133677D02*
X137221D01*
X140370Y59898D02*
X144839D01*
X132890Y54437D02*
Y59138D01*
X144839Y53677D02*
Y59898D01*
X133677D02*
X137221D01*
X132890Y59138D02*
X133677Y59898D01*
X132890Y54437D02*
X133677Y53677D01*
X117218Y111071D02*
Y113965D01*
X117218Y105027D02*
Y107921D01*
X123439Y105027D02*
Y107921D01*
X118793Y115539D02*
X121864D01*
X118793Y103453D02*
X121864D01*
X123439Y111071D02*
Y113965D01*
D12*
X92354Y32744D02*
G03*
X92354Y32744I-492J0D01*
G01*
X114902Y80039D02*
G03*
X114902Y80039I-492J0D01*
G01*
D13*
X123827Y96464D02*
G03*
X123827Y96464I-1000J0D01*
G01*
X137384Y97106D02*
G03*
X142784Y97106I2700J0D01*
G01*
X139252Y24803D02*
X162874D01*
Y13780D02*
Y24803D01*
X139252Y13780D02*
X162874D01*
X139252D02*
Y24803D01*
X51386Y60126D02*
Y62725D01*
Y60126D02*
X54594D01*
X51386Y71622D02*
X54594D01*
X51386Y69024D02*
Y71622D01*
Y69024D02*
Y71622D01*
Y69024D02*
Y71622D01*
X168020Y42386D02*
Y44598D01*
Y76386D02*
X168548D01*
X168020Y74154D02*
Y76386D01*
X178636D02*
X185990D01*
X194109Y42386D02*
X200020D01*
Y76386D01*
X194109D02*
X200020D01*
X178636Y42386D02*
X185990D01*
X168020D02*
X168548D01*
X90248Y13780D02*
X116429Y13780D01*
Y17323D01*
X90248Y13780D02*
Y17323D01*
X116429Y22835D02*
Y26378D01*
X90248Y22835D02*
Y26378D01*
X116429Y26378D01*
X142784Y97106D02*
X147407Y97094D01*
X132683D02*
X137384Y97106D01*
X132650Y77409D02*
X147361D01*
X165823Y108909D02*
X171335D01*
X165823Y82728D02*
X171335D01*
X171335Y82729D02*
X175862D01*
Y108909D01*
X171335D02*
X175862D01*
X161295D02*
X165823D01*
X161295Y82729D02*
Y108909D01*
Y82729D02*
X165823D01*
D14*
X17575Y118205D02*
X40016D01*
X17575Y104425D02*
X20331D01*
X17575Y110331D02*
X20331D01*
Y104425D02*
Y110331D01*
X37260Y59181D02*
Y118205D01*
X40016Y59150D02*
Y118205D01*
X17575Y110331D02*
Y118205D01*
Y67024D02*
X20331D01*
Y72929D01*
X17575Y59150D02*
X40016D01*
X17575D02*
Y67024D01*
Y72929D02*
Y104425D01*
Y72929D02*
X20331D01*
X168579Y98119D02*
Y99519D01*
X164211Y97719D02*
X172479D01*
X172085Y94963D02*
Y96538D01*
X164605Y94963D02*
X172085D01*
X164605D02*
Y96538D01*
X172085D01*
X164211Y93782D02*
X172479D01*
X168542Y92207D02*
Y93388D01*
X17575Y13701D02*
X20331D01*
X17575D02*
Y45197D01*
Y-79D02*
Y7795D01*
Y-79D02*
X40016D01*
X20331Y7795D02*
Y13701D01*
X17575Y7795D02*
X20331D01*
X17575Y51102D02*
Y58976D01*
X40016Y-79D02*
Y58976D01*
X37260Y-47D02*
Y58976D01*
X20331Y45197D02*
Y51102D01*
X17575D02*
X20331D01*
X17575Y45197D02*
X20331D01*
X17575Y58976D02*
X40016D01*
D15*
X45732Y104055D02*
X81165D01*
X45732Y111555D02*
X47091D01*
Y106555D02*
Y111555D01*
X45732Y106555D02*
X47091D01*
X79807Y111555D02*
X81165D01*
X79807Y106555D02*
Y111555D01*
Y106555D02*
X81165D01*
X45732Y103150D02*
X81165D01*
X45732D02*
Y117913D01*
X81165D01*
Y103150D02*
Y117913D01*
X45732Y14055D02*
X81165D01*
X79807Y6555D02*
X81165D01*
X79807D02*
Y11555D01*
X81165D01*
X45732Y6555D02*
X47091D01*
Y11555D01*
X45732D02*
X47091D01*
X45732Y14961D02*
X81165D01*
Y197D02*
Y14961D01*
X45732Y197D02*
X81165D01*
X45732D02*
Y14961D01*
D16*
X13649Y70340D02*
X12993Y69684D01*
Y68372D01*
X13649Y67716D01*
X16273D01*
X16929Y68372D01*
Y69684D01*
X16273Y70340D01*
X14961D01*
Y69028D01*
X12993Y47703D02*
Y45079D01*
X14961D01*
X14305Y46391D01*
Y47047D01*
X14961Y47703D01*
X16273D01*
X16929Y47047D01*
Y45735D01*
X16273Y45079D01*
X12993Y49014D02*
X15617D01*
X16929Y50326D01*
X15617Y51638D01*
X12993D01*
X13649Y11679D02*
X12993Y11023D01*
Y9711D01*
X13649Y9055D01*
X16273D01*
X16929Y9711D01*
Y11023D01*
X16273Y11679D01*
X14961D01*
Y10367D01*
X12600Y18504D02*
X16535D01*
Y20472D01*
X15879Y21128D01*
X13256D01*
X12600Y20472D01*
Y18504D01*
Y28346D02*
X16535D01*
X15224D01*
X12600Y30970D01*
X14568Y29002D01*
X16535Y30970D01*
X16929Y36893D02*
X12993D01*
X16929Y39517D01*
X12993D01*
X12993Y97047D02*
X16929D01*
Y99015D01*
X16273Y99671D01*
X13649D01*
X12993Y99015D01*
Y97047D01*
X16929Y87795D02*
X12993D01*
Y89763D01*
X13649Y90419D01*
X14961D01*
X15617Y89763D01*
Y87795D01*
Y89107D02*
X16929Y90419D01*
X12993Y78150D02*
Y80773D01*
Y79461D01*
X16929D01*
X12993Y106955D02*
Y104331D01*
X14961D01*
X14305Y105643D01*
Y106299D01*
X14961Y106955D01*
X16273D01*
X16929Y106299D01*
Y104987D01*
X16273Y104331D01*
X12993Y108266D02*
X15617D01*
X16929Y109578D01*
X15617Y110890D01*
X12993D01*
X68307Y98425D02*
Y102361D01*
X69619Y101049D01*
X70931Y102361D01*
Y98425D01*
X56234Y102361D02*
X58857D01*
X57546D01*
Y98425D01*
X62270D02*
Y102361D01*
X64238D01*
X64894Y101705D01*
Y100393D01*
X64238Y99737D01*
X62270D01*
X63582D02*
X64894Y98425D01*
X52821Y101705D02*
X52165Y102361D01*
X50853D01*
X50197Y101705D01*
Y99081D01*
X50853Y98425D01*
X52165D01*
X52821Y99081D01*
Y100393D01*
X51509D01*
X76640Y19028D02*
X75984Y19684D01*
X74672D01*
X74016Y19028D01*
Y16404D01*
X74672Y15748D01*
X75984D01*
X76640Y16404D01*
Y17716D01*
X75328D01*
X68110Y19684D02*
Y15748D01*
X70078D01*
X70734Y16404D01*
Y19028D01*
X70078Y19684D01*
X68110D01*
X62205D02*
Y15748D01*
Y17060D01*
X64828Y19684D01*
X62861Y17716D01*
X64828Y15748D01*
X56299D02*
Y19684D01*
X58923Y15748D01*
Y19684D01*
X64475Y37095D02*
X60933D01*
Y38866D01*
X61523Y39456D01*
X62704D01*
X63294Y38866D01*
Y37095D01*
Y38275D02*
X64475Y39456D01*
Y40637D02*
Y41818D01*
Y41227D01*
X60933D01*
X61523Y40637D01*
X64475Y45950D02*
Y43589D01*
X62114Y45950D01*
X61523D01*
X60933Y45360D01*
Y44179D01*
X61523Y43589D01*
X57336Y37095D02*
X53794D01*
Y38866D01*
X54384Y39456D01*
X55565D01*
X56155Y38866D01*
Y37095D01*
Y38275D02*
X57336Y39456D01*
Y40637D02*
Y41818D01*
Y41227D01*
X53794D01*
X54384Y40637D01*
Y43589D02*
X53794Y44179D01*
Y45360D01*
X54384Y45950D01*
X56746D01*
X57336Y45360D01*
Y44179D01*
X56746Y43589D01*
X54384D01*
X107890Y69362D02*
Y72904D01*
X109661D01*
X110251Y72314D01*
Y71133D01*
X109661Y70543D01*
X107890D01*
X109071D02*
X110251Y69362D01*
X113793D02*
X111432D01*
X113793Y71724D01*
Y72314D01*
X113203Y72904D01*
X112022D01*
X111432Y72314D01*
X114974D02*
X115564Y72904D01*
X116745D01*
X117335Y72314D01*
Y71724D01*
X116745Y71133D01*
X116155D01*
X116745D01*
X117335Y70543D01*
Y69952D01*
X116745Y69362D01*
X115564D01*
X114974Y69952D01*
X131882Y9252D02*
Y12794D01*
X133653D01*
X134243Y12204D01*
Y11023D01*
X133653Y10433D01*
X131882D01*
X133063D02*
X134243Y9252D01*
X137786D02*
X135424D01*
X137786Y11613D01*
Y12204D01*
X137195Y12794D01*
X136014D01*
X135424Y12204D01*
X141328Y9252D02*
X138966D01*
X141328Y11613D01*
Y12204D01*
X140737Y12794D01*
X139557D01*
X138966Y12204D01*
X131882Y2165D02*
Y5708D01*
X133653D01*
X134243Y5117D01*
Y3936D01*
X133653Y3346D01*
X131882D01*
X133063D02*
X134243Y2165D01*
X135424D02*
X136605D01*
X136014D01*
Y5708D01*
X135424Y5117D01*
X138376D02*
X138966Y5708D01*
X140147D01*
X140737Y5117D01*
Y4527D01*
X140147Y3936D01*
X139557D01*
X140147D01*
X140737Y3346D01*
Y2756D01*
X140147Y2165D01*
X138966D01*
X138376Y2756D01*
X133897Y33245D02*
X133307Y33835D01*
X132126D01*
X131535Y33245D01*
Y30883D01*
X132126Y30293D01*
X133307D01*
X133897Y30883D01*
X135078Y33245D02*
X135668Y33835D01*
X136849D01*
X137439Y33245D01*
Y32655D01*
X136849Y32064D01*
X136258D01*
X136849D01*
X137439Y31474D01*
Y30883D01*
X136849Y30293D01*
X135668D01*
X135078Y30883D01*
X196470Y39215D02*
X195290D01*
X195880D01*
Y36264D01*
X195290Y35673D01*
X194699D01*
X194109Y36264D01*
X197651Y35673D02*
X198832D01*
X198241D01*
Y39215D01*
X197651Y38625D01*
X144728Y105110D02*
X141185D01*
Y106881D01*
X141776Y107472D01*
X142956D01*
X143547Y106881D01*
Y105110D01*
Y106291D02*
X144728Y107472D01*
Y108652D02*
Y109833D01*
Y109243D01*
X141185D01*
X141776Y108652D01*
Y111604D02*
X141185Y112195D01*
Y113375D01*
X141776Y113966D01*
X142366D01*
X142956Y113375D01*
X143547Y113966D01*
X144137D01*
X144728Y113375D01*
Y112195D01*
X144137Y111604D01*
X143547D01*
X142956Y112195D01*
X142366Y111604D01*
X141776D01*
X142956Y112195D02*
Y113375D01*
X133897Y40785D02*
X133307Y41375D01*
X132126D01*
X131535Y40785D01*
Y38424D01*
X132126Y37833D01*
X133307D01*
X133897Y38424D01*
X136849Y37833D02*
Y41375D01*
X135078Y39604D01*
X137439D01*
X162724Y72314D02*
X162133Y72904D01*
X160953D01*
X160362Y72314D01*
Y69952D01*
X160953Y69362D01*
X162133D01*
X162724Y69952D01*
X166266Y72904D02*
X165085Y72314D01*
X163904Y71133D01*
Y69952D01*
X164495Y69362D01*
X165675D01*
X166266Y69952D01*
Y70543D01*
X165675Y71133D01*
X163904D01*
X161295Y81101D02*
X163657Y77559D01*
Y81101D02*
X161295Y77559D01*
X164837D02*
X166018D01*
X165428D01*
Y81101D01*
X164837Y80511D01*
X137205Y102196D02*
Y99244D01*
X137795Y98654D01*
X138976D01*
X139566Y99244D01*
Y102196D01*
X142518Y98654D02*
Y102196D01*
X140747Y100425D01*
X143108D01*
X71614Y37095D02*
X68072D01*
Y38866D01*
X68662Y39456D01*
X69843D01*
X70433Y38866D01*
Y37095D01*
Y38275D02*
X71614Y39456D01*
Y40637D02*
Y41818D01*
Y41227D01*
X68072D01*
X68662Y40637D01*
X68072Y45950D02*
Y43589D01*
X69843D01*
X69253Y44769D01*
Y45360D01*
X69843Y45950D01*
X71024D01*
X71614Y45360D01*
Y44179D01*
X71024Y43589D01*
X66531Y72969D02*
Y76511D01*
X68303D01*
X68893Y75920D01*
Y74740D01*
X68303Y74149D01*
X66531D01*
X67712D02*
X68893Y72969D01*
X71845D02*
Y76511D01*
X70074Y74740D01*
X72435D01*
X53897Y73559D02*
Y75920D01*
X53307Y76511D01*
X52126D01*
X51535Y75920D01*
Y73559D01*
X52126Y72969D01*
X53307D01*
X52716Y74149D02*
X53897Y72969D01*
X53307D02*
X53897Y73559D01*
X55078Y72969D02*
X56258D01*
X55668D01*
Y76511D01*
X55078Y75920D01*
X84055Y100648D02*
Y97696D01*
X84645Y97106D01*
X85826D01*
X86417Y97696D01*
Y100648D01*
X87597Y100058D02*
X88188Y100648D01*
X89368D01*
X89959Y100058D01*
Y99467D01*
X89368Y98877D01*
X88778D01*
X89368D01*
X89959Y98287D01*
Y97696D01*
X89368Y97106D01*
X88188D01*
X87597Y97696D01*
X41340Y22047D02*
Y20866D01*
Y21456D01*
X44291D01*
X44882Y20866D01*
Y20275D01*
X44291Y19685D01*
X41930Y23227D02*
X41340Y23818D01*
Y24998D01*
X41930Y25589D01*
X42520D01*
X43111Y24998D01*
X43701Y25589D01*
X44291D01*
X44882Y24998D01*
Y23818D01*
X44291Y23227D01*
X43701D01*
X43111Y23818D01*
X42520Y23227D01*
X41930D01*
X43111Y23818D02*
Y24998D01*
X41340Y94881D02*
Y93700D01*
Y94291D01*
X44291D01*
X44882Y93700D01*
Y93110D01*
X44291Y92520D01*
X41340Y96062D02*
Y98423D01*
X41930D01*
X44291Y96062D01*
X44882D01*
X40946Y7283D02*
Y6102D01*
Y6692D01*
X43898D01*
X44488Y6102D01*
Y5512D01*
X43898Y4921D01*
X44488Y10825D02*
Y8463D01*
X42127Y10825D01*
X41536D01*
X40946Y10234D01*
Y9054D01*
X41536Y8463D01*
X81472Y73093D02*
X80881Y73684D01*
X79701D01*
X79110Y73093D01*
Y70732D01*
X79701Y70142D01*
X80881D01*
X81472Y70732D01*
X85014Y70142D02*
X82652D01*
X85014Y72503D01*
Y73093D01*
X84424Y73684D01*
X83243D01*
X82652Y73093D01*
X160953Y7282D02*
Y4330D01*
X161543Y3740D01*
X162724D01*
X163314Y4330D01*
Y7282D01*
X164495Y3740D02*
X165676D01*
X165085D01*
Y7282D01*
X164495Y6692D01*
X133897Y47871D02*
X133307Y48461D01*
X132126D01*
X131535Y47871D01*
Y45510D01*
X132126Y44919D01*
X133307D01*
X133897Y45510D01*
X137439Y48461D02*
X135078D01*
Y46690D01*
X136258Y47281D01*
X136849D01*
X137439Y46690D01*
Y45510D01*
X136849Y44919D01*
X135668D01*
X135078Y45510D01*
X81472Y39227D02*
X80881Y39818D01*
X79701D01*
X79110Y39227D01*
Y36866D01*
X79701Y36276D01*
X80881D01*
X81472Y36866D01*
X82652Y39818D02*
X85014D01*
Y39227D01*
X82652Y36866D01*
Y36276D01*
X95794Y3889D02*
X95204Y4479D01*
X94024D01*
X93433Y3889D01*
Y1527D01*
X94024Y937D01*
X95204D01*
X95794Y1527D01*
X96975Y3889D02*
X97566Y4479D01*
X98746D01*
X99337Y3889D01*
Y3298D01*
X98746Y2708D01*
X99337Y2118D01*
Y1527D01*
X98746Y937D01*
X97566D01*
X96975Y1527D01*
Y2118D01*
X97566Y2708D01*
X96975Y3298D01*
Y3889D01*
X97566Y2708D02*
X98746D01*
X133897Y26489D02*
X133307Y27079D01*
X132126D01*
X131535Y26489D01*
Y24128D01*
X132126Y23537D01*
X133307D01*
X133897Y24128D01*
X135078D02*
X135668Y23537D01*
X136849D01*
X137439Y24128D01*
Y26489D01*
X136849Y27079D01*
X135668D01*
X135078Y26489D01*
Y25899D01*
X135668Y25308D01*
X137439D01*
X107924Y3889D02*
X107334Y4479D01*
X106153D01*
X105563Y3889D01*
Y1527D01*
X106153Y937D01*
X107334D01*
X107924Y1527D01*
X109105Y937D02*
X110286D01*
X109696D01*
Y4479D01*
X109105Y3889D01*
X112057D02*
X112647Y4479D01*
X113828D01*
X114418Y3889D01*
Y1527D01*
X113828Y937D01*
X112647D01*
X112057Y1527D01*
Y3889D01*
X171653Y15157D02*
X171062Y15747D01*
X169882D01*
X169291Y15157D01*
Y12795D01*
X169882Y12205D01*
X171062D01*
X171653Y12795D01*
X172834Y12205D02*
X174014D01*
X173424D01*
Y15747D01*
X172834Y15157D01*
X126094Y58692D02*
Y55150D01*
X127866D01*
X128456Y55740D01*
Y58101D01*
X127866Y58692D01*
X126094D01*
X129637Y55150D02*
X130817D01*
X130227D01*
Y58692D01*
X129637Y58101D01*
X40946Y109251D02*
Y108071D01*
Y108661D01*
X43898D01*
X44488Y108071D01*
Y107480D01*
X43898Y106890D01*
X41536Y110432D02*
X40946Y111022D01*
Y112203D01*
X41536Y112793D01*
X42127D01*
X42717Y112203D01*
Y111613D01*
Y112203D01*
X43308Y112793D01*
X43898D01*
X44488Y112203D01*
Y111022D01*
X43898Y110432D01*
X160362Y55150D02*
Y58692D01*
X162133D01*
X162724Y58101D01*
Y56921D01*
X162133Y56330D01*
X160362D01*
X161543D02*
X162724Y55150D01*
X163904D02*
X165085D01*
X164495D01*
Y58692D01*
X163904Y58101D01*
X181417Y25630D02*
Y29172D01*
X183188D01*
X183779Y28582D01*
Y27401D01*
X183188Y26811D01*
X181417D01*
X182598D02*
X183779Y25630D01*
X187321D02*
X184959D01*
X187321Y27991D01*
Y28582D01*
X186731Y29172D01*
X185550D01*
X184959Y28582D01*
X188502Y25630D02*
X189682D01*
X189092D01*
Y29172D01*
X188502Y28582D01*
X50197Y37095D02*
X46655D01*
Y38866D01*
X47245Y39456D01*
X48426D01*
X49016Y38866D01*
Y37095D01*
Y38275D02*
X50197Y39456D01*
Y40637D02*
Y41818D01*
Y41227D01*
X46655D01*
X47245Y40637D01*
X50197Y45360D02*
X46655D01*
X48426Y43589D01*
Y45950D01*
X131535Y16041D02*
Y19583D01*
X133307D01*
X133897Y18993D01*
Y17812D01*
X133307Y17222D01*
X131535D01*
X132716D02*
X133897Y16041D01*
X137439Y19583D02*
X135078D01*
Y17812D01*
X136258Y18403D01*
X136849D01*
X137439Y17812D01*
Y16632D01*
X136849Y16041D01*
X135668D01*
X135078Y16632D01*
X160953Y38611D02*
Y42153D01*
X162724D01*
X163314Y41563D01*
Y40382D01*
X162724Y39792D01*
X160953D01*
X162134D02*
X163314Y38611D01*
X164495Y42153D02*
X166856D01*
Y41563D01*
X164495Y39201D01*
Y38611D01*
X79110Y50393D02*
Y47441D01*
X79701Y46850D01*
X80881D01*
X81472Y47441D01*
Y50393D01*
X85014Y46850D02*
X82652D01*
X85014Y49212D01*
Y49802D01*
X84424Y50393D01*
X83243D01*
X82652Y49802D01*
X83661Y21908D02*
Y21318D01*
X84842Y20137D01*
X86023Y21318D01*
Y21908D01*
X84842Y20137D02*
Y18366D01*
X87204D02*
X88384D01*
X87794D01*
Y21908D01*
X87204Y21318D01*
X181614Y90158D02*
Y93700D01*
X183385D01*
X183976Y93109D01*
Y91929D01*
X183385Y91338D01*
X181614D01*
X182795D02*
X183976Y90158D01*
X185156D02*
X186337D01*
X185747D01*
Y93700D01*
X185156Y93109D01*
X188108Y90158D02*
X189289D01*
X188698D01*
Y93700D01*
X188108Y93109D01*
X156072Y107472D02*
X155481Y106881D01*
Y105701D01*
X156072Y105110D01*
X158433D01*
X159024Y105701D01*
Y106881D01*
X158433Y107472D01*
X159024Y108652D02*
Y109833D01*
Y109243D01*
X155481D01*
X156072Y108652D01*
X159024Y113375D02*
X155481D01*
X157253Y111604D01*
Y113966D01*
X151306Y107472D02*
X150716Y106881D01*
Y105701D01*
X151306Y105110D01*
X153668D01*
X154258Y105701D01*
Y106881D01*
X153668Y107472D01*
X154258Y108652D02*
Y109833D01*
Y109243D01*
X150716D01*
X151306Y108652D01*
X150716Y113966D02*
Y111604D01*
X152487D01*
X151897Y112785D01*
Y113375D01*
X152487Y113966D01*
X153668D01*
X154258Y113375D01*
Y112195D01*
X153668Y111604D01*
X149493Y105110D02*
X145951D01*
Y106881D01*
X146541Y107472D01*
X147722D01*
X148312Y106881D01*
Y105110D01*
Y106291D02*
X149493Y107472D01*
Y108652D02*
Y109833D01*
Y109243D01*
X145951D01*
X146541Y108652D01*
X145951Y111604D02*
Y113966D01*
X146541D01*
X148902Y111604D01*
X149493D01*
X139962Y105110D02*
X136420D01*
Y106881D01*
X137010Y107472D01*
X138191D01*
X138781Y106881D01*
Y105110D01*
Y106291D02*
X139962Y107472D01*
Y108652D02*
Y109833D01*
Y109243D01*
X136420D01*
X137010Y108652D01*
X139372Y111604D02*
X139962Y112195D01*
Y113375D01*
X139372Y113966D01*
X137010D01*
X136420Y113375D01*
Y112195D01*
X137010Y111604D01*
X137601D01*
X138191Y112195D01*
Y113966D01*
X135197Y105110D02*
X131655D01*
Y106881D01*
X132245Y107472D01*
X133426D01*
X134016Y106881D01*
Y105110D01*
Y106291D02*
X135197Y107472D01*
Y111014D02*
Y108652D01*
X132835Y111014D01*
X132245D01*
X131655Y110424D01*
Y109243D01*
X132245Y108652D01*
Y112195D02*
X131655Y112785D01*
Y113966D01*
X132245Y114556D01*
X134607D01*
X135197Y113966D01*
Y112785D01*
X134607Y112195D01*
X132245D01*
X160362Y62256D02*
Y65798D01*
X162133D01*
X162724Y65208D01*
Y64027D01*
X162133Y63437D01*
X160362D01*
X161543D02*
X162724Y62256D01*
X166266D02*
X163904D01*
X166266Y64617D01*
Y65208D01*
X165675Y65798D01*
X164495D01*
X163904Y65208D01*
D17*
X146161Y63882D02*
D03*
X131610Y56787D02*
D03*
M02*
