G04*
G04 #@! TF.GenerationSoftware,Altium Limited,Altium Designer,19.0.4 (130)*
G04*
G04 Layer_Color=32896*
%FSLAX25Y25*%
%MOIN*%
G70*
G01*
G75*
%ADD11C,0.00787*%
%ADD16C,0.00591*%
%ADD60C,0.01968*%
G36*
X104519Y107128D02*
Y107088D01*
Y107048D01*
X104960Y104923D01*
X104960Y104843D01*
X105000Y104803D01*
X105041D01*
X106484Y104202D01*
X106644D01*
X108408Y105485D01*
X108528D01*
X108569Y105445D01*
X110132Y103961D01*
Y103921D01*
Y103881D01*
Y103841D01*
Y103801D01*
X108889Y101997D01*
Y101957D01*
Y101917D01*
Y101877D01*
Y101837D01*
X109491Y100353D01*
X109611Y100273D01*
X109651D01*
X111696Y99912D01*
X111736D01*
X111776Y99872D01*
Y99832D01*
Y99792D01*
Y97667D01*
Y97587D01*
X111736Y97547D01*
X111696D01*
X109691Y97146D01*
X109651D01*
X109611Y97106D01*
Y97066D01*
Y97026D01*
X108929Y95462D01*
Y95422D01*
Y95382D01*
Y95342D01*
Y95302D01*
X110132Y93618D01*
Y93578D01*
Y93538D01*
Y93498D01*
X108569Y91974D01*
X108488Y91934D01*
X108448D01*
X108408Y91974D01*
X106764Y93097D01*
X106644D01*
X105923Y92696D01*
X105802Y92736D01*
X105762D01*
X104279Y96384D01*
Y96505D01*
X104319Y96545D01*
X104519Y96625D01*
Y96665D01*
X104560D01*
X104600Y96705D01*
X104640Y96745D01*
X105000Y97026D01*
X105281Y97306D01*
X105441Y97627D01*
X105602Y97948D01*
X105682Y98228D01*
X105722Y98469D01*
Y98629D01*
Y98669D01*
X105682Y99030D01*
X105602Y99351D01*
X105522Y99632D01*
X105361Y99872D01*
X105241Y100073D01*
X105161Y100233D01*
X105081Y100313D01*
X105041Y100353D01*
X104760Y100594D01*
X104479Y100754D01*
X104199Y100915D01*
X103918Y100995D01*
X103718Y101035D01*
X103517Y101075D01*
X103357D01*
X102996Y101035D01*
X102675Y100955D01*
X102395Y100834D01*
X102154Y100714D01*
X101954Y100594D01*
X101793Y100473D01*
X101713Y100393D01*
X101673Y100353D01*
X101433Y100073D01*
X101272Y99792D01*
X101152Y99511D01*
X101072Y99271D01*
X101032Y99030D01*
X100991Y98830D01*
Y98709D01*
Y98669D01*
X101032Y98228D01*
X101152Y97828D01*
X101352Y97507D01*
X101513Y97226D01*
X101713Y97026D01*
X101914Y96865D01*
X102034Y96785D01*
X102074Y96745D01*
X102114Y96705D01*
X102154Y96665D01*
X102194Y96625D01*
X102395Y96545D01*
X102435Y96424D01*
Y96384D01*
X100911Y92736D01*
X100871Y92696D01*
X100791D01*
X100110Y93097D01*
X99949D01*
X98305Y91974D01*
X98225Y91934D01*
X98185D01*
X98145Y91974D01*
X96622Y93498D01*
Y93538D01*
Y93618D01*
X97784Y95302D01*
Y95342D01*
Y95382D01*
Y95422D01*
Y95462D01*
X97103Y97026D01*
Y97106D01*
X97063Y97146D01*
X97023D01*
X95018Y97547D01*
X94978Y97587D01*
X94938Y97627D01*
Y97667D01*
Y99792D01*
Y99872D01*
X94978Y99912D01*
X95018D01*
X97063Y100273D01*
X97143D01*
X97183Y100313D01*
Y100353D01*
X97824Y101837D01*
Y101877D01*
Y101917D01*
Y101997D01*
X96622Y103801D01*
Y103841D01*
Y103881D01*
Y103921D01*
Y103961D01*
X98145Y105445D01*
X98225Y105485D01*
X98305D01*
X100110Y104202D01*
X100230D01*
X101673Y104803D01*
X101713Y104843D01*
X101753Y104883D01*
X101753Y104923D01*
X102194Y107048D01*
Y107128D01*
X102234Y107168D01*
X104479D01*
X104519Y107128D01*
D02*
G37*
G36*
X111936Y84357D02*
X111535D01*
Y85680D01*
X111495Y85841D01*
X111455Y86001D01*
X111295Y86121D01*
X111174Y86201D01*
X111094D01*
X110934Y86161D01*
X110813Y86121D01*
X110653Y85961D01*
X110613Y85760D01*
Y85720D01*
Y85680D01*
Y84357D01*
X110172D01*
Y85841D01*
X110212Y86081D01*
X110292Y86282D01*
X110413Y86402D01*
X110533Y86522D01*
X110813Y86602D01*
X110934D01*
X111214Y86562D01*
X111415Y86482D01*
X111495Y86402D01*
X111535Y86362D01*
Y88126D01*
X111295Y88006D01*
X111094Y87925D01*
X110974Y87885D01*
X110934D01*
X110693Y87925D01*
X110493Y88046D01*
X110333Y88166D01*
X110292Y88206D01*
X110252Y88286D01*
X110212Y88406D01*
X110172Y88687D01*
Y88928D01*
Y89008D01*
Y89048D01*
Y89449D01*
X110212Y89729D01*
X110252Y89890D01*
X110292Y89930D01*
X110493Y90090D01*
X110733Y90170D01*
X110854Y90210D01*
X110934D01*
X111174Y90170D01*
X111375Y90090D01*
X111495Y89970D01*
X111535Y89930D01*
Y90210D01*
X111936D01*
Y84357D01*
D02*
G37*
G36*
X107606Y87925D02*
X107125D01*
Y89288D01*
X107085Y89449D01*
X107045Y89569D01*
X106885Y89729D01*
X106764Y89769D01*
X106524D01*
X106404Y89689D01*
X106243Y89529D01*
X106203Y89369D01*
Y89328D01*
Y89288D01*
Y87925D01*
X105762D01*
Y89409D01*
X105802Y89689D01*
X105883Y89890D01*
X106003Y90010D01*
X106123Y90130D01*
X106404Y90210D01*
X106524D01*
X106805Y90170D01*
X107005Y90090D01*
X107085Y89970D01*
X107125Y89930D01*
Y90210D01*
X107606D01*
Y87925D01*
D02*
G37*
G36*
X97784D02*
X97303D01*
Y89288D01*
X97263Y89449D01*
X97223Y89569D01*
X97063Y89729D01*
X96942Y89769D01*
X96862D01*
X96782Y89729D01*
X96702Y89689D01*
X96622Y89649D01*
Y89609D01*
X96261Y90050D01*
X96421Y90130D01*
X96582Y90210D01*
X96702D01*
X96983Y90170D01*
X97183Y90090D01*
X97263Y89970D01*
X97303Y89930D01*
Y90210D01*
X97784D01*
Y87925D01*
D02*
G37*
G36*
X100110Y88647D02*
X100069Y88406D01*
X99989Y88206D01*
X99869Y88086D01*
X99709Y87965D01*
X99428Y87885D01*
X99308D01*
X99107Y87925D01*
X98907Y88006D01*
X98786Y88086D01*
X98747Y88126D01*
Y87925D01*
X98305D01*
Y90210D01*
X98747D01*
Y88847D01*
Y88687D01*
X98827Y88567D01*
X98947Y88446D01*
X99067Y88366D01*
X99147D01*
X99308Y88406D01*
X99428Y88446D01*
X99548Y88607D01*
X99628Y88767D01*
Y88847D01*
Y90210D01*
X100110D01*
Y88647D01*
D02*
G37*
G36*
X95619Y90170D02*
X95860Y90050D01*
X96060Y89850D01*
X96181Y89649D01*
X96261Y89409D01*
X96301Y89248D01*
Y89088D01*
Y89048D01*
X96261Y88647D01*
X96141Y88366D01*
X95980Y88166D01*
X95780Y88046D01*
X95579Y87965D01*
X95419Y87885D01*
X95259D01*
X94938Y87965D01*
X94657Y88086D01*
X94497Y88206D01*
X94457Y88286D01*
X94818Y88607D01*
X94978Y88487D01*
X95098Y88406D01*
X95218Y88366D01*
X95259D01*
X95459Y88406D01*
X95619Y88487D01*
X95700Y88567D01*
X95780Y88727D01*
X95860Y88928D01*
Y89008D01*
Y89048D01*
X95820Y89288D01*
X95780Y89449D01*
X95660Y89609D01*
X95539Y89689D01*
X95339Y89769D01*
X95259D01*
X95058Y89729D01*
X94938Y89649D01*
X94858Y89569D01*
X94818Y89529D01*
X94457Y89850D01*
X94737Y90050D01*
X94978Y90170D01*
X95178Y90210D01*
X95259D01*
X95619Y90170D01*
D02*
G37*
G36*
X109250D02*
X109450Y90050D01*
X109611Y89850D01*
X109731Y89649D01*
X109811Y89409D01*
X109851Y89248D01*
Y89088D01*
Y89048D01*
X109811Y88647D01*
X109691Y88366D01*
X109531Y88166D01*
X109330Y88046D01*
X109170Y87965D01*
X109010Y87885D01*
X108849D01*
X108528Y87925D01*
X108248Y88086D01*
X108087Y88206D01*
X108007Y88246D01*
X108368Y88567D01*
X108528Y88406D01*
X108689Y88326D01*
X108809Y88286D01*
X108889D01*
X109050Y88326D01*
X109170Y88366D01*
X109330Y88567D01*
X109410Y88767D01*
Y88807D01*
Y88847D01*
X107967D01*
Y89288D01*
X108007Y89609D01*
X108127Y89810D01*
X108288Y89970D01*
X108448Y90090D01*
X108609Y90170D01*
X108769Y90210D01*
X108929D01*
X109250Y90170D01*
D02*
G37*
G36*
X93775D02*
X93976Y90050D01*
X94136Y89850D01*
X94256Y89649D01*
X94336Y89409D01*
X94377Y89248D01*
Y89088D01*
Y89048D01*
X94336Y88647D01*
X94216Y88366D01*
X94056Y88166D01*
X93856Y88046D01*
X93655Y87965D01*
X93495Y87885D01*
X93334D01*
X93014Y87925D01*
X92773Y88086D01*
X92613Y88206D01*
X92532Y88246D01*
X92893Y88567D01*
X93014Y88406D01*
X93174Y88326D01*
X93294Y88286D01*
X93334D01*
X93535Y88326D01*
X93655Y88366D01*
X93815Y88567D01*
X93896Y88767D01*
Y88807D01*
Y88847D01*
X92452D01*
Y89288D01*
X92492Y89609D01*
X92613Y89810D01*
X92773Y89970D01*
X92933Y90090D01*
X93134Y90170D01*
X93294Y90210D01*
X93455D01*
X93775Y90170D01*
D02*
G37*
G36*
X113580D02*
X113780Y90090D01*
X113941Y89970D01*
X113981Y89930D01*
X114101Y89649D01*
X114141Y89369D01*
X114181Y89128D01*
Y89088D01*
Y89048D01*
X114141Y88687D01*
X114061Y88406D01*
X114021Y88246D01*
X113981Y88206D01*
X113740Y88006D01*
X113500Y87925D01*
X113339Y87885D01*
X113259D01*
X112978Y87925D01*
X112778Y88046D01*
X112658Y88166D01*
X112618Y88206D01*
X112457Y88446D01*
X112417Y88727D01*
X112377Y88968D01*
Y89008D01*
Y89048D01*
X112417Y89449D01*
X112497Y89729D01*
X112577Y89890D01*
X112618Y89930D01*
X112778Y90090D01*
X112978Y90170D01*
X113179Y90210D01*
X113259D01*
X113580Y90170D01*
D02*
G37*
G36*
X103838D02*
X104038Y90090D01*
X104199Y90010D01*
X104279Y89890D01*
X104399Y89649D01*
Y89569D01*
Y89529D01*
X104359Y89328D01*
X104279Y89168D01*
X104078Y88968D01*
X103838Y88888D01*
X103798Y88847D01*
X103357D01*
X103156Y88767D01*
X103076Y88687D01*
X103036Y88647D01*
Y88607D01*
Y88487D01*
X103116Y88406D01*
X103277Y88326D01*
X103437Y88286D01*
X103517D01*
X103798Y88326D01*
X104038Y88446D01*
X104199Y88567D01*
X104239Y88607D01*
X104519Y88286D01*
X104199Y88046D01*
X103878Y87925D01*
X103637Y87885D01*
X103557D01*
X103236Y87925D01*
X102996Y88006D01*
X102836Y88126D01*
X102715Y88246D01*
X102635Y88366D01*
X102595Y88487D01*
Y88567D01*
Y88607D01*
X102635Y88807D01*
X102675Y88968D01*
X102916Y89168D01*
X103116Y89248D01*
X103196Y89288D01*
X103236D01*
X103677Y89328D01*
X103838Y89369D01*
X103918Y89449D01*
X103958Y89489D01*
Y89529D01*
X103878Y89689D01*
X103758Y89729D01*
X103637Y89769D01*
X103557D01*
X103397Y89729D01*
X103196Y89689D01*
X103036Y89609D01*
X102956Y89569D01*
X102675Y89890D01*
X102956Y90090D01*
X103236Y90170D01*
X103477Y90210D01*
X103557D01*
X103838Y90170D01*
D02*
G37*
G36*
X101713D02*
X101954Y90090D01*
X102074Y89970D01*
X102114Y89930D01*
X102234Y89689D01*
X102314Y89369D01*
X102355Y89128D01*
Y89088D01*
Y89048D01*
X102314Y88687D01*
X102234Y88406D01*
X102154Y88246D01*
X102114Y88206D01*
X101874Y88006D01*
X101673Y87925D01*
X101513Y87885D01*
X101433D01*
X101112Y87925D01*
X100911Y88046D01*
X100791Y88166D01*
X100751Y88206D01*
X100591Y88446D01*
X100550Y88727D01*
X100510Y88968D01*
Y89008D01*
Y89048D01*
X100550Y89449D01*
X100631Y89729D01*
X100711Y89890D01*
X100751Y89930D01*
X100951Y90090D01*
X101152Y90170D01*
X101352Y90210D01*
X101433D01*
X101713Y90170D01*
D02*
G37*
G36*
X107486Y84357D02*
X107045D01*
Y85680D01*
Y85841D01*
X106965Y86001D01*
X106845Y86121D01*
X106724Y86201D01*
X106644D01*
X106524Y86161D01*
X106404Y86121D01*
X106364Y86081D01*
X106324Y86041D01*
X105963Y86442D01*
X106163Y86522D01*
X106324Y86602D01*
X106484D01*
X106724Y86562D01*
X106885Y86482D01*
X107005Y86402D01*
X107045Y86362D01*
Y86602D01*
X107486D01*
Y84357D01*
D02*
G37*
G36*
X98346D02*
X97905D01*
Y85680D01*
X97865Y85841D01*
X97824Y86001D01*
X97664Y86121D01*
X97544Y86201D01*
X97464D01*
X97383Y86161D01*
X97263Y86121D01*
X97223Y86081D01*
X97183Y86041D01*
X96822Y86442D01*
X96983Y86522D01*
X97143Y86602D01*
X97263D01*
X97544Y86562D01*
X97744Y86482D01*
X97865Y86402D01*
X97905Y86362D01*
Y86602D01*
X98346D01*
Y84357D01*
D02*
G37*
G36*
X109290Y86562D02*
X109531Y86482D01*
X109691Y86362D01*
X109731Y86322D01*
X109410Y86041D01*
X109250Y86121D01*
X109090Y86201D01*
X108769D01*
X108689Y86161D01*
X108528Y86041D01*
X108488Y85921D01*
Y85881D01*
Y85680D01*
X109090D01*
X109330Y85640D01*
X109531Y85600D01*
X109651Y85480D01*
X109771Y85360D01*
X109851Y85159D01*
Y85079D01*
Y85039D01*
X109811Y84798D01*
X109731Y84638D01*
X109611Y84478D01*
X109450Y84397D01*
X109170Y84317D01*
X109050D01*
X108769Y84357D01*
X108609Y84438D01*
X108528Y84518D01*
X108488Y84558D01*
Y84357D01*
X108007D01*
Y85881D01*
X108047Y86121D01*
X108168Y86282D01*
X108328Y86442D01*
X108488Y86522D01*
X108649Y86562D01*
X108809Y86602D01*
X108969D01*
X109290Y86562D01*
D02*
G37*
G36*
X100150D02*
X100390Y86482D01*
X100510Y86362D01*
X100550Y86322D01*
X100190Y86041D01*
X100110Y86121D01*
X99949Y86201D01*
X99628D01*
X99508Y86161D01*
X99348Y86041D01*
X99308Y85921D01*
Y85881D01*
Y85680D01*
X99949D01*
X100190Y85640D01*
X100390Y85600D01*
X100510Y85480D01*
X100631Y85360D01*
X100711Y85159D01*
Y85079D01*
Y85039D01*
X100671Y84798D01*
X100591Y84638D01*
X100430Y84478D01*
X100270Y84397D01*
X99989Y84317D01*
X99869D01*
X99628Y84357D01*
X99428Y84438D01*
X99348Y84518D01*
X99308Y84558D01*
Y84357D01*
X98867D01*
Y85881D01*
X98907Y86121D01*
X99027Y86282D01*
X99147Y86442D01*
X99308Y86522D01*
X99508Y86562D01*
X99628Y86602D01*
X99989D01*
X100150Y86562D01*
D02*
G37*
G36*
X103196Y84357D02*
X102796D01*
X102355Y85961D01*
X101833Y84357D01*
X101433D01*
X100711Y86602D01*
X101192D01*
X101633Y85039D01*
X102114Y86602D01*
X102475D01*
X102996Y85039D01*
X103477Y86602D01*
X103918D01*
X103196Y84357D01*
D02*
G37*
G36*
X96221Y86562D02*
X96421Y86442D01*
X96582Y86242D01*
X96702Y86041D01*
X96782Y85841D01*
X96822Y85640D01*
Y85520D01*
Y85480D01*
X96782Y85079D01*
X96662Y84798D01*
X96501Y84598D01*
X96301Y84478D01*
X96100Y84397D01*
X95940Y84317D01*
X95780D01*
X95459Y84357D01*
X95218Y84518D01*
X95058Y84638D01*
X94978Y84678D01*
X95339Y84959D01*
X95499Y84838D01*
X95660Y84758D01*
X95780Y84718D01*
X95860D01*
X96020Y84758D01*
X96141Y84798D01*
X96261Y84999D01*
X96341Y85199D01*
Y85239D01*
Y85279D01*
X94938D01*
Y85680D01*
X94978Y86001D01*
X95098Y86201D01*
X95259Y86362D01*
X95419Y86482D01*
X95579Y86562D01*
X95740Y86602D01*
X95900D01*
X96221Y86562D01*
D02*
G37*
G36*
X104640Y86362D02*
X104840Y86522D01*
X105000Y86562D01*
X105161Y86602D01*
X105201D01*
X105482Y86562D01*
X105682Y86482D01*
X105762Y86402D01*
X105802Y86362D01*
X105842Y86282D01*
X105883Y86161D01*
X105923Y85881D01*
X105963Y85600D01*
Y85520D01*
Y85480D01*
Y85239D01*
X105923Y85039D01*
Y84878D01*
X105883Y84758D01*
X105842Y84638D01*
X105802Y84598D01*
X105642Y84438D01*
X105441Y84357D01*
X105281Y84317D01*
X105201D01*
X104960Y84357D01*
X104800Y84438D01*
X104680Y84518D01*
X104640Y84558D01*
Y84357D01*
X104159D01*
Y87524D01*
X104640D01*
Y86362D01*
D02*
G37*
G36*
X116924Y81351D02*
X116990Y81340D01*
X117099Y81296D01*
X117143Y81263D01*
X117176Y81242D01*
X117186Y81231D01*
X117197Y81220D01*
X117241Y81165D01*
X117274Y81110D01*
X117318Y81001D01*
X117329Y80946D01*
X117340Y80914D01*
Y80892D01*
Y80881D01*
X117329Y80804D01*
X117318Y80739D01*
X117263Y80629D01*
X117241Y80586D01*
X117219Y80553D01*
X117208Y80542D01*
X117197Y80531D01*
X117143Y80487D01*
X117088Y80455D01*
X116979Y80422D01*
X116924Y80411D01*
X116891Y80400D01*
X116859D01*
X116782Y80411D01*
X116727Y80422D01*
X116618Y80466D01*
X116574Y80487D01*
X116542Y80509D01*
X116531Y80531D01*
X116520D01*
X116465Y80586D01*
X116432Y80651D01*
X116389Y80761D01*
X116378Y80804D01*
X116367Y80848D01*
Y80870D01*
Y80881D01*
X116378Y80957D01*
X116389Y81012D01*
X116443Y81121D01*
X116476Y81165D01*
X116498Y81198D01*
X116509Y81209D01*
X116520Y81220D01*
X116574Y81263D01*
X116629Y81307D01*
X116738Y81340D01*
X116793Y81351D01*
X116826Y81362D01*
X116859D01*
X116924Y81351D01*
D02*
G37*
G36*
X88430Y80914D02*
X88517Y80881D01*
X88583Y80837D01*
X88594Y80826D01*
X88605Y80815D01*
X88648Y80771D01*
X88670Y80728D01*
X88714Y80629D01*
X88725Y80564D01*
Y80542D01*
Y80531D01*
Y80466D01*
Y80378D01*
X88714Y80214D01*
Y80138D01*
X88703Y80072D01*
Y80028D01*
Y80017D01*
X88692Y79897D01*
Y79788D01*
X88681Y79689D01*
Y79613D01*
Y79547D01*
Y79504D01*
Y79471D01*
Y79460D01*
X89556Y79526D01*
X89621D01*
X89676Y79504D01*
X89763Y79471D01*
X89818Y79427D01*
X89840Y79416D01*
Y79405D01*
X89905Y79307D01*
X89938Y79208D01*
Y79165D01*
X89949Y79132D01*
Y79110D01*
Y79099D01*
X89938Y78979D01*
X89894Y78881D01*
X89840Y78815D01*
X89763Y78760D01*
X89698Y78728D01*
X89643Y78706D01*
X89599Y78695D01*
X89588D01*
X89370Y78673D01*
X89184Y78662D01*
X89020Y78651D01*
X88889Y78640D01*
X88790D01*
X88714Y78629D01*
X88659D01*
X88583Y76203D01*
Y76137D01*
Y76061D01*
X88594Y75908D01*
Y75842D01*
X88605Y75787D01*
Y75744D01*
Y75733D01*
Y75624D01*
X88616Y75525D01*
Y75449D01*
Y75383D01*
Y75328D01*
Y75296D01*
Y75274D01*
Y75263D01*
X88605Y75208D01*
X88594Y75153D01*
X88550Y75077D01*
X88517Y75022D01*
X88495Y75001D01*
X88397Y74935D01*
X88298Y74902D01*
X88222Y74891D01*
X88200D01*
X88124Y74902D01*
X88047Y74935D01*
X87993Y74979D01*
X87938Y75033D01*
X87861Y75175D01*
X87818Y75350D01*
X87785Y75514D01*
X87763Y75656D01*
Y75711D01*
Y75755D01*
Y75787D01*
Y75798D01*
Y76006D01*
X87774Y76192D01*
X87840Y78640D01*
X87686Y78662D01*
X87555Y78673D01*
X87457Y78684D01*
X87391D01*
X87337Y78695D01*
X87151D01*
X87107Y78684D01*
X86878D01*
X86757Y78706D01*
X86659Y78738D01*
X86604Y78771D01*
X86582Y78793D01*
X86539Y78837D01*
X86517Y78892D01*
X86473Y78990D01*
Y79034D01*
X86462Y79066D01*
Y79088D01*
Y79099D01*
X86473Y79198D01*
X86506Y79285D01*
X86550Y79351D01*
X86593Y79405D01*
X86637Y79438D01*
X86681Y79460D01*
X86714Y79482D01*
X86725D01*
X86790Y79493D01*
X86867Y79504D01*
X87053Y79526D01*
X87326D01*
X87402Y79515D01*
X87501Y79504D01*
X87610Y79493D01*
X87708Y79482D01*
X87796Y79471D01*
X87850Y79460D01*
X87872D01*
Y79711D01*
X87861Y79952D01*
Y80105D01*
Y80225D01*
X87872Y80269D01*
Y80301D01*
Y80313D01*
Y80323D01*
X87883Y80433D01*
X87905Y80531D01*
X87938Y80608D01*
X87971Y80673D01*
X88036Y80782D01*
X88113Y80859D01*
X88189Y80903D01*
X88255Y80924D01*
X88288Y80936D01*
X88375D01*
X88430Y80914D01*
D02*
G37*
G36*
X104278Y79460D02*
X104442Y79438D01*
X104595Y79394D01*
X104737Y79351D01*
X104989Y79220D01*
X105109Y79143D01*
X105207Y79077D01*
X105306Y79001D01*
X105382Y78924D01*
X105448Y78859D01*
X105502Y78793D01*
X105557Y78750D01*
X105590Y78706D01*
X105601Y78684D01*
X105612Y78673D01*
X105699Y78531D01*
X105776Y78389D01*
X105907Y78083D01*
X105994Y77788D01*
X106060Y77504D01*
X106082Y77372D01*
X106093Y77252D01*
X106114Y77143D01*
Y77055D01*
X106125Y76979D01*
Y76913D01*
Y76880D01*
Y76869D01*
X106114Y76706D01*
X106104Y76542D01*
X106071Y76389D01*
X106027Y76257D01*
X105929Y76006D01*
X105808Y75798D01*
X105754Y75711D01*
X105699Y75634D01*
X105644Y75580D01*
X105601Y75525D01*
X105557Y75481D01*
X105524Y75449D01*
X105513Y75438D01*
X105502Y75427D01*
X105273Y75274D01*
X105021Y75164D01*
X104770Y75077D01*
X104530Y75022D01*
X104322Y74990D01*
X104224Y74979D01*
X104147D01*
X104081Y74968D01*
X103994D01*
X103764Y74979D01*
X103546Y75011D01*
X103338Y75055D01*
X103152Y75110D01*
X102988Y75153D01*
X102923Y75175D01*
X102868Y75197D01*
X102824Y75219D01*
X102792Y75230D01*
X102770Y75241D01*
X102759D01*
X102628Y75306D01*
X102518Y75372D01*
X102409Y75438D01*
X102333Y75514D01*
X102256Y75580D01*
X102201Y75645D01*
X102103Y75766D01*
X102059Y75875D01*
X102027Y75962D01*
X102016Y76017D01*
Y76039D01*
Y76094D01*
X102038Y76137D01*
X102070Y76214D01*
X102114Y76268D01*
X102125Y76290D01*
X102136D01*
X102180Y76334D01*
X102223Y76356D01*
X102300Y76399D01*
X102365Y76411D01*
X102387D01*
X102442Y76399D01*
X102507Y76378D01*
X102606Y76301D01*
X102672Y76214D01*
X102682Y76192D01*
X102693Y76181D01*
X102759Y76104D01*
X102846Y76028D01*
X102956Y75973D01*
X103054Y75919D01*
X103152Y75875D01*
X103240Y75842D01*
X103295Y75831D01*
X103305Y75820D01*
X103316D01*
X103458Y75788D01*
X103579Y75766D01*
X103699Y75744D01*
X103797Y75733D01*
X103874D01*
X103928Y75722D01*
X103983D01*
X104147Y75733D01*
X104300Y75744D01*
X104442Y75776D01*
X104562Y75809D01*
X104661Y75831D01*
X104726Y75864D01*
X104781Y75875D01*
X104792Y75886D01*
X104912Y75962D01*
X105021Y76039D01*
X105120Y76126D01*
X105207Y76214D01*
X105273Y76290D01*
X105316Y76356D01*
X105349Y76399D01*
X105360Y76411D01*
X103786Y77154D01*
X103557Y77263D01*
X103371Y77350D01*
X103218Y77438D01*
X103098Y77504D01*
X103010Y77547D01*
X102956Y77580D01*
X102923Y77602D01*
X102912Y77613D01*
X102824Y77678D01*
X102759Y77744D01*
X102639Y77875D01*
X102551Y77995D01*
X102497Y78115D01*
X102464Y78214D01*
X102453Y78301D01*
X102442Y78345D01*
Y78367D01*
X102453Y78476D01*
X102464Y78575D01*
X102529Y78750D01*
X102606Y78892D01*
X102704Y79012D01*
X102803Y79110D01*
X102890Y79176D01*
X102956Y79220D01*
X102967Y79230D01*
X102978D01*
X103152Y79307D01*
X103338Y79373D01*
X103524Y79416D01*
X103699Y79438D01*
X103863Y79460D01*
X103983Y79471D01*
X104103D01*
X104278Y79460D01*
D02*
G37*
G36*
X108585Y79536D02*
X108727Y79504D01*
X108869Y79460D01*
X108989Y79394D01*
X109120Y79318D01*
X109230Y79230D01*
X109437Y79056D01*
X109601Y78870D01*
X109678Y78782D01*
X109732Y78706D01*
X109776Y78640D01*
X109809Y78597D01*
X109831Y78564D01*
X109842Y78553D01*
X109940Y78389D01*
X110027Y78225D01*
X110104Y78061D01*
X110159Y77908D01*
X110268Y77613D01*
X110333Y77350D01*
X110355Y77230D01*
X110366Y77132D01*
X110377Y77034D01*
X110388Y76957D01*
X110399Y76902D01*
Y76859D01*
Y76826D01*
Y76815D01*
X110388Y76651D01*
X110377Y76498D01*
X110311Y76225D01*
X110213Y75984D01*
X110104Y75776D01*
X109995Y75613D01*
X109940Y75547D01*
X109896Y75492D01*
X109863Y75449D01*
X109831Y75416D01*
X109820Y75405D01*
X109809Y75394D01*
X109699Y75306D01*
X109579Y75230D01*
X109350Y75099D01*
X109109Y75011D01*
X108891Y74957D01*
X108694Y74913D01*
X108607Y74902D01*
X108541D01*
X108475Y74891D01*
X108399D01*
X108257Y74902D01*
X108093Y74935D01*
X107940Y74968D01*
X107798Y75022D01*
X107667Y75066D01*
X107557Y75099D01*
X107492Y75132D01*
X107481Y75143D01*
X107470D01*
X107360Y75197D01*
X107251Y75241D01*
X107175Y75296D01*
X107098Y75350D01*
X107033Y75394D01*
X106978Y75449D01*
X106901Y75536D01*
X106858Y75613D01*
X106836Y75667D01*
X106825Y75711D01*
Y75722D01*
Y75776D01*
X106847Y75831D01*
X106879Y75919D01*
X106923Y75973D01*
X106934Y75995D01*
X106945D01*
X106989Y76039D01*
X107033Y76072D01*
X107120Y76115D01*
X107186Y76126D01*
X107207D01*
X107262Y76115D01*
X107317Y76094D01*
X107360Y76061D01*
X107371Y76050D01*
X107382D01*
X107863Y75798D01*
X107973Y75755D01*
X108071Y75722D01*
X108158Y75700D01*
X108235Y75689D01*
X108300Y75678D01*
X108355Y75667D01*
X108399D01*
X108596Y75678D01*
X108770Y75711D01*
X108923Y75755D01*
X109044Y75809D01*
X109153Y75864D01*
X109219Y75908D01*
X109273Y75941D01*
X109284Y75951D01*
X109404Y76083D01*
X109503Y76225D01*
X109568Y76367D01*
X109612Y76498D01*
X109634Y76629D01*
X109645Y76727D01*
X109656Y76793D01*
Y76804D01*
Y76815D01*
X109645Y77012D01*
X109601Y77219D01*
X109536Y77416D01*
X109470Y77602D01*
X109404Y77766D01*
X109372Y77842D01*
X109339Y77897D01*
X109317Y77952D01*
X109295Y77984D01*
X109284Y78006D01*
Y78017D01*
X109208Y78148D01*
X109131Y78269D01*
X109055Y78367D01*
X108978Y78454D01*
X108902Y78531D01*
X108836Y78585D01*
X108770Y78640D01*
X108705Y78673D01*
X108596Y78728D01*
X108519Y78760D01*
X108464Y78771D01*
X108442D01*
X108246Y78760D01*
X108082Y78738D01*
X107951Y78706D01*
X107841Y78673D01*
X107754Y78640D01*
X107688Y78607D01*
X107656Y78585D01*
X107645Y78575D01*
X107590Y78520D01*
X107535Y78476D01*
X107492Y78443D01*
X107481Y78433D01*
X107404Y78400D01*
X107339Y78378D01*
X107284Y78367D01*
X107262D01*
X107207Y78378D01*
X107153Y78389D01*
X107076Y78433D01*
X107033Y78465D01*
X107011Y78487D01*
X106945Y78585D01*
X106912Y78673D01*
X106901Y78738D01*
Y78750D01*
Y78760D01*
X106912Y78826D01*
X106923Y78892D01*
X106956Y78946D01*
X107000Y79001D01*
X107098Y79099D01*
X107218Y79187D01*
X107339Y79252D01*
X107437Y79307D01*
X107481Y79329D01*
X107502Y79340D01*
X107524Y79351D01*
X107535D01*
X107721Y79416D01*
X107885Y79460D01*
X108038Y79504D01*
X108180Y79526D01*
X108290Y79536D01*
X108366Y79547D01*
X108442D01*
X108585Y79536D01*
D02*
G37*
G36*
X93993Y81515D02*
X94081Y81471D01*
X94146Y81427D01*
X94157Y81416D01*
X94168Y81406D01*
X94234Y81307D01*
X94266Y81209D01*
Y81176D01*
X94277Y81143D01*
Y81121D01*
Y81110D01*
Y80684D01*
Y80269D01*
X94288Y79864D01*
X94299Y79471D01*
Y79110D01*
X94310Y78760D01*
X94321Y78433D01*
X94332Y78137D01*
X94343Y77864D01*
X94354Y77624D01*
X94365Y77416D01*
Y77230D01*
X94376Y77088D01*
X94387Y76990D01*
Y76924D01*
Y76913D01*
Y76902D01*
X94463Y75536D01*
X94452Y75372D01*
X94430Y75241D01*
X94387Y75132D01*
X94343Y75044D01*
X94299Y74979D01*
X94255Y74935D01*
X94234Y74913D01*
X94223Y74902D01*
X94146Y74858D01*
X94048Y74826D01*
X93851Y74793D01*
X93764Y74782D01*
X93687Y74771D01*
X93621D01*
X93392Y74782D01*
X93141Y74793D01*
X92889Y74826D01*
X92649Y74858D01*
X92441Y74880D01*
X92343Y74902D01*
X92266Y74913D01*
X92200Y74924D01*
X92157D01*
X92124Y74935D01*
X92113D01*
X91927Y74968D01*
X91763Y75001D01*
X91599Y75033D01*
X91457Y75066D01*
X91326Y75099D01*
X91206Y75132D01*
X91097Y75164D01*
X90998Y75197D01*
X90922Y75219D01*
X90845Y75241D01*
X90791Y75263D01*
X90736Y75285D01*
X90692Y75296D01*
X90670Y75306D01*
X90649Y75317D01*
X90561Y75372D01*
X90496Y75427D01*
X90441Y75492D01*
X90408Y75558D01*
X90386Y75613D01*
X90375Y75656D01*
Y75689D01*
Y75700D01*
X90397Y75820D01*
X90430Y75919D01*
X90463Y75984D01*
X90484Y75995D01*
Y76006D01*
X90528Y76050D01*
X90583Y76094D01*
X90681Y76126D01*
X90714Y76137D01*
X90747Y76148D01*
X90823D01*
X90867Y76137D01*
X90900Y76126D01*
X90911D01*
X91217Y76039D01*
X91501Y75951D01*
X91774Y75886D01*
X92037Y75831D01*
X92277Y75776D01*
X92507Y75733D01*
X92714Y75700D01*
X92900Y75678D01*
X93064Y75656D01*
X93217Y75645D01*
X93348Y75634D01*
X93447Y75624D01*
X93643D01*
Y75831D01*
Y75929D01*
X93632Y76028D01*
Y76104D01*
X93621Y76170D01*
Y76214D01*
Y76225D01*
X93567Y76859D01*
X93534Y77591D01*
X93501Y78334D01*
X93490Y78695D01*
X93479Y79045D01*
Y79383D01*
X93468Y79700D01*
Y79996D01*
X93458Y80269D01*
Y80509D01*
Y80717D01*
Y80881D01*
Y80946D01*
Y81001D01*
Y81056D01*
Y81089D01*
Y81099D01*
Y81110D01*
Y81176D01*
X93479Y81231D01*
X93512Y81329D01*
X93556Y81384D01*
X93567Y81406D01*
X93578D01*
X93621Y81449D01*
X93676Y81482D01*
X93774Y81526D01*
X93807D01*
X93840Y81537D01*
X93938D01*
X93993Y81515D01*
D02*
G37*
G36*
X111568Y79711D02*
X111623Y79690D01*
X111722Y79624D01*
X111787Y79558D01*
X111798Y79536D01*
X111809Y79526D01*
X111896Y79416D01*
X111995Y79296D01*
X112104Y79176D01*
X112224Y79056D01*
X112334Y78946D01*
X112421Y78859D01*
X112476Y78804D01*
X112487Y78793D01*
X112497Y78782D01*
X113306Y78039D01*
X114028Y79023D01*
X114115Y79132D01*
X114203Y79241D01*
X114279Y79318D01*
X114345Y79394D01*
X114410Y79460D01*
X114476Y79515D01*
X114574Y79591D01*
X114662Y79635D01*
X114716Y79657D01*
X114749Y79668D01*
X114815D01*
X114869Y79646D01*
X114957Y79602D01*
X115011Y79558D01*
X115022Y79547D01*
X115033Y79536D01*
X115099Y79438D01*
X115132Y79340D01*
X115143Y79274D01*
Y79252D01*
Y79241D01*
X115132Y79187D01*
X115121Y79121D01*
X115066Y79023D01*
X115011Y78957D01*
X115000Y78946D01*
X114990Y78935D01*
X114891Y78848D01*
X114804Y78738D01*
X114705Y78618D01*
X114618Y78509D01*
X114541Y78411D01*
X114476Y78323D01*
X114432Y78269D01*
X114421Y78258D01*
Y78247D01*
X113875Y77471D01*
X114760Y76542D01*
X114804Y76498D01*
X114858Y76454D01*
X114979Y76345D01*
X115033Y76290D01*
X115088Y76247D01*
X115121Y76214D01*
X115132Y76203D01*
X115219Y76126D01*
X115285Y76050D01*
X115350Y75984D01*
X115405Y75941D01*
X115438Y75897D01*
X115471Y75864D01*
X115481Y75842D01*
X115492Y75831D01*
X115547Y75733D01*
X115580Y75656D01*
X115591Y75591D01*
Y75580D01*
Y75569D01*
X115580Y75514D01*
X115569Y75460D01*
X115525Y75361D01*
X115492Y75306D01*
X115471Y75296D01*
Y75285D01*
X115427Y75241D01*
X115372Y75219D01*
X115285Y75175D01*
X115219Y75164D01*
X115197D01*
X115143Y75175D01*
X115088Y75186D01*
X114990Y75241D01*
X114924Y75285D01*
X114913Y75296D01*
X114902Y75306D01*
X114738Y75471D01*
X114596Y75613D01*
X114476Y75733D01*
X114377Y75831D01*
X114301Y75897D01*
X114246Y75951D01*
X114214Y75984D01*
X114203Y75995D01*
X113394Y76826D01*
X113219Y76596D01*
X113055Y76389D01*
X112913Y76203D01*
X112771Y76028D01*
X112651Y75875D01*
X112541Y75733D01*
X112443Y75613D01*
X112355Y75503D01*
X112279Y75416D01*
X112213Y75328D01*
X112159Y75274D01*
X112115Y75219D01*
X112082Y75175D01*
X112060Y75153D01*
X112039Y75132D01*
X111995Y75077D01*
X111940Y75033D01*
X111896Y75011D01*
X111853Y74990D01*
X111776Y74968D01*
X111754D01*
X111700Y74979D01*
X111645Y74990D01*
X111558Y75033D01*
X111503Y75066D01*
X111481Y75088D01*
X111437Y75132D01*
X111405Y75186D01*
X111361Y75274D01*
X111350Y75350D01*
Y75361D01*
Y75372D01*
X111372Y75471D01*
X111405Y75558D01*
X111437Y75613D01*
X111459Y75624D01*
Y75634D01*
X112814Y77394D01*
X112082Y78127D01*
X111481Y78695D01*
X111350Y78837D01*
X111251Y78957D01*
X111186Y79066D01*
X111131Y79154D01*
X111109Y79220D01*
X111099Y79274D01*
X111088Y79307D01*
Y79318D01*
Y79373D01*
X111109Y79427D01*
X111153Y79526D01*
X111197Y79580D01*
X111208Y79602D01*
X111219D01*
X111262Y79646D01*
X111317Y79668D01*
X111405Y79711D01*
X111470Y79722D01*
X111503D01*
X111568Y79711D01*
D02*
G37*
G36*
X117110Y79373D02*
X117208Y79340D01*
X117263Y79296D01*
X117285Y79285D01*
Y79274D01*
X117350Y79176D01*
X117383Y79077D01*
Y79034D01*
X117394Y79001D01*
Y78979D01*
Y78968D01*
Y78815D01*
X117405Y78651D01*
Y78487D01*
X117416Y78334D01*
X117427Y78203D01*
Y78094D01*
X117438Y78050D01*
Y78017D01*
Y78006D01*
Y77995D01*
X117449Y77788D01*
X117460Y77602D01*
Y77438D01*
X117471Y77296D01*
Y77176D01*
Y77088D01*
Y77044D01*
Y77022D01*
Y76924D01*
Y76804D01*
Y76684D01*
X117460Y76564D01*
Y76454D01*
Y76367D01*
Y76301D01*
Y76290D01*
Y76279D01*
Y76104D01*
X117449Y75951D01*
Y75831D01*
Y75722D01*
Y75645D01*
Y75580D01*
Y75547D01*
Y75536D01*
X117427Y75416D01*
X117394Y75328D01*
X117361Y75263D01*
X117340Y75252D01*
Y75241D01*
X117252Y75175D01*
X117154Y75143D01*
X117110D01*
X117077Y75132D01*
X117044D01*
X116924Y75153D01*
X116837Y75186D01*
X116782Y75219D01*
X116760Y75241D01*
X116717Y75285D01*
X116695Y75339D01*
X116651Y75438D01*
Y75471D01*
X116640Y75503D01*
Y75525D01*
Y75536D01*
Y75645D01*
Y75755D01*
Y75886D01*
Y76006D01*
X116651Y76115D01*
Y76203D01*
Y76257D01*
Y76279D01*
Y76454D01*
X116662Y76607D01*
Y76738D01*
Y76837D01*
Y76924D01*
Y76979D01*
Y77012D01*
Y77022D01*
Y77176D01*
X116651Y77340D01*
Y77504D01*
X116640Y77657D01*
Y77788D01*
X116629Y77897D01*
Y77941D01*
Y77974D01*
Y77984D01*
Y77995D01*
X116618Y78203D01*
X116607Y78400D01*
X116596Y78564D01*
X116585Y78706D01*
Y78815D01*
Y78903D01*
Y78946D01*
Y78968D01*
Y79034D01*
X116607Y79099D01*
X116640Y79187D01*
X116684Y79252D01*
X116695Y79274D01*
X116706D01*
X116749Y79318D01*
X116793Y79340D01*
X116891Y79383D01*
X116957Y79394D01*
X117055D01*
X117110Y79373D01*
D02*
G37*
G36*
X120553Y81242D02*
X120618Y81198D01*
X120695Y81121D01*
X120793Y81023D01*
X120892Y80903D01*
X120990Y80761D01*
X121198Y80476D01*
X121395Y80192D01*
X121482Y80050D01*
X121569Y79941D01*
X121635Y79832D01*
X121679Y79755D01*
X121712Y79711D01*
X121722Y79690D01*
X121985Y79274D01*
X122214Y78892D01*
X122313Y78706D01*
X122411Y78542D01*
X122509Y78389D01*
X122586Y78247D01*
X122662Y78115D01*
X122728Y77995D01*
X122783Y77897D01*
X122826Y77810D01*
X122870Y77744D01*
X122892Y77700D01*
X122903Y77667D01*
X122914Y77657D01*
X123045Y77613D01*
X123143Y77547D01*
X123220Y77482D01*
X123264Y77405D01*
X123296Y77340D01*
X123307Y77285D01*
X123318Y77241D01*
Y77230D01*
X123307Y77132D01*
X123275Y77055D01*
X123253Y77001D01*
X123242Y76979D01*
X123351Y76749D01*
X123449Y76542D01*
X123526Y76356D01*
X123602Y76192D01*
X123657Y76050D01*
X123712Y75929D01*
X123755Y75820D01*
X123788Y75733D01*
X123810Y75656D01*
X123832Y75602D01*
X123843Y75558D01*
X123854Y75525D01*
X123865Y75481D01*
Y75471D01*
X123854Y75405D01*
X123843Y75339D01*
X123799Y75252D01*
X123766Y75186D01*
X123744Y75175D01*
Y75164D01*
X123646Y75099D01*
X123548Y75066D01*
X123471Y75055D01*
X123449D01*
X123373Y75066D01*
X123296Y75088D01*
X123187Y75175D01*
X123143Y75208D01*
X123111Y75252D01*
X123100Y75274D01*
X123089Y75285D01*
X122990Y75471D01*
X122914Y75656D01*
X122826Y75820D01*
X122761Y75973D01*
X122695Y76115D01*
X122630Y76247D01*
X122586Y76356D01*
X122531Y76465D01*
X122499Y76564D01*
X122455Y76640D01*
X122433Y76717D01*
X122411Y76771D01*
X122389Y76815D01*
X122378Y76848D01*
X122367Y76859D01*
Y76869D01*
X121274Y77099D01*
X121034Y77154D01*
X120815Y77187D01*
X120630Y77219D01*
X120476Y77252D01*
X120345Y77274D01*
X120258Y77285D01*
X120203Y77296D01*
X120181D01*
X120149Y77132D01*
X120127Y76979D01*
X120094Y76826D01*
X120072Y76706D01*
X120050Y76585D01*
X120017Y76476D01*
X120006Y76378D01*
X119985Y76301D01*
X119952Y76159D01*
X119930Y76072D01*
X119908Y76017D01*
Y75995D01*
X119853Y75831D01*
X119799Y75678D01*
X119744Y75547D01*
X119678Y75438D01*
X119624Y75350D01*
X119569Y75274D01*
X119515Y75208D01*
X119471Y75153D01*
X119416Y75110D01*
X119372Y75088D01*
X119307Y75044D01*
X119263Y75033D01*
X119241D01*
X119187Y75044D01*
X119121Y75055D01*
X119034Y75099D01*
X118968Y75132D01*
X118957Y75153D01*
X118946D01*
X118903Y75197D01*
X118870Y75241D01*
X118826Y75339D01*
Y75383D01*
X118815Y75416D01*
Y75438D01*
Y75449D01*
Y75503D01*
X118837Y75569D01*
X118870Y75711D01*
X118892Y75776D01*
X118913Y75831D01*
X118924Y75875D01*
X118935Y75886D01*
X119176Y76542D01*
X119799Y79416D01*
X120050Y80804D01*
X120105Y80957D01*
X120170Y81067D01*
X120247Y81154D01*
X120323Y81209D01*
X120389Y81242D01*
X120444Y81252D01*
X120487Y81263D01*
X120498D01*
X120553Y81242D01*
D02*
G37*
G36*
X100726Y81788D02*
X100824Y81744D01*
X100901Y81679D01*
X100944Y81602D01*
X100977Y81526D01*
X100988Y81460D01*
X100999Y81416D01*
Y81394D01*
Y81143D01*
Y80881D01*
X101010Y80629D01*
Y80400D01*
Y80203D01*
X101021Y80116D01*
Y80039D01*
Y79985D01*
Y79930D01*
Y79908D01*
Y79897D01*
X101032Y79591D01*
Y79307D01*
Y79056D01*
X101043Y78837D01*
Y78738D01*
Y78651D01*
Y78575D01*
Y78520D01*
Y78465D01*
Y78433D01*
Y78411D01*
Y78400D01*
Y78301D01*
Y78192D01*
X101054Y77952D01*
Y77700D01*
X101065Y77460D01*
X101076Y77241D01*
Y77143D01*
Y77055D01*
X101087Y76990D01*
Y76935D01*
Y76902D01*
Y76891D01*
X101098Y76706D01*
Y76542D01*
X101109Y76389D01*
Y76236D01*
X101119Y76104D01*
Y75984D01*
Y75875D01*
Y75766D01*
X101130Y75678D01*
Y75602D01*
Y75536D01*
Y75492D01*
Y75449D01*
Y75416D01*
Y75405D01*
Y75394D01*
X101109Y75252D01*
X101065Y75153D01*
X100999Y75077D01*
X100923Y75033D01*
X100857Y75001D01*
X100792Y74990D01*
X100748Y74979D01*
X100726D01*
X100606Y75001D01*
X100507Y75044D01*
X100442Y75110D01*
X100387Y75186D01*
X100354Y75252D01*
X100332Y75318D01*
X100321Y75361D01*
Y75383D01*
X100311Y75602D01*
X100300Y75798D01*
Y75962D01*
X100289Y76104D01*
Y76203D01*
Y76279D01*
Y76334D01*
Y76345D01*
X100223Y78400D01*
Y78651D01*
Y78913D01*
X100212Y79165D01*
Y79394D01*
Y79602D01*
X100201Y79678D01*
Y79755D01*
Y79821D01*
Y79864D01*
Y79886D01*
Y79897D01*
X100190Y80203D01*
Y80487D01*
X100179Y80739D01*
Y80957D01*
Y81056D01*
Y81143D01*
Y81220D01*
Y81274D01*
Y81329D01*
Y81362D01*
Y81384D01*
Y81394D01*
X100201Y81537D01*
X100245Y81635D01*
X100311Y81712D01*
X100387Y81755D01*
X100464Y81788D01*
X100529Y81799D01*
X100573Y81810D01*
X100595D01*
X100726Y81788D01*
D02*
G37*
G36*
X82167Y81733D02*
X82254Y81690D01*
X82309Y81624D01*
X82363Y81559D01*
X82396Y81493D01*
X82418Y81427D01*
X82429Y81384D01*
Y81373D01*
X82440Y81252D01*
X82451Y81099D01*
X82473Y80936D01*
X82484Y80750D01*
X82506Y80367D01*
X82528Y79974D01*
Y79788D01*
X82538Y79613D01*
X82549Y79460D01*
Y79318D01*
Y79198D01*
X82560Y79110D01*
Y79056D01*
Y79034D01*
X82954Y79318D01*
X83063Y79373D01*
X83183Y79405D01*
X83303Y79438D01*
X83424Y79449D01*
X83533Y79460D01*
X83621Y79471D01*
X83697D01*
X83872Y79460D01*
X84025Y79438D01*
X84178Y79405D01*
X84331Y79373D01*
X84582Y79263D01*
X84801Y79143D01*
X84899Y79077D01*
X84976Y79012D01*
X85052Y78957D01*
X85107Y78913D01*
X85151Y78870D01*
X85184Y78837D01*
X85205Y78815D01*
X85216Y78804D01*
X85315Y78673D01*
X85402Y78542D01*
X85489Y78389D01*
X85555Y78247D01*
X85654Y77952D01*
X85719Y77667D01*
X85752Y77536D01*
X85763Y77416D01*
X85774Y77307D01*
X85785Y77219D01*
X85796Y77143D01*
Y77077D01*
Y77044D01*
Y77034D01*
X85785Y76869D01*
X85774Y76706D01*
X85708Y76411D01*
X85621Y76159D01*
X85511Y75941D01*
X85457Y75853D01*
X85402Y75766D01*
X85358Y75700D01*
X85315Y75645D01*
X85282Y75591D01*
X85249Y75558D01*
X85238Y75547D01*
X85227Y75536D01*
X85118Y75438D01*
X84998Y75350D01*
X84888Y75274D01*
X84768Y75208D01*
X84528Y75110D01*
X84298Y75044D01*
X84101Y75001D01*
X84025Y74989D01*
X83948Y74979D01*
X83894Y74968D01*
X83806D01*
X83555Y74989D01*
X83446Y75001D01*
X83336Y75022D01*
X83260Y75044D01*
X83194Y75055D01*
X83151Y75077D01*
X83140D01*
X82910Y75175D01*
X82801Y75230D01*
X82713Y75285D01*
X82626Y75328D01*
X82571Y75372D01*
X82528Y75394D01*
X82516Y75405D01*
X82473Y75285D01*
X82407Y75186D01*
X82353Y75121D01*
X82287Y75077D01*
X82232Y75055D01*
X82189Y75044D01*
X82156Y75033D01*
X82145D01*
X82036Y75055D01*
X81959Y75088D01*
X81905Y75121D01*
X81883Y75143D01*
X81839Y75186D01*
X81817Y75230D01*
X81773Y75306D01*
X81762Y75383D01*
Y75394D01*
Y75405D01*
Y75471D01*
X81773Y75492D01*
Y75503D01*
X81795Y75645D01*
X81817Y75798D01*
X81839Y76126D01*
X81861Y76465D01*
X81883Y76804D01*
Y76957D01*
Y77110D01*
X81893Y77241D01*
Y77350D01*
Y77449D01*
Y77514D01*
Y77569D01*
Y77580D01*
Y77810D01*
X81883Y78028D01*
Y78236D01*
X81872Y78422D01*
X81861Y78575D01*
Y78695D01*
X81850Y78738D01*
Y78782D01*
Y78793D01*
Y78804D01*
X81817Y79154D01*
X81795Y79471D01*
X81773Y79766D01*
X81751Y80028D01*
X81730Y80258D01*
X81719Y80466D01*
X81708Y80651D01*
X81697Y80804D01*
X81686Y80936D01*
Y81056D01*
X81675Y81143D01*
Y81220D01*
Y81274D01*
Y81307D01*
Y81329D01*
Y81340D01*
X81686Y81471D01*
X81730Y81569D01*
X81795Y81646D01*
X81861Y81690D01*
X81937Y81722D01*
X81992Y81733D01*
X82036Y81744D01*
X82057D01*
X82167Y81733D01*
D02*
G37*
G36*
X95960Y75788D02*
X96037Y75776D01*
X96146Y75722D01*
X96190Y75689D01*
X96223Y75667D01*
X96245Y75656D01*
X96256Y75645D01*
X96299Y75591D01*
X96332Y75525D01*
X96376Y75405D01*
X96387Y75361D01*
X96398Y75318D01*
Y75296D01*
Y75285D01*
X96387Y75208D01*
X96376Y75143D01*
X96321Y75022D01*
X96299Y74979D01*
X96277Y74957D01*
X96267Y74935D01*
X96256Y74924D01*
X96190Y74869D01*
X96135Y74836D01*
X96015Y74793D01*
X95960Y74782D01*
X95917Y74771D01*
X95884D01*
X95807Y74782D01*
X95742Y74793D01*
X95622Y74848D01*
X95578Y74880D01*
X95545Y74902D01*
X95534Y74913D01*
X95523Y74924D01*
X95469Y74979D01*
X95436Y75044D01*
X95392Y75164D01*
X95381Y75208D01*
X95370Y75252D01*
Y75274D01*
Y75285D01*
X95381Y75361D01*
X95392Y75427D01*
X95447Y75547D01*
X95480Y75591D01*
X95501Y75624D01*
X95512Y75634D01*
X95523Y75645D01*
X95578Y75700D01*
X95644Y75733D01*
X95764Y75776D01*
X95807Y75788D01*
X95851Y75798D01*
X95884D01*
X95960Y75788D01*
D02*
G37*
%LPC*%
G36*
X111174Y89769D02*
X111094D01*
X110934Y89729D01*
X110813Y89649D01*
X110653Y89409D01*
X110613Y89168D01*
Y89088D01*
Y89048D01*
Y88807D01*
X110693Y88647D01*
X110774Y88527D01*
X110854Y88446D01*
X111014Y88366D01*
X111094D01*
X111255Y88406D01*
X111335Y88487D01*
X111495Y88727D01*
X111535Y88928D01*
Y89008D01*
Y89048D01*
X111495Y89288D01*
X111455Y89449D01*
X111375Y89609D01*
X111295Y89689D01*
X111174Y89769D01*
D02*
G37*
G36*
X109010D02*
X108769D01*
X108649Y89689D01*
X108488Y89529D01*
X108408Y89369D01*
Y89328D01*
Y89288D01*
X109410D01*
X109370Y89449D01*
X109330Y89569D01*
X109170Y89729D01*
X109010Y89769D01*
D02*
G37*
G36*
X93535D02*
X93294D01*
X93174Y89689D01*
X93014Y89529D01*
X92933Y89369D01*
Y89328D01*
Y89288D01*
X93896D01*
X93856Y89449D01*
X93815Y89569D01*
X93655Y89729D01*
X93535Y89769D01*
D02*
G37*
G36*
X113299D02*
X113259D01*
X113099Y89729D01*
X113019Y89689D01*
X112938Y89609D01*
Y89569D01*
X112858Y89449D01*
X112818Y89288D01*
Y89128D01*
Y89088D01*
Y89048D01*
Y88807D01*
X112858Y88607D01*
X112898Y88527D01*
X112938Y88487D01*
X113019Y88406D01*
X113139Y88366D01*
X113259D01*
X113460Y88406D01*
X113580Y88446D01*
X113660Y88487D01*
X113740Y88687D01*
X113780Y88847D01*
Y89008D01*
Y89048D01*
X113740Y89288D01*
X113700Y89449D01*
X113660Y89529D01*
Y89569D01*
X113540Y89689D01*
X113419Y89729D01*
X113299Y89769D01*
D02*
G37*
G36*
X101473D02*
X101433D01*
X101272Y89729D01*
X101152Y89689D01*
X101072Y89609D01*
Y89569D01*
X100991Y89449D01*
X100951Y89288D01*
Y89128D01*
Y89088D01*
Y89048D01*
Y88807D01*
X100991Y88607D01*
X101032Y88527D01*
X101072Y88487D01*
X101152Y88406D01*
X101272Y88366D01*
X101433D01*
X101593Y88406D01*
X101713Y88446D01*
X101753Y88487D01*
X101833Y88647D01*
X101874Y88847D01*
Y88968D01*
Y89048D01*
X101833Y89328D01*
X101793Y89489D01*
X101753Y89569D01*
X101673Y89689D01*
X101553Y89729D01*
X101473Y89769D01*
D02*
G37*
G36*
X109090Y85279D02*
X108488D01*
Y85119D01*
Y84999D01*
X108569Y84878D01*
X108729Y84758D01*
X108889Y84718D01*
X109130D01*
X109210Y84758D01*
X109370Y84878D01*
X109410Y84999D01*
Y85039D01*
X109370Y85199D01*
X109210Y85239D01*
X109090Y85279D01*
D02*
G37*
G36*
X99909D02*
X99308D01*
Y85119D01*
X99348Y84999D01*
X99388Y84878D01*
X99548Y84758D01*
X99749Y84718D01*
X99829D01*
X100069Y84758D01*
X100190Y84878D01*
X100230Y84999D01*
Y85039D01*
X100150Y85199D01*
X100029Y85239D01*
X99909Y85279D01*
D02*
G37*
G36*
X95980Y86201D02*
X95900D01*
X95740Y86161D01*
X95619Y86121D01*
X95459Y85961D01*
X95379Y85760D01*
Y85720D01*
Y85680D01*
X96341D01*
X96301Y85841D01*
X96261Y86001D01*
X96100Y86121D01*
X95980Y86201D01*
D02*
G37*
G36*
X105121D02*
X105041D01*
X104920Y86161D01*
X104800Y86081D01*
X104680Y85841D01*
X104640Y85600D01*
Y85520D01*
Y85480D01*
Y85239D01*
X104720Y85079D01*
X104760Y84919D01*
X104840Y84838D01*
X104960Y84758D01*
X105041D01*
X105201Y84798D01*
X105321Y84878D01*
X105441Y85119D01*
X105522Y85360D01*
Y85440D01*
Y85480D01*
X105482Y85720D01*
X105441Y85881D01*
X105361Y86041D01*
X105281Y86121D01*
X105121Y86201D01*
D02*
G37*
G36*
X104114Y78728D02*
X104092D01*
X103863Y78717D01*
X103666Y78673D01*
X103502Y78618D01*
X103360Y78564D01*
X103240Y78498D01*
X103163Y78443D01*
X103109Y78400D01*
X103098Y78389D01*
X103240Y78290D01*
X103404Y78181D01*
X103579Y78072D01*
X103753Y77984D01*
X103918Y77897D01*
X104049Y77831D01*
X104092Y77799D01*
X104136Y77777D01*
X104158Y77766D01*
X104169D01*
X105426Y77165D01*
X105360Y77438D01*
X105284Y77678D01*
X105196Y77875D01*
X105120Y78039D01*
X105043Y78170D01*
X104989Y78258D01*
X104945Y78312D01*
X104934Y78334D01*
X104803Y78465D01*
X104661Y78564D01*
X104519Y78629D01*
X104387Y78684D01*
X104267Y78706D01*
X104180Y78717D01*
X104114Y78728D01*
D02*
G37*
G36*
X120706Y79744D02*
X120367Y78159D01*
X120553Y78127D01*
X120728Y78094D01*
X120881Y78061D01*
X121034Y78028D01*
X121165Y78006D01*
X121296Y77974D01*
X121405Y77952D01*
X121504Y77930D01*
X121591Y77908D01*
X121679Y77897D01*
X121733Y77875D01*
X121788Y77864D01*
X121832Y77853D01*
X121865D01*
X121876Y77842D01*
X121886D01*
X120706Y79744D01*
D02*
G37*
G36*
X83752Y78706D02*
X83686D01*
X83555Y78695D01*
X83435Y78684D01*
X83325Y78651D01*
X83238Y78618D01*
X83161Y78585D01*
X83107Y78564D01*
X83074Y78542D01*
X83063Y78531D01*
X82965Y78465D01*
X82888Y78389D01*
X82812Y78301D01*
X82746Y78214D01*
X82702Y78148D01*
X82670Y78083D01*
X82648Y78039D01*
X82637Y78028D01*
X82648Y77547D01*
Y77066D01*
X82637Y76345D01*
X82680Y76301D01*
X82724Y76257D01*
X82746Y76236D01*
X82757Y76225D01*
X82866Y76126D01*
X82965Y76050D01*
X83041Y75995D01*
X83107Y75951D01*
X83151Y75919D01*
X83183Y75897D01*
X83205Y75875D01*
X83216D01*
X83314Y75831D01*
X83413Y75809D01*
X83511Y75787D01*
X83599Y75766D01*
X83686D01*
X83752Y75755D01*
X83806D01*
X83992Y75776D01*
X84156Y75820D01*
X84309Y75875D01*
X84440Y75951D01*
X84539Y76017D01*
X84626Y76083D01*
X84670Y76126D01*
X84692Y76137D01*
X84812Y76290D01*
X84910Y76443D01*
X84976Y76596D01*
X85019Y76738D01*
X85041Y76869D01*
X85052Y76968D01*
X85063Y77034D01*
Y77044D01*
Y77055D01*
X85052Y77340D01*
X85009Y77591D01*
X84954Y77810D01*
X84888Y77984D01*
X84834Y78115D01*
X84779Y78214D01*
X84735Y78269D01*
X84724Y78290D01*
X84582Y78433D01*
X84418Y78531D01*
X84244Y78607D01*
X84069Y78651D01*
X83926Y78684D01*
X83795Y78695D01*
X83752Y78706D01*
D02*
G37*
%LPD*%
D11*
X130504Y53945D02*
X167591Y53945D01*
X130504Y34490D02*
X167591Y34490D01*
X130646Y44218D02*
X167457Y44218D01*
X130504Y24694D02*
Y53945D01*
Y5308D02*
Y24630D01*
X130646Y15035D02*
X167591Y15035D01*
X130504Y5308D02*
X167591Y5308D01*
Y53945D01*
X130504Y24763D02*
X167591D01*
X130370Y82857D02*
X167457D01*
Y63402D02*
Y112039D01*
X130370Y63402D02*
X167457Y63402D01*
X130512Y73130D02*
X167457Y73130D01*
X130370Y63402D02*
Y82724D01*
Y82788D02*
Y112039D01*
X130512Y102312D02*
X167323Y102312D01*
X130370Y92585D02*
X167457Y92585D01*
X130370Y112039D02*
X167457Y112039D01*
X198424Y38451D02*
Y37139D01*
Y37795D01*
X195144D01*
X194488Y37139D01*
Y36483D01*
X195144Y35827D01*
X198424Y39762D02*
X194488D01*
Y42386D01*
X197768Y46322D02*
X198424Y45666D01*
Y44354D01*
X197768Y43698D01*
X195144D01*
X194488Y44354D01*
Y45666D01*
X195144Y46322D01*
X198424Y50258D02*
Y48946D01*
Y49602D01*
X195144D01*
X194488Y48946D01*
Y48290D01*
X195144Y47634D01*
X198424Y51570D02*
X194488D01*
Y54194D01*
X197768Y58129D02*
X198424Y57473D01*
Y56161D01*
X197768Y55506D01*
X195144D01*
X194488Y56161D01*
Y57473D01*
X195144Y58129D01*
X198424Y62065D02*
Y60753D01*
Y61409D01*
X195144D01*
X194488Y60753D01*
Y60097D01*
X195144Y59441D01*
X198424Y63377D02*
X194488D01*
Y66001D01*
X197768Y69937D02*
X198424Y69281D01*
Y67969D01*
X197768Y67313D01*
X195144D01*
X194488Y67969D01*
Y69281D01*
X195144Y69937D01*
X198424Y73872D02*
Y72560D01*
Y73216D01*
X195144D01*
X194488Y72560D01*
Y71904D01*
X195144Y71248D01*
X198424Y75184D02*
X194488D01*
Y77808D01*
X197768Y81744D02*
X198424Y81088D01*
Y79776D01*
X197768Y79120D01*
X195144D01*
X194488Y79776D01*
Y81088D01*
X195144Y81744D01*
D16*
X95669Y23118D02*
X93308D01*
X94489Y24298D02*
Y21937D01*
X89766Y24889D02*
X92127D01*
Y23118D01*
X90946Y23708D01*
X90356D01*
X89766Y23118D01*
Y21937D01*
X90356Y21347D01*
X91537D01*
X92127Y21937D01*
X88585Y24889D02*
Y22527D01*
X87404Y21347D01*
X86224Y22527D01*
Y24889D01*
X166252Y50652D02*
Y48028D01*
X164940Y46716D01*
X163628Y48028D01*
Y50652D01*
X162316D02*
Y46716D01*
X160348D01*
X159692Y47372D01*
Y48028D01*
X160348Y48684D01*
X162316D01*
X160348D01*
X159692Y49340D01*
Y49996D01*
X160348Y50652D01*
X162316D01*
X158380D02*
Y47372D01*
X157724Y46716D01*
X156413D01*
X155757Y47372D01*
Y50652D01*
X151821Y49996D02*
X152477Y50652D01*
X153789D01*
X154445Y49996D01*
Y49340D01*
X153789Y48684D01*
X152477D01*
X151821Y48028D01*
Y47372D01*
X152477Y46716D01*
X153789D01*
X154445Y47372D01*
X150509Y46061D02*
X147885D01*
X143949Y50652D02*
X146573D01*
Y48684D01*
X145261Y49340D01*
X144605D01*
X143949Y48684D01*
Y47372D01*
X144605Y46716D01*
X145917D01*
X146573Y47372D01*
X142638Y50652D02*
Y48028D01*
X141326Y46716D01*
X140014Y48028D01*
Y50652D01*
X166252Y37109D02*
Y41045D01*
X163628Y37109D01*
Y41045D01*
X162316Y37109D02*
Y41045D01*
X160348D01*
X159692Y40389D01*
Y39077D01*
X160348Y38421D01*
X162316D01*
X161004D02*
X159692Y37109D01*
X155757Y40389D02*
X156413Y41045D01*
X157724D01*
X158380Y40389D01*
Y39733D01*
X157724Y39077D01*
X156413D01*
X155757Y38421D01*
Y37765D01*
X156413Y37109D01*
X157724D01*
X158380Y37765D01*
X154445Y41045D02*
X151821D01*
X153133D01*
Y37109D01*
X163628Y30781D02*
X164284Y31437D01*
X165596D01*
X166252Y30781D01*
Y30125D01*
X165596Y29469D01*
X164284D01*
X163628Y28813D01*
Y28157D01*
X164284Y27501D01*
X165596D01*
X166252Y28157D01*
X162316Y31437D02*
Y27501D01*
X161004Y28813D01*
X159692Y27501D01*
Y31437D01*
X155757Y30781D02*
X156413Y31437D01*
X157724D01*
X158380Y30781D01*
Y28157D01*
X157724Y27501D01*
X156413D01*
X155757Y28157D01*
X154445Y31437D02*
Y27501D01*
X151821D01*
X150509Y31437D02*
Y27501D01*
Y28813D01*
X147885Y31437D01*
X149853Y29469D01*
X147885Y27501D01*
X163628Y10910D02*
X164284Y11566D01*
X165596D01*
X166252Y10910D01*
Y8286D01*
X165596Y7630D01*
X164284D01*
X163628Y8286D01*
Y9598D01*
X164940D01*
X162316Y7630D02*
Y11566D01*
X159692Y7630D01*
Y11566D01*
X158380D02*
Y7630D01*
X156413D01*
X155757Y8286D01*
Y10910D01*
X156413Y11566D01*
X158380D01*
X163628Y21173D02*
X164284Y21829D01*
X165596D01*
X166252Y21173D01*
Y20517D01*
X165596Y19861D01*
X164284D01*
X163628Y19206D01*
Y18550D01*
X164284Y17894D01*
X165596D01*
X166252Y18550D01*
X162316Y21829D02*
Y17894D01*
X161004Y19206D01*
X159692Y17894D01*
Y21829D01*
X158380D02*
Y17894D01*
X156413D01*
X155757Y18550D01*
Y21173D01*
X156413Y21829D01*
X158380D01*
X154445D02*
X153133D01*
X153789D01*
Y17894D01*
X154445D01*
X153133D01*
X149197Y21829D02*
X150509D01*
X151165Y21173D01*
Y18550D01*
X150509Y17894D01*
X149197D01*
X148541Y18550D01*
Y21173D01*
X149197Y21829D01*
X166118Y79924D02*
X163494D01*
X164806D01*
Y75988D01*
X162182Y79924D02*
X159559Y75988D01*
Y79924D02*
X162182Y75988D01*
X158247Y79924D02*
Y75988D01*
X156279D01*
X155623Y76644D01*
Y79268D01*
X156279Y79924D01*
X158247D01*
X163494Y69004D02*
X164150Y69660D01*
X165462D01*
X166118Y69004D01*
Y66381D01*
X165462Y65724D01*
X164150D01*
X163494Y66381D01*
Y67692D01*
X164806D01*
X162182Y65724D02*
Y69660D01*
X159559Y65724D01*
Y69660D01*
X158247D02*
Y65724D01*
X156279D01*
X155623Y66381D01*
Y69004D01*
X156279Y69660D01*
X158247D01*
X166118Y85596D02*
Y89531D01*
X164150D01*
X163494Y88876D01*
Y87564D01*
X164150Y86908D01*
X166118D01*
X164806D02*
X163494Y85596D01*
X162182Y89531D02*
X159559Y85596D01*
Y89531D02*
X162182Y85596D01*
X158247Y89531D02*
Y85596D01*
X156279D01*
X155623Y86252D01*
Y88876D01*
X156279Y89531D01*
X158247D01*
X166118Y99139D02*
Y95859D01*
X165462Y95203D01*
X164150D01*
X163494Y95859D01*
Y99139D01*
X159559Y98483D02*
X160214Y99139D01*
X161526D01*
X162182Y98483D01*
Y97827D01*
X161526Y97171D01*
X160214D01*
X159559Y96515D01*
Y95859D01*
X160214Y95203D01*
X161526D01*
X162182Y95859D01*
X158247Y99139D02*
Y95203D01*
X156279D01*
X155623Y95859D01*
Y96515D01*
X156279Y97171D01*
X158247D01*
X156279D01*
X155623Y97827D01*
Y98483D01*
X156279Y99139D01*
X158247D01*
X154311Y94547D02*
X151687D01*
X150375Y95203D02*
Y99139D01*
X148407D01*
X147751Y98483D01*
Y97171D01*
X148407Y96515D01*
X150375D01*
X149063D02*
X147751Y95203D01*
X143816Y99139D02*
X146439D01*
Y95203D01*
X143816D01*
X146439Y97171D02*
X145127D01*
X142504Y95203D02*
Y99139D01*
X139880Y95203D01*
Y99139D01*
X138568D02*
Y95859D01*
X137912Y95203D01*
X136600D01*
X135944Y95859D01*
Y99139D01*
X134632Y95203D02*
Y99139D01*
X133320Y97827D01*
X132008Y99139D01*
Y95203D01*
X166118Y108747D02*
Y106123D01*
X164806Y104811D01*
X163494Y106123D01*
Y108747D01*
X162182D02*
Y104811D01*
X160214D01*
X159559Y105467D01*
Y106123D01*
X160214Y106779D01*
X162182D01*
X160214D01*
X159559Y107435D01*
Y108091D01*
X160214Y108747D01*
X162182D01*
X158247D02*
Y105467D01*
X157591Y104811D01*
X156279D01*
X155623Y105467D01*
Y108747D01*
X151687Y108091D02*
X152343Y108747D01*
X153655D01*
X154311Y108091D01*
Y107435D01*
X153655Y106779D01*
X152343D01*
X151687Y106123D01*
Y105467D01*
X152343Y104811D01*
X153655D01*
X154311Y105467D01*
X150375Y104155D02*
X147751D01*
X143816Y108747D02*
X146439D01*
Y106779D01*
X145127Y107435D01*
X144472D01*
X143816Y106779D01*
Y105467D01*
X144472Y104811D01*
X145783D01*
X146439Y105467D01*
X142504Y108747D02*
Y106123D01*
X141192Y104811D01*
X139880Y106123D01*
Y108747D01*
X114431Y24298D02*
X115022Y24889D01*
X116202D01*
X116793Y24298D01*
Y21937D01*
X116202Y21347D01*
X115022D01*
X114431Y21937D01*
X113251Y24889D02*
Y21347D01*
X110889D01*
X109708Y24889D02*
Y21347D01*
Y22527D01*
X107347Y24889D01*
X109118Y23118D01*
X107347Y21347D01*
X105811Y24889D02*
Y21347D01*
X104040D01*
X103449Y21937D01*
Y24298D01*
X104040Y24889D01*
X105811D01*
X102269D02*
X101088D01*
X101678D01*
Y21347D01*
X102269D01*
X101088D01*
X97546Y24889D02*
X98727D01*
X99317Y24298D01*
Y21937D01*
X98727Y21347D01*
X97546D01*
X96956Y21937D01*
Y24298D01*
X97546Y24889D01*
X127559Y21347D02*
Y24889D01*
X125788D01*
X125198Y24298D01*
Y23118D01*
X125788Y22527D01*
X127559D01*
X126378D02*
X125198Y21347D01*
X121655Y24298D02*
X122246Y24889D01*
X123426D01*
X124017Y24298D01*
Y23708D01*
X123426Y23118D01*
X122246D01*
X121655Y22527D01*
Y21937D01*
X122246Y21347D01*
X123426D01*
X124017Y21937D01*
X120475Y24889D02*
X118113D01*
X119294D01*
Y21347D01*
X82284Y24298D02*
X82875Y24889D01*
X84055D01*
X84646Y24298D01*
Y21937D01*
X84055Y21347D01*
X82875D01*
X82284Y21937D01*
Y23118D01*
X83465D01*
X81103Y21347D02*
Y24889D01*
X78742Y21347D01*
Y24889D01*
X77561D02*
Y21347D01*
X75790D01*
X75200Y21937D01*
Y24298D01*
X75790Y24889D01*
X77561D01*
D60*
X32126Y49207D02*
X35472Y45860D01*
Y52553D01*
X32126Y49207D02*
X35472Y52553D01*
X32126Y108151D02*
X35472Y111498D01*
Y104805D02*
Y111498D01*
X32126Y108151D02*
X35472Y104805D01*
M02*
