G04*
G04 #@! TF.GenerationSoftware,Altium Limited,Altium Designer,19.0.4 (130)*
G04*
G04 Layer_Physical_Order=4*
G04 Layer_Color=8388608*
%FSLAX25Y25*%
%MOIN*%
G70*
G01*
G75*
%ADD10C,0.02362*%
%ADD11C,0.00787*%
%ADD13C,0.01000*%
G04:AMPARAMS|DCode=25|XSize=23.62mil|YSize=100.39mil|CornerRadius=0mil|HoleSize=0mil|Usage=FLASHONLY|Rotation=270.000|XOffset=0mil|YOffset=0mil|HoleType=Round|Shape=Octagon|*
%AMOCTAGOND25*
4,1,8,0.05020,0.00591,0.05020,-0.00591,0.04429,-0.01181,-0.04429,-0.01181,-0.05020,-0.00591,-0.05020,0.00591,-0.04429,0.01181,0.04429,0.01181,0.05020,0.00591,0.0*
%
%ADD25OCTAGOND25*%

%ADD60C,0.01968*%
%ADD62C,0.03543*%
%ADD65C,0.01575*%
%ADD66O,0.07874X0.05512*%
%ADD67R,0.07874X0.05512*%
%ADD68C,0.12000*%
%ADD69C,0.04331*%
%ADD70R,0.04331X0.04331*%
%ADD71C,0.02756*%
%ADD72O,0.06299X0.03937*%
%ADD73O,0.08268X0.03937*%
%ADD74C,0.02000*%
%ADD75C,0.02362*%
%ADD85C,0.04724*%
G36*
X27429Y113017D02*
X27465Y112614D01*
X27524Y112258D01*
X27606Y111949D01*
X27713Y111688D01*
X27843Y111474D01*
X27996Y111308D01*
X28173Y111189D01*
X28374Y111118D01*
X28598Y111094D01*
X23874D01*
X24098Y111118D01*
X24299Y111189D01*
X24476Y111308D01*
X24630Y111474D01*
X24760Y111688D01*
X24866Y111949D01*
X24949Y112258D01*
X25008Y112614D01*
X25043Y113017D01*
X25055Y113468D01*
X27417D01*
X27429Y113017D01*
D02*
G37*
G36*
X114252Y114413D02*
X114323Y114079D01*
X114441Y113784D01*
X114606Y113528D01*
X114819Y113311D01*
X115079Y113134D01*
X115386Y112996D01*
X115740Y112898D01*
X116142Y112839D01*
X116590Y112819D01*
X113244Y110457D01*
X109898Y112819D01*
X110346Y112839D01*
X110748Y112898D01*
X111102Y112996D01*
X111409Y113134D01*
X111669Y113311D01*
X111882Y113528D01*
X112047Y113783D01*
X112165Y114079D01*
X112236Y114413D01*
X112260Y114787D01*
X114228D01*
X114252Y114413D01*
D02*
G37*
G36*
X65617Y108729D02*
X65656Y108182D01*
X65693Y107940D01*
X65741Y107717D01*
X65800Y107515D01*
X65871Y107333D01*
X65953Y107171D01*
X66047Y107030D01*
X66151Y106909D01*
X65595Y106352D01*
X65474Y106457D01*
X65333Y106551D01*
X65171Y106633D01*
X64989Y106704D01*
X64787Y106763D01*
X64565Y106811D01*
X64322Y106848D01*
X64058Y106873D01*
X63471Y106890D01*
X65614Y109034D01*
X65617Y108729D01*
D02*
G37*
G36*
X59711D02*
X59750Y108182D01*
X59787Y107940D01*
X59835Y107717D01*
X59895Y107515D01*
X59965Y107333D01*
X60048Y107171D01*
X60141Y107030D01*
X60246Y106909D01*
X59689Y106352D01*
X59568Y106457D01*
X59427Y106551D01*
X59266Y106633D01*
X59084Y106704D01*
X58882Y106763D01*
X58659Y106811D01*
X58416Y106848D01*
X58153Y106873D01*
X57565Y106890D01*
X59709Y109034D01*
X59711Y108729D01*
D02*
G37*
G36*
X70766Y107386D02*
X70653Y107227D01*
X70569Y107071D01*
X70516Y106916D01*
X70491Y106764D01*
X70497Y106615D01*
X70532Y106468D01*
X70597Y106323D01*
X70692Y106180D01*
X70816Y106040D01*
X70049Y105693D01*
X69897Y105842D01*
X68994Y106621D01*
X68567Y106950D01*
X68101Y107289D01*
X70908Y107547D01*
X70766Y107386D01*
D02*
G37*
G36*
X13269Y105032D02*
X12793Y104563D01*
X11390Y103336D01*
X11164Y103191D01*
X10989Y103111D01*
X10864Y103095D01*
X10789Y103145D01*
X10764Y103259D01*
X8239Y105013D01*
X8450Y104906D01*
X8688Y104860D01*
X8954Y104875D01*
X9247Y104951D01*
X9567Y105088D01*
X9915Y105285D01*
X10290Y105544D01*
X10692Y105863D01*
X11122Y106242D01*
X11580Y106683D01*
X13269Y105032D01*
D02*
G37*
G36*
X22964Y96762D02*
X22925Y96835D01*
X22871Y96901D01*
X22801Y96959D01*
X22717Y97009D01*
X22617Y97052D01*
X22502Y97086D01*
X22372Y97113D01*
X22226Y97133D01*
X22065Y97144D01*
X21890Y97148D01*
X21578Y97935D01*
X21749Y97939D01*
X21899Y97951D01*
X22028Y97971D01*
X22135Y97999D01*
X22221Y98034D01*
X22285Y98078D01*
X22328Y98129D01*
X22350Y98188D01*
X22350Y98255D01*
X22329Y98330D01*
X22964Y96762D01*
D02*
G37*
G36*
X10571Y98254D02*
X10600Y98188D01*
X10650Y98128D01*
X10719Y98077D01*
X10808Y98034D01*
X10917Y97998D01*
X11046Y97971D01*
X11195Y97951D01*
X11363Y97939D01*
X11551Y97935D01*
Y97148D01*
X11363Y97144D01*
X11046Y97113D01*
X10917Y97085D01*
X10808Y97050D01*
X10719Y97006D01*
X10650Y96955D01*
X10600Y96896D01*
X10571Y96829D01*
X10561Y96754D01*
Y98329D01*
X10571Y98254D01*
D02*
G37*
G36*
Y95104D02*
X10600Y95037D01*
X10650Y94977D01*
X10719Y94926D01*
X10808Y94883D01*
X10917Y94848D01*
X11046Y94820D01*
X11195Y94800D01*
X11363Y94789D01*
X11551Y94785D01*
Y93997D01*
X11363Y93993D01*
X11046Y93962D01*
X10917Y93934D01*
X10808Y93899D01*
X10719Y93856D01*
X10650Y93804D01*
X10600Y93745D01*
X10571Y93678D01*
X10561Y93603D01*
Y95178D01*
X10571Y95104D01*
D02*
G37*
G36*
Y91953D02*
X10600Y91886D01*
X10650Y91827D01*
X10719Y91776D01*
X10808Y91732D01*
X10917Y91697D01*
X11046Y91669D01*
X11195Y91650D01*
X11363Y91638D01*
X11551Y91634D01*
Y90846D01*
X11363Y90842D01*
X11046Y90811D01*
X10917Y90783D01*
X10808Y90748D01*
X10719Y90705D01*
X10650Y90653D01*
X10600Y90594D01*
X10571Y90527D01*
X10561Y90453D01*
Y92027D01*
X10571Y91953D01*
D02*
G37*
G36*
X22195Y90397D02*
X22309Y90300D01*
X22412Y90225D01*
X22505Y90171D01*
X22588Y90138D01*
X22660Y90127D01*
X22723Y90137D01*
X22775Y90169D01*
X22817Y90222D01*
X22849Y90296D01*
X22316Y88613D01*
X22334Y88698D01*
X22337Y88788D01*
X22323Y88883D01*
X22294Y88983D01*
X22249Y89088D01*
X22188Y89198D01*
X22111Y89313D01*
X22019Y89433D01*
X21910Y89557D01*
X21786Y89687D01*
X22072Y90515D01*
X22195Y90397D01*
D02*
G37*
G36*
X199577Y58962D02*
Y11324D01*
Y964D01*
X85987D01*
X85937Y1464D01*
X86077Y1492D01*
X86729Y1927D01*
X89094Y4292D01*
X158764Y4292D01*
X159532Y4445D01*
X160183Y4880D01*
X163923Y8620D01*
X164358Y9271D01*
X164511Y10039D01*
Y47386D01*
X164358Y48154D01*
X163923Y48805D01*
X163272Y49240D01*
X162504Y49393D01*
X161736Y49240D01*
X161085Y48805D01*
X160650Y48154D01*
X160497Y47386D01*
Y10871D01*
X157932Y8306D01*
X132011D01*
X131804Y8806D01*
X134786Y11788D01*
X135071Y12214D01*
X135171Y12717D01*
Y43905D01*
X135071Y44408D01*
X134786Y44834D01*
X124747Y54873D01*
X124321Y55158D01*
X123819Y55257D01*
X103156D01*
X99297Y59117D01*
Y68168D01*
X99305Y68244D01*
X99310Y68273D01*
X99315Y68296D01*
X99316Y68298D01*
X99322Y68310D01*
X99327Y68327D01*
X99329Y68331D01*
X99329Y68333D01*
X99331Y68337D01*
X99534Y68641D01*
X99673Y69339D01*
X99534Y70036D01*
X99139Y70627D01*
X98548Y71022D01*
X97850Y71161D01*
X97153Y71022D01*
X96562Y70627D01*
X96167Y70036D01*
X96028Y69339D01*
X96167Y68641D01*
X96562Y68050D01*
X96669Y67978D01*
X96672Y67954D01*
Y58574D01*
X96692Y58470D01*
X96232Y58223D01*
X94109Y60346D01*
X93683Y60630D01*
X93181Y60730D01*
X83434D01*
X83422Y60731D01*
X83393Y60736D01*
X82847Y61101D01*
X82149Y61240D01*
X81452Y61101D01*
X80917Y60743D01*
X80669Y60808D01*
X80417Y60941D01*
Y97087D01*
X80325Y97548D01*
X80064Y97938D01*
X72400Y105602D01*
X72607Y106102D01*
X78213D01*
Y112008D01*
X72307D01*
Y110879D01*
X71807Y110709D01*
X71460Y111161D01*
X70843Y111634D01*
X70125Y111932D01*
X69354Y112033D01*
X68584Y111932D01*
X67865Y111634D01*
X67248Y111161D01*
X66775Y110544D01*
X66672Y110296D01*
X66131D01*
X66028Y110544D01*
X65555Y111161D01*
X64938Y111634D01*
X64220Y111932D01*
X63449Y112033D01*
X62678Y111932D01*
X61960Y111634D01*
X61343Y111161D01*
X60870Y110544D01*
X60767Y110296D01*
X60225D01*
X60123Y110544D01*
X59649Y111161D01*
X59032Y111634D01*
X58314Y111932D01*
X57543Y112033D01*
X56773Y111932D01*
X56054Y111634D01*
X55437Y111161D01*
X54964Y110544D01*
X54667Y109826D01*
X54565Y109055D01*
X54667Y108284D01*
X54964Y107566D01*
X55437Y106949D01*
X56054Y106476D01*
X56773Y106178D01*
X57543Y106077D01*
X57609Y106086D01*
X58103Y106072D01*
X58318Y106051D01*
X58514Y106021D01*
X58684Y105985D01*
X58824Y105943D01*
X58937Y105900D01*
X59022Y105856D01*
X59072Y105823D01*
X61574Y103322D01*
X61574Y103322D01*
X61964Y103061D01*
X62425Y102969D01*
X62425Y102969D01*
X64226D01*
X72812Y94383D01*
Y39294D01*
X72808Y39272D01*
X72801Y39246D01*
X72795Y39226D01*
X72788Y39210D01*
X72782Y39200D01*
X72727Y39163D01*
X72332Y38571D01*
X72193Y37874D01*
X72332Y37177D01*
X72727Y36585D01*
X73318Y36190D01*
X74016Y36052D01*
X74713Y36190D01*
X75304Y36585D01*
X75700Y37177D01*
X75838Y37874D01*
X75735Y38393D01*
X75736Y38395D01*
X76086Y38765D01*
X76128Y38786D01*
X76614Y38689D01*
X77312Y38828D01*
X77903Y39223D01*
X78298Y39814D01*
X78437Y40512D01*
X78298Y41209D01*
X77903Y41800D01*
X77848Y41837D01*
X77842Y41848D01*
X77835Y41863D01*
X77829Y41884D01*
X77822Y41910D01*
X77818Y41932D01*
Y50582D01*
X78318Y50849D01*
X78515Y50718D01*
X79213Y50579D01*
X79910Y50718D01*
X80501Y51113D01*
X80896Y51704D01*
X81035Y52402D01*
X80896Y53099D01*
X80501Y53690D01*
X80446Y53727D01*
X80441Y53737D01*
X80434Y53753D01*
X80427Y53773D01*
X80421Y53800D01*
X80417Y53821D01*
Y57893D01*
X80669Y58027D01*
X80917Y58091D01*
X81452Y57734D01*
X82149Y57595D01*
X82847Y57734D01*
X83393Y58099D01*
X83412Y58102D01*
X83447Y58105D01*
X92637D01*
X100001Y50741D01*
X100427Y50457D01*
X100929Y50357D01*
X121803D01*
X130002Y42157D01*
Y15727D01*
X129502Y15575D01*
X129210Y16013D01*
X128619Y16408D01*
X127921Y16547D01*
X127224Y16408D01*
X126633Y16013D01*
X126238Y15422D01*
X126099Y14724D01*
X126238Y14027D01*
X126528Y13592D01*
X126315Y13092D01*
X121988D01*
X121955Y13592D01*
X122499Y13664D01*
X123266Y13981D01*
X123924Y14486D01*
X124428Y15144D01*
X124746Y15910D01*
X124854Y16732D01*
X124746Y17555D01*
X124428Y18321D01*
X123924Y18979D01*
X123266Y19484D01*
X123112Y19547D01*
X123100Y19557D01*
X123074Y19573D01*
X123065Y19590D01*
X123049Y19634D01*
X123032Y19701D01*
X123018Y19791D01*
X123013Y19838D01*
Y20426D01*
X123015Y20439D01*
X123016Y20444D01*
X123408Y21031D01*
X123547Y21728D01*
X123408Y22426D01*
X123013Y23017D01*
X122422Y23412D01*
X121724Y23551D01*
X121027Y23412D01*
X120481Y23047D01*
X120462Y23044D01*
X120427Y23041D01*
X115619D01*
X111198Y27461D01*
X111191Y27470D01*
X111174Y27494D01*
X111046Y28138D01*
X110704Y28650D01*
X110794Y28952D01*
X110922Y29150D01*
X115416D01*
X115768Y28798D01*
X115780Y28780D01*
X115794Y28757D01*
X115804Y28738D01*
X115810Y28722D01*
X115814Y28711D01*
X115801Y28646D01*
X115939Y27948D01*
X116334Y27357D01*
X116926Y26962D01*
X117623Y26823D01*
X118321Y26962D01*
X118912Y27357D01*
X119307Y27948D01*
X119446Y28646D01*
X119307Y29343D01*
X118912Y29934D01*
X118321Y30329D01*
X117623Y30468D01*
X117558Y30455D01*
X117547Y30458D01*
X117531Y30465D01*
X117512Y30474D01*
X117489Y30488D01*
X117471Y30501D01*
X116766Y31206D01*
X116375Y31467D01*
X115914Y31559D01*
X115914Y31559D01*
X111134D01*
X110927Y32059D01*
X115367Y36498D01*
X117121D01*
X117389Y35998D01*
X117214Y35737D01*
X117075Y35039D01*
X117214Y34342D01*
X117609Y33751D01*
X118200Y33356D01*
X118898Y33217D01*
X119595Y33356D01*
X120186Y33751D01*
X120581Y34342D01*
X120720Y35039D01*
X120581Y35737D01*
X120407Y35998D01*
X120674Y36498D01*
X124407D01*
X124429Y36494D01*
X124455Y36488D01*
X124475Y36481D01*
X124491Y36474D01*
X124501Y36469D01*
X124538Y36414D01*
X125129Y36019D01*
X125827Y35880D01*
X126524Y36019D01*
X127115Y36414D01*
X127510Y37005D01*
X127649Y37702D01*
X127510Y38400D01*
X127115Y38991D01*
X126524Y39386D01*
X125827Y39525D01*
X125129Y39386D01*
X124538Y38991D01*
X124501Y38936D01*
X124491Y38930D01*
X124475Y38924D01*
X124455Y38917D01*
X124429Y38910D01*
X124407Y38907D01*
X114868D01*
X114407Y38815D01*
X114016Y38554D01*
X114016Y38554D01*
X109147Y33685D01*
X93101D01*
X92949Y34185D01*
X93049Y34251D01*
X93444Y34842D01*
X93582Y35539D01*
X93444Y36237D01*
X93049Y36828D01*
X92457Y37223D01*
X91760Y37362D01*
X91062Y37223D01*
X90471Y36828D01*
X90399Y36719D01*
X89797D01*
X89635Y36962D01*
X89044Y37357D01*
X88346Y37496D01*
X87649Y37357D01*
X87058Y36962D01*
X86663Y36371D01*
X86524Y35673D01*
X86663Y34976D01*
X87058Y34385D01*
X87649Y33990D01*
X87656Y33988D01*
X87761Y33457D01*
X87574Y33332D01*
X87574Y33332D01*
X83519Y29277D01*
X83258Y28886D01*
X83166Y28425D01*
X83166Y28425D01*
Y24766D01*
X83162Y24745D01*
X83156Y24718D01*
X83149Y24698D01*
X83142Y24682D01*
X83137Y24672D01*
X83081Y24635D01*
X82686Y24044D01*
X82548Y23347D01*
X82686Y22649D01*
X83081Y22058D01*
X83673Y21663D01*
X84370Y21524D01*
X84856Y21621D01*
X84899Y21600D01*
X85249Y21230D01*
X85249Y21228D01*
X85146Y20709D01*
X85285Y20011D01*
X85680Y19420D01*
X86271Y19025D01*
X86968Y18886D01*
X87666Y19025D01*
X88257Y19420D01*
X88652Y20011D01*
X88791Y20709D01*
X88652Y21406D01*
X88257Y21997D01*
X88202Y22034D01*
X88197Y22044D01*
X88190Y22060D01*
X88183Y22081D01*
X88176Y22107D01*
X88173Y22128D01*
Y26824D01*
X90499Y29150D01*
X107803D01*
X107931Y28952D01*
X108020Y28650D01*
X107678Y28138D01*
X107540Y27441D01*
X107678Y26744D01*
X108074Y26152D01*
X108665Y25757D01*
X109309Y25629D01*
X109325Y25618D01*
X109351Y25595D01*
X114147Y20800D01*
X114573Y20516D01*
X115075Y20416D01*
X120388D01*
Y19850D01*
X120384Y19802D01*
X120369Y19714D01*
X120353Y19649D01*
X120337Y19608D01*
X120332Y19597D01*
X120310Y19585D01*
X120288Y19566D01*
X120089Y19484D01*
X119431Y18979D01*
X118926Y18321D01*
X118609Y17555D01*
X118500Y16732D01*
X118609Y15910D01*
X118926Y15144D01*
X119431Y14486D01*
X120089Y13981D01*
X120855Y13664D01*
X121399Y13592D01*
X121366Y13092D01*
X117174D01*
X114806Y15460D01*
X114775Y15497D01*
X114722Y15570D01*
X114688Y15629D01*
X114669Y15669D01*
X114664Y15685D01*
X114671Y15712D01*
X114673Y15734D01*
X114746Y15910D01*
X114854Y16732D01*
X114746Y17555D01*
X114428Y18321D01*
X113924Y18979D01*
X113266Y19484D01*
X112499Y19801D01*
X111677Y19909D01*
X110855Y19801D01*
X110089Y19484D01*
X109431Y18979D01*
X108926Y18321D01*
X108609Y17555D01*
X108500Y16732D01*
X108609Y15910D01*
X108926Y15144D01*
X109431Y14486D01*
X110089Y13981D01*
X110855Y13664D01*
X111677Y13555D01*
X112499Y13664D01*
X112675Y13737D01*
X112698Y13738D01*
X112725Y13746D01*
X112740Y13741D01*
X112781Y13722D01*
X112839Y13687D01*
X112913Y13634D01*
X112950Y13604D01*
X115371Y11183D01*
X115163Y10683D01*
X109583D01*
X104806Y15460D01*
X104775Y15497D01*
X104722Y15570D01*
X104688Y15629D01*
X104669Y15669D01*
X104664Y15685D01*
X104671Y15712D01*
X104673Y15734D01*
X104746Y15910D01*
X104854Y16732D01*
X104746Y17555D01*
X104428Y18321D01*
X103923Y18979D01*
X103266Y19484D01*
X102499Y19801D01*
X101677Y19909D01*
X100855Y19801D01*
X100089Y19484D01*
X99431Y18979D01*
X98926Y18321D01*
X98609Y17555D01*
X98500Y16732D01*
X98609Y15910D01*
X98926Y15144D01*
X99431Y14486D01*
X100089Y13981D01*
X100855Y13664D01*
X101677Y13555D01*
X102499Y13664D01*
X102675Y13737D01*
X102698Y13738D01*
X102725Y13746D01*
X102740Y13741D01*
X102781Y13722D01*
X102839Y13687D01*
X102913Y13634D01*
X102950Y13604D01*
X107747Y8806D01*
X107540Y8306D01*
X94258D01*
Y13138D01*
X94266Y14933D01*
X94428Y15144D01*
X94746Y15910D01*
X94854Y16732D01*
X94746Y17555D01*
X94428Y18321D01*
X93923Y18979D01*
X93266Y19483D01*
X92499Y19801D01*
X91677Y19909D01*
X90855Y19801D01*
X90089Y19483D01*
X89431Y18979D01*
X88926Y18321D01*
X88609Y17555D01*
X88500Y16732D01*
X88609Y15910D01*
X88926Y15144D01*
X89081Y14942D01*
X89096Y12636D01*
Y8306D01*
X88262D01*
X87494Y8153D01*
X86843Y7718D01*
X84478Y5353D01*
X22249D01*
X16541Y11061D01*
Y12505D01*
Y25882D01*
X16388Y26650D01*
X15953Y27301D01*
X15302Y27736D01*
X14534Y27889D01*
X13766Y27736D01*
X13115Y27301D01*
X12680Y26650D01*
X12527Y25882D01*
Y20811D01*
X11629D01*
X11563Y20970D01*
Y22938D01*
X10972Y23529D01*
X11563Y24119D01*
Y26088D01*
X10972Y26679D01*
X11563Y27269D01*
Y29238D01*
X10579Y30222D01*
X10192D01*
Y32584D01*
X10579D01*
X11563Y33569D01*
Y35537D01*
X10972Y36128D01*
X11563Y36718D01*
Y38687D01*
X10579Y39671D01*
X10192D01*
Y42033D01*
X10579D01*
X11341Y42795D01*
X11365Y42797D01*
X19846D01*
X21844Y40799D01*
X21603Y40216D01*
X21481Y39291D01*
X21603Y38366D01*
X21960Y37504D01*
X22528Y36764D01*
X23268Y36196D01*
X24130Y35839D01*
X25055Y35717D01*
X27417D01*
X28342Y35839D01*
X29204Y36196D01*
X29945Y36764D01*
X30512Y37504D01*
X30754Y38087D01*
X31824D01*
X32930Y36981D01*
Y16465D01*
X32930Y16465D01*
X33021Y16004D01*
X33282Y15613D01*
X36007Y12889D01*
X36007Y12889D01*
X36397Y12628D01*
X36858Y12536D01*
X36858Y12536D01*
X55859D01*
X55880Y12528D01*
X55954Y12483D01*
X56035Y12395D01*
X56180Y12036D01*
X56178Y12032D01*
X56085Y11887D01*
X55972Y11735D01*
X55651Y11363D01*
X55496Y11206D01*
X55437Y11161D01*
X55090Y10709D01*
X54590Y10879D01*
Y12008D01*
X48685D01*
Y6102D01*
X54590D01*
Y7231D01*
X55090Y7401D01*
X55437Y6949D01*
X56054Y6476D01*
X56773Y6178D01*
X57543Y6077D01*
X58314Y6178D01*
X59032Y6476D01*
X59649Y6949D01*
X60123Y7566D01*
X60225Y7814D01*
X60767D01*
X60870Y7566D01*
X61343Y6949D01*
X61960Y6476D01*
X62678Y6178D01*
X63449Y6077D01*
X64220Y6178D01*
X64938Y6476D01*
X65555Y6949D01*
X66028Y7566D01*
X66131Y7814D01*
X66672D01*
X66775Y7566D01*
X67248Y6949D01*
X67865Y6476D01*
X68584Y6178D01*
X69354Y6077D01*
X70125Y6178D01*
X70843Y6476D01*
X71460Y6949D01*
X71934Y7566D01*
X72231Y8284D01*
X72333Y9055D01*
X72231Y9826D01*
X71934Y10544D01*
X71460Y11161D01*
X71162Y11390D01*
X71129Y11889D01*
X79198Y19958D01*
X79198Y19958D01*
X79459Y20349D01*
X79551Y20810D01*
Y30439D01*
X87277Y38166D01*
X100276D01*
X100276Y38166D01*
X100736Y38258D01*
X101127Y38519D01*
X105462Y42853D01*
X105480Y42866D01*
X105503Y42880D01*
X105522Y42889D01*
X105538Y42896D01*
X105549Y42899D01*
X105614Y42886D01*
X106312Y43025D01*
X106903Y43420D01*
X107298Y44011D01*
X107437Y44709D01*
X107298Y45406D01*
X106966Y45902D01*
X107078Y46246D01*
X107188Y46402D01*
X115356D01*
X115377Y46398D01*
X115404Y46392D01*
X115424Y46385D01*
X115440Y46378D01*
X115450Y46373D01*
X115487Y46318D01*
X116078Y45923D01*
X116776Y45784D01*
X117473Y45923D01*
X118064Y46318D01*
X118459Y46909D01*
X118598Y47606D01*
X118459Y48304D01*
X118064Y48895D01*
X117473Y49290D01*
X116776Y49429D01*
X116078Y49290D01*
X115487Y48895D01*
X115450Y48840D01*
X115440Y48834D01*
X115424Y48827D01*
X115404Y48821D01*
X115377Y48814D01*
X115356Y48810D01*
X100213D01*
X99752Y48719D01*
X99361Y48458D01*
X99361Y48458D01*
X96013Y45110D01*
X85235D01*
X84774Y45018D01*
X84384Y44757D01*
X84384Y44757D01*
X73211Y33585D01*
X72950Y33194D01*
X72859Y32733D01*
X72859Y32733D01*
Y23246D01*
X64557Y14944D01*
X37357D01*
X35338Y16963D01*
Y37480D01*
X35246Y37941D01*
X34985Y38332D01*
X34985Y38332D01*
X33174Y40143D01*
X33174Y40143D01*
X32784Y40404D01*
X32323Y40496D01*
X32323Y40496D01*
X30754D01*
X30512Y41078D01*
X29945Y41818D01*
X29204Y42386D01*
X28342Y42743D01*
X27417Y42865D01*
X25055D01*
X24130Y42743D01*
X23547Y42502D01*
X21196Y44853D01*
X20806Y45114D01*
X20345Y45206D01*
X20345Y45206D01*
X11343D01*
X10972Y45577D01*
X11563Y46167D01*
Y48136D01*
X10972Y48726D01*
X11563Y49317D01*
Y51285D01*
X10579Y52270D01*
X10192D01*
Y54632D01*
X10579D01*
X11563Y55616D01*
Y57585D01*
X10972Y58175D01*
X11563Y58766D01*
Y60734D01*
X10972Y61325D01*
X11563Y61915D01*
Y63884D01*
X10579Y64868D01*
X10192D01*
Y70109D01*
X12639D01*
X12639Y70095D01*
X12839Y70109D01*
X13021Y70145D01*
X13119Y70158D01*
X13119Y70158D01*
X13681Y70232D01*
X14652Y70634D01*
X15485Y71273D01*
X16125Y72107D01*
X16527Y73077D01*
X16664Y74119D01*
X16527Y75161D01*
X16125Y76131D01*
X15485Y76965D01*
X14652Y77605D01*
X13681Y78007D01*
X13119Y78081D01*
X13021Y78094D01*
X12839Y78130D01*
X12639Y78144D01*
Y78130D01*
X12639Y78130D01*
X10192D01*
Y79819D01*
X10579D01*
X11563Y80803D01*
Y82772D01*
X10972Y83363D01*
X11563Y83954D01*
Y85922D01*
X10579Y86907D01*
X10192D01*
Y89271D01*
X10579D01*
X11341Y90033D01*
X11365Y90036D01*
X12269D01*
X21879Y80426D01*
X21603Y79760D01*
X21481Y78835D01*
X21603Y77910D01*
X21960Y77048D01*
X22528Y76307D01*
X23268Y75740D01*
X24130Y75383D01*
X25055Y75261D01*
X27417D01*
X28342Y75383D01*
X29204Y75740D01*
X29945Y76307D01*
X30512Y77048D01*
X30869Y77910D01*
X30991Y78835D01*
X30869Y79760D01*
X30512Y80622D01*
X29945Y81362D01*
X29204Y81930D01*
X28342Y82287D01*
X27417Y82408D01*
X25055D01*
X24130Y82287D01*
X23631Y82080D01*
X23626Y82085D01*
X13619Y92092D01*
X13229Y92353D01*
X12768Y92444D01*
X12768Y92444D01*
X11343D01*
X10972Y92816D01*
X11341Y93184D01*
X11365Y93187D01*
X17140D01*
X21359Y88968D01*
X21398Y88923D01*
X21459Y88844D01*
X21496Y88789D01*
X21481Y88677D01*
X21603Y87752D01*
X21960Y86890D01*
X22528Y86150D01*
X23268Y85582D01*
X24130Y85225D01*
X25055Y85103D01*
X27417D01*
X28342Y85225D01*
X29204Y85582D01*
X29945Y86150D01*
X30512Y86890D01*
X30869Y87752D01*
X30991Y88677D01*
X30869Y89602D01*
X30512Y90464D01*
X29945Y91204D01*
X29204Y91772D01*
X28342Y92129D01*
X27417Y92251D01*
X25055D01*
X24130Y92129D01*
X23268Y91772D01*
X22528Y91205D01*
X18490Y95242D01*
X18100Y95503D01*
X17639Y95595D01*
X17639Y95595D01*
X11343D01*
X10972Y95966D01*
X11341Y96335D01*
X11365Y96338D01*
X22090D01*
X22144Y96334D01*
X22237Y96321D01*
X22283Y96312D01*
X22528Y95993D01*
X23268Y95425D01*
X24130Y95068D01*
X25055Y94946D01*
X27417D01*
X28342Y95068D01*
X29204Y95425D01*
X29945Y95993D01*
X30512Y96733D01*
X30869Y97595D01*
X30991Y98520D01*
X30869Y99445D01*
X30512Y100307D01*
X29945Y101047D01*
X29204Y101615D01*
X28342Y101972D01*
X27417Y102094D01*
X25055D01*
X24130Y101972D01*
X23268Y101615D01*
X22528Y101047D01*
X21960Y100307D01*
X21603Y99445D01*
X21511Y98746D01*
X11343D01*
X10972Y99117D01*
X11563Y99708D01*
Y101677D01*
X11500Y101740D01*
X11549Y102237D01*
X11830Y102424D01*
X21012Y111607D01*
X21512Y111399D01*
Y104819D01*
X30961D01*
Y111906D01*
X28736D01*
X28517Y112275D01*
X28717Y112622D01*
X28798Y112709D01*
X84388D01*
X86879Y110219D01*
X87530Y109783D01*
X88298Y109631D01*
X157389D01*
X160450Y106570D01*
Y87966D01*
X147222D01*
X147142Y87982D01*
X147061Y87966D01*
X147008D01*
X146317Y87828D01*
X145730Y87436D01*
X145339Y86851D01*
X145201Y86159D01*
X145339Y85468D01*
X145730Y84882D01*
X146317Y84490D01*
X147008Y84353D01*
X147061D01*
X147142Y84337D01*
X147222Y84353D01*
X160450D01*
Y71480D01*
X160602Y70712D01*
X161038Y70061D01*
X161689Y69626D01*
X162457Y69473D01*
X163225Y69626D01*
X163876Y70061D01*
X164311Y70712D01*
X164464Y71480D01*
Y85535D01*
Y107402D01*
X164311Y108170D01*
X163876Y108821D01*
X159640Y113057D01*
X158989Y113492D01*
X158221Y113645D01*
X116177D01*
X115907Y113685D01*
X115659Y113753D01*
X115472Y113837D01*
X115336Y113930D01*
X115236Y114032D01*
X115157Y114154D01*
X115094Y114313D01*
X115050Y114518D01*
Y115510D01*
X115067Y115591D01*
X114928Y116288D01*
X114813Y116459D01*
X115081Y116959D01*
X199577D01*
Y58962D01*
D02*
G37*
G36*
X23042Y81528D02*
X23158Y81428D01*
X23267Y81347D01*
X23369Y81284D01*
X23464Y81238D01*
X23552Y81211D01*
X23634Y81201D01*
X23708Y81210D01*
X23775Y81236D01*
X23836Y81281D01*
X22691Y80208D01*
X22739Y80265D01*
X22769Y80329D01*
X22780Y80400D01*
X22774Y80479D01*
X22749Y80564D01*
X22706Y80657D01*
X22644Y80757D01*
X22565Y80864D01*
X22467Y80979D01*
X22351Y81100D01*
X22919Y81645D01*
X23042Y81528D01*
D02*
G37*
G36*
X98610Y68681D02*
X98584Y68630D01*
X98560Y68572D01*
X98540Y68507D01*
X98523Y68435D01*
X98509Y68355D01*
X98491Y68175D01*
X98486Y68073D01*
X98484Y67965D01*
X97484Y67808D01*
X97482Y67915D01*
X97463Y68107D01*
X97447Y68192D01*
X97426Y68268D01*
X97401Y68338D01*
X97371Y68399D01*
X97336Y68453D01*
X97296Y68499D01*
X97252Y68537D01*
X98640Y68725D01*
X98610Y68681D01*
D02*
G37*
G36*
X82906Y60079D02*
X82956Y60045D01*
X83014Y60015D01*
X83078Y59989D01*
X83150Y59967D01*
X83228Y59949D01*
X83314Y59935D01*
X83408Y59925D01*
X83615Y59917D01*
Y58917D01*
X83508Y58915D01*
X83314Y58899D01*
X83228Y58885D01*
X83150Y58867D01*
X83078Y58845D01*
X83014Y58819D01*
X82956Y58789D01*
X82906Y58755D01*
X82864Y58717D01*
Y60117D01*
X82906Y60079D01*
D02*
G37*
G36*
X79609Y53822D02*
X79619Y53727D01*
X79634Y53636D01*
X79655Y53550D01*
X79683Y53467D01*
X79717Y53389D01*
X79756Y53314D01*
X79802Y53244D01*
X79854Y53178D01*
X79913Y53116D01*
X78513D01*
X78571Y53178D01*
X78623Y53244D01*
X78669Y53314D01*
X78709Y53389D01*
X78742Y53467D01*
X78770Y53550D01*
X78791Y53636D01*
X78807Y53727D01*
X78816Y53822D01*
X78819Y53921D01*
X79606D01*
X79609Y53822D01*
D02*
G37*
G36*
X116061Y46906D02*
X115999Y46964D01*
X115933Y47017D01*
X115863Y47063D01*
X115788Y47102D01*
X115710Y47136D01*
X115628Y47164D01*
X115541Y47185D01*
X115450Y47200D01*
X115355Y47210D01*
X115256Y47213D01*
Y48000D01*
X115355Y48003D01*
X115450Y48012D01*
X115541Y48028D01*
X115628Y48049D01*
X115710Y48077D01*
X115788Y48110D01*
X115863Y48150D01*
X115933Y48196D01*
X115999Y48248D01*
X116061Y48306D01*
Y46906D01*
D02*
G37*
G36*
X105604Y43709D02*
X105519Y43706D01*
X105436Y43696D01*
X105353Y43679D01*
X105273Y43654D01*
X105193Y43623D01*
X105115Y43584D01*
X105039Y43538D01*
X104964Y43484D01*
X104890Y43424D01*
X104818Y43356D01*
X104262Y43913D01*
X104329Y43985D01*
X104390Y44058D01*
X104443Y44133D01*
X104489Y44210D01*
X104528Y44288D01*
X104560Y44367D01*
X104584Y44448D01*
X104601Y44530D01*
X104611Y44614D01*
X104614Y44699D01*
X105604Y43709D01*
D02*
G37*
G36*
X10571Y44714D02*
X10600Y44647D01*
X10650Y44588D01*
X10719Y44537D01*
X10808Y44494D01*
X10917Y44458D01*
X11046Y44431D01*
X11195Y44411D01*
X11363Y44399D01*
X11551Y44395D01*
Y43608D01*
X11363Y43604D01*
X11046Y43573D01*
X10917Y43545D01*
X10808Y43510D01*
X10719Y43466D01*
X10650Y43415D01*
X10600Y43356D01*
X10571Y43289D01*
X10561Y43214D01*
Y44789D01*
X10571Y44714D01*
D02*
G37*
G36*
X77011Y41932D02*
X77020Y41837D01*
X77035Y41747D01*
X77057Y41660D01*
X77084Y41577D01*
X77118Y41499D01*
X77158Y41425D01*
X77204Y41354D01*
X77256Y41288D01*
X77314Y41226D01*
X75914D01*
X75972Y41288D01*
X76024Y41354D01*
X76070Y41425D01*
X76110Y41499D01*
X76144Y41577D01*
X76171Y41660D01*
X76193Y41747D01*
X76208Y41837D01*
X76217Y41932D01*
X76221Y42031D01*
X77008D01*
X77011Y41932D01*
D02*
G37*
G36*
X98378Y40987D02*
X98315Y41044D01*
X98248Y41095D01*
X98177Y41140D01*
X98102Y41179D01*
X98023Y41212D01*
X97939Y41239D01*
X97853Y41260D01*
X97762Y41275D01*
X97667Y41284D01*
X97568Y41287D01*
X97551Y42075D01*
X97650Y42078D01*
X97745Y42087D01*
X97836Y42103D01*
X97922Y42125D01*
X98004Y42153D01*
X98082Y42187D01*
X98155Y42228D01*
X98225Y42274D01*
X98290Y42327D01*
X98351Y42387D01*
X98378Y40987D01*
D02*
G37*
G36*
X22977Y41932D02*
X23092Y41833D01*
X23200Y41753D01*
X23301Y41691D01*
X23395Y41646D01*
X23482Y41620D01*
X23562Y41612D01*
X23634Y41622D01*
X23700Y41650D01*
X23759Y41696D01*
X22650Y40588D01*
X22696Y40646D01*
X22725Y40712D01*
X22735Y40785D01*
X22726Y40865D01*
X22700Y40952D01*
X22656Y41046D01*
X22593Y41147D01*
X22513Y41255D01*
X22414Y41370D01*
X22298Y41492D01*
X22854Y42049D01*
X22977Y41932D01*
D02*
G37*
G36*
X74413Y39294D02*
X74422Y39200D01*
X74437Y39109D01*
X74458Y39022D01*
X74486Y38940D01*
X74520Y38861D01*
X74559Y38787D01*
X74606Y38716D01*
X74658Y38650D01*
X74716Y38588D01*
X73316D01*
X73374Y38650D01*
X73426Y38716D01*
X73472Y38787D01*
X73512Y38861D01*
X73545Y38940D01*
X73573Y39022D01*
X73594Y39109D01*
X73610Y39200D01*
X73619Y39294D01*
X73622Y39393D01*
X74410D01*
X74413Y39294D01*
D02*
G37*
G36*
X30043Y40001D02*
X30070Y39935D01*
X30114Y39876D01*
X30177Y39825D01*
X30257Y39783D01*
X30354Y39748D01*
X30470Y39720D01*
X30603Y39701D01*
X30754Y39689D01*
X30923Y39685D01*
Y38898D01*
X30754Y38894D01*
X30603Y38882D01*
X30470Y38862D01*
X30354Y38835D01*
X30257Y38800D01*
X30177Y38757D01*
X30114Y38706D01*
X30070Y38648D01*
X30043Y38582D01*
X30034Y38507D01*
Y40075D01*
X30043Y40001D01*
D02*
G37*
G36*
X125113Y37002D02*
X125050Y37061D01*
X124984Y37113D01*
X124914Y37159D01*
X124840Y37198D01*
X124761Y37232D01*
X124679Y37260D01*
X124592Y37281D01*
X124501Y37297D01*
X124407Y37306D01*
X124308Y37309D01*
Y38096D01*
X124407Y38099D01*
X124501Y38108D01*
X124592Y38124D01*
X124679Y38145D01*
X124761Y38173D01*
X124840Y38206D01*
X124914Y38246D01*
X124984Y38292D01*
X125050Y38344D01*
X125113Y38402D01*
Y37002D01*
D02*
G37*
G36*
X116899Y29930D02*
X116973Y29870D01*
X117048Y29817D01*
X117124Y29770D01*
X117202Y29732D01*
X117281Y29700D01*
X117362Y29676D01*
X117444Y29658D01*
X117528Y29648D01*
X117613Y29646D01*
X116623Y28656D01*
X116620Y28741D01*
X116610Y28824D01*
X116593Y28907D01*
X116569Y28987D01*
X116537Y29067D01*
X116498Y29144D01*
X116452Y29221D01*
X116399Y29296D01*
X116338Y29369D01*
X116270Y29442D01*
X116827Y29998D01*
X116899Y29930D01*
D02*
G37*
G36*
X110366Y27374D02*
X110377Y27314D01*
X110396Y27253D01*
X110423Y27189D01*
X110458Y27123D01*
X110501Y27054D01*
X110552Y26983D01*
X110611Y26911D01*
X110752Y26758D01*
X110045Y26051D01*
X109968Y26125D01*
X109820Y26251D01*
X109749Y26302D01*
X109680Y26345D01*
X109614Y26380D01*
X109550Y26407D01*
X109489Y26426D01*
X109429Y26438D01*
X109372Y26441D01*
X110362Y27431D01*
X110366Y27374D01*
D02*
G37*
G36*
X84767Y24767D02*
X84776Y24672D01*
X84791Y24581D01*
X84813Y24495D01*
X84840Y24412D01*
X84874Y24333D01*
X84914Y24259D01*
X84960Y24189D01*
X85012Y24123D01*
X85070Y24061D01*
X83670D01*
X83728Y24123D01*
X83780Y24189D01*
X83826Y24259D01*
X83866Y24333D01*
X83900Y24412D01*
X83927Y24495D01*
X83949Y24581D01*
X83964Y24672D01*
X83973Y24767D01*
X83976Y24866D01*
X84764D01*
X84767Y24767D01*
D02*
G37*
G36*
X87365Y22129D02*
X87375Y22034D01*
X87390Y21943D01*
X87411Y21857D01*
X87439Y21774D01*
X87472Y21696D01*
X87512Y21621D01*
X87558Y21551D01*
X87610Y21485D01*
X87669Y21423D01*
X86269D01*
X86327Y21485D01*
X86379Y21551D01*
X86425Y21621D01*
X86465Y21696D01*
X86498Y21774D01*
X86526Y21857D01*
X86547Y21943D01*
X86563Y22034D01*
X86572Y22129D01*
X86575Y22228D01*
X87362D01*
X87365Y22129D01*
D02*
G37*
G36*
X121010Y21031D02*
X122407Y20998D01*
X122368Y20956D01*
X122333Y20906D01*
X122302Y20849D01*
X122275Y20785D01*
X122252Y20714D01*
X122234Y20636D01*
X122219Y20550D01*
X122209Y20457D01*
X122201Y20249D01*
X121201Y20276D01*
X121199Y20384D01*
X121183Y20578D01*
X121170Y20664D01*
X121152Y20743D01*
X121131Y20815D01*
X121106Y20880D01*
X121077Y20937D01*
X121044Y20988D01*
X121009Y21030D01*
X120967Y21066D01*
X120917Y21100D01*
X120860Y21130D01*
X120796Y21156D01*
X120724Y21178D01*
X120645Y21196D01*
X120560Y21210D01*
X120466Y21220D01*
X120258Y21228D01*
Y22228D01*
X120366Y22230D01*
X120560Y22246D01*
X120645Y22260D01*
X120724Y22278D01*
X120796Y22300D01*
X120860Y22326D01*
X120917Y22356D01*
X120967Y22390D01*
X121010Y22428D01*
Y21031D01*
D02*
G37*
G36*
X122201Y20036D02*
X122206Y19856D01*
X122221Y19690D01*
X122246Y19537D01*
X122280Y19399D01*
X122325Y19275D01*
X122380Y19165D01*
X122445Y19068D01*
X122519Y18986D01*
X122604Y18917D01*
X122698Y18862D01*
X120699Y18882D01*
X120794Y18935D01*
X120879Y19002D01*
X120955Y19083D01*
X121020Y19178D01*
X121075Y19287D01*
X121120Y19411D01*
X121156Y19548D01*
X121181Y19700D01*
X121196Y19866D01*
X121201Y20046D01*
X122201Y20036D01*
D02*
G37*
G36*
X113868Y15821D02*
X113856Y15713D01*
X113861Y15602D01*
X113883Y15488D01*
X113922Y15372D01*
X113977Y15252D01*
X114050Y15130D01*
X114140Y15005D01*
X114247Y14877D01*
X114370Y14746D01*
X113663Y14039D01*
X113532Y14163D01*
X113405Y14270D01*
X113279Y14359D01*
X113157Y14432D01*
X113038Y14488D01*
X112921Y14527D01*
X112807Y14548D01*
X112697Y14553D01*
X112589Y14541D01*
X112483Y14512D01*
X113898Y15926D01*
X113868Y15821D01*
D02*
G37*
G36*
X103868D02*
X103856Y15713D01*
X103861Y15602D01*
X103883Y15488D01*
X103922Y15372D01*
X103977Y15252D01*
X104050Y15130D01*
X104140Y15005D01*
X104247Y14877D01*
X104370Y14746D01*
X103663Y14039D01*
X103532Y14163D01*
X103404Y14270D01*
X103279Y14359D01*
X103157Y14432D01*
X103038Y14488D01*
X102921Y14527D01*
X102807Y14548D01*
X102697Y14553D01*
X102588Y14541D01*
X102483Y14512D01*
X103898Y15926D01*
X103868Y15821D01*
D02*
G37*
G36*
X58724Y13347D02*
X58575Y13339D01*
X58441Y13315D01*
X58323Y13276D01*
X58220Y13220D01*
X58134Y13150D01*
X58063Y13063D01*
X58008Y12961D01*
X57968Y12843D01*
X57945Y12709D01*
X57937Y12559D01*
X57150D01*
X57142Y12709D01*
X57118Y12843D01*
X57079Y12961D01*
X57024Y13063D01*
X56953Y13150D01*
X56866Y13220D01*
X56764Y13276D01*
X56646Y13315D01*
X56512Y13339D01*
X56362Y13347D01*
X57543Y14134D01*
X58724Y13347D01*
D02*
G37*
G36*
X93468Y15156D02*
X93464Y15045D01*
X93449Y11626D01*
X89906D01*
X89882Y15197D01*
X93472D01*
X93468Y15156D01*
D02*
G37*
G36*
X69751Y11701D02*
X69760Y11594D01*
X69775Y11498D01*
X69797Y11411D01*
X69824Y11335D01*
X69857Y11269D01*
X69897Y11213D01*
X69942Y11167D01*
X69994Y11131D01*
X70051Y11105D01*
X68657D01*
X68715Y11131D01*
X68767Y11167D01*
X68812Y11213D01*
X68852Y11269D01*
X68885Y11335D01*
X68912Y11411D01*
X68933Y11498D01*
X68949Y11594D01*
X68958Y11701D01*
X68961Y11818D01*
X69748D01*
X69751Y11701D01*
D02*
G37*
G36*
X57948Y12324D02*
X57982Y12158D01*
X58038Y11986D01*
X58117Y11807D01*
X58218Y11622D01*
X58341Y11430D01*
X58487Y11233D01*
X58655Y11029D01*
X59059Y10601D01*
X56028D01*
X56241Y10818D01*
X56600Y11233D01*
X56746Y11430D01*
X56869Y11622D01*
X56970Y11807D01*
X57049Y11986D01*
X57105Y12158D01*
X57138Y12324D01*
X57150Y12484D01*
X57937D01*
X57948Y12324D01*
D02*
G37*
G36*
X66151Y11201D02*
X66047Y11080D01*
X65953Y10939D01*
X65871Y10778D01*
X65800Y10596D01*
X65741Y10393D01*
X65693Y10171D01*
X65656Y9928D01*
X65631Y9664D01*
X65614Y9077D01*
X63471Y11220D01*
X63775Y11223D01*
X64322Y11262D01*
X64565Y11299D01*
X64787Y11347D01*
X64989Y11406D01*
X65171Y11477D01*
X65333Y11559D01*
X65474Y11653D01*
X65595Y11758D01*
X66151Y11201D01*
D02*
G37*
%LPC*%
G36*
X123881Y108472D02*
X123113Y108319D01*
X122461Y107884D01*
X122026Y107233D01*
X121874Y106465D01*
X122026Y105696D01*
X122461Y105045D01*
X123113Y104610D01*
X123881Y104457D01*
X124649Y104610D01*
X125300Y105045D01*
X125735Y105696D01*
X125888Y106465D01*
X125735Y107233D01*
X125300Y107884D01*
X124649Y108319D01*
X123881Y108472D01*
D02*
G37*
G36*
X189217Y112785D02*
X188011Y112666D01*
X186850Y112314D01*
X185781Y111742D01*
X184844Y110973D01*
X184074Y110036D01*
X183503Y108967D01*
X183151Y107806D01*
X183032Y106599D01*
X183151Y105393D01*
X183503Y104233D01*
X184074Y103163D01*
X184844Y102226D01*
X185781Y101457D01*
X186850Y100885D01*
X188011Y100533D01*
X189217Y100414D01*
X190424Y100533D01*
X191584Y100885D01*
X192654Y101457D01*
X193591Y102226D01*
X194360Y103163D01*
X194932Y104233D01*
X195284Y105393D01*
X195403Y106599D01*
X195284Y107806D01*
X194932Y108967D01*
X194360Y110036D01*
X193591Y110973D01*
X192654Y111742D01*
X191584Y112314D01*
X190424Y112666D01*
X189217Y112785D01*
D02*
G37*
G36*
X84055Y106232D02*
X83358Y106093D01*
X82766Y105698D01*
X82371Y105107D01*
X82233Y104409D01*
X82371Y103712D01*
X82737Y103165D01*
X82740Y103147D01*
X82743Y103112D01*
Y80158D01*
X82842Y79655D01*
X83127Y79229D01*
X88505Y73851D01*
X88931Y73567D01*
X89433Y73467D01*
X107810D01*
X107822Y73466D01*
X107851Y73461D01*
X108397Y73096D01*
X109095Y72957D01*
X109792Y73096D01*
X110383Y73491D01*
X110778Y74082D01*
X110917Y74779D01*
X110778Y75477D01*
X110383Y76068D01*
X109792Y76463D01*
X109095Y76602D01*
X108397Y76463D01*
X107851Y76098D01*
X107832Y76095D01*
X107797Y76092D01*
X89977D01*
X85368Y80701D01*
Y103125D01*
X85369Y103137D01*
X85374Y103165D01*
X85739Y103712D01*
X85878Y104409D01*
X85739Y105107D01*
X85344Y105698D01*
X84753Y106093D01*
X84055Y106232D01*
D02*
G37*
G36*
X175679Y73326D02*
X174834Y73158D01*
X174118Y72680D01*
X173639Y71963D01*
X173471Y71118D01*
X173639Y70273D01*
X174118Y69557D01*
X174834Y69078D01*
X175679Y68910D01*
X176524Y69078D01*
X177240Y69557D01*
X177719Y70273D01*
X177887Y71118D01*
X177719Y71963D01*
X177240Y72680D01*
X176524Y73158D01*
X175679Y73326D01*
D02*
G37*
G36*
X192173Y87626D02*
X191476Y87487D01*
X190885Y87092D01*
X190490Y86501D01*
X190351Y85803D01*
X190490Y85106D01*
X190885Y84514D01*
X191476Y84119D01*
X192173Y83981D01*
X192238Y83994D01*
X192249Y83990D01*
X192265Y83984D01*
X192285Y83974D01*
X192308Y83960D01*
X192326Y83948D01*
X194032Y82241D01*
Y69373D01*
X192139Y67480D01*
X176095D01*
X176074Y67483D01*
X176047Y67490D01*
X176027Y67497D01*
X176011Y67503D01*
X176001Y67509D01*
X175964Y67564D01*
X175373Y67959D01*
X174675Y68098D01*
X173978Y67959D01*
X173387Y67564D01*
X172992Y66973D01*
X172853Y66275D01*
X172992Y65578D01*
X173387Y64987D01*
X173978Y64592D01*
X174034Y64581D01*
Y64071D01*
X173988Y64062D01*
X173396Y63667D01*
X173001Y63075D01*
X172863Y62378D01*
X173001Y61681D01*
X173396Y61089D01*
X173452Y61052D01*
X173457Y61042D01*
X173464Y61026D01*
X173471Y61006D01*
X173477Y60980D01*
X173481Y60958D01*
Y57774D01*
X173477Y57753D01*
X173471Y57726D01*
X173464Y57706D01*
X173457Y57690D01*
X173452Y57680D01*
X173396Y57643D01*
X173001Y57052D01*
X172863Y56354D01*
X173001Y55657D01*
X173396Y55066D01*
X173988Y54671D01*
X174685Y54532D01*
X175382Y54671D01*
X175974Y55066D01*
X176369Y55657D01*
X176507Y56354D01*
X176369Y57052D01*
X175974Y57643D01*
X175918Y57680D01*
X175913Y57690D01*
X175906Y57706D01*
X175899Y57726D01*
X175893Y57753D01*
X175889Y57774D01*
Y60958D01*
X175893Y60980D01*
X175899Y61006D01*
X175906Y61026D01*
X175913Y61042D01*
X175918Y61052D01*
X175974Y61089D01*
X176369Y61681D01*
X176507Y62378D01*
X176369Y63075D01*
X175974Y63667D01*
X175382Y64062D01*
X175327Y64073D01*
Y64583D01*
X175373Y64592D01*
X175964Y64987D01*
X176001Y65042D01*
X176011Y65047D01*
X176027Y65054D01*
X176047Y65061D01*
X176074Y65067D01*
X176095Y65071D01*
X192638D01*
X192638Y65071D01*
X193098Y65163D01*
X193489Y65424D01*
X196088Y68023D01*
X196349Y68413D01*
X196440Y68874D01*
X196440Y68874D01*
Y82740D01*
X196349Y83201D01*
X196088Y83592D01*
X194029Y85651D01*
X194016Y85669D01*
X194002Y85692D01*
X193992Y85711D01*
X193986Y85727D01*
X193983Y85738D01*
X193996Y85803D01*
X193857Y86501D01*
X193462Y87092D01*
X192871Y87487D01*
X192173Y87626D01*
D02*
G37*
G36*
X91559Y67681D02*
X90862Y67542D01*
X90270Y67147D01*
X89875Y66556D01*
X89737Y65858D01*
X89875Y65161D01*
X90270Y64570D01*
X90862Y64175D01*
X91559Y64036D01*
X92256Y64175D01*
X92848Y64570D01*
X93243Y65161D01*
X93382Y65858D01*
X93243Y66556D01*
X92848Y67147D01*
X92256Y67542D01*
X91559Y67681D01*
D02*
G37*
G36*
X53403Y67804D02*
X52635Y67652D01*
X51984Y67217D01*
X51549Y66566D01*
X51396Y65798D01*
X51549Y65029D01*
X51984Y64378D01*
X52635Y63943D01*
X53403Y63790D01*
X54172Y63943D01*
X54823Y64378D01*
X55258Y65029D01*
X55410Y65798D01*
X55258Y66566D01*
X54823Y67217D01*
X54172Y67652D01*
X53403Y67804D01*
D02*
G37*
G36*
X131228Y66594D02*
X110968D01*
X110277Y66456D01*
X109691Y66065D01*
X105063Y61437D01*
X104995Y61391D01*
X104600Y60800D01*
X104461Y60102D01*
X104600Y59405D01*
X104995Y58814D01*
X105586Y58419D01*
X106283Y58280D01*
X106981Y58419D01*
X107572Y58814D01*
X107618Y58882D01*
X111717Y62981D01*
X119864D01*
X120016Y62481D01*
X119987Y62462D01*
X119592Y61871D01*
X119453Y61173D01*
X119592Y60476D01*
X119987Y59885D01*
X120578Y59490D01*
X121276Y59351D01*
X121973Y59490D01*
X122564Y59885D01*
X122959Y60476D01*
X123098Y61173D01*
X122959Y61871D01*
X122564Y62462D01*
X122536Y62481D01*
X122687Y62981D01*
X130480D01*
X134579Y58882D01*
X134625Y58814D01*
X135216Y58419D01*
X135913Y58280D01*
X136611Y58419D01*
X137202Y58814D01*
X137597Y59405D01*
X137736Y60102D01*
X137597Y60800D01*
X137202Y61391D01*
X137134Y61437D01*
X132506Y66065D01*
X131920Y66456D01*
X131228Y66594D01*
D02*
G37*
G36*
X156608Y55169D02*
X155911Y55030D01*
X155319Y54635D01*
X154924Y54044D01*
X154786Y53347D01*
X154924Y52649D01*
X155319Y52058D01*
X155911Y51663D01*
X156608Y51524D01*
X157306Y51663D01*
X157897Y52058D01*
X158292Y52649D01*
X158431Y53347D01*
X158292Y54044D01*
X157897Y54635D01*
X157306Y55030D01*
X156608Y55169D01*
D02*
G37*
G36*
X175679Y49861D02*
X174834Y49693D01*
X174118Y49215D01*
X173639Y48498D01*
X173471Y47653D01*
X173639Y46808D01*
X174118Y46092D01*
X174834Y45614D01*
X175679Y45445D01*
X176524Y45614D01*
X177240Y46092D01*
X177719Y46808D01*
X177887Y47653D01*
X177719Y48498D01*
X177240Y49215D01*
X176524Y49693D01*
X175679Y49861D01*
D02*
G37*
G36*
X62646Y47439D02*
X61948Y47301D01*
X61357Y46906D01*
X60962Y46314D01*
X60823Y45617D01*
X60962Y44919D01*
X61357Y44328D01*
X61948Y43933D01*
X62646Y43795D01*
X63343Y43933D01*
X63934Y44328D01*
X64329Y44919D01*
X64468Y45617D01*
X64329Y46314D01*
X63934Y46906D01*
X63343Y47301D01*
X62646Y47439D01*
D02*
G37*
G36*
X30961Y52677D02*
X21512D01*
Y45591D01*
X30961D01*
Y47821D01*
X35637D01*
X38770Y44689D01*
X39196Y44404D01*
X39698Y44304D01*
X54322D01*
X54334Y44303D01*
X54362Y44298D01*
X54909Y43933D01*
X55606Y43795D01*
X56304Y43933D01*
X56895Y44328D01*
X57290Y44919D01*
X57429Y45617D01*
X57290Y46314D01*
X56895Y46906D01*
X56304Y47301D01*
X55606Y47439D01*
X54909Y47301D01*
X54362Y46935D01*
X54344Y46932D01*
X54309Y46929D01*
X40242D01*
X37109Y50062D01*
X36683Y50347D01*
X36181Y50446D01*
X30961D01*
Y52677D01*
D02*
G37*
G36*
X27417Y33023D02*
X25055D01*
X24130Y32901D01*
X23268Y32544D01*
X22528Y31976D01*
X21960Y31236D01*
X21603Y30374D01*
X21481Y29449D01*
X21603Y28524D01*
X21960Y27662D01*
X22528Y26922D01*
X23268Y26354D01*
X24130Y25997D01*
X25055Y25875D01*
X27417D01*
X28342Y25997D01*
X29204Y26354D01*
X29945Y26922D01*
X30512Y27662D01*
X30869Y28524D01*
X30991Y29449D01*
X30869Y30374D01*
X30512Y31236D01*
X29945Y31976D01*
X29204Y32544D01*
X28342Y32901D01*
X27417Y33023D01*
D02*
G37*
G36*
X175054Y16379D02*
X167584Y16379D01*
X167584Y16379D01*
X167277Y16318D01*
X167016Y16144D01*
X165968Y15095D01*
X165968Y15095D01*
X165794Y14835D01*
X165733Y14528D01*
X165733Y4646D01*
X165794Y4338D01*
X165968Y4078D01*
X165968Y4078D01*
X166991Y3054D01*
X166991Y3054D01*
X167252Y2880D01*
X167559Y2819D01*
X175039D01*
X175039Y2819D01*
X175347Y2880D01*
X175607Y3054D01*
X175607Y3054D01*
X176663Y4110D01*
X176663Y4110D01*
X176837Y4370D01*
X176898Y4678D01*
X176898Y14535D01*
X176898Y14535D01*
X176837Y14842D01*
X176663Y15103D01*
X175622Y16144D01*
X175621Y16144D01*
X175361Y16318D01*
X175054Y16379D01*
D02*
G37*
G36*
X27417Y23180D02*
X25055D01*
X24130Y23058D01*
X23268Y22701D01*
X22528Y22133D01*
X21960Y21393D01*
X21603Y20531D01*
X21481Y19606D01*
X21603Y18681D01*
X21960Y17819D01*
X22528Y17079D01*
X23268Y16511D01*
X24130Y16154D01*
X25055Y16032D01*
X27417D01*
X28342Y16154D01*
X29204Y16511D01*
X29945Y17079D01*
X30512Y17819D01*
X30869Y18681D01*
X30991Y19606D01*
X30869Y20531D01*
X30512Y21393D01*
X29945Y22133D01*
X29204Y22701D01*
X28342Y23058D01*
X27417Y23180D01*
D02*
G37*
G36*
X189217Y17509D02*
X188011Y17390D01*
X186850Y17038D01*
X185781Y16467D01*
X184844Y15698D01*
X184074Y14760D01*
X183503Y13691D01*
X183151Y12531D01*
X183032Y11324D01*
X183151Y10117D01*
X183503Y8957D01*
X184074Y7887D01*
X184844Y6950D01*
X185781Y6181D01*
X186850Y5609D01*
X188011Y5257D01*
X189217Y5139D01*
X190424Y5257D01*
X191584Y5609D01*
X192654Y6181D01*
X193591Y6950D01*
X194360Y7887D01*
X194932Y8957D01*
X195284Y10117D01*
X195403Y11324D01*
X195284Y12531D01*
X194932Y13691D01*
X194360Y14760D01*
X193591Y15698D01*
X192654Y16467D01*
X191584Y17038D01*
X190424Y17390D01*
X189217Y17509D01*
D02*
G37*
%LPD*%
G36*
X190270Y110527D02*
X191250Y110120D01*
X192092Y109474D01*
X192738Y108632D01*
X193144Y107652D01*
X193283Y106599D01*
X193144Y105547D01*
X192738Y104567D01*
X192092Y103725D01*
X191250Y103079D01*
X190270Y102673D01*
X189217Y102534D01*
X188165Y102673D01*
X187185Y103079D01*
X186343Y103725D01*
X185697Y104567D01*
X185291Y105547D01*
X185152Y106599D01*
X185291Y107652D01*
X185697Y108632D01*
X186343Y109474D01*
X187185Y110120D01*
X188165Y110527D01*
X189217Y110665D01*
X190270Y110527D01*
D02*
G37*
G36*
X84717Y103653D02*
X84683Y103603D01*
X84653Y103545D01*
X84627Y103481D01*
X84605Y103409D01*
X84587Y103331D01*
X84573Y103245D01*
X84563Y103151D01*
X84555Y102943D01*
X83555D01*
X83553Y103051D01*
X83537Y103245D01*
X83523Y103331D01*
X83505Y103409D01*
X83483Y103481D01*
X83457Y103545D01*
X83427Y103603D01*
X83393Y103653D01*
X83355Y103695D01*
X84755D01*
X84717Y103653D01*
D02*
G37*
G36*
X108380Y74080D02*
X108337Y74117D01*
X108288Y74151D01*
X108230Y74181D01*
X108166Y74208D01*
X108094Y74230D01*
X108016Y74247D01*
X107930Y74261D01*
X107836Y74272D01*
X107629Y74279D01*
Y75279D01*
X107736Y75282D01*
X107930Y75297D01*
X108016Y75311D01*
X108094Y75330D01*
X108166Y75352D01*
X108230Y75378D01*
X108288Y75407D01*
X108337Y75441D01*
X108380Y75480D01*
Y74080D01*
D02*
G37*
G36*
X193176Y85708D02*
X193186Y85624D01*
X193203Y85542D01*
X193228Y85461D01*
X193259Y85382D01*
X193298Y85304D01*
X193344Y85228D01*
X193398Y85153D01*
X193458Y85079D01*
X193526Y85007D01*
X192969Y84451D01*
X192897Y84518D01*
X192824Y84579D01*
X192748Y84632D01*
X192672Y84678D01*
X192594Y84717D01*
X192515Y84749D01*
X192434Y84773D01*
X192352Y84790D01*
X192268Y84800D01*
X192183Y84803D01*
X193173Y85793D01*
X193176Y85708D01*
D02*
G37*
G36*
X175452Y66917D02*
X175518Y66865D01*
X175588Y66819D01*
X175662Y66779D01*
X175741Y66746D01*
X175823Y66718D01*
X175910Y66697D01*
X176001Y66681D01*
X176096Y66672D01*
X176195Y66669D01*
Y65882D01*
X176096Y65879D01*
X176001Y65869D01*
X175910Y65854D01*
X175823Y65833D01*
X175741Y65805D01*
X175662Y65771D01*
X175588Y65732D01*
X175518Y65686D01*
X175452Y65634D01*
X175389Y65575D01*
Y66975D01*
X175452Y66917D01*
D02*
G37*
G36*
X175327Y61602D02*
X175275Y61536D01*
X175229Y61465D01*
X175189Y61391D01*
X175155Y61312D01*
X175128Y61230D01*
X175106Y61143D01*
X175091Y61053D01*
X175082Y60958D01*
X175079Y60859D01*
X174291D01*
X174288Y60958D01*
X174279Y61053D01*
X174264Y61143D01*
X174242Y61230D01*
X174215Y61312D01*
X174181Y61391D01*
X174141Y61465D01*
X174095Y61536D01*
X174043Y61602D01*
X173985Y61664D01*
X175385D01*
X175327Y61602D01*
D02*
G37*
G36*
X175082Y57775D02*
X175091Y57680D01*
X175106Y57589D01*
X175128Y57502D01*
X175155Y57420D01*
X175189Y57341D01*
X175229Y57267D01*
X175275Y57197D01*
X175327Y57131D01*
X175385Y57069D01*
X173985D01*
X174043Y57131D01*
X174095Y57197D01*
X174141Y57267D01*
X174181Y57341D01*
X174215Y57420D01*
X174242Y57502D01*
X174264Y57589D01*
X174279Y57680D01*
X174288Y57775D01*
X174291Y57874D01*
X175079D01*
X175082Y57775D01*
D02*
G37*
G36*
X26819Y49680D02*
X26876Y49670D01*
X26963Y49662D01*
X27406Y49643D01*
X28419Y49634D01*
Y48634D01*
X26793Y48577D01*
Y49691D01*
X26819Y49680D01*
D02*
G37*
G36*
X30159Y50039D02*
X30190Y49954D01*
X30240Y49879D01*
X30311Y49814D01*
X30402Y49759D01*
X30514Y49714D01*
X30645Y49679D01*
X30797Y49654D01*
X30969Y49639D01*
X31161Y49634D01*
Y48634D01*
X30969Y48629D01*
X30797Y48614D01*
X30645Y48589D01*
X30514Y48554D01*
X30402Y48509D01*
X30311Y48454D01*
X30240Y48389D01*
X30190Y48314D01*
X30159Y48229D01*
X30149Y48134D01*
Y50134D01*
X30159Y50039D01*
D02*
G37*
G36*
X54892Y44917D02*
X54849Y44955D01*
X54799Y44989D01*
X54742Y45019D01*
X54678Y45045D01*
X54606Y45067D01*
X54527Y45085D01*
X54441Y45099D01*
X54348Y45109D01*
X54140Y45117D01*
Y46117D01*
X54248Y46119D01*
X54441Y46135D01*
X54527Y46149D01*
X54606Y46167D01*
X54678Y46189D01*
X54742Y46215D01*
X54799Y46245D01*
X54849Y46279D01*
X54892Y46317D01*
Y44917D01*
D02*
G37*
G36*
X176095Y14535D02*
X176095Y4678D01*
X175039Y3622D01*
X167559D01*
X166535Y4646D01*
X166535Y14528D01*
X167584Y15576D01*
X175054Y15576D01*
X176095Y14535D01*
D02*
G37*
G36*
X190270Y15251D02*
X191250Y14845D01*
X192092Y14199D01*
X192738Y13357D01*
X193144Y12376D01*
X193283Y11324D01*
X193144Y10272D01*
X192738Y9291D01*
X192092Y8449D01*
X191250Y7803D01*
X190270Y7397D01*
X189217Y7258D01*
X188165Y7397D01*
X187185Y7803D01*
X186343Y8449D01*
X185697Y9291D01*
X185291Y10272D01*
X185152Y11324D01*
X185291Y12376D01*
X185697Y13357D01*
X186343Y14199D01*
X187185Y14845D01*
X188165Y15251D01*
X189217Y15389D01*
X190270Y15251D01*
D02*
G37*
D10*
X158764Y6299D02*
X162504Y10039D01*
X88262Y6299D02*
X158764Y6299D01*
X85309Y3347D02*
X88262Y6299D01*
X88298Y111638D02*
X113244D01*
X85219Y114716D02*
X88298Y111638D01*
X26236Y114716D02*
X85219D01*
X21417Y3347D02*
X85309D01*
X14534Y12505D02*
Y25882D01*
X26236Y108362D02*
Y114716D01*
X21283D02*
X25969D01*
X113244Y111638D02*
X158221D01*
X162457Y85535D02*
Y107402D01*
X158221Y111638D02*
X162457Y107402D01*
X14534Y10230D02*
X21417Y3347D01*
X14534Y10230D02*
Y12505D01*
X10411Y103844D02*
X21283Y114716D01*
X162504Y10039D02*
Y47386D01*
X162457Y71480D02*
Y85535D01*
X5756Y103844D02*
X10411D01*
X5756Y18804D02*
X14323D01*
X5756Y12505D02*
X14534D01*
D11*
X74016Y37874D02*
Y94882D01*
X64724Y104173D02*
X74016Y94882D01*
X62425Y104173D02*
X64724D01*
X69354Y106945D02*
X79213Y97087D01*
X69354Y106945D02*
Y109646D01*
X63449Y109055D02*
X76614Y95890D01*
X57543Y109055D02*
X62425Y104173D01*
X69354Y9055D02*
Y11818D01*
X63103Y8693D02*
X63457D01*
X63449Y9055D02*
X76205Y21811D01*
X57543Y9055D02*
Y13740D01*
X69354Y8693D02*
Y9055D01*
X114868Y37702D02*
X125827D01*
X109646Y32480D02*
X114868Y37702D01*
X88425Y32480D02*
X109646D01*
X192173Y85803D02*
X195236Y82740D01*
Y68874D02*
Y82740D01*
X192638Y66275D02*
X195236Y68874D01*
X63449Y109543D02*
Y109646D01*
X76614Y40512D02*
Y95890D01*
X79213Y52402D02*
Y97087D01*
X86968Y27323D02*
X90000Y30354D01*
X86968Y20709D02*
Y27323D01*
X84370Y23347D02*
Y28425D01*
X88425Y32480D01*
X90000Y30354D02*
X115914D01*
X36858Y13740D02*
X57543D01*
X34134Y16465D02*
X36858Y13740D01*
X57543D02*
X65056D01*
X74063Y22747D01*
Y32733D01*
X69354Y11818D02*
X78347Y20810D01*
X76205Y21811D02*
Y31756D01*
X78347Y20810D02*
Y30938D01*
X100276Y39370D02*
X105614Y44709D01*
X86779Y39370D02*
X100276D01*
X78347Y30938D02*
X86779Y39370D01*
X34134Y16465D02*
Y37480D01*
X32323Y39291D02*
X34134Y37480D01*
X26236Y39291D02*
X32323D01*
X74063Y32733D02*
X85235Y43905D01*
X76205Y31756D02*
X86130Y41681D01*
X98976D01*
X85235Y43905D02*
X96512D01*
X100213Y47606D02*
X116776D01*
X96512Y43905D02*
X100213Y47606D01*
X23353Y88677D02*
X26236D01*
X17639Y94391D02*
X23353Y88677D01*
X5756Y94391D02*
X17639D01*
X115914Y30354D02*
X117623Y28646D01*
X25258Y97542D02*
X26236Y98520D01*
X5756Y97542D02*
X25258D01*
X98976Y41614D02*
X99063Y41701D01*
X25055Y39291D02*
X26236D01*
X20345Y44002D02*
X25055Y39291D01*
X5756Y44002D02*
X20345D01*
X25173Y78835D02*
X26236D01*
X12768Y91240D02*
X25173Y78835D01*
X5756Y91240D02*
X12768D01*
X174675Y66275D02*
X192638D01*
X174752Y56421D02*
X174819Y56354D01*
X174685D02*
Y62378D01*
X174752Y62311D01*
D13*
X97984Y58574D02*
Y69339D01*
X84055Y80158D02*
X89433Y74779D01*
X84055Y80158D02*
Y104409D01*
X89433Y74779D02*
X109095D01*
X39698Y45617D02*
X55606D01*
X36181Y49134D02*
X39698Y45617D01*
X26236Y49134D02*
X36181D01*
X82149Y59417D02*
X93181D01*
X100929Y51669D01*
X109039Y9370D02*
X130512D01*
X101677Y16732D02*
X109039Y9370D01*
X121701Y21705D02*
X121724Y21728D01*
X121701Y16756D02*
Y21705D01*
X121677Y16732D02*
X121701Y16756D01*
X111677Y16732D02*
X116630Y11779D01*
X131315Y14261D02*
Y42701D01*
X128833Y11779D02*
X131315Y14261D01*
X116630Y11779D02*
X128833D01*
X102613Y53945D02*
X123819D01*
X97984Y58574D02*
X102613Y53945D01*
X115075Y21728D02*
X121724D01*
X109362Y27441D02*
X115075Y21728D01*
X100929Y51669D02*
X122346D01*
X131315Y42701D01*
X123819Y53945D02*
X133858Y43905D01*
Y12717D02*
Y43905D01*
X130512Y9370D02*
X133858Y12717D01*
D25*
X5756Y81787D02*
D03*
Y103844D02*
D03*
Y100693D02*
D03*
Y97542D02*
D03*
Y94391D02*
D03*
Y91240D02*
D03*
Y88089D02*
D03*
Y84938D02*
D03*
Y66049D02*
D03*
Y12505D02*
D03*
Y44002D02*
D03*
Y47151D02*
D03*
Y50301D02*
D03*
Y53451D02*
D03*
Y56600D02*
D03*
Y59750D02*
D03*
Y62900D02*
D03*
Y40852D02*
D03*
Y18804D02*
D03*
Y21954D02*
D03*
Y25104D02*
D03*
Y28253D02*
D03*
Y31403D02*
D03*
Y34553D02*
D03*
Y37702D02*
D03*
Y15655D02*
D03*
D60*
X113244Y111638D02*
Y115591D01*
Y111504D02*
Y111638D01*
X147142Y86159D02*
X161833D01*
X147008D02*
X147142D01*
X131228Y64787D02*
X135913Y60102D01*
X110968Y64787D02*
X131228D01*
X106283Y60102D02*
X110968Y64787D01*
D62*
X91677Y6972D02*
Y16732D01*
D65*
X161833Y86159D02*
X162457Y85535D01*
X25069Y50301D02*
X26236Y49134D01*
D66*
Y68992D02*
D03*
Y78835D02*
D03*
Y88677D02*
D03*
Y98520D02*
D03*
Y39291D02*
D03*
Y29449D02*
D03*
Y19606D02*
D03*
Y9764D02*
D03*
D67*
Y108362D02*
D03*
Y49134D02*
D03*
D68*
X51575Y91339D02*
D03*
Y26772D02*
D03*
X189163Y106650D02*
D03*
X189124Y11372D02*
D03*
D69*
X57543Y109055D02*
D03*
X69354D02*
D03*
X63449D02*
D03*
X51638D02*
D03*
X69354Y9055D02*
D03*
X57543D02*
D03*
X63449D02*
D03*
X75260D02*
D03*
D70*
X75260Y109055D02*
D03*
X51638Y9055D02*
D03*
D71*
X175679Y71118D02*
D03*
Y47653D02*
D03*
D72*
X190049Y76394D02*
D03*
Y42378D02*
D03*
D73*
X173592Y76394D02*
D03*
Y42378D02*
D03*
D74*
X131882Y51575D02*
D03*
X136716Y36677D02*
D03*
X138906Y22913D02*
D03*
X142018D02*
D03*
X138906Y19984D02*
D03*
X138995Y17189D02*
D03*
Y14260D02*
D03*
X142108D02*
D03*
Y17189D02*
D03*
X142018Y19984D02*
D03*
X81150Y27559D02*
D03*
X84055Y109252D02*
D03*
X32917Y77339D02*
D03*
X32828Y83064D02*
D03*
X168228Y32313D02*
D03*
Y35426D02*
D03*
X171158D02*
D03*
Y32313D02*
D03*
X176882Y32402D02*
D03*
Y35515D02*
D03*
X173953D02*
D03*
Y32402D02*
D03*
X80315Y109252D02*
D03*
Y101378D02*
D03*
X103347Y10773D02*
D03*
X120901Y81024D02*
D03*
X117788D02*
D03*
Y83953D02*
D03*
X120901D02*
D03*
X36557Y106866D02*
D03*
X33445D02*
D03*
Y109795D02*
D03*
X36557D02*
D03*
X42520Y16677D02*
D03*
X38583Y7131D02*
D03*
Y10060D02*
D03*
X42520Y19606D02*
D03*
X139567Y2480D02*
D03*
X134796D02*
D03*
X115351D02*
D03*
X110580D02*
D03*
X91496D02*
D03*
X96267D02*
D03*
X101038D02*
D03*
X105809D02*
D03*
X167412Y115394D02*
D03*
X162642D02*
D03*
X157871D02*
D03*
X153100D02*
D03*
X134016D02*
D03*
X138787D02*
D03*
X143558D02*
D03*
X148329D02*
D03*
X19076Y103874D02*
D03*
Y106803D02*
D03*
X19165Y101079D02*
D03*
X19076Y35080D02*
D03*
Y38010D02*
D03*
X19165Y32285D02*
D03*
Y29356D02*
D03*
X145921Y51593D02*
D03*
X148850D02*
D03*
X143126Y51504D02*
D03*
X140197D02*
D03*
X81239Y11584D02*
D03*
X84352D02*
D03*
Y8655D02*
D03*
X81239D02*
D03*
X15570Y57740D02*
D03*
X18682D02*
D03*
Y54811D02*
D03*
X15570D02*
D03*
X15480Y60535D02*
D03*
X18593D02*
D03*
Y63465D02*
D03*
X15480D02*
D03*
X36413Y60370D02*
D03*
X33300D02*
D03*
Y63299D02*
D03*
X36413D02*
D03*
X36502Y57575D02*
D03*
X33389D02*
D03*
Y54646D02*
D03*
X36502D02*
D03*
X69165Y32614D02*
D03*
X66053D02*
D03*
Y35543D02*
D03*
X69165D02*
D03*
Y29819D02*
D03*
X66053D02*
D03*
Y26890D02*
D03*
X69165D02*
D03*
Y90516D02*
D03*
X66053D02*
D03*
Y93445D02*
D03*
X69165D02*
D03*
Y87721D02*
D03*
X66053D02*
D03*
Y84792D02*
D03*
X69165D02*
D03*
X145410Y101987D02*
D03*
Y105100D02*
D03*
X148339D02*
D03*
Y101987D02*
D03*
X142614Y101898D02*
D03*
Y105010D02*
D03*
X139685D02*
D03*
Y101898D02*
D03*
X141320Y89504D02*
D03*
X138207D02*
D03*
Y92433D02*
D03*
X141320D02*
D03*
X141409Y86709D02*
D03*
X138297D02*
D03*
Y83780D02*
D03*
X141409D02*
D03*
X118898Y35039D02*
D03*
X174551Y5205D02*
D03*
X197953Y3496D02*
D03*
Y8267D02*
D03*
Y13038D02*
D03*
Y17809D02*
D03*
Y60748D02*
D03*
Y65519D02*
D03*
Y70290D02*
D03*
Y75061D02*
D03*
Y98915D02*
D03*
Y103686D02*
D03*
Y108457D02*
D03*
Y113228D02*
D03*
Y55977D02*
D03*
X156608Y53347D02*
D03*
X84055Y104409D02*
D03*
X35472Y42011D02*
D03*
X82149Y59417D02*
D03*
X79213Y52402D02*
D03*
X76614Y40512D02*
D03*
X74016Y37874D02*
D03*
X86968Y20709D02*
D03*
X84370Y23347D02*
D03*
X93189Y70669D02*
D03*
X89758D02*
D03*
X86326D02*
D03*
X82895D02*
D03*
X103425Y22220D02*
D03*
X55606Y45617D02*
D03*
X62646D02*
D03*
X117623Y28646D02*
D03*
X125827Y37702D02*
D03*
X84094Y49885D02*
D03*
Y52919D02*
D03*
X112964Y98472D02*
D03*
X116116D02*
D03*
X112964Y101465D02*
D03*
X116116D02*
D03*
X152465Y75125D02*
D03*
X146976Y75036D02*
D03*
X126094Y61063D02*
D03*
X128370Y41228D02*
D03*
X174462Y13858D02*
D03*
Y10929D02*
D03*
X174551Y8134D02*
D03*
X168236Y13858D02*
D03*
X171349D02*
D03*
Y10929D02*
D03*
X168236D02*
D03*
X168325Y5205D02*
D03*
X171438D02*
D03*
Y8134D02*
D03*
X168325D02*
D03*
X197953Y94144D02*
D03*
Y89374D02*
D03*
Y84603D02*
D03*
Y79832D02*
D03*
Y36893D02*
D03*
Y32122D02*
D03*
Y27351D02*
D03*
Y22580D02*
D03*
Y51206D02*
D03*
Y46435D02*
D03*
Y41664D02*
D03*
X106787Y56756D02*
D03*
X109598D02*
D03*
X104110Y56667D02*
D03*
X94551Y49795D02*
D03*
Y53026D02*
D03*
X97709Y49885D02*
D03*
X32795Y44956D02*
D03*
X87772Y92913D02*
D03*
Y89486D02*
D03*
Y86058D02*
D03*
X88346Y35673D02*
D03*
X91760Y35539D02*
D03*
X97850Y69339D02*
D03*
X100126Y86472D02*
D03*
X106417D02*
D03*
Y91827D02*
D03*
X100126D02*
D03*
X127921Y14724D02*
D03*
X121276Y61173D02*
D03*
X126094Y57449D02*
D03*
X116642D02*
D03*
X91559Y65858D02*
D03*
X111906Y44575D02*
D03*
X108961D02*
D03*
X108024Y37882D02*
D03*
X105213D02*
D03*
X102402D02*
D03*
X99079Y41701D02*
D03*
X105614Y44709D02*
D03*
X116776Y47606D02*
D03*
X147142Y86159D02*
D03*
X113244Y115591D02*
D03*
X99189D02*
D03*
X192173Y85803D02*
D03*
X174675Y66275D02*
D03*
X135913Y60102D02*
D03*
X106283D02*
D03*
X109362Y27441D02*
D03*
X121724Y21728D02*
D03*
X109095Y74779D02*
D03*
X174685Y62378D02*
D03*
Y56354D02*
D03*
D75*
X14534Y25882D02*
D03*
X123881Y106465D02*
D03*
X53403Y65798D02*
D03*
X162504Y47386D02*
D03*
X162457Y71480D02*
D03*
D85*
X91677Y16732D02*
D03*
X121677Y16732D02*
D03*
X81673D02*
D03*
X101677D02*
D03*
X111677D02*
D03*
M02*
