G04*
G04 #@! TF.GenerationSoftware,Altium Limited,Altium Designer,19.0.4 (130)*
G04*
G04 Layer_Physical_Order=3*
G04 Layer_Color=128*
%FSLAX25Y25*%
%MOIN*%
G70*
G01*
G75*
%ADD76C,0.04000*%
%ADD77C,0.07937*%
%ADD78C,0.06559*%
%ADD79C,0.06756*%
%ADD80C,0.05000*%
%ADD81C,0.05181*%
%ADD82C,0.14000*%
%ADD83O,0.08724X0.06362*%
%ADD84O,0.11087X0.06362*%
D76*
X12601Y5286D02*
G03*
X9451Y8435I-3150J0D01*
G01*
Y109616D02*
G03*
X12601Y112766I0J3150D01*
G01*
X12601Y71254D02*
G03*
X12787Y77108I17J2929D01*
G01*
X0Y8435D02*
X9451D01*
X12601Y0D02*
Y5286D01*
Y0D02*
X200601D01*
Y118080D01*
X12601D02*
X200601D01*
X12601Y112766D02*
Y118080D01*
X21Y109616D02*
X9451D01*
X21Y77108D02*
Y109616D01*
Y77108D02*
X12787D01*
X0Y71254D02*
X12601D01*
X0Y8435D02*
Y71254D01*
D77*
X26236Y68992D02*
D03*
Y78835D02*
D03*
Y88677D02*
D03*
Y98520D02*
D03*
Y108362D02*
D03*
Y49134D02*
D03*
Y39291D02*
D03*
Y29449D02*
D03*
Y19606D02*
D03*
Y9764D02*
D03*
D78*
X57543Y109055D02*
D03*
X69354D02*
D03*
X63449D02*
D03*
X51638D02*
D03*
X69354Y9055D02*
D03*
X57543D02*
D03*
X63449D02*
D03*
X75260D02*
D03*
D79*
X175679Y71118D02*
D03*
Y47653D02*
D03*
D80*
X131882Y51575D02*
D03*
X136716Y36677D02*
D03*
X138906Y22913D02*
D03*
X142018D02*
D03*
X138906Y19984D02*
D03*
X138995Y17189D02*
D03*
Y14260D02*
D03*
X142108D02*
D03*
Y17189D02*
D03*
X142018Y19984D02*
D03*
X81150Y27559D02*
D03*
X84055Y109252D02*
D03*
X32917Y77339D02*
D03*
X32828Y83064D02*
D03*
X168228Y32313D02*
D03*
Y35426D02*
D03*
X171158D02*
D03*
Y32313D02*
D03*
X176882Y32402D02*
D03*
Y35515D02*
D03*
X173953D02*
D03*
Y32402D02*
D03*
X80315Y109252D02*
D03*
Y101378D02*
D03*
X103347Y10773D02*
D03*
X120901Y81024D02*
D03*
X117788D02*
D03*
Y83953D02*
D03*
X120901D02*
D03*
X36557Y106866D02*
D03*
X33445D02*
D03*
Y109795D02*
D03*
X36557D02*
D03*
X42520Y16677D02*
D03*
X38583Y7131D02*
D03*
Y10060D02*
D03*
X42520Y19606D02*
D03*
X139567Y2480D02*
D03*
X134796D02*
D03*
X115351D02*
D03*
X110580D02*
D03*
X91496D02*
D03*
X96267D02*
D03*
X101038D02*
D03*
X105809D02*
D03*
X167412Y115394D02*
D03*
X162642D02*
D03*
X157871D02*
D03*
X153100D02*
D03*
X134016D02*
D03*
X138787D02*
D03*
X143558D02*
D03*
X148329D02*
D03*
X19076Y103874D02*
D03*
Y106803D02*
D03*
X19165Y101079D02*
D03*
X19076Y35080D02*
D03*
Y38010D02*
D03*
X19165Y32285D02*
D03*
Y29356D02*
D03*
X145921Y51593D02*
D03*
X148850D02*
D03*
X143126Y51504D02*
D03*
X140197D02*
D03*
X81239Y11584D02*
D03*
X84352D02*
D03*
Y8655D02*
D03*
X81239D02*
D03*
X15570Y57740D02*
D03*
X18682D02*
D03*
Y54811D02*
D03*
X15570D02*
D03*
X15480Y60535D02*
D03*
X18593D02*
D03*
Y63465D02*
D03*
X15480D02*
D03*
X36413Y60370D02*
D03*
X33300D02*
D03*
Y63299D02*
D03*
X36413D02*
D03*
X36502Y57575D02*
D03*
X33389D02*
D03*
Y54646D02*
D03*
X36502D02*
D03*
X69165Y32614D02*
D03*
X66053D02*
D03*
Y35543D02*
D03*
X69165D02*
D03*
Y29819D02*
D03*
X66053D02*
D03*
Y26890D02*
D03*
X69165D02*
D03*
Y90516D02*
D03*
X66053D02*
D03*
Y93445D02*
D03*
X69165D02*
D03*
Y87721D02*
D03*
X66053D02*
D03*
Y84792D02*
D03*
X69165D02*
D03*
X145410Y101987D02*
D03*
Y105100D02*
D03*
X148339D02*
D03*
Y101987D02*
D03*
X142614Y101898D02*
D03*
Y105010D02*
D03*
X139685D02*
D03*
Y101898D02*
D03*
X141320Y89504D02*
D03*
X138207D02*
D03*
Y92433D02*
D03*
X141320D02*
D03*
X141409Y86709D02*
D03*
X138297D02*
D03*
Y83780D02*
D03*
X141409D02*
D03*
X197953Y3496D02*
D03*
Y8267D02*
D03*
Y13038D02*
D03*
Y17809D02*
D03*
Y60748D02*
D03*
Y65519D02*
D03*
Y70290D02*
D03*
Y75061D02*
D03*
Y98915D02*
D03*
Y103686D02*
D03*
Y108457D02*
D03*
Y113228D02*
D03*
Y55977D02*
D03*
X84055Y104409D02*
D03*
X35472Y42011D02*
D03*
X82149Y59417D02*
D03*
X79213Y52402D02*
D03*
X76614Y40512D02*
D03*
X74016Y37874D02*
D03*
X86968Y20709D02*
D03*
X84370Y23347D02*
D03*
X93189Y70669D02*
D03*
X89758D02*
D03*
X86326D02*
D03*
X82895D02*
D03*
X103425Y22220D02*
D03*
X55606Y45617D02*
D03*
X62646D02*
D03*
X117623Y28646D02*
D03*
X125827Y37702D02*
D03*
X84094Y49885D02*
D03*
Y52919D02*
D03*
X112964Y98472D02*
D03*
X116116D02*
D03*
X112964Y101465D02*
D03*
X116116D02*
D03*
X152465Y75125D02*
D03*
X146976Y75036D02*
D03*
X126094Y61063D02*
D03*
X128370Y41228D02*
D03*
X197953Y94144D02*
D03*
Y89374D02*
D03*
Y84603D02*
D03*
Y79832D02*
D03*
Y36893D02*
D03*
Y32122D02*
D03*
Y27351D02*
D03*
Y22580D02*
D03*
Y51206D02*
D03*
Y46435D02*
D03*
Y41664D02*
D03*
X106787Y56756D02*
D03*
X109598D02*
D03*
X104110Y56667D02*
D03*
X94551Y49795D02*
D03*
Y53026D02*
D03*
X97709Y49885D02*
D03*
X32795Y44956D02*
D03*
X87772Y92913D02*
D03*
Y89486D02*
D03*
Y86058D02*
D03*
X97850Y69339D02*
D03*
X100126Y86472D02*
D03*
X106417D02*
D03*
Y91827D02*
D03*
X100126D02*
D03*
X126094Y57449D02*
D03*
X116642D02*
D03*
X111906Y44575D02*
D03*
X108961D02*
D03*
X108024Y37882D02*
D03*
X105213D02*
D03*
X102402D02*
D03*
X99079Y41701D02*
D03*
X105614Y44709D02*
D03*
X116776Y47606D02*
D03*
X147142Y86159D02*
D03*
X113244Y115591D02*
D03*
X192173Y85803D02*
D03*
X174675Y66275D02*
D03*
X135913Y60102D02*
D03*
X106283D02*
D03*
X109362Y27441D02*
D03*
X121724Y21728D02*
D03*
X109095Y74779D02*
D03*
X174685Y62378D02*
D03*
Y56354D02*
D03*
D81*
X14534Y25882D02*
D03*
X162504Y47386D02*
D03*
X162457Y71480D02*
D03*
D82*
X51575Y91339D02*
D03*
Y26772D02*
D03*
X189163Y106650D02*
D03*
X189124Y11372D02*
D03*
D83*
X190049Y76394D02*
D03*
Y42378D02*
D03*
D84*
X173592Y76394D02*
D03*
Y42378D02*
D03*
M02*
