G04*
G04 #@! TF.GenerationSoftware,Altium Limited,Altium Designer,19.0.4 (130)*
G04*
G04 Layer_Color=128*
%FSLAX25Y25*%
%MOIN*%
G70*
G01*
G75*
%ADD90C,0.00200*%
D90*
X24268Y68992D02*
X28205D01*
X26236Y67024D02*
Y70961D01*
X24268Y78835D02*
X28205D01*
X26236Y76866D02*
Y80803D01*
X24268Y88677D02*
X28205D01*
X26236Y86709D02*
Y90646D01*
X24268Y98520D02*
X28205D01*
X26236Y96551D02*
Y100488D01*
X24268Y108362D02*
X28205D01*
X26236Y106394D02*
Y110331D01*
X46575Y91339D02*
X56575D01*
X51575Y86339D02*
Y96339D01*
X46575Y26772D02*
X56575D01*
X51575Y21772D02*
Y31772D01*
X56264Y109055D02*
X58823D01*
X57543Y107776D02*
Y110335D01*
X73980Y109055D02*
X76539D01*
X75260Y107776D02*
Y110335D01*
X68075Y109055D02*
X70634D01*
X69354Y107776D02*
Y110335D01*
X62169Y109055D02*
X64728D01*
X63449Y107776D02*
Y110335D01*
X50358Y109055D02*
X52917D01*
X51638Y107776D02*
Y110335D01*
X68075Y9055D02*
X70634D01*
X69354Y7776D02*
Y10335D01*
X50358Y9055D02*
X52917D01*
X51638Y7776D02*
Y10335D01*
X56264Y9055D02*
X58823D01*
X57543Y7776D02*
Y10335D01*
X62169Y9055D02*
X64728D01*
X63449Y7776D02*
Y10335D01*
X73980Y9055D02*
X76539D01*
X75260Y7776D02*
Y10335D01*
X174301Y71118D02*
X177057D01*
X175679Y69740D02*
Y72496D01*
X174301Y47653D02*
X177057D01*
X175679Y46275D02*
Y49031D01*
X188868Y76394D02*
X191230D01*
X190049Y75213D02*
Y77575D01*
X188868Y42378D02*
X191230D01*
X190049Y41197D02*
Y43559D01*
X172411Y76394D02*
X174773D01*
X173592Y75213D02*
Y77575D01*
X172411Y42378D02*
X174773D01*
X173592Y41197D02*
Y43559D01*
X24268Y49134D02*
X28205D01*
X26236Y47165D02*
Y51102D01*
X24268Y39291D02*
X28205D01*
X26236Y37323D02*
Y41260D01*
X24268Y29449D02*
X28205D01*
X26236Y27480D02*
Y31417D01*
X24268Y19606D02*
X28205D01*
X26236Y17638D02*
Y21575D01*
X24268Y9764D02*
X28205D01*
X26236Y7795D02*
Y11732D01*
X184163Y106650D02*
X194163D01*
X189163Y101650D02*
Y111650D01*
X184124Y11372D02*
X194124D01*
X189124Y6373D02*
Y16373D01*
X131382Y51575D02*
X132382D01*
X131882Y51075D02*
Y52075D01*
X136216Y36677D02*
X137216D01*
X136716Y36177D02*
Y37177D01*
X138406Y22913D02*
X139406D01*
X138906Y22413D02*
Y23413D01*
X141518Y22913D02*
X142518D01*
X142018Y22413D02*
Y23413D01*
X138406Y19984D02*
X139406D01*
X138906Y19484D02*
Y20484D01*
X138495Y17189D02*
X139495D01*
X138995Y16689D02*
Y17689D01*
X138495Y14260D02*
X139495D01*
X138995Y13760D02*
Y14760D01*
X141608Y14260D02*
X142608D01*
X142108Y13760D02*
Y14760D01*
X141608Y17189D02*
X142608D01*
X142108Y16689D02*
Y17689D01*
X141518Y19984D02*
X142518D01*
X142018Y19484D02*
Y20484D01*
X80650Y27559D02*
X81650D01*
X81150Y27059D02*
Y28059D01*
X83555Y109252D02*
X84555D01*
X84055Y108752D02*
Y109752D01*
X32417Y77339D02*
X33417D01*
X32917Y76839D02*
Y77839D01*
X32328Y83064D02*
X33328D01*
X32828Y82564D02*
Y83564D01*
X167728Y32313D02*
X168728D01*
X168228Y31813D02*
Y32813D01*
X167728Y35426D02*
X168728D01*
X168228Y34926D02*
Y35926D01*
X170658Y35426D02*
X171658D01*
X171158Y34926D02*
Y35926D01*
X170658Y32313D02*
X171658D01*
X171158Y31813D02*
Y32813D01*
X176382Y32402D02*
X177382D01*
X176882Y31902D02*
Y32902D01*
X176382Y35515D02*
X177382D01*
X176882Y35015D02*
Y36015D01*
X173453Y35515D02*
X174453D01*
X173953Y35015D02*
Y36015D01*
X173453Y32402D02*
X174453D01*
X173953Y31902D02*
Y32902D01*
X79815Y109252D02*
X80815D01*
X80315Y108752D02*
Y109752D01*
X79815Y101378D02*
X80815D01*
X80315Y100878D02*
Y101878D01*
X102847Y10773D02*
X103847D01*
X103347Y10273D02*
Y11273D01*
X120401Y81024D02*
X121401D01*
X120901Y80524D02*
Y81524D01*
X117288Y81024D02*
X118288D01*
X117788Y80524D02*
Y81524D01*
X117288Y83953D02*
X118288D01*
X117788Y83453D02*
Y84453D01*
X120401Y83953D02*
X121401D01*
X120901Y83453D02*
Y84453D01*
X36057Y106866D02*
X37057D01*
X36557Y106366D02*
Y107366D01*
X32945Y106866D02*
X33945D01*
X33445Y106366D02*
Y107366D01*
X32945Y109795D02*
X33945D01*
X33445Y109295D02*
Y110295D01*
X36057Y109795D02*
X37057D01*
X36557Y109295D02*
Y110295D01*
X42020Y16677D02*
X43020D01*
X42520Y16177D02*
Y17177D01*
X38083Y7131D02*
X39083D01*
X38583Y6631D02*
Y7631D01*
X38083Y10060D02*
X39083D01*
X38583Y9560D02*
Y10560D01*
X42020Y19606D02*
X43020D01*
X42520Y19106D02*
Y20106D01*
X139067Y2480D02*
X140067D01*
X139567Y1980D02*
Y2980D01*
X134296Y2480D02*
X135296D01*
X134796Y1980D02*
Y2980D01*
X114851Y2480D02*
X115851D01*
X115351Y1980D02*
Y2980D01*
X110080Y2480D02*
X111080D01*
X110580Y1980D02*
Y2980D01*
X90996Y2480D02*
X91996D01*
X91496Y1980D02*
Y2980D01*
X95767Y2480D02*
X96767D01*
X96267Y1980D02*
Y2980D01*
X100538Y2480D02*
X101538D01*
X101038Y1980D02*
Y2980D01*
X105309Y2480D02*
X106309D01*
X105809Y1980D02*
Y2980D01*
X166912Y115394D02*
X167912D01*
X167412Y114894D02*
Y115894D01*
X162142Y115394D02*
X163142D01*
X162642Y114894D02*
Y115894D01*
X157371Y115394D02*
X158371D01*
X157871Y114894D02*
Y115894D01*
X152600Y115394D02*
X153600D01*
X153100Y114894D02*
Y115894D01*
X133516Y115394D02*
X134516D01*
X134016Y114894D02*
Y115894D01*
X138287Y115394D02*
X139287D01*
X138787Y114894D02*
Y115894D01*
X143058Y115394D02*
X144058D01*
X143558Y114894D02*
Y115894D01*
X147829Y115394D02*
X148829D01*
X148329Y114894D02*
Y115894D01*
X18576Y103874D02*
X19576D01*
X19076Y103374D02*
Y104374D01*
X18576Y106803D02*
X19576D01*
X19076Y106303D02*
Y107303D01*
X18665Y101079D02*
X19665D01*
X19165Y100579D02*
Y101579D01*
X18576Y35080D02*
X19576D01*
X19076Y34580D02*
Y35580D01*
X18576Y38010D02*
X19576D01*
X19076Y37510D02*
Y38510D01*
X18665Y32285D02*
X19665D01*
X19165Y31785D02*
Y32785D01*
X18665Y29356D02*
X19665D01*
X19165Y28856D02*
Y29856D01*
X145421Y51593D02*
X146421D01*
X145921Y51093D02*
Y52093D01*
X148350Y51593D02*
X149350D01*
X148850Y51093D02*
Y52093D01*
X142626Y51504D02*
X143626D01*
X143126Y51004D02*
Y52004D01*
X139697Y51504D02*
X140697D01*
X140197Y51004D02*
Y52004D01*
X80739Y11584D02*
X81739D01*
X81239Y11084D02*
Y12084D01*
X83852Y11584D02*
X84852D01*
X84352Y11084D02*
Y12084D01*
X83852Y8655D02*
X84852D01*
X84352Y8155D02*
Y9155D01*
X80739Y8655D02*
X81739D01*
X81239Y8155D02*
Y9155D01*
X15070Y57740D02*
X16070D01*
X15570Y57240D02*
Y58240D01*
X18182Y57740D02*
X19182D01*
X18682Y57240D02*
Y58240D01*
X18182Y54811D02*
X19182D01*
X18682Y54311D02*
Y55311D01*
X15070Y54811D02*
X16070D01*
X15570Y54311D02*
Y55311D01*
X14980Y60535D02*
X15980D01*
X15480Y60035D02*
Y61035D01*
X18093Y60535D02*
X19093D01*
X18593Y60035D02*
Y61035D01*
X18093Y63465D02*
X19093D01*
X18593Y62965D02*
Y63965D01*
X14980Y63465D02*
X15980D01*
X15480Y62965D02*
Y63965D01*
X35913Y60370D02*
X36913D01*
X36413Y59870D02*
Y60870D01*
X32800Y60370D02*
X33800D01*
X33300Y59870D02*
Y60870D01*
X32800Y63299D02*
X33800D01*
X33300Y62799D02*
Y63799D01*
X35913Y63299D02*
X36913D01*
X36413Y62799D02*
Y63799D01*
X36002Y57575D02*
X37002D01*
X36502Y57075D02*
Y58075D01*
X32889Y57575D02*
X33889D01*
X33389Y57075D02*
Y58075D01*
X32889Y54646D02*
X33889D01*
X33389Y54146D02*
Y55146D01*
X36002Y54646D02*
X37002D01*
X36502Y54146D02*
Y55146D01*
X68665Y32614D02*
X69665D01*
X69165Y32114D02*
Y33114D01*
X65553Y32614D02*
X66553D01*
X66053Y32114D02*
Y33114D01*
X65553Y35543D02*
X66553D01*
X66053Y35043D02*
Y36043D01*
X68665Y35543D02*
X69665D01*
X69165Y35043D02*
Y36043D01*
X68665Y29819D02*
X69665D01*
X69165Y29319D02*
Y30319D01*
X65553Y29819D02*
X66553D01*
X66053Y29319D02*
Y30319D01*
X65553Y26890D02*
X66553D01*
X66053Y26390D02*
Y27390D01*
X68665Y26890D02*
X69665D01*
X69165Y26390D02*
Y27390D01*
X68665Y90516D02*
X69665D01*
X69165Y90016D02*
Y91016D01*
X65553Y90516D02*
X66553D01*
X66053Y90016D02*
Y91016D01*
X65553Y93445D02*
X66553D01*
X66053Y92945D02*
Y93945D01*
X68665Y93445D02*
X69665D01*
X69165Y92945D02*
Y93945D01*
X68665Y87721D02*
X69665D01*
X69165Y87221D02*
Y88221D01*
X65553Y87721D02*
X66553D01*
X66053Y87221D02*
Y88221D01*
X65553Y84792D02*
X66553D01*
X66053Y84292D02*
Y85292D01*
X68665Y84792D02*
X69665D01*
X69165Y84292D02*
Y85292D01*
X144910Y101987D02*
X145910D01*
X145410Y101487D02*
Y102487D01*
X144910Y105100D02*
X145910D01*
X145410Y104600D02*
Y105600D01*
X147839Y105100D02*
X148839D01*
X148339Y104600D02*
Y105600D01*
X147839Y101987D02*
X148839D01*
X148339Y101487D02*
Y102487D01*
X142114Y101898D02*
X143114D01*
X142614Y101398D02*
Y102398D01*
X142114Y105010D02*
X143114D01*
X142614Y104510D02*
Y105510D01*
X139185Y105010D02*
X140185D01*
X139685Y104510D02*
Y105510D01*
X139185Y101898D02*
X140185D01*
X139685Y101398D02*
Y102398D01*
X140820Y89504D02*
X141820D01*
X141320Y89004D02*
Y90004D01*
X137707Y89504D02*
X138707D01*
X138207Y89004D02*
Y90004D01*
X137707Y92433D02*
X138707D01*
X138207Y91933D02*
Y92933D01*
X140820Y92433D02*
X141820D01*
X141320Y91933D02*
Y92933D01*
X140909Y86709D02*
X141909D01*
X141409Y86209D02*
Y87209D01*
X137797Y86709D02*
X138797D01*
X138297Y86209D02*
Y87209D01*
X137797Y83780D02*
X138797D01*
X138297Y83280D02*
Y84280D01*
X140909Y83780D02*
X141909D01*
X141409Y83280D02*
Y84280D01*
X118398Y35039D02*
X119398D01*
X118898Y34539D02*
Y35539D01*
X174051Y5205D02*
X175051D01*
X174551Y4705D02*
Y5705D01*
X197453Y3496D02*
X198453D01*
X197953Y2996D02*
Y3996D01*
X197453Y8267D02*
X198453D01*
X197953Y7767D02*
Y8767D01*
X197453Y13038D02*
X198453D01*
X197953Y12538D02*
Y13538D01*
X197453Y17809D02*
X198453D01*
X197953Y17309D02*
Y18309D01*
X197453Y60748D02*
X198453D01*
X197953Y60248D02*
Y61248D01*
X197453Y65519D02*
X198453D01*
X197953Y65019D02*
Y66019D01*
X197453Y70290D02*
X198453D01*
X197953Y69790D02*
Y70790D01*
X197453Y75061D02*
X198453D01*
X197953Y74561D02*
Y75561D01*
X197453Y98915D02*
X198453D01*
X197953Y98415D02*
Y99415D01*
X197453Y103686D02*
X198453D01*
X197953Y103186D02*
Y104186D01*
X197453Y108457D02*
X198453D01*
X197953Y107957D02*
Y108957D01*
X197453Y113228D02*
X198453D01*
X197953Y112728D02*
Y113728D01*
X197453Y55977D02*
X198453D01*
X197953Y55477D02*
Y56477D01*
X156108Y53347D02*
X157108D01*
X156608Y52846D02*
Y53847D01*
X83555Y104409D02*
X84555D01*
X84055Y103909D02*
Y104909D01*
X34972Y42011D02*
X35972D01*
X35472Y41511D02*
Y42511D01*
X81650Y59417D02*
X82649D01*
X82149Y58917D02*
Y59917D01*
X78713Y52402D02*
X79713D01*
X79213Y51902D02*
Y52902D01*
X76114Y40512D02*
X77114D01*
X76614Y40012D02*
Y41012D01*
X73516Y37874D02*
X74516D01*
X74016Y37374D02*
Y38374D01*
X86468Y20709D02*
X87468D01*
X86968Y20209D02*
Y21209D01*
X83870Y23347D02*
X84870D01*
X84370Y22847D02*
Y23846D01*
X92689Y70669D02*
X93689D01*
X93189Y70169D02*
Y71169D01*
X89258Y70669D02*
X90258D01*
X89758Y70169D02*
Y71169D01*
X85826Y70669D02*
X86826D01*
X86326Y70169D02*
Y71169D01*
X82395Y70669D02*
X83395D01*
X82895Y70169D02*
Y71169D01*
X102925Y22220D02*
X103925D01*
X103425Y21721D02*
Y22720D01*
X13944Y25882D02*
X15125D01*
X14534Y25291D02*
Y26472D01*
X55106Y45617D02*
X56106D01*
X55606Y45117D02*
Y46117D01*
X62146Y45617D02*
X63146D01*
X62646Y45117D02*
Y46117D01*
X117123Y28646D02*
X118123D01*
X117623Y28146D02*
Y29146D01*
X125327Y37702D02*
X126327D01*
X125827Y37202D02*
Y38202D01*
X83594Y49885D02*
X84594D01*
X84094Y49384D02*
Y50384D01*
X83594Y52919D02*
X84594D01*
X84094Y52419D02*
Y53419D01*
X112464Y98472D02*
X113464D01*
X112964Y97973D02*
Y98972D01*
X115616Y98472D02*
X116616D01*
X116116Y97973D02*
Y98972D01*
X112464Y101465D02*
X113464D01*
X112964Y100965D02*
Y101965D01*
X115616Y101465D02*
X116616D01*
X116116Y100965D02*
Y101965D01*
X151965Y75125D02*
X152965D01*
X152465Y74625D02*
Y75625D01*
X146476Y75036D02*
X147476D01*
X146976Y74536D02*
Y75536D01*
X123290Y106465D02*
X124471D01*
X123881Y105874D02*
Y107055D01*
X125594Y61063D02*
X126594D01*
X126094Y60563D02*
Y61563D01*
X127870Y41228D02*
X128870D01*
X128370Y40728D02*
Y41728D01*
X173962Y13858D02*
X174962D01*
X174462Y13358D02*
Y14358D01*
X173962Y10929D02*
X174962D01*
X174462Y10429D02*
Y11429D01*
X174051Y8134D02*
X175051D01*
X174551Y7634D02*
Y8634D01*
X167736Y13858D02*
X168736D01*
X168236Y13358D02*
Y14358D01*
X170849Y13858D02*
X171849D01*
X171349Y13358D02*
Y14358D01*
X170849Y10929D02*
X171849D01*
X171349Y10429D02*
Y11429D01*
X167736Y10929D02*
X168736D01*
X168236Y10429D02*
Y11429D01*
X167825Y5205D02*
X168825D01*
X168325Y4705D02*
Y5705D01*
X170938Y5205D02*
X171938D01*
X171438Y4705D02*
Y5705D01*
X170938Y8134D02*
X171938D01*
X171438Y7634D02*
Y8634D01*
X167825Y8134D02*
X168825D01*
X168325Y7634D02*
Y8634D01*
X197453Y94144D02*
X198453D01*
X197953Y93644D02*
Y94644D01*
X197453Y89374D02*
X198453D01*
X197953Y88874D02*
Y89874D01*
X197453Y84603D02*
X198453D01*
X197953Y84103D02*
Y85103D01*
X197453Y79832D02*
X198453D01*
X197953Y79332D02*
Y80332D01*
X197453Y36893D02*
X198453D01*
X197953Y36393D02*
Y37393D01*
X197453Y32122D02*
X198453D01*
X197953Y31622D02*
Y32622D01*
X197453Y27351D02*
X198453D01*
X197953Y26851D02*
Y27851D01*
X197453Y22580D02*
X198453D01*
X197953Y22080D02*
Y23080D01*
X197453Y51206D02*
X198453D01*
X197953Y50706D02*
Y51706D01*
X197453Y46435D02*
X198453D01*
X197953Y45935D02*
Y46935D01*
X197453Y41664D02*
X198453D01*
X197953Y41164D02*
Y42164D01*
X106287Y56756D02*
X107287D01*
X106787Y56256D02*
Y57256D01*
X109098Y56756D02*
X110098D01*
X109598Y56256D02*
Y57256D01*
X103610Y56667D02*
X104610D01*
X104110Y56167D02*
Y57167D01*
X94051Y49795D02*
X95051D01*
X94551Y49295D02*
Y50295D01*
X94051Y53026D02*
X95051D01*
X94551Y52526D02*
Y53526D01*
X97209Y49885D02*
X98209D01*
X97709Y49384D02*
Y50384D01*
X32295Y44956D02*
X33295D01*
X32795Y44456D02*
Y45456D01*
X87272Y92913D02*
X88272D01*
X87772Y92413D02*
Y93413D01*
X87272Y89486D02*
X88272D01*
X87772Y88986D02*
Y89986D01*
X87272Y86058D02*
X88272D01*
X87772Y85558D02*
Y86558D01*
X52813Y65798D02*
X53994D01*
X53403Y65207D02*
Y66388D01*
X87846Y35673D02*
X88846D01*
X88346Y35173D02*
Y36173D01*
X91260Y35539D02*
X92260D01*
X91760Y35039D02*
Y36039D01*
X97350Y69339D02*
X98350D01*
X97850Y68839D02*
Y69839D01*
X99626Y86472D02*
X100626D01*
X100126Y85972D02*
Y86972D01*
X105917Y86472D02*
X106917D01*
X106417Y85972D02*
Y86972D01*
X105917Y91827D02*
X106917D01*
X106417Y91327D02*
Y92327D01*
X99626Y91827D02*
X100626D01*
X100126Y91327D02*
Y92327D01*
X127421Y14724D02*
X128421D01*
X127921Y14224D02*
Y15224D01*
X120776Y61173D02*
X121776D01*
X121276Y60673D02*
Y61673D01*
X125594Y57449D02*
X126594D01*
X126094Y56949D02*
Y57949D01*
X116142Y57449D02*
X117142D01*
X116642Y56949D02*
Y57949D01*
X91059Y65858D02*
X92059D01*
X91559Y65358D02*
Y66358D01*
X111406Y44575D02*
X112406D01*
X111906Y44075D02*
Y45075D01*
X108461Y44575D02*
X109461D01*
X108961Y44075D02*
Y45075D01*
X107524Y37882D02*
X108524D01*
X108024Y37382D02*
Y38382D01*
X104713Y37882D02*
X105713D01*
X105213Y37382D02*
Y38382D01*
X101902Y37882D02*
X102902D01*
X102402Y37382D02*
Y38382D01*
X98579Y41701D02*
X99579D01*
X99079Y41201D02*
Y42201D01*
X105114Y44709D02*
X106114D01*
X105614Y44209D02*
Y45209D01*
X116276Y47606D02*
X117276D01*
X116776Y47106D02*
Y48106D01*
X161913Y47386D02*
X163094D01*
X162504Y46795D02*
Y47976D01*
X161866Y71480D02*
X163047D01*
X162457Y70890D02*
Y72071D01*
X146642Y86159D02*
X147642D01*
X147142Y85659D02*
Y86659D01*
X112744Y115591D02*
X113744D01*
X113244Y115091D02*
Y116091D01*
X98689Y115591D02*
X99689D01*
X99189Y115091D02*
Y116091D01*
X191673Y85803D02*
X192673D01*
X192173Y85303D02*
Y86303D01*
X174175Y66275D02*
X175175D01*
X174675Y65775D02*
Y66775D01*
X135413Y60102D02*
X136413D01*
X135913Y59602D02*
Y60602D01*
X105783Y60102D02*
X106783D01*
X106283Y59602D02*
Y60602D01*
X108862Y27441D02*
X109862D01*
X109362Y26941D02*
Y27941D01*
X121224Y21728D02*
X122224D01*
X121724Y21228D02*
Y22228D01*
X108595Y74779D02*
X109595D01*
X109095Y74279D02*
Y75279D01*
X174185Y62378D02*
X175185D01*
X174685Y61878D02*
Y62878D01*
X174185Y56354D02*
X175185D01*
X174685Y55854D02*
Y56854D01*
M02*
