G04*
G04 #@! TF.GenerationSoftware,Altium Limited,Altium Designer,19.0.4 (130)*
G04*
G04 Layer_Color=2752767*
%FSLAX25Y25*%
%MOIN*%
G70*
G01*
G75*
%ADD13C,0.01000*%
%ADD90C,0.00200*%
%ADD91C,0.01500*%
%ADD92C,0.01600*%
%ADD93C,0.01400*%
D13*
X-83154Y217126D02*
G03*
X-83154Y217126I-1969J0D01*
G01*
X-87091Y225000D02*
X-86107D01*
X-87091D02*
Y226969D01*
X-86107D01*
Y227953D01*
X-84138D01*
Y226969D02*
Y227953D01*
Y226969D02*
X-83154D01*
Y225000D02*
Y226969D01*
X-84138Y225000D02*
X-83154D01*
X-84138Y224016D02*
Y225000D01*
X-86107Y224016D02*
X-84138D01*
X-86107D02*
Y225000D01*
X-87091Y206299D02*
Y207283D01*
X-86107Y208268D01*
X-87091Y209252D02*
X-86107Y208268D01*
X-87091Y209252D02*
Y210236D01*
X-86107D01*
X-85122Y209252D01*
X-84138Y210236D01*
X-83154D01*
Y209252D02*
Y210236D01*
X-84138Y208268D02*
X-83154Y209252D01*
X-84138Y208268D02*
X-83154Y207283D01*
Y206299D02*
Y207283D01*
X-84138Y206299D02*
X-83154D01*
X-85122Y207283D02*
X-84138Y206299D01*
X-86107D02*
X-85122Y207283D01*
X-87091Y206299D02*
X-86107D01*
X-85122Y197441D02*
X-83154Y201378D01*
X-87091D02*
X-83154D01*
X-87091D02*
X-85122Y197441D01*
X-87091Y188583D02*
X-85122Y189567D01*
X-83154Y188583D01*
X-84138Y190551D02*
X-83154Y188583D01*
X-84138Y190551D02*
X-83154Y192520D01*
X-85122Y191535D02*
X-83154Y192520D01*
X-87091D02*
X-85122Y191535D01*
X-87091Y192520D02*
X-86107Y190551D01*
X-87091Y188583D02*
X-86107Y190551D01*
X-87091Y181693D02*
X-85122Y179724D01*
X-83154Y181693D01*
X-85122Y183661D02*
X-83154Y181693D01*
X-87091D02*
X-85122Y183661D01*
X-87091Y170866D02*
X-83154D01*
Y174803D01*
X-87091D02*
X-83154D01*
X-87091Y170866D02*
Y174803D01*
X-86107Y162992D02*
X-85122Y162008D01*
X-87091Y162992D02*
X-86107D01*
X-87091D02*
X-86107Y163976D01*
X-87091Y164961D02*
X-86107Y163976D01*
X-87091Y164961D02*
X-86107D01*
X-85122Y165945D01*
X-84138Y164961D01*
X-83154D01*
X-84138Y163976D02*
X-83154Y164961D01*
X-84138Y163976D02*
X-83154Y162992D01*
X-84138D02*
X-83154D01*
X-85122Y162008D02*
X-84138Y162992D01*
X645514Y226968D02*
X646104Y227558D01*
X647285D01*
X647875Y226968D01*
Y224606D01*
X647285Y224016D01*
X646104D01*
X645514Y224606D01*
Y226968D01*
X649056Y224016D02*
Y224606D01*
X649647D01*
Y224016D01*
X649056D01*
X654369Y227558D02*
X653189Y226968D01*
X652008Y225787D01*
Y224606D01*
X652598Y224016D01*
X653779D01*
X654369Y224606D01*
Y225197D01*
X653779Y225787D01*
X652008D01*
X655550Y226968D02*
X656141Y227558D01*
X657321D01*
X657912Y226968D01*
Y224606D01*
X657321Y224016D01*
X656141D01*
X655550Y224606D01*
Y226968D01*
X659092D02*
X659683Y227558D01*
X660863D01*
X661454Y226968D01*
Y224606D01*
X660863Y224016D01*
X659683D01*
X659092Y224606D01*
Y226968D01*
X662635Y224016D02*
Y226377D01*
X663225D01*
X663815Y225787D01*
Y224016D01*
Y225787D01*
X664405Y226377D01*
X664996Y225787D01*
Y224016D01*
X666177D02*
Y226377D01*
X666767D01*
X667357Y225787D01*
Y224016D01*
Y225787D01*
X667948Y226377D01*
X668538Y225787D01*
Y224016D01*
X674442D02*
X673261Y225197D01*
Y226377D01*
X674442Y227558D01*
X678574Y224016D02*
X676213D01*
X678574Y226377D01*
Y226968D01*
X677984Y227558D01*
X676803D01*
X676213Y226968D01*
X679755D02*
X680345Y227558D01*
X681526D01*
X682116Y226968D01*
Y226377D01*
X681526Y225787D01*
X680936D01*
X681526D01*
X682116Y225197D01*
Y224606D01*
X681526Y224016D01*
X680345D01*
X679755Y224606D01*
X683297Y224016D02*
Y224606D01*
X683887D01*
Y224016D01*
X683297D01*
X688610Y227558D02*
X687430Y226968D01*
X686249Y225787D01*
Y224606D01*
X686839Y224016D01*
X688020D01*
X688610Y224606D01*
Y225197D01*
X688020Y225787D01*
X686249D01*
X692153Y224016D02*
X689791D01*
X692153Y226377D01*
Y226968D01*
X691562Y227558D01*
X690381D01*
X689791Y226968D01*
X693333Y224016D02*
Y226377D01*
X693924D01*
X694514Y225787D01*
Y224016D01*
Y225787D01*
X695104Y226377D01*
X695695Y225787D01*
Y224016D01*
X696875D02*
X698056D01*
X697466D01*
Y226377D01*
X696875D01*
X699827Y224016D02*
X701008D01*
X700418D01*
Y227558D01*
X699827D01*
X702779Y224016D02*
X703960Y225197D01*
Y226377D01*
X702779Y227558D01*
X645514Y215158D02*
X646695D01*
X646104D01*
Y218700D01*
X645514Y218109D01*
X648466Y215158D02*
Y215748D01*
X649056D01*
Y215158D01*
X648466D01*
X653779D02*
X651418D01*
X653779Y217519D01*
Y218109D01*
X653189Y218700D01*
X652008D01*
X651418Y218109D01*
X654960D02*
X655550Y218700D01*
X656731D01*
X657321Y218109D01*
Y215748D01*
X656731Y215158D01*
X655550D01*
X654960Y215748D01*
Y218109D01*
X658502D02*
X659092Y218700D01*
X660273D01*
X660863Y218109D01*
Y215748D01*
X660273Y215158D01*
X659092D01*
X658502Y215748D01*
Y218109D01*
X662044Y215158D02*
Y217519D01*
X662635D01*
X663225Y216929D01*
Y215158D01*
Y216929D01*
X663815Y217519D01*
X664405Y216929D01*
Y215158D01*
X665586D02*
Y217519D01*
X666177D01*
X666767Y216929D01*
Y215158D01*
Y216929D01*
X667357Y217519D01*
X667948Y216929D01*
Y215158D01*
X673851D02*
X672671Y216338D01*
Y217519D01*
X673851Y218700D01*
X677393Y215158D02*
Y218700D01*
X675622Y216929D01*
X677984D01*
X679165Y218700D02*
X681526D01*
Y218109D01*
X679165Y215748D01*
Y215158D01*
X682707D02*
Y215748D01*
X683297D01*
Y215158D01*
X682707D01*
X688020D02*
X685659D01*
X688020Y217519D01*
Y218109D01*
X687430Y218700D01*
X686249D01*
X685659Y218109D01*
X690972Y215158D02*
Y218700D01*
X689201Y216929D01*
X691562D01*
X692743Y215158D02*
Y217519D01*
X693333D01*
X693924Y216929D01*
Y215158D01*
Y216929D01*
X694514Y217519D01*
X695104Y216929D01*
Y215158D01*
X696285D02*
X697466D01*
X696875D01*
Y217519D01*
X696285D01*
X699237Y215158D02*
X700418D01*
X699827D01*
Y218700D01*
X699237D01*
X702189Y215158D02*
X703369Y216338D01*
Y217519D01*
X702189Y218700D01*
X645514Y208070D02*
X647875D01*
X645514Y199212D02*
X647875D01*
X645514Y190354D02*
X647875D01*
X645514Y181495D02*
X647875D01*
X645514Y172637D02*
X647875D01*
X645514Y163779D02*
X647875D01*
X580344Y224016D02*
X581525D01*
X580934D01*
Y227558D01*
X580344Y226968D01*
X583296Y224016D02*
Y224606D01*
X583886D01*
Y224016D01*
X583296D01*
X588609D02*
X586247D01*
X588609Y226377D01*
Y226968D01*
X588019Y227558D01*
X586838D01*
X586247Y226968D01*
X589789D02*
X590380Y227558D01*
X591561D01*
X592151Y226968D01*
Y224606D01*
X591561Y224016D01*
X590380D01*
X589789Y224606D01*
Y226968D01*
X593332D02*
X593922Y227558D01*
X595103D01*
X595693Y226968D01*
Y224606D01*
X595103Y224016D01*
X593922D01*
X593332Y224606D01*
Y226968D01*
X596874Y224016D02*
Y226377D01*
X597464D01*
X598055Y225787D01*
Y224016D01*
Y225787D01*
X598645Y226377D01*
X599235Y225787D01*
Y224016D01*
X600416D02*
Y226377D01*
X601006D01*
X601597Y225787D01*
Y224016D01*
Y225787D01*
X602187Y226377D01*
X602777Y225787D01*
Y224016D01*
X608681D02*
X607500Y225197D01*
Y226377D01*
X608681Y227558D01*
X612223Y224016D02*
Y227558D01*
X610452Y225787D01*
X612814D01*
X613994Y227558D02*
X616356D01*
Y226968D01*
X613994Y224606D01*
Y224016D01*
X617536D02*
Y224606D01*
X618127D01*
Y224016D01*
X617536D01*
X622850D02*
X620488D01*
X622850Y226377D01*
Y226968D01*
X622259Y227558D01*
X621079D01*
X620488Y226968D01*
X625802Y224016D02*
Y227558D01*
X624030Y225787D01*
X626392D01*
X627573Y224016D02*
Y226377D01*
X628163D01*
X628753Y225787D01*
Y224016D01*
Y225787D01*
X629344Y226377D01*
X629934Y225787D01*
Y224016D01*
X631115D02*
X632296D01*
X631705D01*
Y226377D01*
X631115D01*
X634066Y224016D02*
X635247D01*
X634657D01*
Y227558D01*
X634066D01*
X637018Y224016D02*
X638199Y225197D01*
Y226377D01*
X637018Y227558D01*
X580344Y215158D02*
X581525D01*
X580934D01*
Y218700D01*
X580344Y218109D01*
X583296Y215158D02*
Y215748D01*
X583886D01*
Y215158D01*
X583296D01*
X586247Y218109D02*
X586838Y218700D01*
X588019D01*
X588609Y218109D01*
Y217519D01*
X588019Y216929D01*
X588609Y216338D01*
Y215748D01*
X588019Y215158D01*
X586838D01*
X586247Y215748D01*
Y216338D01*
X586838Y216929D01*
X586247Y217519D01*
Y218109D01*
X586838Y216929D02*
X588019D01*
X589789Y218109D02*
X590380Y218700D01*
X591561D01*
X592151Y218109D01*
Y215748D01*
X591561Y215158D01*
X590380D01*
X589789Y215748D01*
Y218109D01*
X593332D02*
X593922Y218700D01*
X595103D01*
X595693Y218109D01*
Y215748D01*
X595103Y215158D01*
X593922D01*
X593332Y215748D01*
Y218109D01*
X596874Y215158D02*
Y217519D01*
X597464D01*
X598055Y216929D01*
Y215158D01*
Y216929D01*
X598645Y217519D01*
X599235Y216929D01*
Y215158D01*
X600416D02*
Y217519D01*
X601006D01*
X601597Y216929D01*
Y215158D01*
Y216929D01*
X602187Y217519D01*
X602777Y216929D01*
Y215158D01*
X608681D02*
X607500Y216338D01*
Y217519D01*
X608681Y218700D01*
X610452D02*
X612814D01*
Y218109D01*
X610452Y215748D01*
Y215158D01*
X613994Y218109D02*
X614585Y218700D01*
X615765D01*
X616356Y218109D01*
Y215748D01*
X615765Y215158D01*
X614585D01*
X613994Y215748D01*
Y218109D01*
X617536Y215158D02*
Y215748D01*
X618127D01*
Y215158D01*
X617536D01*
X620488Y218109D02*
X621079Y218700D01*
X622259D01*
X622850Y218109D01*
Y217519D01*
X622259Y216929D01*
X622850Y216338D01*
Y215748D01*
X622259Y215158D01*
X621079D01*
X620488Y215748D01*
Y216338D01*
X621079Y216929D01*
X620488Y217519D01*
Y218109D01*
X621079Y216929D02*
X622259D01*
X624030Y218700D02*
X626392D01*
Y218109D01*
X624030Y215748D01*
Y215158D01*
X627573D02*
Y217519D01*
X628163D01*
X628753Y216929D01*
Y215158D01*
Y216929D01*
X629344Y217519D01*
X629934Y216929D01*
Y215158D01*
X631115D02*
X632296D01*
X631705D01*
Y217519D01*
X631115D01*
X634066Y215158D02*
X635247D01*
X634657D01*
Y218700D01*
X634066D01*
X637018Y215158D02*
X638199Y216338D01*
Y217519D01*
X637018Y218700D01*
X580344Y208070D02*
X582705D01*
X580344Y199212D02*
X582705D01*
X580344Y190354D02*
X582705D01*
X580344Y181495D02*
X582705D01*
X580344Y172637D02*
X582705D01*
X580344Y163779D02*
X582705D01*
X297407Y226377D02*
Y224016D01*
Y225197D01*
X297997Y225787D01*
X298588Y226377D01*
X299178D01*
X300949Y224016D02*
X302130D01*
X301540D01*
Y227558D01*
X300949Y226968D01*
X303901D02*
X304491Y227558D01*
X305672D01*
X306263Y226968D01*
Y224606D01*
X305672Y224016D01*
X304491D01*
X303901Y224606D01*
Y226968D01*
X307443D02*
X308034Y227558D01*
X309214D01*
X309805Y226968D01*
Y224606D01*
X309214Y224016D01*
X308034D01*
X307443Y224606D01*
Y226968D01*
X310985Y223425D02*
X313347D01*
X314528Y224016D02*
X315708D01*
X315118D01*
Y227558D01*
X314528Y226968D01*
X319841Y227558D02*
X318660Y226968D01*
X317479Y225787D01*
Y224606D01*
X318070Y224016D01*
X319250D01*
X319841Y224606D01*
Y225197D01*
X319250Y225787D01*
X317479D01*
X321022Y226968D02*
X321612Y227558D01*
X322793D01*
X323383Y226968D01*
Y224606D01*
X322793Y224016D01*
X321612D01*
X321022Y224606D01*
Y226968D01*
X324564Y227558D02*
Y224016D01*
Y225787D01*
X325154Y226377D01*
X326335D01*
X326925Y225787D01*
Y224016D01*
X330467Y227558D02*
X329287Y226968D01*
X328106Y225787D01*
Y224606D01*
X328696Y224016D01*
X329877D01*
X330467Y224606D01*
Y225197D01*
X329877Y225787D01*
X328106D01*
X331648Y226968D02*
X332238Y227558D01*
X333419D01*
X334010Y226968D01*
Y224606D01*
X333419Y224016D01*
X332238D01*
X331648Y224606D01*
Y226968D01*
X335190Y223425D02*
X337552D01*
X338732Y224016D02*
X339913D01*
X339323D01*
Y227558D01*
X338732Y226968D01*
X344046Y224016D02*
X341684D01*
X344046Y226377D01*
Y226968D01*
X343455Y227558D01*
X342274D01*
X341684Y226968D01*
X345226D02*
X345817Y227558D01*
X346997D01*
X347588Y226968D01*
Y224606D01*
X346997Y224016D01*
X345817D01*
X345226Y224606D01*
Y226968D01*
X348768Y226377D02*
Y224016D01*
Y225197D01*
X349359Y225787D01*
X349949Y226377D01*
X350540D01*
X352311Y224016D02*
X353491D01*
X352901D01*
Y227558D01*
X352311Y226968D01*
X355262D02*
X355853Y227558D01*
X357033D01*
X357624Y226968D01*
Y224606D01*
X357033Y224016D01*
X355853D01*
X355262Y224606D01*
Y226968D01*
X358805D02*
X359395Y227558D01*
X360576D01*
X361166Y226968D01*
Y224606D01*
X360576Y224016D01*
X359395D01*
X358805Y224606D01*
Y226968D01*
X297407Y217519D02*
Y215158D01*
Y216338D01*
X297997Y216929D01*
X298588Y217519D01*
X299178D01*
X300949Y215158D02*
X302130D01*
X301540D01*
Y218700D01*
X300949Y218109D01*
X303901D02*
X304491Y218700D01*
X305672D01*
X306263Y218109D01*
Y215748D01*
X305672Y215158D01*
X304491D01*
X303901Y215748D01*
Y218109D01*
X307443D02*
X308034Y218700D01*
X309214D01*
X309805Y218109D01*
Y215748D01*
X309214Y215158D01*
X308034D01*
X307443Y215748D01*
Y218109D01*
X310985Y214567D02*
X313347D01*
X316889Y215158D02*
X314528D01*
X316889Y217519D01*
Y218109D01*
X316299Y218700D01*
X315118D01*
X314528Y218109D01*
X318070Y215158D02*
X319250D01*
X318660D01*
Y218700D01*
X318070Y218109D01*
X321022D02*
X321612Y218700D01*
X322793D01*
X323383Y218109D01*
Y215748D01*
X322793Y215158D01*
X321612D01*
X321022Y215748D01*
Y218109D01*
X324564Y218700D02*
Y215158D01*
Y216929D01*
X325154Y217519D01*
X326335D01*
X326925Y216929D01*
Y215158D01*
X330467Y218700D02*
X329287Y218109D01*
X328106Y216929D01*
Y215748D01*
X328696Y215158D01*
X329877D01*
X330467Y215748D01*
Y216338D01*
X329877Y216929D01*
X328106D01*
X331648Y218109D02*
X332238Y218700D01*
X333419D01*
X334010Y218109D01*
Y215748D01*
X333419Y215158D01*
X332238D01*
X331648Y215748D01*
Y218109D01*
X335190Y214567D02*
X337552D01*
X338732Y215158D02*
X339913D01*
X339323D01*
Y218700D01*
X338732Y218109D01*
X341684D02*
X342274Y218700D01*
X343455D01*
X344046Y218109D01*
Y217519D01*
X343455Y216929D01*
X344046Y216338D01*
Y215748D01*
X343455Y215158D01*
X342274D01*
X341684Y215748D01*
Y216338D01*
X342274Y216929D01*
X341684Y217519D01*
Y218109D01*
X342274Y216929D02*
X343455D01*
X345226Y218109D02*
X345817Y218700D01*
X346997D01*
X347588Y218109D01*
Y215748D01*
X346997Y215158D01*
X345817D01*
X345226Y215748D01*
Y218109D01*
X348768Y217519D02*
Y215158D01*
Y216338D01*
X349359Y216929D01*
X349949Y217519D01*
X350540D01*
X352311Y215158D02*
X353491D01*
X352901D01*
Y218700D01*
X352311Y218109D01*
X355262D02*
X355853Y218700D01*
X357033D01*
X357624Y218109D01*
Y215748D01*
X357033Y215158D01*
X355853D01*
X355262Y215748D01*
Y218109D01*
X358805D02*
X359395Y218700D01*
X360576D01*
X361166Y218109D01*
Y215748D01*
X360576Y215158D01*
X359395D01*
X358805Y215748D01*
Y218109D01*
X299769Y208661D02*
X297997D01*
X297407Y208070D01*
Y206890D01*
X297997Y206299D01*
X299769D01*
X300949Y209841D02*
X303311D01*
Y209251D01*
X300949Y206890D01*
Y206299D01*
X304491Y209251D02*
X305082Y209841D01*
X306263D01*
X306853Y209251D01*
Y206890D01*
X306263Y206299D01*
X305082D01*
X304491Y206890D01*
Y209251D01*
X308034Y209841D02*
Y206299D01*
Y208070D01*
X308624Y208661D01*
X309805D01*
X310395Y208070D01*
Y206299D01*
X311576D02*
Y208661D01*
X313347D01*
X313937Y208070D01*
Y206299D01*
X315118Y209841D02*
X317479D01*
Y209251D01*
X315118Y206890D01*
Y206299D01*
X318660Y209251D02*
X319250Y209841D01*
X320431D01*
X321022Y209251D01*
Y206890D01*
X320431Y206299D01*
X319250D01*
X318660Y206890D01*
Y209251D01*
X299769Y199802D02*
X297997D01*
X297407Y199212D01*
Y198031D01*
X297997Y197441D01*
X299769D01*
X300949Y200393D02*
X301540Y200983D01*
X302720D01*
X303311Y200393D01*
Y199802D01*
X302720Y199212D01*
X302130D01*
X302720D01*
X303311Y198622D01*
Y198031D01*
X302720Y197441D01*
X301540D01*
X300949Y198031D01*
X304491Y200393D02*
X305082Y200983D01*
X306263D01*
X306853Y200393D01*
Y198031D01*
X306263Y197441D01*
X305082D01*
X304491Y198031D01*
Y200393D01*
X310395Y200983D02*
X308034D01*
Y199212D01*
X309214Y199802D01*
X309805D01*
X310395Y199212D01*
Y198031D01*
X309805Y197441D01*
X308624D01*
X308034Y198031D01*
X311576Y200983D02*
Y197441D01*
Y199212D01*
X312166Y199802D01*
X313347D01*
X313937Y199212D01*
Y197441D01*
X317479D02*
X315118D01*
X317479Y199802D01*
Y200393D01*
X316889Y200983D01*
X315708D01*
X315118Y200393D01*
X321022Y200983D02*
X318660D01*
Y199212D01*
X319841Y199802D01*
X320431D01*
X321022Y199212D01*
Y198031D01*
X320431Y197441D01*
X319250D01*
X318660Y198031D01*
X323973Y197441D02*
Y200983D01*
X322202Y199212D01*
X324564D01*
X297407Y190944D02*
X298588Y188583D01*
X299769Y190944D01*
X303311Y192125D02*
X302130Y191534D01*
X300949Y190354D01*
Y189173D01*
X301540Y188583D01*
X302720D01*
X303311Y189173D01*
Y189763D01*
X302720Y190354D01*
X300949D01*
X304491Y191534D02*
X305082Y192125D01*
X306263D01*
X306853Y191534D01*
Y189173D01*
X306263Y188583D01*
X305082D01*
X304491Y189173D01*
Y191534D01*
X308034Y192125D02*
Y188583D01*
Y190354D01*
X308624Y190944D01*
X309805D01*
X310395Y190354D01*
Y188583D01*
X311576Y191534D02*
X312166Y192125D01*
X313347D01*
X313937Y191534D01*
Y190944D01*
X313347Y190354D01*
X312756D01*
X313347D01*
X313937Y189763D01*
Y189173D01*
X313347Y188583D01*
X312166D01*
X311576Y189173D01*
X315118Y191534D02*
X315708Y192125D01*
X316889D01*
X317479Y191534D01*
Y189173D01*
X316889Y188583D01*
X315708D01*
X315118Y189173D01*
Y191534D01*
X318660Y188583D02*
Y190944D01*
X319250D01*
X319841Y190354D01*
Y188583D01*
Y190354D01*
X320431Y190944D01*
X321022Y190354D01*
Y188583D01*
X322202Y191534D02*
X322793Y192125D01*
X323973D01*
X324564Y191534D01*
Y189173D01*
X323973Y188583D01*
X322793D01*
X322202Y189173D01*
Y191534D01*
X325744Y188583D02*
Y190944D01*
X326335D01*
X326925Y190354D01*
Y188583D01*
Y190354D01*
X327516Y190944D01*
X328106Y190354D01*
Y188583D01*
X329287Y190944D02*
X331648Y188583D01*
X330467Y189763D01*
X331648Y190944D01*
X329287Y188583D01*
X332829Y191534D02*
X333419Y192125D01*
X334600D01*
X335190Y191534D01*
Y189173D01*
X334600Y188583D01*
X333419D01*
X332829Y189173D01*
Y191534D01*
X298588Y179724D02*
X297407Y180905D01*
Y182086D01*
X298588Y183267D01*
X300359Y179724D02*
Y183267D01*
X301540Y182086D01*
X302720Y183267D01*
Y179724D01*
X303901D02*
X305082D01*
X304491D01*
Y182086D01*
X303901D01*
X306853D02*
X309214Y179724D01*
X308034Y180905D01*
X309214Y182086D01*
X306853Y179724D01*
X312166D02*
X310985D01*
X310395Y180315D01*
Y181495D01*
X310985Y182086D01*
X312166D01*
X312756Y181495D01*
Y180905D01*
X310395D01*
X316299Y183267D02*
Y179724D01*
X314528D01*
X313937Y180315D01*
Y181495D01*
X314528Y182086D01*
X316299D01*
X317479Y179724D02*
X318660Y180905D01*
Y182086D01*
X317479Y183267D01*
X298588Y170866D02*
X297407Y172047D01*
Y173228D01*
X298588Y174408D01*
X300359Y170866D02*
Y174408D01*
X301540Y173228D01*
X302720Y174408D01*
Y170866D01*
X303901D02*
X305082D01*
X304491D01*
Y173228D01*
X303901D01*
X306853D02*
X309214Y170866D01*
X308034Y172047D01*
X309214Y173228D01*
X306853Y170866D01*
X312166D02*
X310985D01*
X310395Y171457D01*
Y172637D01*
X310985Y173228D01*
X312166D01*
X312756Y172637D01*
Y172047D01*
X310395D01*
X316299Y174408D02*
Y170866D01*
X314528D01*
X313937Y171457D01*
Y172637D01*
X314528Y173228D01*
X316299D01*
X317479Y170866D02*
X318660Y172047D01*
Y173228D01*
X317479Y174408D01*
X297407Y164369D02*
X298588Y162008D01*
X299769Y164369D01*
X303311Y165550D02*
X300949D01*
Y163779D01*
X302130Y164369D01*
X302720D01*
X303311Y163779D01*
Y162598D01*
X302720Y162008D01*
X301540D01*
X300949Y162598D01*
X304491Y162008D02*
X305672D01*
X305082D01*
Y165550D01*
X304491Y164960D01*
X307443Y165550D02*
Y162008D01*
Y163779D01*
X308034Y164369D01*
X309214D01*
X309805Y163779D01*
Y162008D01*
X313347D02*
X310985D01*
X313347Y164369D01*
Y164960D01*
X312756Y165550D01*
X311576D01*
X310985Y164960D01*
X316889Y165550D02*
X314528D01*
Y163779D01*
X315708Y164369D01*
X316299D01*
X316889Y163779D01*
Y162598D01*
X316299Y162008D01*
X315118D01*
X314528Y162598D01*
X318070Y162008D02*
Y164369D01*
X318660D01*
X319250Y163779D01*
Y162008D01*
Y163779D01*
X319841Y164369D01*
X320431Y163779D01*
Y162008D01*
X321612Y164960D02*
X322202Y165550D01*
X323383D01*
X323973Y164960D01*
Y162598D01*
X323383Y162008D01*
X322202D01*
X321612Y162598D01*
Y164960D01*
X325154Y162008D02*
Y164369D01*
X325744D01*
X326335Y163779D01*
Y162008D01*
Y163779D01*
X326925Y164369D01*
X327516Y163779D01*
Y162008D01*
X328696Y164369D02*
X331058Y162008D01*
X329877Y163189D01*
X331058Y164369D01*
X328696Y162008D01*
X332238Y164960D02*
X332829Y165550D01*
X334010D01*
X334600Y164960D01*
Y162598D01*
X334010Y162008D01*
X332829D01*
X332238Y162598D01*
Y164960D01*
X252054Y224016D02*
Y227558D01*
X253825D01*
X254415Y226968D01*
Y225787D01*
X253825Y225197D01*
X252054D01*
X253234D02*
X254415Y224016D01*
X256186D02*
X257367D01*
X257957Y224606D01*
Y225787D01*
X257367Y226377D01*
X256186D01*
X255596Y225787D01*
Y224606D01*
X256186Y224016D01*
X259138Y226377D02*
Y224606D01*
X259728Y224016D01*
X261499D01*
Y226377D01*
X262680Y224016D02*
Y226377D01*
X264451D01*
X265042Y225787D01*
Y224016D01*
X268584Y227558D02*
Y224016D01*
X266813D01*
X266222Y224606D01*
Y225787D01*
X266813Y226377D01*
X268584D01*
X271535Y224016D02*
X270355D01*
X269764Y224606D01*
Y225787D01*
X270355Y226377D01*
X271535D01*
X272126Y225787D01*
Y225197D01*
X269764D01*
X275668Y227558D02*
Y224016D01*
X273897D01*
X273307Y224606D01*
Y225787D01*
X273897Y226377D01*
X275668D01*
X252054Y215158D02*
Y218700D01*
X253825D01*
X254415Y218109D01*
Y216929D01*
X253825Y216338D01*
X252054D01*
X253234D02*
X254415Y215158D01*
X256186D02*
X257367D01*
X257957Y215748D01*
Y216929D01*
X257367Y217519D01*
X256186D01*
X255596Y216929D01*
Y215748D01*
X256186Y215158D01*
X259138Y217519D02*
Y215748D01*
X259728Y215158D01*
X261499D01*
Y217519D01*
X262680Y215158D02*
Y217519D01*
X264451D01*
X265042Y216929D01*
Y215158D01*
X268584Y218700D02*
Y215158D01*
X266813D01*
X266222Y215748D01*
Y216929D01*
X266813Y217519D01*
X268584D01*
X271535Y215158D02*
X270355D01*
X269764Y215748D01*
Y216929D01*
X270355Y217519D01*
X271535D01*
X272126Y216929D01*
Y216338D01*
X269764D01*
X275668Y218700D02*
Y215158D01*
X273897D01*
X273307Y215748D01*
Y216929D01*
X273897Y217519D01*
X275668D01*
X252054Y206299D02*
Y209841D01*
X253825D01*
X254415Y209251D01*
Y208070D01*
X253825Y207480D01*
X252054D01*
X253234D02*
X254415Y206299D01*
X256186D02*
X257367D01*
X257957Y206890D01*
Y208070D01*
X257367Y208661D01*
X256186D01*
X255596Y208070D01*
Y206890D01*
X256186Y206299D01*
X259138Y208661D02*
Y206890D01*
X259728Y206299D01*
X261499D01*
Y208661D01*
X262680Y206299D02*
Y208661D01*
X264451D01*
X265042Y208070D01*
Y206299D01*
X268584Y209841D02*
Y206299D01*
X266813D01*
X266222Y206890D01*
Y208070D01*
X266813Y208661D01*
X268584D01*
X271535Y206299D02*
X270355D01*
X269764Y206890D01*
Y208070D01*
X270355Y208661D01*
X271535D01*
X272126Y208070D01*
Y207480D01*
X269764D01*
X275668Y209841D02*
Y206299D01*
X273897D01*
X273307Y206890D01*
Y208070D01*
X273897Y208661D01*
X275668D01*
X252054Y197441D02*
Y200983D01*
X253825D01*
X254415Y200393D01*
Y199212D01*
X253825Y198622D01*
X252054D01*
X253234D02*
X254415Y197441D01*
X256186D02*
X257367D01*
X257957Y198031D01*
Y199212D01*
X257367Y199802D01*
X256186D01*
X255596Y199212D01*
Y198031D01*
X256186Y197441D01*
X259138Y199802D02*
Y198031D01*
X259728Y197441D01*
X261499D01*
Y199802D01*
X262680Y197441D02*
Y199802D01*
X264451D01*
X265042Y199212D01*
Y197441D01*
X268584Y200983D02*
Y197441D01*
X266813D01*
X266222Y198031D01*
Y199212D01*
X266813Y199802D01*
X268584D01*
X271535Y197441D02*
X270355D01*
X269764Y198031D01*
Y199212D01*
X270355Y199802D01*
X271535D01*
X272126Y199212D01*
Y198622D01*
X269764D01*
X275668Y200983D02*
Y197441D01*
X273897D01*
X273307Y198031D01*
Y199212D01*
X273897Y199802D01*
X275668D01*
X252054Y188583D02*
Y192125D01*
X253825D01*
X254415Y191534D01*
Y190354D01*
X253825Y189763D01*
X252054D01*
X253234D02*
X254415Y188583D01*
X256186D02*
X257367D01*
X257957Y189173D01*
Y190354D01*
X257367Y190944D01*
X256186D01*
X255596Y190354D01*
Y189173D01*
X256186Y188583D01*
X259138Y190944D02*
Y189173D01*
X259728Y188583D01*
X261499D01*
Y190944D01*
X262680Y188583D02*
Y190944D01*
X264451D01*
X265042Y190354D01*
Y188583D01*
X268584Y192125D02*
Y188583D01*
X266813D01*
X266222Y189173D01*
Y190354D01*
X266813Y190944D01*
X268584D01*
X271535Y188583D02*
X270355D01*
X269764Y189173D01*
Y190354D01*
X270355Y190944D01*
X271535D01*
X272126Y190354D01*
Y189763D01*
X269764D01*
X275668Y192125D02*
Y188583D01*
X273897D01*
X273307Y189173D01*
Y190354D01*
X273897Y190944D01*
X275668D01*
X253234Y179724D02*
X252054Y180905D01*
Y182086D01*
X253234Y183267D01*
X255006Y179724D02*
Y183267D01*
X256186Y182086D01*
X257367Y183267D01*
Y179724D01*
X258548D02*
X259728D01*
X259138D01*
Y182086D01*
X258548D01*
X261499D02*
X263861Y179724D01*
X262680Y180905D01*
X263861Y182086D01*
X261499Y179724D01*
X266813D02*
X265632D01*
X265042Y180315D01*
Y181495D01*
X265632Y182086D01*
X266813D01*
X267403Y181495D01*
Y180905D01*
X265042D01*
X270945Y183267D02*
Y179724D01*
X269174D01*
X268584Y180315D01*
Y181495D01*
X269174Y182086D01*
X270945D01*
X272126Y179724D02*
X273307Y180905D01*
Y182086D01*
X272126Y183267D01*
X253234Y170866D02*
X252054Y172047D01*
Y173228D01*
X253234Y174408D01*
X255006Y170866D02*
Y174408D01*
X256186Y173228D01*
X257367Y174408D01*
Y170866D01*
X258548D02*
X259728D01*
X259138D01*
Y173228D01*
X258548D01*
X261499D02*
X263861Y170866D01*
X262680Y172047D01*
X263861Y173228D01*
X261499Y170866D01*
X266813D02*
X265632D01*
X265042Y171457D01*
Y172637D01*
X265632Y173228D01*
X266813D01*
X267403Y172637D01*
Y172047D01*
X265042D01*
X270945Y174408D02*
Y170866D01*
X269174D01*
X268584Y171457D01*
Y172637D01*
X269174Y173228D01*
X270945D01*
X272126Y170866D02*
X273307Y172047D01*
Y173228D01*
X272126Y174408D01*
X252054Y162008D02*
Y165550D01*
X253825D01*
X254415Y164960D01*
Y163779D01*
X253825Y163189D01*
X252054D01*
X253234D02*
X254415Y162008D01*
X256186D02*
X257367D01*
X257957Y162598D01*
Y163779D01*
X257367Y164369D01*
X256186D01*
X255596Y163779D01*
Y162598D01*
X256186Y162008D01*
X259138Y164369D02*
Y162598D01*
X259728Y162008D01*
X261499D01*
Y164369D01*
X262680Y162008D02*
Y164369D01*
X264451D01*
X265042Y163779D01*
Y162008D01*
X268584Y165550D02*
Y162008D01*
X266813D01*
X266222Y162598D01*
Y163779D01*
X266813Y164369D01*
X268584D01*
X271535Y162008D02*
X270355D01*
X269764Y162598D01*
Y163779D01*
X270355Y164369D01*
X271535D01*
X272126Y163779D01*
Y163189D01*
X269764D01*
X275668Y165550D02*
Y162008D01*
X273897D01*
X273307Y162598D01*
Y163779D01*
X273897Y164369D01*
X275668D01*
X215910Y224016D02*
Y227558D01*
X217681D01*
X218271Y226968D01*
Y225787D01*
X217681Y225197D01*
X215910D01*
X220042Y226377D02*
X221223D01*
X221813Y225787D01*
Y224016D01*
X220042D01*
X219452Y224606D01*
X220042Y225197D01*
X221813D01*
X225356Y227558D02*
Y224016D01*
X223585D01*
X222994Y224606D01*
Y225787D01*
X223585Y226377D01*
X225356D01*
X215910Y215158D02*
Y218700D01*
X217681D01*
X218271Y218109D01*
Y216929D01*
X217681Y216338D01*
X215910D01*
X220042Y217519D02*
X221223D01*
X221813Y216929D01*
Y215158D01*
X220042D01*
X219452Y215748D01*
X220042Y216338D01*
X221813D01*
X225356Y218700D02*
Y215158D01*
X223585D01*
X222994Y215748D01*
Y216929D01*
X223585Y217519D01*
X225356D01*
X215910Y206299D02*
Y209841D01*
X217681D01*
X218271Y209251D01*
Y208070D01*
X217681Y207480D01*
X215910D01*
X220042Y208661D02*
X221223D01*
X221813Y208070D01*
Y206299D01*
X220042D01*
X219452Y206890D01*
X220042Y207480D01*
X221813D01*
X225356Y209841D02*
Y206299D01*
X223585D01*
X222994Y206890D01*
Y208070D01*
X223585Y208661D01*
X225356D01*
X215910Y197441D02*
Y200983D01*
X217681D01*
X218271Y200393D01*
Y199212D01*
X217681Y198622D01*
X215910D01*
X220042Y199802D02*
X221223D01*
X221813Y199212D01*
Y197441D01*
X220042D01*
X219452Y198031D01*
X220042Y198622D01*
X221813D01*
X225356Y200983D02*
Y197441D01*
X223585D01*
X222994Y198031D01*
Y199212D01*
X223585Y199802D01*
X225356D01*
X215910Y192125D02*
Y189763D01*
X217091Y188583D01*
X218271Y189763D01*
Y192125D01*
X219452Y188583D02*
X220633D01*
X220042D01*
Y190944D01*
X219452D01*
X222994D02*
X224175D01*
X224765Y190354D01*
Y188583D01*
X222994D01*
X222404Y189173D01*
X222994Y189763D01*
X224765D01*
X215910Y179724D02*
Y183267D01*
X217681D01*
X218271Y182676D01*
Y181495D01*
X217681Y180905D01*
X215910D01*
X220042Y182086D02*
X221223D01*
X221813Y181495D01*
Y179724D01*
X220042D01*
X219452Y180315D01*
X220042Y180905D01*
X221813D01*
X225356Y183267D02*
Y179724D01*
X223585D01*
X222994Y180315D01*
Y181495D01*
X223585Y182086D01*
X225356D01*
X215910Y170866D02*
Y174408D01*
X217681D01*
X218271Y173818D01*
Y172637D01*
X217681Y172047D01*
X215910D01*
X220042Y173228D02*
X221223D01*
X221813Y172637D01*
Y170866D01*
X220042D01*
X219452Y171457D01*
X220042Y172047D01*
X221813D01*
X225356Y174408D02*
Y170866D01*
X223585D01*
X222994Y171457D01*
Y172637D01*
X223585Y173228D01*
X225356D01*
X215910Y165550D02*
Y163189D01*
X217091Y162008D01*
X218271Y163189D01*
Y165550D01*
X219452Y162008D02*
X220633D01*
X220042D01*
Y164369D01*
X219452D01*
X222994D02*
X224175D01*
X224765Y163779D01*
Y162008D01*
X222994D01*
X222404Y162598D01*
X222994Y163189D01*
X224765D01*
X126535Y227558D02*
X128896D01*
X127716D01*
Y224016D01*
X130667D02*
X131848D01*
X132438Y224606D01*
Y225787D01*
X131848Y226377D01*
X130667D01*
X130077Y225787D01*
Y224606D01*
X130667Y224016D01*
X133619Y222835D02*
Y226377D01*
X135390D01*
X135981Y225787D01*
Y224606D01*
X135390Y224016D01*
X133619D01*
X140703Y227558D02*
Y224016D01*
X143065D01*
X144836Y226377D02*
X146017D01*
X146607Y225787D01*
Y224016D01*
X144836D01*
X144246Y224606D01*
X144836Y225197D01*
X146607D01*
X147788Y226377D02*
Y224606D01*
X148378Y224016D01*
X150149D01*
Y223425D01*
X149559Y222835D01*
X148969D01*
X150149Y224016D02*
Y226377D01*
X153101Y224016D02*
X151920D01*
X151330Y224606D01*
Y225787D01*
X151920Y226377D01*
X153101D01*
X153691Y225787D01*
Y225197D01*
X151330D01*
X154872Y226377D02*
Y224016D01*
Y225197D01*
X155462Y225787D01*
X156053Y226377D01*
X156643D01*
X161956Y225787D02*
X164318D01*
X169041Y227558D02*
Y224016D01*
X170812D01*
X171402Y224606D01*
Y225197D01*
X170812Y225787D01*
X169041D01*
X170812D01*
X171402Y226377D01*
Y226968D01*
X170812Y227558D01*
X169041D01*
X173173Y224016D02*
X174354D01*
X174944Y224606D01*
Y225787D01*
X174354Y226377D01*
X173173D01*
X172583Y225787D01*
Y224606D01*
X173173Y224016D01*
X176715Y226968D02*
Y226377D01*
X176125D01*
X177306D01*
X176715D01*
Y224606D01*
X177306Y224016D01*
X179667Y226968D02*
Y226377D01*
X179077D01*
X180258D01*
X179667D01*
Y224606D01*
X180258Y224016D01*
X182619D02*
X183800D01*
X184390Y224606D01*
Y225787D01*
X183800Y226377D01*
X182619D01*
X182029Y225787D01*
Y224606D01*
X182619Y224016D01*
X185571D02*
Y226377D01*
X186161D01*
X186751Y225787D01*
Y224016D01*
Y225787D01*
X187342Y226377D01*
X187932Y225787D01*
Y224016D01*
X192655Y227558D02*
Y224016D01*
X195017D01*
X196788Y226377D02*
X197968D01*
X198559Y225787D01*
Y224016D01*
X196788D01*
X196197Y224606D01*
X196788Y225197D01*
X198559D01*
X199740Y226377D02*
Y224606D01*
X200330Y224016D01*
X202101D01*
Y223425D01*
X201511Y222835D01*
X200920D01*
X202101Y224016D02*
Y226377D01*
X205053Y224016D02*
X203872D01*
X203282Y224606D01*
Y225787D01*
X203872Y226377D01*
X205053D01*
X205643Y225787D01*
Y225197D01*
X203282D01*
X206824Y226377D02*
Y224016D01*
Y225197D01*
X207414Y225787D01*
X208004Y226377D01*
X208595D01*
X126535Y218700D02*
X128896D01*
X127716D01*
Y215158D01*
X130667D02*
X131848D01*
X132438Y215748D01*
Y216929D01*
X131848Y217519D01*
X130667D01*
X130077Y216929D01*
Y215748D01*
X130667Y215158D01*
X133619Y213977D02*
Y217519D01*
X135390D01*
X135981Y216929D01*
Y215748D01*
X135390Y215158D01*
X133619D01*
X140703Y218700D02*
Y215158D01*
X143065D01*
X144836Y217519D02*
X146017D01*
X146607Y216929D01*
Y215158D01*
X144836D01*
X144246Y215748D01*
X144836Y216338D01*
X146607D01*
X147788Y217519D02*
Y215748D01*
X148378Y215158D01*
X150149D01*
Y214567D01*
X149559Y213977D01*
X148969D01*
X150149Y215158D02*
Y217519D01*
X153101Y215158D02*
X151920D01*
X151330Y215748D01*
Y216929D01*
X151920Y217519D01*
X153101D01*
X153691Y216929D01*
Y216338D01*
X151330D01*
X154872Y217519D02*
Y215158D01*
Y216338D01*
X155462Y216929D01*
X156053Y217519D01*
X156643D01*
X161956Y216929D02*
X164318D01*
X169041Y218700D02*
Y215158D01*
X170812D01*
X171402Y215748D01*
Y216338D01*
X170812Y216929D01*
X169041D01*
X170812D01*
X171402Y217519D01*
Y218109D01*
X170812Y218700D01*
X169041D01*
X173173Y215158D02*
X174354D01*
X174944Y215748D01*
Y216929D01*
X174354Y217519D01*
X173173D01*
X172583Y216929D01*
Y215748D01*
X173173Y215158D01*
X176715Y218109D02*
Y217519D01*
X176125D01*
X177306D01*
X176715D01*
Y215748D01*
X177306Y215158D01*
X179667Y218109D02*
Y217519D01*
X179077D01*
X180258D01*
X179667D01*
Y215748D01*
X180258Y215158D01*
X182619D02*
X183800D01*
X184390Y215748D01*
Y216929D01*
X183800Y217519D01*
X182619D01*
X182029Y216929D01*
Y215748D01*
X182619Y215158D01*
X185571D02*
Y217519D01*
X186161D01*
X186751Y216929D01*
Y215158D01*
Y216929D01*
X187342Y217519D01*
X187932Y216929D01*
Y215158D01*
X192655Y218700D02*
Y215158D01*
X195017D01*
X196788Y217519D02*
X197968D01*
X198559Y216929D01*
Y215158D01*
X196788D01*
X196197Y215748D01*
X196788Y216338D01*
X198559D01*
X199740Y217519D02*
Y215748D01*
X200330Y215158D01*
X202101D01*
Y214567D01*
X201511Y213977D01*
X200920D01*
X202101Y215158D02*
Y217519D01*
X205053Y215158D02*
X203872D01*
X203282Y215748D01*
Y216929D01*
X203872Y217519D01*
X205053D01*
X205643Y216929D01*
Y216338D01*
X203282D01*
X206824Y217519D02*
Y215158D01*
Y216338D01*
X207414Y216929D01*
X208004Y217519D01*
X208595D01*
X126535Y209841D02*
X128896D01*
X127716D01*
Y206299D01*
X130667D02*
X131848D01*
X132438Y206890D01*
Y208070D01*
X131848Y208661D01*
X130667D01*
X130077Y208070D01*
Y206890D01*
X130667Y206299D01*
X133619Y205118D02*
Y208661D01*
X135390D01*
X135981Y208070D01*
Y206890D01*
X135390Y206299D01*
X133619D01*
X140703Y209841D02*
Y206299D01*
X143065D01*
X144836Y208661D02*
X146017D01*
X146607Y208070D01*
Y206299D01*
X144836D01*
X144246Y206890D01*
X144836Y207480D01*
X146607D01*
X147788Y208661D02*
Y206890D01*
X148378Y206299D01*
X150149D01*
Y205709D01*
X149559Y205118D01*
X148969D01*
X150149Y206299D02*
Y208661D01*
X153101Y206299D02*
X151920D01*
X151330Y206890D01*
Y208070D01*
X151920Y208661D01*
X153101D01*
X153691Y208070D01*
Y207480D01*
X151330D01*
X154872Y208661D02*
Y206299D01*
Y207480D01*
X155462Y208070D01*
X156053Y208661D01*
X156643D01*
X161956Y208070D02*
X164318D01*
X169041Y209841D02*
Y206299D01*
X170812D01*
X171402Y206890D01*
Y207480D01*
X170812Y208070D01*
X169041D01*
X170812D01*
X171402Y208661D01*
Y209251D01*
X170812Y209841D01*
X169041D01*
X173173Y206299D02*
X174354D01*
X174944Y206890D01*
Y208070D01*
X174354Y208661D01*
X173173D01*
X172583Y208070D01*
Y206890D01*
X173173Y206299D01*
X176715Y209251D02*
Y208661D01*
X176125D01*
X177306D01*
X176715D01*
Y206890D01*
X177306Y206299D01*
X179667Y209251D02*
Y208661D01*
X179077D01*
X180258D01*
X179667D01*
Y206890D01*
X180258Y206299D01*
X182619D02*
X183800D01*
X184390Y206890D01*
Y208070D01*
X183800Y208661D01*
X182619D01*
X182029Y208070D01*
Y206890D01*
X182619Y206299D01*
X185571D02*
Y208661D01*
X186161D01*
X186751Y208070D01*
Y206299D01*
Y208070D01*
X187342Y208661D01*
X187932Y208070D01*
Y206299D01*
X192655Y209841D02*
Y206299D01*
X195017D01*
X196788Y208661D02*
X197968D01*
X198559Y208070D01*
Y206299D01*
X196788D01*
X196197Y206890D01*
X196788Y207480D01*
X198559D01*
X199740Y208661D02*
Y206890D01*
X200330Y206299D01*
X202101D01*
Y205709D01*
X201511Y205118D01*
X200920D01*
X202101Y206299D02*
Y208661D01*
X205053Y206299D02*
X203872D01*
X203282Y206890D01*
Y208070D01*
X203872Y208661D01*
X205053D01*
X205643Y208070D01*
Y207480D01*
X203282D01*
X206824Y208661D02*
Y206299D01*
Y207480D01*
X207414Y208070D01*
X208004Y208661D01*
X208595D01*
X126535Y200983D02*
X128896D01*
X127716D01*
Y197441D01*
X130667D02*
X131848D01*
X132438Y198031D01*
Y199212D01*
X131848Y199802D01*
X130667D01*
X130077Y199212D01*
Y198031D01*
X130667Y197441D01*
X133619Y196260D02*
Y199802D01*
X135390D01*
X135981Y199212D01*
Y198031D01*
X135390Y197441D01*
X133619D01*
X140703Y200983D02*
Y197441D01*
X143065D01*
X144836Y199802D02*
X146017D01*
X146607Y199212D01*
Y197441D01*
X144836D01*
X144246Y198031D01*
X144836Y198622D01*
X146607D01*
X147788Y199802D02*
Y198031D01*
X148378Y197441D01*
X150149D01*
Y196851D01*
X149559Y196260D01*
X148969D01*
X150149Y197441D02*
Y199802D01*
X153101Y197441D02*
X151920D01*
X151330Y198031D01*
Y199212D01*
X151920Y199802D01*
X153101D01*
X153691Y199212D01*
Y198622D01*
X151330D01*
X154872Y199802D02*
Y197441D01*
Y198622D01*
X155462Y199212D01*
X156053Y199802D01*
X156643D01*
X161956Y199212D02*
X164318D01*
X169041Y200983D02*
Y197441D01*
X170812D01*
X171402Y198031D01*
Y198622D01*
X170812Y199212D01*
X169041D01*
X170812D01*
X171402Y199802D01*
Y200393D01*
X170812Y200983D01*
X169041D01*
X173173Y197441D02*
X174354D01*
X174944Y198031D01*
Y199212D01*
X174354Y199802D01*
X173173D01*
X172583Y199212D01*
Y198031D01*
X173173Y197441D01*
X176715Y200393D02*
Y199802D01*
X176125D01*
X177306D01*
X176715D01*
Y198031D01*
X177306Y197441D01*
X179667Y200393D02*
Y199802D01*
X179077D01*
X180258D01*
X179667D01*
Y198031D01*
X180258Y197441D01*
X182619D02*
X183800D01*
X184390Y198031D01*
Y199212D01*
X183800Y199802D01*
X182619D01*
X182029Y199212D01*
Y198031D01*
X182619Y197441D01*
X185571D02*
Y199802D01*
X186161D01*
X186751Y199212D01*
Y197441D01*
Y199212D01*
X187342Y199802D01*
X187932Y199212D01*
Y197441D01*
X192655Y200983D02*
Y197441D01*
X195017D01*
X196788Y199802D02*
X197968D01*
X198559Y199212D01*
Y197441D01*
X196788D01*
X196197Y198031D01*
X196788Y198622D01*
X198559D01*
X199740Y199802D02*
Y198031D01*
X200330Y197441D01*
X202101D01*
Y196851D01*
X201511Y196260D01*
X200920D01*
X202101Y197441D02*
Y199802D01*
X205053Y197441D02*
X203872D01*
X203282Y198031D01*
Y199212D01*
X203872Y199802D01*
X205053D01*
X205643Y199212D01*
Y198622D01*
X203282D01*
X206824Y199802D02*
Y197441D01*
Y198622D01*
X207414Y199212D01*
X208004Y199802D01*
X208595D01*
X126535Y192125D02*
X128896D01*
X127716D01*
Y188583D01*
X130667D02*
X131848D01*
X132438Y189173D01*
Y190354D01*
X131848Y190944D01*
X130667D01*
X130077Y190354D01*
Y189173D01*
X130667Y188583D01*
X133619Y187402D02*
Y190944D01*
X135390D01*
X135981Y190354D01*
Y189173D01*
X135390Y188583D01*
X133619D01*
X140703Y192125D02*
Y188583D01*
X143065D01*
X144836Y190944D02*
X146017D01*
X146607Y190354D01*
Y188583D01*
X144836D01*
X144246Y189173D01*
X144836Y189763D01*
X146607D01*
X147788Y190944D02*
Y189173D01*
X148378Y188583D01*
X150149D01*
Y187992D01*
X149559Y187402D01*
X148969D01*
X150149Y188583D02*
Y190944D01*
X153101Y188583D02*
X151920D01*
X151330Y189173D01*
Y190354D01*
X151920Y190944D01*
X153101D01*
X153691Y190354D01*
Y189763D01*
X151330D01*
X154872Y190944D02*
Y188583D01*
Y189763D01*
X155462Y190354D01*
X156053Y190944D01*
X156643D01*
X161956Y190354D02*
X164318D01*
X169041Y192125D02*
Y188583D01*
X170812D01*
X171402Y189173D01*
Y189763D01*
X170812Y190354D01*
X169041D01*
X170812D01*
X171402Y190944D01*
Y191534D01*
X170812Y192125D01*
X169041D01*
X173173Y188583D02*
X174354D01*
X174944Y189173D01*
Y190354D01*
X174354Y190944D01*
X173173D01*
X172583Y190354D01*
Y189173D01*
X173173Y188583D01*
X176715Y191534D02*
Y190944D01*
X176125D01*
X177306D01*
X176715D01*
Y189173D01*
X177306Y188583D01*
X179667Y191534D02*
Y190944D01*
X179077D01*
X180258D01*
X179667D01*
Y189173D01*
X180258Y188583D01*
X182619D02*
X183800D01*
X184390Y189173D01*
Y190354D01*
X183800Y190944D01*
X182619D01*
X182029Y190354D01*
Y189173D01*
X182619Y188583D01*
X185571D02*
Y190944D01*
X186161D01*
X186751Y190354D01*
Y188583D01*
Y190354D01*
X187342Y190944D01*
X187932Y190354D01*
Y188583D01*
X192655Y192125D02*
Y188583D01*
X195017D01*
X196788Y190944D02*
X197968D01*
X198559Y190354D01*
Y188583D01*
X196788D01*
X196197Y189173D01*
X196788Y189763D01*
X198559D01*
X199740Y190944D02*
Y189173D01*
X200330Y188583D01*
X202101D01*
Y187992D01*
X201511Y187402D01*
X200920D01*
X202101Y188583D02*
Y190944D01*
X205053Y188583D02*
X203872D01*
X203282Y189173D01*
Y190354D01*
X203872Y190944D01*
X205053D01*
X205643Y190354D01*
Y189763D01*
X203282D01*
X206824Y190944D02*
Y188583D01*
Y189763D01*
X207414Y190354D01*
X208004Y190944D01*
X208595D01*
X126535Y183267D02*
X128896D01*
X127716D01*
Y179724D01*
X130667D02*
X131848D01*
X132438Y180315D01*
Y181495D01*
X131848Y182086D01*
X130667D01*
X130077Y181495D01*
Y180315D01*
X130667Y179724D01*
X133619Y178544D02*
Y182086D01*
X135390D01*
X135981Y181495D01*
Y180315D01*
X135390Y179724D01*
X133619D01*
X140703Y183267D02*
Y179724D01*
X143065D01*
X144836Y182086D02*
X146017D01*
X146607Y181495D01*
Y179724D01*
X144836D01*
X144246Y180315D01*
X144836Y180905D01*
X146607D01*
X147788Y182086D02*
Y180315D01*
X148378Y179724D01*
X150149D01*
Y179134D01*
X149559Y178544D01*
X148969D01*
X150149Y179724D02*
Y182086D01*
X153101Y179724D02*
X151920D01*
X151330Y180315D01*
Y181495D01*
X151920Y182086D01*
X153101D01*
X153691Y181495D01*
Y180905D01*
X151330D01*
X154872Y182086D02*
Y179724D01*
Y180905D01*
X155462Y181495D01*
X156053Y182086D01*
X156643D01*
X161956Y181495D02*
X164318D01*
X169041Y183267D02*
Y179724D01*
X170812D01*
X171402Y180315D01*
Y180905D01*
X170812Y181495D01*
X169041D01*
X170812D01*
X171402Y182086D01*
Y182676D01*
X170812Y183267D01*
X169041D01*
X173173Y179724D02*
X174354D01*
X174944Y180315D01*
Y181495D01*
X174354Y182086D01*
X173173D01*
X172583Y181495D01*
Y180315D01*
X173173Y179724D01*
X176715Y182676D02*
Y182086D01*
X176125D01*
X177306D01*
X176715D01*
Y180315D01*
X177306Y179724D01*
X179667Y182676D02*
Y182086D01*
X179077D01*
X180258D01*
X179667D01*
Y180315D01*
X180258Y179724D01*
X182619D02*
X183800D01*
X184390Y180315D01*
Y181495D01*
X183800Y182086D01*
X182619D01*
X182029Y181495D01*
Y180315D01*
X182619Y179724D01*
X185571D02*
Y182086D01*
X186161D01*
X186751Y181495D01*
Y179724D01*
Y181495D01*
X187342Y182086D01*
X187932Y181495D01*
Y179724D01*
X192655Y183267D02*
Y179724D01*
X195017D01*
X196788Y182086D02*
X197968D01*
X198559Y181495D01*
Y179724D01*
X196788D01*
X196197Y180315D01*
X196788Y180905D01*
X198559D01*
X199740Y182086D02*
Y180315D01*
X200330Y179724D01*
X202101D01*
Y179134D01*
X201511Y178544D01*
X200920D01*
X202101Y179724D02*
Y182086D01*
X205053Y179724D02*
X203872D01*
X203282Y180315D01*
Y181495D01*
X203872Y182086D01*
X205053D01*
X205643Y181495D01*
Y180905D01*
X203282D01*
X206824Y182086D02*
Y179724D01*
Y180905D01*
X207414Y181495D01*
X208004Y182086D01*
X208595D01*
X126535Y174408D02*
X128896D01*
X127716D01*
Y170866D01*
X130667D02*
X131848D01*
X132438Y171457D01*
Y172637D01*
X131848Y173228D01*
X130667D01*
X130077Y172637D01*
Y171457D01*
X130667Y170866D01*
X133619Y169685D02*
Y173228D01*
X135390D01*
X135981Y172637D01*
Y171457D01*
X135390Y170866D01*
X133619D01*
X140703Y174408D02*
Y170866D01*
X143065D01*
X144836Y173228D02*
X146017D01*
X146607Y172637D01*
Y170866D01*
X144836D01*
X144246Y171457D01*
X144836Y172047D01*
X146607D01*
X147788Y173228D02*
Y171457D01*
X148378Y170866D01*
X150149D01*
Y170276D01*
X149559Y169685D01*
X148969D01*
X150149Y170866D02*
Y173228D01*
X153101Y170866D02*
X151920D01*
X151330Y171457D01*
Y172637D01*
X151920Y173228D01*
X153101D01*
X153691Y172637D01*
Y172047D01*
X151330D01*
X154872Y173228D02*
Y170866D01*
Y172047D01*
X155462Y172637D01*
X156053Y173228D01*
X156643D01*
X161956Y172637D02*
X164318D01*
X169041Y174408D02*
Y170866D01*
X170812D01*
X171402Y171457D01*
Y172047D01*
X170812Y172637D01*
X169041D01*
X170812D01*
X171402Y173228D01*
Y173818D01*
X170812Y174408D01*
X169041D01*
X173173Y170866D02*
X174354D01*
X174944Y171457D01*
Y172637D01*
X174354Y173228D01*
X173173D01*
X172583Y172637D01*
Y171457D01*
X173173Y170866D01*
X176715Y173818D02*
Y173228D01*
X176125D01*
X177306D01*
X176715D01*
Y171457D01*
X177306Y170866D01*
X179667Y173818D02*
Y173228D01*
X179077D01*
X180258D01*
X179667D01*
Y171457D01*
X180258Y170866D01*
X182619D02*
X183800D01*
X184390Y171457D01*
Y172637D01*
X183800Y173228D01*
X182619D01*
X182029Y172637D01*
Y171457D01*
X182619Y170866D01*
X185571D02*
Y173228D01*
X186161D01*
X186751Y172637D01*
Y170866D01*
Y172637D01*
X187342Y173228D01*
X187932Y172637D01*
Y170866D01*
X192655Y174408D02*
Y170866D01*
X195017D01*
X196788Y173228D02*
X197968D01*
X198559Y172637D01*
Y170866D01*
X196788D01*
X196197Y171457D01*
X196788Y172047D01*
X198559D01*
X199740Y173228D02*
Y171457D01*
X200330Y170866D01*
X202101D01*
Y170276D01*
X201511Y169685D01*
X200920D01*
X202101Y170866D02*
Y173228D01*
X205053Y170866D02*
X203872D01*
X203282Y171457D01*
Y172637D01*
X203872Y173228D01*
X205053D01*
X205643Y172637D01*
Y172047D01*
X203282D01*
X206824Y173228D02*
Y170866D01*
Y172047D01*
X207414Y172637D01*
X208004Y173228D01*
X208595D01*
X126535Y165550D02*
X128896D01*
X127716D01*
Y162008D01*
X130667D02*
X131848D01*
X132438Y162598D01*
Y163779D01*
X131848Y164369D01*
X130667D01*
X130077Y163779D01*
Y162598D01*
X130667Y162008D01*
X133619Y160827D02*
Y164369D01*
X135390D01*
X135981Y163779D01*
Y162598D01*
X135390Y162008D01*
X133619D01*
X140703Y165550D02*
Y162008D01*
X143065D01*
X144836Y164369D02*
X146017D01*
X146607Y163779D01*
Y162008D01*
X144836D01*
X144246Y162598D01*
X144836Y163189D01*
X146607D01*
X147788Y164369D02*
Y162598D01*
X148378Y162008D01*
X150149D01*
Y161417D01*
X149559Y160827D01*
X148969D01*
X150149Y162008D02*
Y164369D01*
X153101Y162008D02*
X151920D01*
X151330Y162598D01*
Y163779D01*
X151920Y164369D01*
X153101D01*
X153691Y163779D01*
Y163189D01*
X151330D01*
X154872Y164369D02*
Y162008D01*
Y163189D01*
X155462Y163779D01*
X156053Y164369D01*
X156643D01*
X161956Y163779D02*
X164318D01*
X169041Y165550D02*
Y162008D01*
X170812D01*
X171402Y162598D01*
Y163189D01*
X170812Y163779D01*
X169041D01*
X170812D01*
X171402Y164369D01*
Y164960D01*
X170812Y165550D01*
X169041D01*
X173173Y162008D02*
X174354D01*
X174944Y162598D01*
Y163779D01*
X174354Y164369D01*
X173173D01*
X172583Y163779D01*
Y162598D01*
X173173Y162008D01*
X176715Y164960D02*
Y164369D01*
X176125D01*
X177306D01*
X176715D01*
Y162598D01*
X177306Y162008D01*
X179667Y164960D02*
Y164369D01*
X179077D01*
X180258D01*
X179667D01*
Y162598D01*
X180258Y162008D01*
X182619D02*
X183800D01*
X184390Y162598D01*
Y163779D01*
X183800Y164369D01*
X182619D01*
X182029Y163779D01*
Y162598D01*
X182619Y162008D01*
X185571D02*
Y164369D01*
X186161D01*
X186751Y163779D01*
Y162008D01*
Y163779D01*
X187342Y164369D01*
X187932Y163779D01*
Y162008D01*
X192655Y165550D02*
Y162008D01*
X195017D01*
X196788Y164369D02*
X197968D01*
X198559Y163779D01*
Y162008D01*
X196788D01*
X196197Y162598D01*
X196788Y163189D01*
X198559D01*
X199740Y164369D02*
Y162598D01*
X200330Y162008D01*
X202101D01*
Y161417D01*
X201511Y160827D01*
X200920D01*
X202101Y162008D02*
Y164369D01*
X205053Y162008D02*
X203872D01*
X203282Y162598D01*
Y163779D01*
X203872Y164369D01*
X205053D01*
X205643Y163779D01*
Y163189D01*
X203282D01*
X206824Y164369D02*
Y162008D01*
Y163189D01*
X207414Y163779D01*
X208004Y164369D01*
X208595D01*
X84251Y226968D02*
X83661Y227558D01*
X82480D01*
X81890Y226968D01*
Y226377D01*
X82480Y225787D01*
X83661D01*
X84251Y225197D01*
Y224606D01*
X83661Y224016D01*
X82480D01*
X81890Y224606D01*
X85432Y224016D02*
X86613D01*
X86022D01*
Y227558D01*
X85432D01*
X88974Y224016D02*
X90155D01*
X90745Y224606D01*
Y225787D01*
X90155Y226377D01*
X88974D01*
X88384Y225787D01*
Y224606D01*
X88974Y224016D01*
X92516Y226968D02*
Y226377D01*
X91926D01*
X93107D01*
X92516D01*
Y224606D01*
X93107Y224016D01*
X84251Y218109D02*
X83661Y218700D01*
X82480D01*
X81890Y218109D01*
Y217519D01*
X82480Y216929D01*
X83661D01*
X84251Y216338D01*
Y215748D01*
X83661Y215158D01*
X82480D01*
X81890Y215748D01*
X85432Y215158D02*
X86613D01*
X86022D01*
Y218700D01*
X85432D01*
X88974Y215158D02*
X90155D01*
X90745Y215748D01*
Y216929D01*
X90155Y217519D01*
X88974D01*
X88384Y216929D01*
Y215748D01*
X88974Y215158D01*
X92516Y218109D02*
Y217519D01*
X91926D01*
X93107D01*
X92516D01*
Y215748D01*
X93107Y215158D01*
X81890Y206299D02*
Y209841D01*
X83661D01*
X84251Y209251D01*
Y208070D01*
X83661Y207480D01*
X81890D01*
X83070D02*
X84251Y206299D01*
X86022D02*
X87203D01*
X87793Y206890D01*
Y208070D01*
X87203Y208661D01*
X86022D01*
X85432Y208070D01*
Y206890D01*
X86022Y206299D01*
X88974Y208661D02*
Y206890D01*
X89564Y206299D01*
X91335D01*
Y208661D01*
X92516Y206299D02*
Y208661D01*
X94287D01*
X94878Y208070D01*
Y206299D01*
X98420Y209841D02*
Y206299D01*
X96649D01*
X96058Y206890D01*
Y208070D01*
X96649Y208661D01*
X98420D01*
X81890Y197441D02*
Y200983D01*
X83661D01*
X84251Y200393D01*
Y199212D01*
X83661Y198622D01*
X81890D01*
X83070D02*
X84251Y197441D01*
X86022D02*
X87203D01*
X87793Y198031D01*
Y199212D01*
X87203Y199802D01*
X86022D01*
X85432Y199212D01*
Y198031D01*
X86022Y197441D01*
X88974Y199802D02*
Y198031D01*
X89564Y197441D01*
X91335D01*
Y199802D01*
X92516Y197441D02*
Y199802D01*
X94287D01*
X94878Y199212D01*
Y197441D01*
X98420Y200983D02*
Y197441D01*
X96649D01*
X96058Y198031D01*
Y199212D01*
X96649Y199802D01*
X98420D01*
X81890Y188583D02*
Y192125D01*
X83661D01*
X84251Y191534D01*
Y190354D01*
X83661Y189763D01*
X81890D01*
X83070D02*
X84251Y188583D01*
X86022D02*
X87203D01*
X87793Y189173D01*
Y190354D01*
X87203Y190944D01*
X86022D01*
X85432Y190354D01*
Y189173D01*
X86022Y188583D01*
X88974Y190944D02*
Y189173D01*
X89564Y188583D01*
X91335D01*
Y190944D01*
X92516Y188583D02*
Y190944D01*
X94287D01*
X94878Y190354D01*
Y188583D01*
X98420Y192125D02*
Y188583D01*
X96649D01*
X96058Y189173D01*
Y190354D01*
X96649Y190944D01*
X98420D01*
X81890Y179724D02*
Y183267D01*
X83661D01*
X84251Y182676D01*
Y181495D01*
X83661Y180905D01*
X81890D01*
X83070D02*
X84251Y179724D01*
X86022D02*
X87203D01*
X87793Y180315D01*
Y181495D01*
X87203Y182086D01*
X86022D01*
X85432Y181495D01*
Y180315D01*
X86022Y179724D01*
X88974Y182086D02*
Y180315D01*
X89564Y179724D01*
X91335D01*
Y182086D01*
X92516Y179724D02*
Y182086D01*
X94287D01*
X94878Y181495D01*
Y179724D01*
X98420Y183267D02*
Y179724D01*
X96649D01*
X96058Y180315D01*
Y181495D01*
X96649Y182086D01*
X98420D01*
X81890Y170866D02*
Y174408D01*
X83661D01*
X84251Y173818D01*
Y172637D01*
X83661Y172047D01*
X81890D01*
X83070D02*
X84251Y170866D01*
X86022D02*
X87203D01*
X87793Y171457D01*
Y172637D01*
X87203Y173228D01*
X86022D01*
X85432Y172637D01*
Y171457D01*
X86022Y170866D01*
X88974Y173228D02*
Y171457D01*
X89564Y170866D01*
X91335D01*
Y173228D01*
X92516Y170866D02*
Y173228D01*
X94287D01*
X94878Y172637D01*
Y170866D01*
X98420Y174408D02*
Y170866D01*
X96649D01*
X96058Y171457D01*
Y172637D01*
X96649Y173228D01*
X98420D01*
X81890Y162008D02*
Y165550D01*
X83661D01*
X84251Y164960D01*
Y163779D01*
X83661Y163189D01*
X81890D01*
X83070D02*
X84251Y162008D01*
X86022D02*
X87203D01*
X87793Y162598D01*
Y163779D01*
X87203Y164369D01*
X86022D01*
X85432Y163779D01*
Y162598D01*
X86022Y162008D01*
X88974Y164369D02*
Y162598D01*
X89564Y162008D01*
X91335D01*
Y164369D01*
X92516Y162008D02*
Y164369D01*
X94287D01*
X94878Y163779D01*
Y162008D01*
X98420Y165550D02*
Y162008D01*
X96649D01*
X96058Y162598D01*
Y163779D01*
X96649Y164369D01*
X98420D01*
X50705Y224016D02*
Y227558D01*
X52476D01*
X53066Y226968D01*
Y225787D01*
X52476Y225197D01*
X50705D01*
X54247Y227558D02*
X56609D01*
X55428D01*
Y224016D01*
X57789Y227558D02*
Y224016D01*
Y225787D01*
X60151D01*
Y227558D01*
Y224016D01*
X50705Y215158D02*
Y218700D01*
X52476D01*
X53066Y218109D01*
Y216929D01*
X52476Y216338D01*
X50705D01*
X54247Y218700D02*
X56609D01*
X55428D01*
Y215158D01*
X57789Y218700D02*
Y215158D01*
Y216929D01*
X60151D01*
Y218700D01*
Y215158D01*
X50705Y206299D02*
Y209841D01*
X53066Y206299D01*
Y209841D01*
X54247Y206299D02*
Y209841D01*
X56018D01*
X56609Y209251D01*
Y208070D01*
X56018Y207480D01*
X54247D01*
X57789Y209841D02*
X60151D01*
X58970D01*
Y206299D01*
X61331Y209841D02*
Y206299D01*
Y208070D01*
X63693D01*
Y209841D01*
Y206299D01*
X50705Y197441D02*
Y200983D01*
X52476D01*
X53066Y200393D01*
Y199212D01*
X52476Y198622D01*
X50705D01*
X54247Y200983D02*
X56609D01*
X55428D01*
Y197441D01*
X57789Y200983D02*
Y197441D01*
Y199212D01*
X60151D01*
Y200983D01*
Y197441D01*
X50705Y188583D02*
Y192125D01*
X52476D01*
X53066Y191534D01*
Y190354D01*
X52476Y189763D01*
X50705D01*
X54247Y192125D02*
X56609D01*
X55428D01*
Y188583D01*
X57789Y192125D02*
Y188583D01*
Y190354D01*
X60151D01*
Y192125D01*
Y188583D01*
X50705Y179724D02*
Y183267D01*
X52476D01*
X53066Y182676D01*
Y181495D01*
X52476Y180905D01*
X50705D01*
X54247Y183267D02*
X56609D01*
X55428D01*
Y179724D01*
X57789Y183267D02*
Y179724D01*
Y181495D01*
X60151D01*
Y183267D01*
Y179724D01*
X50705Y170866D02*
Y174408D01*
X52476D01*
X53066Y173818D01*
Y172637D01*
X52476Y172047D01*
X50705D01*
X54247Y174408D02*
X56609D01*
X55428D01*
Y170866D01*
X57789Y174408D02*
Y170866D01*
Y172637D01*
X60151D01*
Y174408D01*
Y170866D01*
X50705Y162008D02*
Y165550D01*
X52476D01*
X53066Y164960D01*
Y163779D01*
X52476Y163189D01*
X50705D01*
X54247Y165550D02*
X56609D01*
X55428D01*
Y162008D01*
X57789Y165550D02*
Y162008D01*
Y163779D01*
X60151D01*
Y165550D01*
Y162008D01*
X-18008Y226968D02*
X-17417Y227558D01*
X-16236D01*
X-15646Y226968D01*
Y224606D01*
X-16236Y224016D01*
X-17417D01*
X-18008Y224606D01*
Y226968D01*
X-14465Y224016D02*
Y224606D01*
X-13875D01*
Y224016D01*
X-14465D01*
X-9152Y227558D02*
X-10333Y226968D01*
X-11513Y225787D01*
Y224606D01*
X-10923Y224016D01*
X-9742D01*
X-9152Y224606D01*
Y225197D01*
X-9742Y225787D01*
X-11513D01*
X-7971Y226968D02*
X-7381Y227558D01*
X-6200D01*
X-5610Y226968D01*
Y224606D01*
X-6200Y224016D01*
X-7381D01*
X-7971Y224606D01*
Y226968D01*
X-4429D02*
X-3839Y227558D01*
X-2658D01*
X-2068Y226968D01*
Y224606D01*
X-2658Y224016D01*
X-3839D01*
X-4429Y224606D01*
Y226968D01*
X-887Y224016D02*
Y226377D01*
X-297D01*
X294Y225787D01*
Y224016D01*
Y225787D01*
X884Y226377D01*
X1474Y225787D01*
Y224016D01*
X2655D02*
Y226377D01*
X3246D01*
X3836Y225787D01*
Y224016D01*
Y225787D01*
X4426Y226377D01*
X5017Y225787D01*
Y224016D01*
X10920D02*
X9740Y225197D01*
Y226377D01*
X10920Y227558D01*
X15053Y224016D02*
X12691D01*
X15053Y226377D01*
Y226968D01*
X14462Y227558D01*
X13282D01*
X12691Y226968D01*
X16233D02*
X16824Y227558D01*
X18004D01*
X18595Y226968D01*
Y226377D01*
X18004Y225787D01*
X17414D01*
X18004D01*
X18595Y225197D01*
Y224606D01*
X18004Y224016D01*
X16824D01*
X16233Y224606D01*
X19776Y224016D02*
Y224606D01*
X20366D01*
Y224016D01*
X19776D01*
X25089Y227558D02*
X23908Y226968D01*
X22727Y225787D01*
Y224606D01*
X23318Y224016D01*
X24498D01*
X25089Y224606D01*
Y225197D01*
X24498Y225787D01*
X22727D01*
X28631Y224016D02*
X26270D01*
X28631Y226377D01*
Y226968D01*
X28041Y227558D01*
X26860D01*
X26270Y226968D01*
X29812Y224016D02*
Y226377D01*
X30402D01*
X30992Y225787D01*
Y224016D01*
Y225787D01*
X31583Y226377D01*
X32173Y225787D01*
Y224016D01*
X33354D02*
X34535D01*
X33944D01*
Y226377D01*
X33354D01*
X36306Y224016D02*
X37486D01*
X36896D01*
Y227558D01*
X36306D01*
X39257Y224016D02*
X40438Y225197D01*
Y226377D01*
X39257Y227558D01*
X-18008Y218109D02*
X-17417Y218700D01*
X-16236D01*
X-15646Y218109D01*
Y215748D01*
X-16236Y215158D01*
X-17417D01*
X-18008Y215748D01*
Y218109D01*
X-14465Y215158D02*
Y215748D01*
X-13875D01*
Y215158D01*
X-14465D01*
X-9152Y218700D02*
X-10333Y218109D01*
X-11513Y216929D01*
Y215748D01*
X-10923Y215158D01*
X-9742D01*
X-9152Y215748D01*
Y216338D01*
X-9742Y216929D01*
X-11513D01*
X-7971Y218109D02*
X-7381Y218700D01*
X-6200D01*
X-5610Y218109D01*
Y215748D01*
X-6200Y215158D01*
X-7381D01*
X-7971Y215748D01*
Y218109D01*
X-4429D02*
X-3839Y218700D01*
X-2658D01*
X-2068Y218109D01*
Y215748D01*
X-2658Y215158D01*
X-3839D01*
X-4429Y215748D01*
Y218109D01*
X-887Y215158D02*
Y217519D01*
X-297D01*
X294Y216929D01*
Y215158D01*
Y216929D01*
X884Y217519D01*
X1474Y216929D01*
Y215158D01*
X2655D02*
Y217519D01*
X3246D01*
X3836Y216929D01*
Y215158D01*
Y216929D01*
X4426Y217519D01*
X5017Y216929D01*
Y215158D01*
X10920D02*
X9740Y216338D01*
Y217519D01*
X10920Y218700D01*
X15053Y215158D02*
X12691D01*
X15053Y217519D01*
Y218109D01*
X14462Y218700D01*
X13282D01*
X12691Y218109D01*
X16233D02*
X16824Y218700D01*
X18004D01*
X18595Y218109D01*
Y217519D01*
X18004Y216929D01*
X17414D01*
X18004D01*
X18595Y216338D01*
Y215748D01*
X18004Y215158D01*
X16824D01*
X16233Y215748D01*
X19776Y215158D02*
Y215748D01*
X20366D01*
Y215158D01*
X19776D01*
X25089Y218700D02*
X23908Y218109D01*
X22727Y216929D01*
Y215748D01*
X23318Y215158D01*
X24498D01*
X25089Y215748D01*
Y216338D01*
X24498Y216929D01*
X22727D01*
X28631Y215158D02*
X26270D01*
X28631Y217519D01*
Y218109D01*
X28041Y218700D01*
X26860D01*
X26270Y218109D01*
X29812Y215158D02*
Y217519D01*
X30402D01*
X30992Y216929D01*
Y215158D01*
Y216929D01*
X31583Y217519D01*
X32173Y216929D01*
Y215158D01*
X33354D02*
X34535D01*
X33944D01*
Y217519D01*
X33354D01*
X36306Y215158D02*
X37486D01*
X36896D01*
Y218700D01*
X36306D01*
X39257Y215158D02*
X40438Y216338D01*
Y217519D01*
X39257Y218700D01*
X-18008Y209251D02*
X-17417Y209841D01*
X-16236D01*
X-15646Y209251D01*
Y206890D01*
X-16236Y206299D01*
X-17417D01*
X-18008Y206890D01*
Y209251D01*
X-14465Y206299D02*
Y206890D01*
X-13875D01*
Y206299D01*
X-14465D01*
X-11513Y209841D02*
X-9152D01*
Y209251D01*
X-11513Y206890D01*
Y206299D01*
X-7971Y209251D02*
X-7381Y209841D01*
X-6200D01*
X-5610Y209251D01*
Y206890D01*
X-6200Y206299D01*
X-7381D01*
X-7971Y206890D01*
Y209251D01*
X-4429D02*
X-3839Y209841D01*
X-2658D01*
X-2068Y209251D01*
Y206890D01*
X-2658Y206299D01*
X-3839D01*
X-4429Y206890D01*
Y209251D01*
X-887Y206299D02*
Y208661D01*
X-297D01*
X294Y208070D01*
Y206299D01*
Y208070D01*
X884Y208661D01*
X1474Y208070D01*
Y206299D01*
X2655D02*
Y208661D01*
X3246D01*
X3836Y208070D01*
Y206299D01*
Y208070D01*
X4426Y208661D01*
X5017Y208070D01*
Y206299D01*
X10920D02*
X9740Y207480D01*
Y208661D01*
X10920Y209841D01*
X15053Y206299D02*
X12691D01*
X15053Y208661D01*
Y209251D01*
X14462Y209841D01*
X13282D01*
X12691Y209251D01*
X16233Y209841D02*
X18595D01*
Y209251D01*
X16233Y206890D01*
Y206299D01*
X19776D02*
Y206890D01*
X20366D01*
Y206299D01*
X19776D01*
X25089Y209841D02*
X22727D01*
Y208070D01*
X23908Y208661D01*
X24498D01*
X25089Y208070D01*
Y206890D01*
X24498Y206299D01*
X23318D01*
X22727Y206890D01*
X28631Y209841D02*
X27450Y209251D01*
X26270Y208070D01*
Y206890D01*
X26860Y206299D01*
X28041D01*
X28631Y206890D01*
Y207480D01*
X28041Y208070D01*
X26270D01*
X29812Y206299D02*
Y208661D01*
X30402D01*
X30992Y208070D01*
Y206299D01*
Y208070D01*
X31583Y208661D01*
X32173Y208070D01*
Y206299D01*
X33354D02*
X34535D01*
X33944D01*
Y208661D01*
X33354D01*
X36306Y206299D02*
X37486D01*
X36896D01*
Y209841D01*
X36306D01*
X39257Y206299D02*
X40438Y207480D01*
Y208661D01*
X39257Y209841D01*
X-15646Y197441D02*
X-18008D01*
X-15646Y199802D01*
Y200393D01*
X-16236Y200983D01*
X-17417D01*
X-18008Y200393D01*
X-14465Y197441D02*
Y198031D01*
X-13875D01*
Y197441D01*
X-14465D01*
X-9152Y200983D02*
X-11513D01*
Y199212D01*
X-10333Y199802D01*
X-9742D01*
X-9152Y199212D01*
Y198031D01*
X-9742Y197441D01*
X-10923D01*
X-11513Y198031D01*
X-6200Y197441D02*
Y200983D01*
X-7971Y199212D01*
X-5610D01*
X-4429Y200393D02*
X-3839Y200983D01*
X-2658D01*
X-2068Y200393D01*
Y198031D01*
X-2658Y197441D01*
X-3839D01*
X-4429Y198031D01*
Y200393D01*
X-887Y197441D02*
Y199802D01*
X-297D01*
X294Y199212D01*
Y197441D01*
Y199212D01*
X884Y199802D01*
X1474Y199212D01*
Y197441D01*
X2655D02*
Y199802D01*
X3246D01*
X3836Y199212D01*
Y197441D01*
Y199212D01*
X4426Y199802D01*
X5017Y199212D01*
Y197441D01*
X10920D02*
X9740Y198622D01*
Y199802D01*
X10920Y200983D01*
X12691Y197441D02*
X13872D01*
X13282D01*
Y200983D01*
X12691Y200393D01*
X15643D02*
X16233Y200983D01*
X17414D01*
X18004Y200393D01*
Y198031D01*
X17414Y197441D01*
X16233D01*
X15643Y198031D01*
Y200393D01*
X19185D02*
X19776Y200983D01*
X20956D01*
X21547Y200393D01*
Y198031D01*
X20956Y197441D01*
X19776D01*
X19185Y198031D01*
Y200393D01*
X22727Y197441D02*
Y198031D01*
X23318D01*
Y197441D01*
X22727D01*
X25679Y200393D02*
X26270Y200983D01*
X27450D01*
X28041Y200393D01*
Y198031D01*
X27450Y197441D01*
X26270D01*
X25679Y198031D01*
Y200393D01*
X29221D02*
X29812Y200983D01*
X30992D01*
X31583Y200393D01*
Y198031D01*
X30992Y197441D01*
X29812D01*
X29221Y198031D01*
Y200393D01*
X32763Y197441D02*
Y199802D01*
X33354D01*
X33944Y199212D01*
Y197441D01*
Y199212D01*
X34535Y199802D01*
X35125Y199212D01*
Y197441D01*
X36306D02*
X37486D01*
X36896D01*
Y199802D01*
X36306D01*
X39257Y197441D02*
X40438D01*
X39848D01*
Y200983D01*
X39257D01*
X42209Y197441D02*
X43390Y198622D01*
Y199802D01*
X42209Y200983D01*
X-18008Y191534D02*
X-17417Y192125D01*
X-16236D01*
X-15646Y191534D01*
Y189173D01*
X-16236Y188583D01*
X-17417D01*
X-18008Y189173D01*
Y191534D01*
X-14465Y188583D02*
Y189173D01*
X-13875D01*
Y188583D01*
X-14465D01*
X-11513Y191534D02*
X-10923Y192125D01*
X-9742D01*
X-9152Y191534D01*
Y190944D01*
X-9742Y190354D01*
X-10333D01*
X-9742D01*
X-9152Y189763D01*
Y189173D01*
X-9742Y188583D01*
X-10923D01*
X-11513Y189173D01*
X-7971Y191534D02*
X-7381Y192125D01*
X-6200D01*
X-5610Y191534D01*
Y189173D01*
X-6200Y188583D01*
X-7381D01*
X-7971Y189173D01*
Y191534D01*
X-4429D02*
X-3839Y192125D01*
X-2658D01*
X-2068Y191534D01*
Y189173D01*
X-2658Y188583D01*
X-3839D01*
X-4429Y189173D01*
Y191534D01*
X-887Y188583D02*
Y190944D01*
X-297D01*
X294Y190354D01*
Y188583D01*
Y190354D01*
X884Y190944D01*
X1474Y190354D01*
Y188583D01*
X2655D02*
Y190944D01*
X3246D01*
X3836Y190354D01*
Y188583D01*
Y190354D01*
X4426Y190944D01*
X5017Y190354D01*
Y188583D01*
X10920D02*
X9740Y189763D01*
Y190944D01*
X10920Y192125D01*
X12691Y188583D02*
X13872D01*
X13282D01*
Y192125D01*
X12691Y191534D01*
X15643Y188583D02*
X16824D01*
X16233D01*
Y192125D01*
X15643Y191534D01*
X18595Y188583D02*
Y189173D01*
X19185D01*
Y188583D01*
X18595D01*
X21547Y191534D02*
X22137Y192125D01*
X23318D01*
X23908Y191534D01*
Y190944D01*
X23318Y190354D01*
X23908Y189763D01*
Y189173D01*
X23318Y188583D01*
X22137D01*
X21547Y189173D01*
Y189763D01*
X22137Y190354D01*
X21547Y190944D01*
Y191534D01*
X22137Y190354D02*
X23318D01*
X25089Y188583D02*
X26270D01*
X25679D01*
Y192125D01*
X25089Y191534D01*
X28041Y188583D02*
Y190944D01*
X28631D01*
X29221Y190354D01*
Y188583D01*
Y190354D01*
X29812Y190944D01*
X30402Y190354D01*
Y188583D01*
X31583D02*
X32763D01*
X32173D01*
Y190944D01*
X31583D01*
X34535Y188583D02*
X35715D01*
X35125D01*
Y192125D01*
X34535D01*
X37486Y188583D02*
X38667Y189763D01*
Y190944D01*
X37486Y192125D01*
X-18008Y182676D02*
X-17417Y183267D01*
X-16236D01*
X-15646Y182676D01*
Y180315D01*
X-16236Y179724D01*
X-17417D01*
X-18008Y180315D01*
Y182676D01*
X-14465Y179724D02*
Y180315D01*
X-13875D01*
Y179724D01*
X-14465D01*
X-9152Y183267D02*
X-10333Y182676D01*
X-11513Y181495D01*
Y180315D01*
X-10923Y179724D01*
X-9742D01*
X-9152Y180315D01*
Y180905D01*
X-9742Y181495D01*
X-11513D01*
X-5610Y183267D02*
X-7971D01*
Y181495D01*
X-6791Y182086D01*
X-6200D01*
X-5610Y181495D01*
Y180315D01*
X-6200Y179724D01*
X-7381D01*
X-7971Y180315D01*
X-4429Y182676D02*
X-3839Y183267D01*
X-2658D01*
X-2068Y182676D01*
Y180315D01*
X-2658Y179724D01*
X-3839D01*
X-4429Y180315D01*
Y182676D01*
X-887Y179724D02*
Y182086D01*
X-297D01*
X294Y181495D01*
Y179724D01*
Y181495D01*
X884Y182086D01*
X1474Y181495D01*
Y179724D01*
X2655D02*
Y182086D01*
X3246D01*
X3836Y181495D01*
Y179724D01*
Y181495D01*
X4426Y182086D01*
X5017Y181495D01*
Y179724D01*
X10920D02*
X9740Y180905D01*
Y182086D01*
X10920Y183267D01*
X15053Y179724D02*
X12691D01*
X15053Y182086D01*
Y182676D01*
X14462Y183267D01*
X13282D01*
X12691Y182676D01*
X18595Y183267D02*
X16233D01*
Y181495D01*
X17414Y182086D01*
X18004D01*
X18595Y181495D01*
Y180315D01*
X18004Y179724D01*
X16824D01*
X16233Y180315D01*
X19776Y179724D02*
Y180315D01*
X20366D01*
Y179724D01*
X19776D01*
X25089Y183267D02*
X22727D01*
Y181495D01*
X23908Y182086D01*
X24498D01*
X25089Y181495D01*
Y180315D01*
X24498Y179724D01*
X23318D01*
X22727Y180315D01*
X26270D02*
X26860Y179724D01*
X28041D01*
X28631Y180315D01*
Y182676D01*
X28041Y183267D01*
X26860D01*
X26270Y182676D01*
Y182086D01*
X26860Y181495D01*
X28631D01*
X29812Y179724D02*
Y182086D01*
X30402D01*
X30992Y181495D01*
Y179724D01*
Y181495D01*
X31583Y182086D01*
X32173Y181495D01*
Y179724D01*
X33354D02*
X34535D01*
X33944D01*
Y182086D01*
X33354D01*
X36306Y179724D02*
X37486D01*
X36896D01*
Y183267D01*
X36306D01*
X39257Y179724D02*
X40438Y180905D01*
Y182086D01*
X39257Y183267D01*
X-18008Y170866D02*
X-16827D01*
X-17417D01*
Y174408D01*
X-18008Y173818D01*
X-15056Y170866D02*
Y171457D01*
X-14465D01*
Y170866D01*
X-15056D01*
X-12104Y173818D02*
X-11513Y174408D01*
X-10333D01*
X-9742Y173818D01*
Y171457D01*
X-10333Y170866D01*
X-11513D01*
X-12104Y171457D01*
Y173818D01*
X-8562D02*
X-7971Y174408D01*
X-6791D01*
X-6200Y173818D01*
Y171457D01*
X-6791Y170866D01*
X-7971D01*
X-8562Y171457D01*
Y173818D01*
X-5020D02*
X-4429Y174408D01*
X-3248D01*
X-2658Y173818D01*
Y171457D01*
X-3248Y170866D01*
X-4429D01*
X-5020Y171457D01*
Y173818D01*
X-1477Y170866D02*
Y173228D01*
X-887D01*
X-297Y172637D01*
Y170866D01*
Y172637D01*
X294Y173228D01*
X884Y172637D01*
Y170866D01*
X2065D02*
Y173228D01*
X2655D01*
X3246Y172637D01*
Y170866D01*
Y172637D01*
X3836Y173228D01*
X4426Y172637D01*
Y170866D01*
X10330D02*
X9149Y172047D01*
Y173228D01*
X10330Y174408D01*
X12101Y173818D02*
X12691Y174408D01*
X13872D01*
X14462Y173818D01*
Y173228D01*
X13872Y172637D01*
X13282D01*
X13872D01*
X14462Y172047D01*
Y171457D01*
X13872Y170866D01*
X12691D01*
X12101Y171457D01*
X15643D02*
X16233Y170866D01*
X17414D01*
X18004Y171457D01*
Y173818D01*
X17414Y174408D01*
X16233D01*
X15643Y173818D01*
Y173228D01*
X16233Y172637D01*
X18004D01*
X19185Y170866D02*
Y171457D01*
X19776D01*
Y170866D01*
X19185D01*
X22137Y173818D02*
X22727Y174408D01*
X23908D01*
X24498Y173818D01*
Y173228D01*
X23908Y172637D01*
X23318D01*
X23908D01*
X24498Y172047D01*
Y171457D01*
X23908Y170866D01*
X22727D01*
X22137Y171457D01*
X25679Y174408D02*
X28041D01*
Y173818D01*
X25679Y171457D01*
Y170866D01*
X29221D02*
Y173228D01*
X29812D01*
X30402Y172637D01*
Y170866D01*
Y172637D01*
X30992Y173228D01*
X31583Y172637D01*
Y170866D01*
X32763D02*
X33944D01*
X33354D01*
Y173228D01*
X32763D01*
X35715Y170866D02*
X36896D01*
X36306D01*
Y174408D01*
X35715D01*
X38667Y170866D02*
X39848Y172047D01*
Y173228D01*
X38667Y174408D01*
X-18008Y164960D02*
X-17417Y165550D01*
X-16236D01*
X-15646Y164960D01*
Y162598D01*
X-16236Y162008D01*
X-17417D01*
X-18008Y162598D01*
Y164960D01*
X-14465Y162008D02*
Y162598D01*
X-13875D01*
Y162008D01*
X-14465D01*
X-9152D02*
X-11513D01*
X-9152Y164369D01*
Y164960D01*
X-9742Y165550D01*
X-10923D01*
X-11513Y164960D01*
X-5610Y165550D02*
X-7971D01*
Y163779D01*
X-6791Y164369D01*
X-6200D01*
X-5610Y163779D01*
Y162598D01*
X-6200Y162008D01*
X-7381D01*
X-7971Y162598D01*
X-2658Y162008D02*
Y165550D01*
X-4429Y163779D01*
X-2068D01*
X-887Y162008D02*
Y164369D01*
X-297D01*
X294Y163779D01*
Y162008D01*
Y163779D01*
X884Y164369D01*
X1474Y163779D01*
Y162008D01*
X2655D02*
Y164369D01*
X3246D01*
X3836Y163779D01*
Y162008D01*
Y163779D01*
X4426Y164369D01*
X5017Y163779D01*
Y162008D01*
X10920D02*
X9740Y163189D01*
Y164369D01*
X10920Y165550D01*
X12691Y162008D02*
X13872D01*
X13282D01*
Y165550D01*
X12691Y164960D01*
X15643D02*
X16233Y165550D01*
X17414D01*
X18004Y164960D01*
Y162598D01*
X17414Y162008D01*
X16233D01*
X15643Y162598D01*
Y164960D01*
X19185Y162008D02*
Y162598D01*
X19776D01*
Y162008D01*
X19185D01*
X22137Y164960D02*
X22727Y165550D01*
X23908D01*
X24498Y164960D01*
Y162598D01*
X23908Y162008D01*
X22727D01*
X22137Y162598D01*
Y164960D01*
X25679D02*
X26270Y165550D01*
X27450D01*
X28041Y164960D01*
Y162598D01*
X27450Y162008D01*
X26270D01*
X25679Y162598D01*
Y164960D01*
X29221Y162008D02*
Y164369D01*
X29812D01*
X30402Y163779D01*
Y162008D01*
Y163779D01*
X30992Y164369D01*
X31583Y163779D01*
Y162008D01*
X32763D02*
X33944D01*
X33354D01*
Y164369D01*
X32763D01*
X35715Y162008D02*
X36896D01*
X36306D01*
Y165550D01*
X35715D01*
X38667Y162008D02*
X39848Y163189D01*
Y164369D01*
X38667Y165550D01*
X-51889Y153150D02*
X-54250D01*
X-51889Y155511D01*
Y156101D01*
X-52479Y156692D01*
X-53660D01*
X-54250Y156101D01*
X-48346Y156692D02*
X-50708D01*
Y154921D01*
X-49527Y155511D01*
X-48937D01*
X-48346Y154921D01*
Y153740D01*
X-48937Y153150D01*
X-50117D01*
X-50708Y153740D01*
X-47166Y156101D02*
X-46575Y156692D01*
X-45395D01*
X-44804Y156101D01*
Y155511D01*
X-45395Y154921D01*
X-44804Y154330D01*
Y153740D01*
X-45395Y153150D01*
X-46575D01*
X-47166Y153740D01*
Y154330D01*
X-46575Y154921D01*
X-47166Y155511D01*
Y156101D01*
X-46575Y154921D02*
X-45395D01*
X-40081Y156692D02*
X-37720D01*
X-38901D01*
Y153150D01*
X-35949D02*
X-34768D01*
X-34178Y153740D01*
Y154921D01*
X-34768Y155511D01*
X-35949D01*
X-36539Y154921D01*
Y153740D01*
X-35949Y153150D01*
X-32407Y156101D02*
Y155511D01*
X-32997D01*
X-31816D01*
X-32407D01*
Y153740D01*
X-31816Y153150D01*
X-29455Y155511D02*
X-28274D01*
X-27684Y154921D01*
Y153150D01*
X-29455D01*
X-30045Y153740D01*
X-29455Y154330D01*
X-27684D01*
X-26503Y153150D02*
X-25322D01*
X-25913D01*
Y156692D01*
X-26503D01*
X-51889Y224016D02*
X-54250D01*
X-51889Y226377D01*
Y226968D01*
X-52479Y227558D01*
X-53660D01*
X-54250Y226968D01*
X-51889Y215158D02*
X-54250D01*
X-51889Y217519D01*
Y218109D01*
X-52479Y218700D01*
X-53660D01*
X-54250Y218109D01*
X-51889Y206299D02*
X-54250D01*
X-51889Y208661D01*
Y209251D01*
X-52479Y209841D01*
X-53660D01*
X-54250Y209251D01*
X-52479Y197441D02*
Y200983D01*
X-54250Y199212D01*
X-51889D01*
Y192125D02*
X-54250D01*
Y190354D01*
X-53069Y190944D01*
X-52479D01*
X-51889Y190354D01*
Y189173D01*
X-52479Y188583D01*
X-53660D01*
X-54250Y189173D01*
Y179724D02*
X-53069D01*
X-53660D01*
Y183267D01*
X-54250Y182676D01*
X-51298D02*
X-50708Y183267D01*
X-49527D01*
X-48937Y182676D01*
Y180315D01*
X-49527Y179724D01*
X-50708D01*
X-51298Y180315D01*
Y182676D01*
X-54250Y170866D02*
X-53069D01*
X-53660D01*
Y174408D01*
X-54250Y173818D01*
X-51298D02*
X-50708Y174408D01*
X-49527D01*
X-48937Y173818D01*
Y171457D01*
X-49527Y170866D01*
X-50708D01*
X-51298Y171457D01*
Y173818D01*
X-51889Y162008D02*
X-54250D01*
X-51889Y164369D01*
Y164960D01*
X-52479Y165550D01*
X-53660D01*
X-54250Y164960D01*
X-48346Y162008D02*
X-50708D01*
X-48346Y164369D01*
Y164960D01*
X-48937Y165550D01*
X-50117D01*
X-50708Y164960D01*
X-47166D02*
X-46575Y165550D01*
X-45395D01*
X-44804Y164960D01*
Y164369D01*
X-45395Y163779D01*
X-45985D01*
X-45395D01*
X-44804Y163189D01*
Y162598D01*
X-45395Y162008D01*
X-46575D01*
X-47166Y162598D01*
X22299Y138227D02*
X24661D01*
X22299Y139408D02*
X24661D01*
X29383Y137046D02*
Y140588D01*
X31155D01*
X31745Y139998D01*
Y138817D01*
X31155Y138227D01*
X29383D01*
X30564D02*
X31745Y137046D01*
X33516D02*
X34697D01*
X35287Y137637D01*
Y138817D01*
X34697Y139408D01*
X33516D01*
X32926Y138817D01*
Y137637D01*
X33516Y137046D01*
X36468Y139408D02*
Y137637D01*
X37058Y137046D01*
X38829D01*
Y139408D01*
X40600Y139998D02*
Y139408D01*
X40010D01*
X41191D01*
X40600D01*
Y137637D01*
X41191Y137046D01*
X44733D02*
X43552D01*
X42962Y137637D01*
Y138817D01*
X43552Y139408D01*
X44733D01*
X45323Y138817D01*
Y138227D01*
X42962D01*
X48865Y140588D02*
Y137046D01*
X47094D01*
X46504Y137637D01*
Y138817D01*
X47094Y139408D01*
X48865D01*
X53588Y137046D02*
Y140588D01*
X55359D01*
X55950Y139998D01*
Y138817D01*
X55359Y138227D01*
X53588D01*
X57721Y139408D02*
X58901D01*
X59492Y138817D01*
Y137046D01*
X57721D01*
X57130Y137637D01*
X57721Y138227D01*
X59492D01*
X61263Y139998D02*
Y139408D01*
X60672D01*
X61853D01*
X61263D01*
Y137637D01*
X61853Y137046D01*
X63624Y140588D02*
Y137046D01*
Y138817D01*
X64215Y139408D01*
X65395D01*
X65986Y138817D01*
Y137046D01*
X70709Y140588D02*
Y137046D01*
X73070D01*
X76022D02*
X74841D01*
X74251Y137637D01*
Y138817D01*
X74841Y139408D01*
X76022D01*
X76612Y138817D01*
Y138227D01*
X74251D01*
X77793Y137046D02*
Y139408D01*
X79564D01*
X80154Y138817D01*
Y137046D01*
X82516Y135866D02*
X83106D01*
X83697Y136456D01*
Y139408D01*
X81925D01*
X81335Y138817D01*
Y137637D01*
X81925Y137046D01*
X83697D01*
X85468Y139998D02*
Y139408D01*
X84877D01*
X86058D01*
X85468D01*
Y137637D01*
X86058Y137046D01*
X87829Y140588D02*
Y137046D01*
Y138817D01*
X88419Y139408D01*
X89600D01*
X90191Y138817D01*
Y137046D01*
X94913Y138817D02*
X97275D01*
X96094Y139998D02*
Y137637D01*
X101998Y140588D02*
X104359D01*
X103178D01*
Y137046D01*
X106130D02*
X107311D01*
X107901Y137637D01*
Y138817D01*
X107311Y139408D01*
X106130D01*
X105540Y138817D01*
Y137637D01*
X106130Y137046D01*
X109672D02*
X110853D01*
X111443Y137637D01*
Y138817D01*
X110853Y139408D01*
X109672D01*
X109082Y138817D01*
Y137637D01*
X109672Y137046D01*
X112624D02*
X113805D01*
X113215D01*
Y140588D01*
X112624D01*
X121480Y139998D02*
X120889Y140588D01*
X119709D01*
X119118Y139998D01*
Y139408D01*
X119709Y138817D01*
X120889D01*
X121480Y138227D01*
Y137637D01*
X120889Y137046D01*
X119709D01*
X119118Y137637D01*
X122660Y137046D02*
X123841D01*
X123251D01*
Y139408D01*
X122660D01*
X125612D02*
X127974D01*
X125612Y137046D01*
X127974D01*
X130925D02*
X129745D01*
X129154Y137637D01*
Y138817D01*
X129745Y139408D01*
X130925D01*
X131516Y138817D01*
Y138227D01*
X129154D01*
X136239D02*
X138600D01*
X136239Y139408D02*
X138600D01*
X145684Y139998D02*
X145094Y140588D01*
X143913D01*
X143323Y139998D01*
Y139408D01*
X143913Y138817D01*
X145094D01*
X145684Y138227D01*
Y137637D01*
X145094Y137046D01*
X143913D01*
X143323Y137637D01*
X146865Y137046D02*
X148046D01*
X147455D01*
Y140588D01*
X146865D01*
X150407Y137046D02*
X151588D01*
X152178Y137637D01*
Y138817D01*
X151588Y139408D01*
X150407D01*
X149817Y138817D01*
Y137637D01*
X150407Y137046D01*
X153949Y139998D02*
Y139408D01*
X153359D01*
X154540D01*
X153949D01*
Y137637D01*
X154540Y137046D01*
X159853D02*
X161034D01*
X160443D01*
Y140588D01*
X159853D01*
X164576Y137046D02*
X163395D01*
X162805Y137637D01*
Y138817D01*
X163395Y139408D01*
X164576D01*
X165166Y138817D01*
Y138227D01*
X162805D01*
X166347Y137046D02*
Y139408D01*
X168118D01*
X168708Y138817D01*
Y137046D01*
X171070Y135866D02*
X171660D01*
X172251Y136456D01*
Y139408D01*
X170480D01*
X169889Y138817D01*
Y137637D01*
X170480Y137046D01*
X172251D01*
X174022Y139998D02*
Y139408D01*
X173431D01*
X174612D01*
X174022D01*
Y137637D01*
X174612Y137046D01*
X176383Y140588D02*
Y137046D01*
Y138817D01*
X176973Y139408D01*
X178154D01*
X178744Y138817D01*
Y137046D01*
X184058Y139408D02*
X185239D01*
X185829Y138817D01*
Y137046D01*
X184058D01*
X183467Y137637D01*
X184058Y138227D01*
X185829D01*
X187010Y137046D02*
X188781D01*
X189371Y137637D01*
X188781Y138227D01*
X187600D01*
X187010Y138817D01*
X187600Y139408D01*
X189371D01*
X196455Y140588D02*
Y137046D01*
X194684D01*
X194094Y137637D01*
Y138817D01*
X194684Y139408D01*
X196455D01*
X199407Y137046D02*
X198226D01*
X197636Y137637D01*
Y138817D01*
X198226Y139408D01*
X199407D01*
X199997Y138817D01*
Y138227D01*
X197636D01*
X201769Y137046D02*
Y139998D01*
Y138817D01*
X201178D01*
X202359D01*
X201769D01*
Y139998D01*
X202359Y140588D01*
X204130Y137046D02*
X205311D01*
X204720D01*
Y139408D01*
X204130D01*
X207082Y137046D02*
Y139408D01*
X208853D01*
X209443Y138817D01*
Y137046D01*
X212395D02*
X211214D01*
X210624Y137637D01*
Y138817D01*
X211214Y139408D01*
X212395D01*
X212985Y138817D01*
Y138227D01*
X210624D01*
X216528Y140588D02*
Y137046D01*
X214756D01*
X214166Y137637D01*
Y138817D01*
X214756Y139408D01*
X216528D01*
X221250Y137046D02*
X222431D01*
X221841D01*
Y139408D01*
X221250D01*
X224202Y137046D02*
Y139408D01*
X225973D01*
X226564Y138817D01*
Y137046D01*
X231877Y139998D02*
Y139408D01*
X231287D01*
X232467D01*
X231877D01*
Y137637D01*
X232467Y137046D01*
X234238Y140588D02*
Y137046D01*
Y138817D01*
X234829Y139408D01*
X236009D01*
X236600Y138817D01*
Y137046D01*
X239552D02*
X238371D01*
X237780Y137637D01*
Y138817D01*
X238371Y139408D01*
X239552D01*
X240142Y138817D01*
Y138227D01*
X237780D01*
X244865Y137046D02*
Y140588D01*
X246636D01*
X247226Y139998D01*
Y138817D01*
X246636Y138227D01*
X244865D01*
X250768Y139998D02*
X250178Y140588D01*
X248997D01*
X248407Y139998D01*
Y137637D01*
X248997Y137046D01*
X250178D01*
X250768Y137637D01*
X251949Y140588D02*
Y137046D01*
X253720D01*
X254311Y137637D01*
Y138227D01*
X253720Y138817D01*
X251949D01*
X253720D01*
X254311Y139408D01*
Y139998D01*
X253720Y140588D01*
X251949D01*
X259033Y137046D02*
X260214D01*
X259624D01*
Y140588D01*
X259033D01*
X262576Y139408D02*
X263756D01*
X264347Y138817D01*
Y137046D01*
X262576D01*
X261985Y137637D01*
X262576Y138227D01*
X264347D01*
X265527Y139408D02*
Y137637D01*
X266118Y137046D01*
X267889D01*
Y136456D01*
X267299Y135866D01*
X266708D01*
X267889Y137046D02*
Y139408D01*
X269660Y137046D02*
X270841D01*
X271431Y137637D01*
Y138817D01*
X270841Y139408D01*
X269660D01*
X269070Y138817D01*
Y137637D01*
X269660Y137046D01*
X272612Y139408D02*
Y137637D01*
X273202Y137046D01*
X274973D01*
Y139408D01*
X276744Y139998D02*
Y139408D01*
X276154D01*
X277335D01*
X276744D01*
Y137637D01*
X277335Y137046D01*
X42962Y144950D02*
X45323D01*
X42962Y146131D02*
X45323D01*
X52407Y146721D02*
X51817Y147311D01*
X50636D01*
X50046Y146721D01*
Y144360D01*
X50636Y143769D01*
X51817D01*
X52407Y144360D01*
X54179Y146131D02*
X55359D01*
X55950Y145540D01*
Y143769D01*
X54179D01*
X53588Y144360D01*
X54179Y144950D01*
X55950D01*
X57130Y143769D02*
X58311D01*
X57721D01*
Y147311D01*
X57130D01*
X62444Y146131D02*
X60672D01*
X60082Y145540D01*
Y144360D01*
X60672Y143769D01*
X62444D01*
X63624Y146131D02*
Y144360D01*
X64215Y143769D01*
X65986D01*
Y146131D01*
X67167Y143769D02*
X68347D01*
X67757D01*
Y147311D01*
X67167D01*
X70709Y146131D02*
X71889D01*
X72480Y145540D01*
Y143769D01*
X70709D01*
X70118Y144360D01*
X70709Y144950D01*
X72480D01*
X74251Y146721D02*
Y146131D01*
X73660D01*
X74841D01*
X74251D01*
Y144360D01*
X74841Y143769D01*
X78383D02*
X77203D01*
X76612Y144360D01*
Y145540D01*
X77203Y146131D01*
X78383D01*
X78974Y145540D01*
Y144950D01*
X76612D01*
X82516Y147311D02*
Y143769D01*
X80745D01*
X80154Y144360D01*
Y145540D01*
X80745Y146131D01*
X82516D01*
X87829Y143769D02*
Y146721D01*
Y145540D01*
X87239D01*
X88419D01*
X87829D01*
Y146721D01*
X88419Y147311D01*
X90191Y146131D02*
Y143769D01*
Y144950D01*
X90781Y145540D01*
X91371Y146131D01*
X91962D01*
X94323Y143769D02*
X95504D01*
X96094Y144360D01*
Y145540D01*
X95504Y146131D01*
X94323D01*
X93733Y145540D01*
Y144360D01*
X94323Y143769D01*
X97275D02*
Y146131D01*
X97865D01*
X98456Y145540D01*
Y143769D01*
Y145540D01*
X99046Y146131D01*
X99636Y145540D01*
Y143769D01*
X104949Y146721D02*
Y146131D01*
X104359D01*
X105540D01*
X104949D01*
Y144360D01*
X105540Y143769D01*
X107901D02*
X109082D01*
X109672Y144360D01*
Y145540D01*
X109082Y146131D01*
X107901D01*
X107311Y145540D01*
Y144360D01*
X107901Y143769D01*
X111443D02*
X112624D01*
X113215Y144360D01*
Y145540D01*
X112624Y146131D01*
X111443D01*
X110853Y145540D01*
Y144360D01*
X111443Y143769D01*
X114395D02*
X115576D01*
X114986D01*
Y147311D01*
X114395D01*
X120889Y143769D02*
X122660D01*
X123251Y144360D01*
X122660Y144950D01*
X121480D01*
X120889Y145540D01*
X121480Y146131D01*
X123251D01*
X125022Y146721D02*
Y146131D01*
X124431D01*
X125612D01*
X125022D01*
Y144360D01*
X125612Y143769D01*
X127974Y146131D02*
X129154D01*
X129745Y145540D01*
Y143769D01*
X127974D01*
X127383Y144360D01*
X127974Y144950D01*
X129745D01*
X130925Y146131D02*
Y143769D01*
Y144950D01*
X131516Y145540D01*
X132106Y146131D01*
X132696D01*
X135058Y146721D02*
Y146131D01*
X134467D01*
X135648D01*
X135058D01*
Y144360D01*
X135648Y143769D01*
X143323Y146131D02*
X141552D01*
X140962Y145540D01*
Y144360D01*
X141552Y143769D01*
X143323D01*
X146275D02*
X145094D01*
X144504Y144360D01*
Y145540D01*
X145094Y146131D01*
X146275D01*
X146865Y145540D01*
Y144950D01*
X144504D01*
X148046Y143769D02*
Y146131D01*
X149817D01*
X150407Y145540D01*
Y143769D01*
X152178Y146721D02*
Y146131D01*
X151588D01*
X152769D01*
X152178D01*
Y144360D01*
X152769Y143769D01*
X154540Y146131D02*
Y143769D01*
Y144950D01*
X155130Y145540D01*
X155720Y146131D01*
X156311D01*
X159853Y143769D02*
X158672D01*
X158082Y144360D01*
Y145540D01*
X158672Y146131D01*
X159853D01*
X160443Y145540D01*
Y144950D01*
X158082D01*
X165166Y142588D02*
Y146131D01*
X166937D01*
X167528Y145540D01*
Y144360D01*
X166937Y143769D01*
X165166D01*
X169299D02*
X170480D01*
X171070Y144360D01*
Y145540D01*
X170480Y146131D01*
X169299D01*
X168708Y145540D01*
Y144360D01*
X169299Y143769D01*
X172251D02*
X174022D01*
X174612Y144360D01*
X174022Y144950D01*
X172841D01*
X172251Y145540D01*
X172841Y146131D01*
X174612D01*
X175793Y143769D02*
X176973D01*
X176383D01*
Y146131D01*
X175793D01*
X179335Y146721D02*
Y146131D01*
X178744D01*
X179925D01*
X179335D01*
Y144360D01*
X179925Y143769D01*
X181696D02*
X182877D01*
X182287D01*
Y146131D01*
X181696D01*
X185239Y143769D02*
X186419D01*
X187010Y144360D01*
Y145540D01*
X186419Y146131D01*
X185239D01*
X184648Y145540D01*
Y144360D01*
X185239Y143769D01*
X188190D02*
Y146131D01*
X189961D01*
X190552Y145540D01*
Y143769D01*
X195865Y146721D02*
Y146131D01*
X195275D01*
X196455D01*
X195865D01*
Y144360D01*
X196455Y143769D01*
X198817D02*
X199997D01*
X200588Y144360D01*
Y145540D01*
X199997Y146131D01*
X198817D01*
X198226Y145540D01*
Y144360D01*
X198817Y143769D01*
X205901Y146721D02*
Y146131D01*
X205311D01*
X206491D01*
X205901D01*
Y144360D01*
X206491Y143769D01*
X208853D02*
X210034D01*
X210624Y144360D01*
Y145540D01*
X210034Y146131D01*
X208853D01*
X208262Y145540D01*
Y144360D01*
X208853Y143769D01*
X212395D02*
X213576D01*
X214166Y144360D01*
Y145540D01*
X213576Y146131D01*
X212395D01*
X211805Y145540D01*
Y144360D01*
X212395Y143769D01*
X215347D02*
X216528D01*
X215937D01*
Y147311D01*
X215347D01*
X223612Y143769D02*
X222431D01*
X221841Y144360D01*
Y145540D01*
X222431Y146131D01*
X223612D01*
X224202Y145540D01*
Y144950D01*
X221841D01*
X225383Y143769D02*
Y146131D01*
X227154D01*
X227744Y145540D01*
Y143769D01*
X231287Y147311D02*
Y143769D01*
X229516D01*
X228925Y144360D01*
Y145540D01*
X229516Y146131D01*
X231287D01*
X238371D02*
X236600D01*
X236009Y145540D01*
Y144360D01*
X236600Y143769D01*
X238371D01*
X241323D02*
X240142D01*
X239552Y144360D01*
Y145540D01*
X240142Y146131D01*
X241323D01*
X241913Y145540D01*
Y144950D01*
X239552D01*
X243094Y143769D02*
Y146131D01*
X244865D01*
X245455Y145540D01*
Y143769D01*
X247226Y146721D02*
Y146131D01*
X246636D01*
X247817D01*
X247226D01*
Y144360D01*
X247817Y143769D01*
X249588Y146131D02*
Y143769D01*
Y144950D01*
X250178Y145540D01*
X250768Y146131D01*
X251359D01*
X254901Y143769D02*
X253720D01*
X253130Y144360D01*
Y145540D01*
X253720Y146131D01*
X254901D01*
X255491Y145540D01*
Y144950D01*
X253130D01*
X260214Y142588D02*
Y146131D01*
X261985D01*
X262576Y145540D01*
Y144360D01*
X261985Y143769D01*
X260214D01*
X264347D02*
X265527D01*
X266118Y144360D01*
Y145540D01*
X265527Y146131D01*
X264347D01*
X263756Y145540D01*
Y144360D01*
X264347Y143769D01*
X267299D02*
X269070D01*
X269660Y144360D01*
X269070Y144950D01*
X267889D01*
X267299Y145540D01*
X267889Y146131D01*
X269660D01*
X270841Y143769D02*
X272021D01*
X271431D01*
Y146131D01*
X270841D01*
X274383Y146721D02*
Y146131D01*
X273793D01*
X274973D01*
X274383D01*
Y144360D01*
X274973Y143769D01*
X276744D02*
X277925D01*
X277335D01*
Y146131D01*
X276744D01*
X280286Y143769D02*
X281467D01*
X282057Y144360D01*
Y145540D01*
X281467Y146131D01*
X280286D01*
X279696Y145540D01*
Y144360D01*
X280286Y143769D01*
X283238D02*
Y146131D01*
X285009D01*
X285600Y145540D01*
Y143769D01*
X286780D02*
Y144360D01*
X287371D01*
Y143769D01*
X286780D01*
D90*
X174592Y42378D02*
G03*
X174592Y42378I-1000J0D01*
G01*
Y76394D02*
G03*
X174592Y76394I-1000J0D01*
G01*
X174185Y55854D02*
X174685Y55354D01*
X173685Y55854D02*
X174185D01*
X173685D02*
X174185Y56354D01*
X173685Y56854D02*
X174185Y56354D01*
X173685Y56854D02*
X174185D01*
X174685Y57354D01*
X175185Y56854D01*
X175685D01*
X175185Y56354D02*
X175685Y56854D01*
X175185Y56354D02*
X175685Y55854D01*
X175185D02*
X175685D01*
X174685Y55354D02*
X175185Y55854D01*
X174185Y61878D02*
X174685Y61378D01*
X173685Y61878D02*
X174185D01*
X173685D02*
X174185Y62378D01*
X173685Y62878D02*
X174185Y62378D01*
X173685Y62878D02*
X174185D01*
X174685Y63378D01*
X175185Y62878D01*
X175685D01*
X175185Y62378D02*
X175685Y62878D01*
X175185Y62378D02*
X175685Y61878D01*
X175185D02*
X175685D01*
X174685Y61378D02*
X175185Y61878D01*
X108595Y74279D02*
X109095Y73779D01*
X108095Y74279D02*
X108595D01*
X108095D02*
X108595Y74779D01*
X108095Y75279D02*
X108595Y74779D01*
X108095Y75279D02*
X108595D01*
X109095Y75779D01*
X109595Y75279D01*
X110094D01*
X109595Y74779D02*
X110094Y75279D01*
X109595Y74779D02*
X110094Y74279D01*
X109595D02*
X110094D01*
X109095Y73779D02*
X109595Y74279D01*
X121224Y21228D02*
X121724Y20728D01*
X120724Y21228D02*
X121224D01*
X120724D02*
X121224Y21728D01*
X120724Y22228D02*
X121224Y21728D01*
X120724Y22228D02*
X121224D01*
X121724Y22728D01*
X122224Y22228D01*
X122724D01*
X122224Y21728D02*
X122724Y22228D01*
X122224Y21728D02*
X122724Y21228D01*
X122224D02*
X122724D01*
X121724Y20728D02*
X122224Y21228D01*
X108862Y26941D02*
X109362Y26441D01*
X108362Y26941D02*
X108862D01*
X108362D02*
X108862Y27441D01*
X108362Y27941D02*
X108862Y27441D01*
X108362Y27941D02*
X108862D01*
X109362Y28441D01*
X109862Y27941D01*
X110362D01*
X109862Y27441D02*
X110362Y27941D01*
X109862Y27441D02*
X110362Y26941D01*
X109862D02*
X110362D01*
X109362Y26441D02*
X109862Y26941D01*
X105783Y59602D02*
X106283Y59102D01*
X105283Y59602D02*
X105783D01*
X105283D02*
X105783Y60102D01*
X105283Y60602D02*
X105783Y60102D01*
X105283Y60602D02*
X105783D01*
X106283Y61102D01*
X106783Y60602D01*
X107283D01*
X106783Y60102D02*
X107283Y60602D01*
X106783Y60102D02*
X107283Y59602D01*
X106783D02*
X107283D01*
X106283Y59102D02*
X106783Y59602D01*
X135413D02*
X135913Y59102D01*
X134913Y59602D02*
X135413D01*
X134913D02*
X135413Y60102D01*
X134913Y60602D02*
X135413Y60102D01*
X134913Y60602D02*
X135413D01*
X135913Y61102D01*
X136413Y60602D01*
X136913D01*
X136413Y60102D02*
X136913Y60602D01*
X136413Y60102D02*
X136913Y59602D01*
X136413D02*
X136913D01*
X135913Y59102D02*
X136413Y59602D01*
X174175Y65775D02*
X174675Y65275D01*
X173675Y65775D02*
X174175D01*
X173675D02*
X174175Y66275D01*
X173675Y66775D02*
X174175Y66275D01*
X173675Y66775D02*
X174175D01*
X174675Y67275D01*
X175175Y66775D01*
X175675D01*
X175175Y66275D02*
X175675Y66775D01*
X175175Y66275D02*
X175675Y65775D01*
X175175D02*
X175675D01*
X174675Y65275D02*
X175175Y65775D01*
X191673Y85303D02*
X192173Y84803D01*
X191173Y85303D02*
X191673D01*
X191173D02*
X191673Y85803D01*
X191173Y86303D02*
X191673Y85803D01*
X191173Y86303D02*
X191673D01*
X192173Y86803D01*
X192673Y86303D01*
X193173D01*
X192673Y85803D02*
X193173Y86303D01*
X192673Y85803D02*
X193173Y85303D01*
X192673D02*
X193173D01*
X192173Y84803D02*
X192673Y85303D01*
X98689Y115091D02*
X99189Y114591D01*
X98189Y115091D02*
X98689D01*
X98189D02*
X98689Y115591D01*
X98189Y116091D02*
X98689Y115591D01*
X98189Y116091D02*
X98689D01*
X99189Y116591D01*
X99689Y116091D01*
X100189D01*
X99689Y115591D02*
X100189Y116091D01*
X99689Y115591D02*
X100189Y115091D01*
X99689D02*
X100189D01*
X99189Y114591D02*
X99689Y115091D01*
X112744D02*
X113244Y114591D01*
X112244Y115091D02*
X112744D01*
X112244D02*
X112744Y115591D01*
X112244Y116091D02*
X112744Y115591D01*
X112244Y116091D02*
X112744D01*
X113244Y116591D01*
X113744Y116091D01*
X114244D01*
X113744Y115591D02*
X114244Y116091D01*
X113744Y115591D02*
X114244Y115091D01*
X113744D02*
X114244D01*
X113244Y114591D02*
X113744Y115091D01*
X146642Y85659D02*
X147142Y85159D01*
X146142Y85659D02*
X146642D01*
X146142D02*
X146642Y86159D01*
X146142Y86659D02*
X146642Y86159D01*
X146142Y86659D02*
X146642D01*
X147142Y87159D01*
X147642Y86659D01*
X148142D01*
X147642Y86159D02*
X148142Y86659D01*
X147642Y86159D02*
X148142Y85659D01*
X147642D02*
X148142D01*
X147142Y85159D02*
X147642Y85659D01*
X161457Y70480D02*
X162457Y70980D01*
X163457Y70480D01*
X162957Y71480D02*
X163457Y70480D01*
X162957Y71480D02*
X163457Y72480D01*
X162457Y71980D02*
X163457Y72480D01*
X161457D02*
X162457Y71980D01*
X161457Y72480D02*
X161957Y71480D01*
X161457Y70480D02*
X161957Y71480D01*
X161504Y46386D02*
X162504Y46886D01*
X163504Y46386D01*
X163004Y47386D02*
X163504Y46386D01*
X163004Y47386D02*
X163504Y48386D01*
X162504Y47886D02*
X163504Y48386D01*
X161504D02*
X162504Y47886D01*
X161504Y48386D02*
X162004Y47386D01*
X161504Y46386D02*
X162004Y47386D01*
X116276Y47106D02*
X116776Y46606D01*
X115776Y47106D02*
X116276D01*
X115776D02*
X116276Y47606D01*
X115776Y48106D02*
X116276Y47606D01*
X115776Y48106D02*
X116276D01*
X116776Y48606D01*
X117276Y48106D01*
X117775D01*
X117276Y47606D02*
X117775Y48106D01*
X117276Y47606D02*
X117775Y47106D01*
X117276D02*
X117775D01*
X116776Y46606D02*
X117276Y47106D01*
X105114Y44209D02*
X105614Y43709D01*
X104614Y44209D02*
X105114D01*
X104614D02*
X105114Y44709D01*
X104614Y45209D02*
X105114Y44709D01*
X104614Y45209D02*
X105114D01*
X105614Y45709D01*
X106114Y45209D01*
X106614D01*
X106114Y44709D02*
X106614Y45209D01*
X106114Y44709D02*
X106614Y44209D01*
X106114D02*
X106614D01*
X105614Y43709D02*
X106114Y44209D01*
X98579Y41201D02*
X99079Y40701D01*
X98079Y41201D02*
X98579D01*
X98079D02*
X98579Y41701D01*
X98079Y42201D02*
X98579Y41701D01*
X98079Y42201D02*
X98579D01*
X99079Y42701D01*
X99579Y42201D01*
X100079D01*
X99579Y41701D02*
X100079Y42201D01*
X99579Y41701D02*
X100079Y41201D01*
X99579D02*
X100079D01*
X99079Y40701D02*
X99579Y41201D01*
X101902Y37382D02*
X102402Y36882D01*
X101402Y37382D02*
X101902D01*
X101402D02*
X101902Y37882D01*
X101402Y38382D02*
X101902Y37882D01*
X101402Y38382D02*
X101902D01*
X102402Y38882D01*
X102902Y38382D01*
X103402D01*
X102902Y37882D02*
X103402Y38382D01*
X102902Y37882D02*
X103402Y37382D01*
X102902D02*
X103402D01*
X102402Y36882D02*
X102902Y37382D01*
X104713D02*
X105213Y36882D01*
X104213Y37382D02*
X104713D01*
X104213D02*
X104713Y37882D01*
X104213Y38382D02*
X104713Y37882D01*
X104213Y38382D02*
X104713D01*
X105213Y38882D01*
X105713Y38382D01*
X106213D01*
X105713Y37882D02*
X106213Y38382D01*
X105713Y37882D02*
X106213Y37382D01*
X105713D02*
X106213D01*
X105213Y36882D02*
X105713Y37382D01*
X107524D02*
X108024Y36882D01*
X107024Y37382D02*
X107524D01*
X107024D02*
X107524Y37882D01*
X107024Y38382D02*
X107524Y37882D01*
X107024Y38382D02*
X107524D01*
X108024Y38882D01*
X108524Y38382D01*
X109024D01*
X108524Y37882D02*
X109024Y38382D01*
X108524Y37882D02*
X109024Y37382D01*
X108524D02*
X109024D01*
X108024Y36882D02*
X108524Y37382D01*
X108461Y44075D02*
X108961Y43575D01*
X107961Y44075D02*
X108461D01*
X107961D02*
X108461Y44575D01*
X107961Y45075D02*
X108461Y44575D01*
X107961Y45075D02*
X108461D01*
X108961Y45575D01*
X109461Y45075D01*
X109961D01*
X109461Y44575D02*
X109961Y45075D01*
X109461Y44575D02*
X109961Y44075D01*
X109461D02*
X109961D01*
X108961Y43575D02*
X109461Y44075D01*
X111406D02*
X111906Y43575D01*
X110906Y44075D02*
X111406D01*
X110906D02*
X111406Y44575D01*
X110906Y45075D02*
X111406Y44575D01*
X110906Y45075D02*
X111406D01*
X111906Y45575D01*
X112406Y45075D01*
X112906D01*
X112406Y44575D02*
X112906Y45075D01*
X112406Y44575D02*
X112906Y44075D01*
X112406D02*
X112906D01*
X111906Y43575D02*
X112406Y44075D01*
X91059Y65358D02*
X91559Y64858D01*
X90559Y65358D02*
X91059D01*
X90559D02*
X91059Y65858D01*
X90559Y66358D02*
X91059Y65858D01*
X90559Y66358D02*
X91059D01*
X91559Y66858D01*
X92059Y66358D01*
X92559D01*
X92059Y65858D02*
X92559Y66358D01*
X92059Y65858D02*
X92559Y65358D01*
X92059D02*
X92559D01*
X91559Y64858D02*
X92059Y65358D01*
X116142Y56949D02*
X116642Y56449D01*
X115642Y56949D02*
X116142D01*
X115642D02*
X116142Y57449D01*
X115642Y57949D02*
X116142Y57449D01*
X115642Y57949D02*
X116142D01*
X116642Y58449D01*
X117142Y57949D01*
X117642D01*
X117142Y57449D02*
X117642Y57949D01*
X117142Y57449D02*
X117642Y56949D01*
X117142D02*
X117642D01*
X116642Y56449D02*
X117142Y56949D01*
X125594D02*
X126094Y56449D01*
X125094Y56949D02*
X125594D01*
X125094D02*
X125594Y57449D01*
X125094Y57949D02*
X125594Y57449D01*
X125094Y57949D02*
X125594D01*
X126094Y58449D01*
X126594Y57949D01*
X127094D01*
X126594Y57449D02*
X127094Y57949D01*
X126594Y57449D02*
X127094Y56949D01*
X126594D02*
X127094D01*
X126094Y56449D02*
X126594Y56949D01*
X120776Y60673D02*
X121276Y60173D01*
X120276Y60673D02*
X120776D01*
X120276D02*
X120776Y61173D01*
X120276Y61673D02*
X120776Y61173D01*
X120276Y61673D02*
X120776D01*
X121276Y62173D01*
X121776Y61673D01*
X122276D01*
X121776Y61173D02*
X122276Y61673D01*
X121776Y61173D02*
X122276Y60673D01*
X121776D02*
X122276D01*
X121276Y60173D02*
X121776Y60673D01*
X127421Y14224D02*
X127921Y13724D01*
X126921Y14224D02*
X127421D01*
X126921D02*
X127421Y14724D01*
X126921Y15224D02*
X127421Y14724D01*
X126921Y15224D02*
X127421D01*
X127921Y15724D01*
X128421Y15224D01*
X128921D01*
X128421Y14724D02*
X128921Y15224D01*
X128421Y14724D02*
X128921Y14224D01*
X128421D02*
X128921D01*
X127921Y13724D02*
X128421Y14224D01*
X99626Y91327D02*
X100126Y90827D01*
X99126Y91327D02*
X99626D01*
X99126D02*
X99626Y91827D01*
X99126Y92327D02*
X99626Y91827D01*
X99126Y92327D02*
X99626D01*
X100126Y92827D01*
X100626Y92327D01*
X101126D01*
X100626Y91827D02*
X101126Y92327D01*
X100626Y91827D02*
X101126Y91327D01*
X100626D02*
X101126D01*
X100126Y90827D02*
X100626Y91327D01*
X105917D02*
X106417Y90827D01*
X105417Y91327D02*
X105917D01*
X105417D02*
X105917Y91827D01*
X105417Y92327D02*
X105917Y91827D01*
X105417Y92327D02*
X105917D01*
X106417Y92827D01*
X106917Y92327D01*
X107417D01*
X106917Y91827D02*
X107417Y92327D01*
X106917Y91827D02*
X107417Y91327D01*
X106917D02*
X107417D01*
X106417Y90827D02*
X106917Y91327D01*
X105917Y85972D02*
X106417Y85472D01*
X105417Y85972D02*
X105917D01*
X105417D02*
X105917Y86472D01*
X105417Y86972D02*
X105917Y86472D01*
X105417Y86972D02*
X105917D01*
X106417Y87472D01*
X106917Y86972D01*
X107417D01*
X106917Y86472D02*
X107417Y86972D01*
X106917Y86472D02*
X107417Y85972D01*
X106917D02*
X107417D01*
X106417Y85472D02*
X106917Y85972D01*
X99626D02*
X100126Y85472D01*
X99126Y85972D02*
X99626D01*
X99126D02*
X99626Y86472D01*
X99126Y86972D02*
X99626Y86472D01*
X99126Y86972D02*
X99626D01*
X100126Y87472D01*
X100626Y86972D01*
X101126D01*
X100626Y86472D02*
X101126Y86972D01*
X100626Y86472D02*
X101126Y85972D01*
X100626D02*
X101126D01*
X100126Y85472D02*
X100626Y85972D01*
X97350Y68839D02*
X97850Y68339D01*
X96850Y68839D02*
X97350D01*
X96850D02*
X97350Y69339D01*
X96850Y69839D02*
X97350Y69339D01*
X96850Y69839D02*
X97350D01*
X97850Y70339D01*
X98350Y69839D01*
X98850D01*
X98350Y69339D02*
X98850Y69839D01*
X98350Y69339D02*
X98850Y68839D01*
X98350D02*
X98850D01*
X97850Y68339D02*
X98350Y68839D01*
X91260Y35039D02*
X91760Y34539D01*
X90760Y35039D02*
X91260D01*
X90760D02*
X91260Y35539D01*
X90760Y36039D02*
X91260Y35539D01*
X90760Y36039D02*
X91260D01*
X91760Y36539D01*
X92260Y36039D01*
X92760D01*
X92260Y35539D02*
X92760Y36039D01*
X92260Y35539D02*
X92760Y35039D01*
X92260D02*
X92760D01*
X91760Y34539D02*
X92260Y35039D01*
X87846Y35173D02*
X88346Y34673D01*
X87347Y35173D02*
X87846D01*
X87347D02*
X87846Y35673D01*
X87347Y36173D02*
X87846Y35673D01*
X87347Y36173D02*
X87846D01*
X88346Y36673D01*
X88846Y36173D01*
X89346D01*
X88846Y35673D02*
X89346Y36173D01*
X88846Y35673D02*
X89346Y35173D01*
X88846D02*
X89346D01*
X88346Y34673D02*
X88846Y35173D01*
X52403Y64798D02*
X53403Y65298D01*
X54403Y64798D01*
X53903Y65798D02*
X54403Y64798D01*
X53903Y65798D02*
X54403Y66798D01*
X53403Y66298D02*
X54403Y66798D01*
X52403D02*
X53403Y66298D01*
X52403Y66798D02*
X52903Y65798D01*
X52403Y64798D02*
X52903Y65798D01*
X87272Y85558D02*
X87772Y85058D01*
X86772Y85558D02*
X87272D01*
X86772D02*
X87272Y86058D01*
X86772Y86558D02*
X87272Y86058D01*
X86772Y86558D02*
X87272D01*
X87772Y87058D01*
X88272Y86558D01*
X88772D01*
X88272Y86058D02*
X88772Y86558D01*
X88272Y86058D02*
X88772Y85558D01*
X88272D02*
X88772D01*
X87772Y85058D02*
X88272Y85558D01*
X87272Y88986D02*
X87772Y88486D01*
X86772Y88986D02*
X87272D01*
X86772D02*
X87272Y89486D01*
X86772Y89986D02*
X87272Y89486D01*
X86772Y89986D02*
X87272D01*
X87772Y90486D01*
X88272Y89986D01*
X88772D01*
X88272Y89486D02*
X88772Y89986D01*
X88272Y89486D02*
X88772Y88986D01*
X88272D02*
X88772D01*
X87772Y88486D02*
X88272Y88986D01*
X87272Y92413D02*
X87772Y91913D01*
X86772Y92413D02*
X87272D01*
X86772D02*
X87272Y92913D01*
X86772Y93413D02*
X87272Y92913D01*
X86772Y93413D02*
X87272D01*
X87772Y93913D01*
X88272Y93413D01*
X88772D01*
X88272Y92913D02*
X88772Y93413D01*
X88272Y92913D02*
X88772Y92413D01*
X88272D02*
X88772D01*
X87772Y91913D02*
X88272Y92413D01*
X32295Y44456D02*
X32795Y43956D01*
X31795Y44456D02*
X32295D01*
X31795D02*
X32295Y44956D01*
X31795Y45456D02*
X32295Y44956D01*
X31795Y45456D02*
X32295D01*
X32795Y45956D01*
X33295Y45456D01*
X33795D01*
X33295Y44956D02*
X33795Y45456D01*
X33295Y44956D02*
X33795Y44456D01*
X33295D02*
X33795D01*
X32795Y43956D02*
X33295Y44456D01*
X97209Y49384D02*
X97709Y48884D01*
X96709Y49384D02*
X97209D01*
X96709D02*
X97209Y49885D01*
X96709Y50384D02*
X97209Y49885D01*
X96709Y50384D02*
X97209D01*
X97709Y50884D01*
X98209Y50384D01*
X98709D01*
X98209Y49885D02*
X98709Y50384D01*
X98209Y49885D02*
X98709Y49384D01*
X98209D02*
X98709D01*
X97709Y48884D02*
X98209Y49384D01*
X94051Y52526D02*
X94551Y52026D01*
X93551Y52526D02*
X94051D01*
X93551D02*
X94051Y53026D01*
X93551Y53526D02*
X94051Y53026D01*
X93551Y53526D02*
X94051D01*
X94551Y54026D01*
X95051Y53526D01*
X95551D01*
X95051Y53026D02*
X95551Y53526D01*
X95051Y53026D02*
X95551Y52526D01*
X95051D02*
X95551D01*
X94551Y52026D02*
X95051Y52526D01*
X94051Y49295D02*
X94551Y48795D01*
X93551Y49295D02*
X94051D01*
X93551D02*
X94051Y49795D01*
X93551Y50295D02*
X94051Y49795D01*
X93551Y50295D02*
X94051D01*
X94551Y50795D01*
X95051Y50295D01*
X95551D01*
X95051Y49795D02*
X95551Y50295D01*
X95051Y49795D02*
X95551Y49295D01*
X95051D02*
X95551D01*
X94551Y48795D02*
X95051Y49295D01*
X103610Y56167D02*
X104110Y55667D01*
X103110Y56167D02*
X103610D01*
X103110D02*
X103610Y56667D01*
X103110Y57167D02*
X103610Y56667D01*
X103110Y57167D02*
X103610D01*
X104110Y57667D01*
X104610Y57167D01*
X105110D01*
X104610Y56667D02*
X105110Y57167D01*
X104610Y56667D02*
X105110Y56167D01*
X104610D02*
X105110D01*
X104110Y55667D02*
X104610Y56167D01*
X109098Y56256D02*
X109598Y55756D01*
X108598Y56256D02*
X109098D01*
X108598D02*
X109098Y56756D01*
X108598Y57256D02*
X109098Y56756D01*
X108598Y57256D02*
X109098D01*
X109598Y57756D01*
X110098Y57256D01*
X110598D01*
X110098Y56756D02*
X110598Y57256D01*
X110098Y56756D02*
X110598Y56256D01*
X110098D02*
X110598D01*
X109598Y55756D02*
X110098Y56256D01*
X106287D02*
X106787Y55756D01*
X105787Y56256D02*
X106287D01*
X105787D02*
X106287Y56756D01*
X105787Y57256D02*
X106287Y56756D01*
X105787Y57256D02*
X106287D01*
X106787Y57756D01*
X107287Y57256D01*
X107787D01*
X107287Y56756D02*
X107787Y57256D01*
X107287Y56756D02*
X107787Y56256D01*
X107287D02*
X107787D01*
X106787Y55756D02*
X107287Y56256D01*
X197453Y41164D02*
X197953Y40664D01*
X196953Y41164D02*
X197453D01*
X196953D02*
X197453Y41664D01*
X196953Y42164D02*
X197453Y41664D01*
X196953Y42164D02*
X197453D01*
X197953Y42664D01*
X198453Y42164D01*
X198953D01*
X198453Y41664D02*
X198953Y42164D01*
X198453Y41664D02*
X198953Y41164D01*
X198453D02*
X198953D01*
X197953Y40664D02*
X198453Y41164D01*
X197453Y45935D02*
X197953Y45435D01*
X196953Y45935D02*
X197453D01*
X196953D02*
X197453Y46435D01*
X196953Y46935D02*
X197453Y46435D01*
X196953Y46935D02*
X197453D01*
X197953Y47435D01*
X198453Y46935D01*
X198953D01*
X198453Y46435D02*
X198953Y46935D01*
X198453Y46435D02*
X198953Y45935D01*
X198453D02*
X198953D01*
X197953Y45435D02*
X198453Y45935D01*
X197453Y50706D02*
X197953Y50206D01*
X196953Y50706D02*
X197453D01*
X196953D02*
X197453Y51206D01*
X196953Y51706D02*
X197453Y51206D01*
X196953Y51706D02*
X197453D01*
X197953Y52206D01*
X198453Y51706D01*
X198953D01*
X198453Y51206D02*
X198953Y51706D01*
X198453Y51206D02*
X198953Y50706D01*
X198453D02*
X198953D01*
X197953Y50206D02*
X198453Y50706D01*
X197453Y22080D02*
X197953Y21580D01*
X196953Y22080D02*
X197453D01*
X196953D02*
X197453Y22580D01*
X196953Y23080D02*
X197453Y22580D01*
X196953Y23080D02*
X197453D01*
X197953Y23580D01*
X198453Y23080D01*
X198953D01*
X198453Y22580D02*
X198953Y23080D01*
X198453Y22580D02*
X198953Y22080D01*
X198453D02*
X198953D01*
X197953Y21580D02*
X198453Y22080D01*
X197453Y26851D02*
X197953Y26351D01*
X196953Y26851D02*
X197453D01*
X196953D02*
X197453Y27351D01*
X196953Y27851D02*
X197453Y27351D01*
X196953Y27851D02*
X197453D01*
X197953Y28351D01*
X198453Y27851D01*
X198953D01*
X198453Y27351D02*
X198953Y27851D01*
X198453Y27351D02*
X198953Y26851D01*
X198453D02*
X198953D01*
X197953Y26351D02*
X198453Y26851D01*
X197453Y31622D02*
X197953Y31122D01*
X196953Y31622D02*
X197453D01*
X196953D02*
X197453Y32122D01*
X196953Y32622D02*
X197453Y32122D01*
X196953Y32622D02*
X197453D01*
X197953Y33122D01*
X198453Y32622D01*
X198953D01*
X198453Y32122D02*
X198953Y32622D01*
X198453Y32122D02*
X198953Y31622D01*
X198453D02*
X198953D01*
X197953Y31122D02*
X198453Y31622D01*
X197453Y36393D02*
X197953Y35893D01*
X196953Y36393D02*
X197453D01*
X196953D02*
X197453Y36893D01*
X196953Y37393D02*
X197453Y36893D01*
X196953Y37393D02*
X197453D01*
X197953Y37893D01*
X198453Y37393D01*
X198953D01*
X198453Y36893D02*
X198953Y37393D01*
X198453Y36893D02*
X198953Y36393D01*
X198453D02*
X198953D01*
X197953Y35893D02*
X198453Y36393D01*
X197453Y79332D02*
X197953Y78832D01*
X196953Y79332D02*
X197453D01*
X196953D02*
X197453Y79832D01*
X196953Y80332D02*
X197453Y79832D01*
X196953Y80332D02*
X197453D01*
X197953Y80832D01*
X198453Y80332D01*
X198953D01*
X198453Y79832D02*
X198953Y80332D01*
X198453Y79832D02*
X198953Y79332D01*
X198453D02*
X198953D01*
X197953Y78832D02*
X198453Y79332D01*
X197453Y84103D02*
X197953Y83603D01*
X196953Y84103D02*
X197453D01*
X196953D02*
X197453Y84603D01*
X196953Y85103D02*
X197453Y84603D01*
X196953Y85103D02*
X197453D01*
X197953Y85603D01*
X198453Y85103D01*
X198953D01*
X198453Y84603D02*
X198953Y85103D01*
X198453Y84603D02*
X198953Y84103D01*
X198453D02*
X198953D01*
X197953Y83603D02*
X198453Y84103D01*
X197453Y88874D02*
X197953Y88374D01*
X196953Y88874D02*
X197453D01*
X196953D02*
X197453Y89374D01*
X196953Y89874D02*
X197453Y89374D01*
X196953Y89874D02*
X197453D01*
X197953Y90374D01*
X198453Y89874D01*
X198953D01*
X198453Y89374D02*
X198953Y89874D01*
X198453Y89374D02*
X198953Y88874D01*
X198453D02*
X198953D01*
X197953Y88374D02*
X198453Y88874D01*
X197453Y93644D02*
X197953Y93145D01*
X196953Y93644D02*
X197453D01*
X196953D02*
X197453Y94144D01*
X196953Y94644D02*
X197453Y94144D01*
X196953Y94644D02*
X197453D01*
X197953Y95144D01*
X198453Y94644D01*
X198953D01*
X198453Y94144D02*
X198953Y94644D01*
X198453Y94144D02*
X198953Y93644D01*
X198453D02*
X198953D01*
X197953Y93145D02*
X198453Y93644D01*
X167825Y7634D02*
X168325Y7134D01*
X167325Y7634D02*
X167825D01*
X167325D02*
X167825Y8134D01*
X167325Y8634D02*
X167825Y8134D01*
X167325Y8634D02*
X167825D01*
X168325Y9134D01*
X168825Y8634D01*
X169325D01*
X168825Y8134D02*
X169325Y8634D01*
X168825Y8134D02*
X169325Y7634D01*
X168825D02*
X169325D01*
X168325Y7134D02*
X168825Y7634D01*
X170938D02*
X171438Y7134D01*
X170438Y7634D02*
X170938D01*
X170438D02*
X170938Y8134D01*
X170438Y8634D02*
X170938Y8134D01*
X170438Y8634D02*
X170938D01*
X171438Y9134D01*
X171938Y8634D01*
X172438D01*
X171938Y8134D02*
X172438Y8634D01*
X171938Y8134D02*
X172438Y7634D01*
X171938D02*
X172438D01*
X171438Y7134D02*
X171938Y7634D01*
X170938Y4705D02*
X171438Y4205D01*
X170438Y4705D02*
X170938D01*
X170438D02*
X170938Y5205D01*
X170438Y5705D02*
X170938Y5205D01*
X170438Y5705D02*
X170938D01*
X171438Y6205D01*
X171938Y5705D01*
X172438D01*
X171938Y5205D02*
X172438Y5705D01*
X171938Y5205D02*
X172438Y4705D01*
X171938D02*
X172438D01*
X171438Y4205D02*
X171938Y4705D01*
X167825D02*
X168325Y4205D01*
X167325Y4705D02*
X167825D01*
X167325D02*
X167825Y5205D01*
X167325Y5705D02*
X167825Y5205D01*
X167325Y5705D02*
X167825D01*
X168325Y6205D01*
X168825Y5705D01*
X169325D01*
X168825Y5205D02*
X169325Y5705D01*
X168825Y5205D02*
X169325Y4705D01*
X168825D02*
X169325D01*
X168325Y4205D02*
X168825Y4705D01*
X167736Y10429D02*
X168236Y9929D01*
X167236Y10429D02*
X167736D01*
X167236D02*
X167736Y10929D01*
X167236Y11429D02*
X167736Y10929D01*
X167236Y11429D02*
X167736D01*
X168236Y11929D01*
X168736Y11429D01*
X169236D01*
X168736Y10929D02*
X169236Y11429D01*
X168736Y10929D02*
X169236Y10429D01*
X168736D02*
X169236D01*
X168236Y9929D02*
X168736Y10429D01*
X170849D02*
X171349Y9929D01*
X170349Y10429D02*
X170849D01*
X170349D02*
X170849Y10929D01*
X170349Y11429D02*
X170849Y10929D01*
X170349Y11429D02*
X170849D01*
X171349Y11929D01*
X171849Y11429D01*
X172349D01*
X171849Y10929D02*
X172349Y11429D01*
X171849Y10929D02*
X172349Y10429D01*
X171849D02*
X172349D01*
X171349Y9929D02*
X171849Y10429D01*
X170849Y13358D02*
X171349Y12858D01*
X170349Y13358D02*
X170849D01*
X170349D02*
X170849Y13858D01*
X170349Y14358D02*
X170849Y13858D01*
X170349Y14358D02*
X170849D01*
X171349Y14858D01*
X171849Y14358D01*
X172349D01*
X171849Y13858D02*
X172349Y14358D01*
X171849Y13858D02*
X172349Y13358D01*
X171849D02*
X172349D01*
X171349Y12858D02*
X171849Y13358D01*
X167736D02*
X168236Y12858D01*
X167236Y13358D02*
X167736D01*
X167236D02*
X167736Y13858D01*
X167236Y14358D02*
X167736Y13858D01*
X167236Y14358D02*
X167736D01*
X168236Y14858D01*
X168736Y14358D01*
X169236D01*
X168736Y13858D02*
X169236Y14358D01*
X168736Y13858D02*
X169236Y13358D01*
X168736D02*
X169236D01*
X168236Y12858D02*
X168736Y13358D01*
X174051Y7634D02*
X174551Y7134D01*
X173551Y7634D02*
X174051D01*
X173551D02*
X174051Y8134D01*
X173551Y8634D02*
X174051Y8134D01*
X173551Y8634D02*
X174051D01*
X174551Y9134D01*
X175051Y8634D01*
X175551D01*
X175051Y8134D02*
X175551Y8634D01*
X175051Y8134D02*
X175551Y7634D01*
X175051D02*
X175551D01*
X174551Y7134D02*
X175051Y7634D01*
X173962Y10429D02*
X174462Y9929D01*
X173462Y10429D02*
X173962D01*
X173462D02*
X173962Y10929D01*
X173462Y11429D02*
X173962Y10929D01*
X173462Y11429D02*
X173962D01*
X174462Y11929D01*
X174962Y11429D01*
X175462D01*
X174962Y10929D02*
X175462Y11429D01*
X174962Y10929D02*
X175462Y10429D01*
X174962D02*
X175462D01*
X174462Y9929D02*
X174962Y10429D01*
X173962Y13358D02*
X174462Y12858D01*
X173462Y13358D02*
X173962D01*
X173462D02*
X173962Y13858D01*
X173462Y14358D02*
X173962Y13858D01*
X173462Y14358D02*
X173962D01*
X174462Y14858D01*
X174962Y14358D01*
X175462D01*
X174962Y13858D02*
X175462Y14358D01*
X174962Y13858D02*
X175462Y13358D01*
X174962D02*
X175462D01*
X174462Y12858D02*
X174962Y13358D01*
X127870Y40728D02*
X128370Y40228D01*
X127370Y40728D02*
X127870D01*
X127370D02*
X127870Y41228D01*
X127370Y41728D02*
X127870Y41228D01*
X127370Y41728D02*
X127870D01*
X128370Y42228D01*
X128870Y41728D01*
X129370D01*
X128870Y41228D02*
X129370Y41728D01*
X128870Y41228D02*
X129370Y40728D01*
X128870D02*
X129370D01*
X128370Y40228D02*
X128870Y40728D01*
X125594Y60563D02*
X126094Y60063D01*
X125094Y60563D02*
X125594D01*
X125094D02*
X125594Y61063D01*
X125094Y61563D02*
X125594Y61063D01*
X125094Y61563D02*
X125594D01*
X126094Y62063D01*
X126594Y61563D01*
X127094D01*
X126594Y61063D02*
X127094Y61563D01*
X126594Y61063D02*
X127094Y60563D01*
X126594D02*
X127094D01*
X126094Y60063D02*
X126594Y60563D01*
X122881Y105465D02*
X123881Y105965D01*
X124881Y105465D01*
X124381Y106465D02*
X124881Y105465D01*
X124381Y106465D02*
X124881Y107465D01*
X123881Y106965D02*
X124881Y107465D01*
X122881D02*
X123881Y106965D01*
X122881Y107465D02*
X123381Y106465D01*
X122881Y105465D02*
X123381Y106465D01*
X146476Y74536D02*
X146976Y74036D01*
X145976Y74536D02*
X146476D01*
X145976D02*
X146476Y75036D01*
X145976Y75536D02*
X146476Y75036D01*
X145976Y75536D02*
X146476D01*
X146976Y76036D01*
X147476Y75536D01*
X147976D01*
X147476Y75036D02*
X147976Y75536D01*
X147476Y75036D02*
X147976Y74536D01*
X147476D02*
X147976D01*
X146976Y74036D02*
X147476Y74536D01*
X151965Y74625D02*
X152465Y74125D01*
X151465Y74625D02*
X151965D01*
X151465D02*
X151965Y75125D01*
X151465Y75625D02*
X151965Y75125D01*
X151465Y75625D02*
X151965D01*
X152465Y76125D01*
X152965Y75625D01*
X153465D01*
X152965Y75125D02*
X153465Y75625D01*
X152965Y75125D02*
X153465Y74625D01*
X152965D02*
X153465D01*
X152465Y74125D02*
X152965Y74625D01*
X115616Y100965D02*
X116116Y100465D01*
X115116Y100965D02*
X115616D01*
X115116D02*
X115616Y101465D01*
X115116Y101965D02*
X115616Y101465D01*
X115116Y101965D02*
X115616D01*
X116116Y102465D01*
X116616Y101965D01*
X117116D01*
X116616Y101465D02*
X117116Y101965D01*
X116616Y101465D02*
X117116Y100965D01*
X116616D02*
X117116D01*
X116116Y100465D02*
X116616Y100965D01*
X112464D02*
X112964Y100465D01*
X111964Y100965D02*
X112464D01*
X111964D02*
X112464Y101465D01*
X111964Y101965D02*
X112464Y101465D01*
X111964Y101965D02*
X112464D01*
X112964Y102465D01*
X113464Y101965D01*
X113964D01*
X113464Y101465D02*
X113964Y101965D01*
X113464Y101465D02*
X113964Y100965D01*
X113464D02*
X113964D01*
X112964Y100465D02*
X113464Y100965D01*
X115616Y97973D02*
X116116Y97473D01*
X115116Y97973D02*
X115616D01*
X115116D02*
X115616Y98472D01*
X115116Y98972D02*
X115616Y98472D01*
X115116Y98972D02*
X115616D01*
X116116Y99472D01*
X116616Y98972D01*
X117116D01*
X116616Y98472D02*
X117116Y98972D01*
X116616Y98472D02*
X117116Y97973D01*
X116616D02*
X117116D01*
X116116Y97473D02*
X116616Y97973D01*
X112464D02*
X112964Y97473D01*
X111964Y97973D02*
X112464D01*
X111964D02*
X112464Y98472D01*
X111964Y98972D02*
X112464Y98472D01*
X111964Y98972D02*
X112464D01*
X112964Y99472D01*
X113464Y98972D01*
X113964D01*
X113464Y98472D02*
X113964Y98972D01*
X113464Y98472D02*
X113964Y97973D01*
X113464D02*
X113964D01*
X112964Y97473D02*
X113464Y97973D01*
X83594Y52419D02*
X84094Y51919D01*
X83094Y52419D02*
X83594D01*
X83094D02*
X83594Y52919D01*
X83094Y53419D02*
X83594Y52919D01*
X83094Y53419D02*
X83594D01*
X84094Y53919D01*
X84594Y53419D01*
X85094D01*
X84594Y52919D02*
X85094Y53419D01*
X84594Y52919D02*
X85094Y52419D01*
X84594D02*
X85094D01*
X84094Y51919D02*
X84594Y52419D01*
X83594Y49384D02*
X84094Y48884D01*
X83094Y49384D02*
X83594D01*
X83094D02*
X83594Y49885D01*
X83094Y50384D02*
X83594Y49885D01*
X83094Y50384D02*
X83594D01*
X84094Y50884D01*
X84594Y50384D01*
X85094D01*
X84594Y49885D02*
X85094Y50384D01*
X84594Y49885D02*
X85094Y49384D01*
X84594D02*
X85094D01*
X84094Y48884D02*
X84594Y49384D01*
X125327Y37202D02*
X125827Y36702D01*
X124827Y37202D02*
X125327D01*
X124827D02*
X125327Y37702D01*
X124827Y38202D02*
X125327Y37702D01*
X124827Y38202D02*
X125327D01*
X125827Y38702D01*
X126327Y38202D01*
X126827D01*
X126327Y37702D02*
X126827Y38202D01*
X126327Y37702D02*
X126827Y37202D01*
X126327D02*
X126827D01*
X125827Y36702D02*
X126327Y37202D01*
X117123Y28146D02*
X117623Y27646D01*
X116623Y28146D02*
X117123D01*
X116623D02*
X117123Y28646D01*
X116623Y29146D02*
X117123Y28646D01*
X116623Y29146D02*
X117123D01*
X117623Y29646D01*
X118123Y29146D01*
X118623D01*
X118123Y28646D02*
X118623Y29146D01*
X118123Y28646D02*
X118623Y28146D01*
X118123D02*
X118623D01*
X117623Y27646D02*
X118123Y28146D01*
X62146Y45117D02*
X62646Y44617D01*
X61646Y45117D02*
X62146D01*
X61646D02*
X62146Y45617D01*
X61646Y46117D02*
X62146Y45617D01*
X61646Y46117D02*
X62146D01*
X62646Y46617D01*
X63146Y46117D01*
X63646D01*
X63146Y45617D02*
X63646Y46117D01*
X63146Y45617D02*
X63646Y45117D01*
X63146D02*
X63646D01*
X62646Y44617D02*
X63146Y45117D01*
X55106D02*
X55606Y44617D01*
X54606Y45117D02*
X55106D01*
X54606D02*
X55106Y45617D01*
X54606Y46117D02*
X55106Y45617D01*
X54606Y46117D02*
X55106D01*
X55606Y46617D01*
X56106Y46117D01*
X56606D01*
X56106Y45617D02*
X56606Y46117D01*
X56106Y45617D02*
X56606Y45117D01*
X56106D02*
X56606D01*
X55606Y44617D02*
X56106Y45117D01*
X13534Y24882D02*
X14534Y25382D01*
X15534Y24882D01*
X15034Y25882D02*
X15534Y24882D01*
X15034Y25882D02*
X15534Y26882D01*
X14534Y26382D02*
X15534Y26882D01*
X13534D02*
X14534Y26382D01*
X13534Y26882D02*
X14034Y25882D01*
X13534Y24882D02*
X14034Y25882D01*
X102925Y21721D02*
X103425Y21220D01*
X102425Y21721D02*
X102925D01*
X102425D02*
X102925Y22220D01*
X102425Y22720D02*
X102925Y22220D01*
X102425Y22720D02*
X102925D01*
X103425Y23221D01*
X103925Y22720D01*
X104425D01*
X103925Y22220D02*
X104425Y22720D01*
X103925Y22220D02*
X104425Y21721D01*
X103925D02*
X104425D01*
X103425Y21220D02*
X103925Y21721D01*
X82395Y70169D02*
X82895Y69669D01*
X81895Y70169D02*
X82395D01*
X81895D02*
X82395Y70669D01*
X81895Y71169D02*
X82395Y70669D01*
X81895Y71169D02*
X82395D01*
X82895Y71669D01*
X83395Y71169D01*
X83895D01*
X83395Y70669D02*
X83895Y71169D01*
X83395Y70669D02*
X83895Y70169D01*
X83395D02*
X83895D01*
X82895Y69669D02*
X83395Y70169D01*
X85826D02*
X86326Y69669D01*
X85326Y70169D02*
X85826D01*
X85326D02*
X85826Y70669D01*
X85326Y71169D02*
X85826Y70669D01*
X85326Y71169D02*
X85826D01*
X86326Y71669D01*
X86826Y71169D01*
X87326D01*
X86826Y70669D02*
X87326Y71169D01*
X86826Y70669D02*
X87326Y70169D01*
X86826D02*
X87326D01*
X86326Y69669D02*
X86826Y70169D01*
X89258D02*
X89758Y69669D01*
X88758Y70169D02*
X89258D01*
X88758D02*
X89258Y70669D01*
X88758Y71169D02*
X89258Y70669D01*
X88758Y71169D02*
X89258D01*
X89758Y71669D01*
X90258Y71169D01*
X90758D01*
X90258Y70669D02*
X90758Y71169D01*
X90258Y70669D02*
X90758Y70169D01*
X90258D02*
X90758D01*
X89758Y69669D02*
X90258Y70169D01*
X92689D02*
X93189Y69669D01*
X92189Y70169D02*
X92689D01*
X92189D02*
X92689Y70669D01*
X92189Y71169D02*
X92689Y70669D01*
X92189Y71169D02*
X92689D01*
X93189Y71669D01*
X93689Y71169D01*
X94189D01*
X93689Y70669D02*
X94189Y71169D01*
X93689Y70669D02*
X94189Y70169D01*
X93689D02*
X94189D01*
X93189Y69669D02*
X93689Y70169D01*
X83870Y22847D02*
X84370Y22346D01*
X83370Y22847D02*
X83870D01*
X83370D02*
X83870Y23347D01*
X83370Y23846D02*
X83870Y23347D01*
X83370Y23846D02*
X83870D01*
X84370Y24347D01*
X84870Y23846D01*
X85370D01*
X84870Y23347D02*
X85370Y23846D01*
X84870Y23347D02*
X85370Y22847D01*
X84870D02*
X85370D01*
X84370Y22346D02*
X84870Y22847D01*
X86468Y20209D02*
X86968Y19709D01*
X85969Y20209D02*
X86468D01*
X85969D02*
X86468Y20709D01*
X85969Y21209D02*
X86468Y20709D01*
X85969Y21209D02*
X86468D01*
X86968Y21709D01*
X87468Y21209D01*
X87968D01*
X87468Y20709D02*
X87968Y21209D01*
X87468Y20709D02*
X87968Y20209D01*
X87468D02*
X87968D01*
X86968Y19709D02*
X87468Y20209D01*
X73516Y37374D02*
X74016Y36874D01*
X73016Y37374D02*
X73516D01*
X73016D02*
X73516Y37874D01*
X73016Y38374D02*
X73516Y37874D01*
X73016Y38374D02*
X73516D01*
X74016Y38874D01*
X74516Y38374D01*
X75016D01*
X74516Y37874D02*
X75016Y38374D01*
X74516Y37874D02*
X75016Y37374D01*
X74516D02*
X75016D01*
X74016Y36874D02*
X74516Y37374D01*
X76114Y40012D02*
X76614Y39512D01*
X75614Y40012D02*
X76114D01*
X75614D02*
X76114Y40512D01*
X75614Y41012D02*
X76114Y40512D01*
X75614Y41012D02*
X76114D01*
X76614Y41512D01*
X77114Y41012D01*
X77614D01*
X77114Y40512D02*
X77614Y41012D01*
X77114Y40512D02*
X77614Y40012D01*
X77114D02*
X77614D01*
X76614Y39512D02*
X77114Y40012D01*
X78713Y51902D02*
X79213Y51402D01*
X78213Y51902D02*
X78713D01*
X78213D02*
X78713Y52402D01*
X78213Y52902D02*
X78713Y52402D01*
X78213Y52902D02*
X78713D01*
X79213Y53402D01*
X79713Y52902D01*
X80213D01*
X79713Y52402D02*
X80213Y52902D01*
X79713Y52402D02*
X80213Y51902D01*
X79713D02*
X80213D01*
X79213Y51402D02*
X79713Y51902D01*
X81650Y58917D02*
X82149Y58417D01*
X81150Y58917D02*
X81650D01*
X81150D02*
X81650Y59417D01*
X81150Y59917D02*
X81650Y59417D01*
X81150Y59917D02*
X81650D01*
X82149Y60417D01*
X82649Y59917D01*
X83149D01*
X82649Y59417D02*
X83149Y59917D01*
X82649Y59417D02*
X83149Y58917D01*
X82649D02*
X83149D01*
X82149Y58417D02*
X82649Y58917D01*
X34972Y41511D02*
X35472Y41012D01*
X34472Y41511D02*
X34972D01*
X34472D02*
X34972Y42011D01*
X34472Y42511D02*
X34972Y42011D01*
X34472Y42511D02*
X34972D01*
X35472Y43012D01*
X35972Y42511D01*
X36472D01*
X35972Y42011D02*
X36472Y42511D01*
X35972Y42011D02*
X36472Y41511D01*
X35972D02*
X36472D01*
X35472Y41012D02*
X35972Y41511D01*
X83555Y103909D02*
X84055Y103409D01*
X83055Y103909D02*
X83555D01*
X83055D02*
X83555Y104409D01*
X83055Y104909D02*
X83555Y104409D01*
X83055Y104909D02*
X83555D01*
X84055Y105409D01*
X84555Y104909D01*
X85055D01*
X84555Y104409D02*
X85055Y104909D01*
X84555Y104409D02*
X85055Y103909D01*
X84555D02*
X85055D01*
X84055Y103409D02*
X84555Y103909D01*
X156108Y52846D02*
X156608Y52346D01*
X155608Y52846D02*
X156108D01*
X155608D02*
X156108Y53347D01*
X155608Y53847D02*
X156108Y53347D01*
X155608Y53847D02*
X156108D01*
X156608Y54347D01*
X157108Y53847D01*
X157608D01*
X157108Y53347D02*
X157608Y53847D01*
X157108Y53347D02*
X157608Y52846D01*
X157108D02*
X157608D01*
X156608Y52346D02*
X157108Y52846D01*
X197453Y55477D02*
X197953Y54977D01*
X196953Y55477D02*
X197453D01*
X196953D02*
X197453Y55977D01*
X196953Y56477D02*
X197453Y55977D01*
X196953Y56477D02*
X197453D01*
X197953Y56977D01*
X198453Y56477D01*
X198953D01*
X198453Y55977D02*
X198953Y56477D01*
X198453Y55977D02*
X198953Y55477D01*
X198453D02*
X198953D01*
X197953Y54977D02*
X198453Y55477D01*
X197453Y112728D02*
X197953Y112228D01*
X196953Y112728D02*
X197453D01*
X196953D02*
X197453Y113228D01*
X196953Y113728D02*
X197453Y113228D01*
X196953Y113728D02*
X197453D01*
X197953Y114228D01*
X198453Y113728D01*
X198953D01*
X198453Y113228D02*
X198953Y113728D01*
X198453Y113228D02*
X198953Y112728D01*
X198453D02*
X198953D01*
X197953Y112228D02*
X198453Y112728D01*
X197453Y107957D02*
X197953Y107457D01*
X196953Y107957D02*
X197453D01*
X196953D02*
X197453Y108457D01*
X196953Y108957D02*
X197453Y108457D01*
X196953Y108957D02*
X197453D01*
X197953Y109457D01*
X198453Y108957D01*
X198953D01*
X198453Y108457D02*
X198953Y108957D01*
X198453Y108457D02*
X198953Y107957D01*
X198453D02*
X198953D01*
X197953Y107457D02*
X198453Y107957D01*
X197453Y103186D02*
X197953Y102686D01*
X196953Y103186D02*
X197453D01*
X196953D02*
X197453Y103686D01*
X196953Y104186D02*
X197453Y103686D01*
X196953Y104186D02*
X197453D01*
X197953Y104686D01*
X198453Y104186D01*
X198953D01*
X198453Y103686D02*
X198953Y104186D01*
X198453Y103686D02*
X198953Y103186D01*
X198453D02*
X198953D01*
X197953Y102686D02*
X198453Y103186D01*
X197453Y98415D02*
X197953Y97916D01*
X196953Y98415D02*
X197453D01*
X196953D02*
X197453Y98915D01*
X196953Y99415D02*
X197453Y98915D01*
X196953Y99415D02*
X197453D01*
X197953Y99915D01*
X198453Y99415D01*
X198953D01*
X198453Y98915D02*
X198953Y99415D01*
X198453Y98915D02*
X198953Y98415D01*
X198453D02*
X198953D01*
X197953Y97916D02*
X198453Y98415D01*
X197453Y74561D02*
X197953Y74061D01*
X196953Y74561D02*
X197453D01*
X196953D02*
X197453Y75061D01*
X196953Y75561D02*
X197453Y75061D01*
X196953Y75561D02*
X197453D01*
X197953Y76061D01*
X198453Y75561D01*
X198953D01*
X198453Y75061D02*
X198953Y75561D01*
X198453Y75061D02*
X198953Y74561D01*
X198453D02*
X198953D01*
X197953Y74061D02*
X198453Y74561D01*
X197453Y69790D02*
X197953Y69290D01*
X196953Y69790D02*
X197453D01*
X196953D02*
X197453Y70290D01*
X196953Y70790D02*
X197453Y70290D01*
X196953Y70790D02*
X197453D01*
X197953Y71290D01*
X198453Y70790D01*
X198953D01*
X198453Y70290D02*
X198953Y70790D01*
X198453Y70290D02*
X198953Y69790D01*
X198453D02*
X198953D01*
X197953Y69290D02*
X198453Y69790D01*
X197453Y65019D02*
X197953Y64519D01*
X196953Y65019D02*
X197453D01*
X196953D02*
X197453Y65519D01*
X196953Y66019D02*
X197453Y65519D01*
X196953Y66019D02*
X197453D01*
X197953Y66519D01*
X198453Y66019D01*
X198953D01*
X198453Y65519D02*
X198953Y66019D01*
X198453Y65519D02*
X198953Y65019D01*
X198453D02*
X198953D01*
X197953Y64519D02*
X198453Y65019D01*
X197453Y60248D02*
X197953Y59748D01*
X196953Y60248D02*
X197453D01*
X196953D02*
X197453Y60748D01*
X196953Y61248D02*
X197453Y60748D01*
X196953Y61248D02*
X197453D01*
X197953Y61748D01*
X198453Y61248D01*
X198953D01*
X198453Y60748D02*
X198953Y61248D01*
X198453Y60748D02*
X198953Y60248D01*
X198453D02*
X198953D01*
X197953Y59748D02*
X198453Y60248D01*
X197453Y17309D02*
X197953Y16809D01*
X196953Y17309D02*
X197453D01*
X196953D02*
X197453Y17809D01*
X196953Y18309D02*
X197453Y17809D01*
X196953Y18309D02*
X197453D01*
X197953Y18809D01*
X198453Y18309D01*
X198953D01*
X198453Y17809D02*
X198953Y18309D01*
X198453Y17809D02*
X198953Y17309D01*
X198453D02*
X198953D01*
X197953Y16809D02*
X198453Y17309D01*
X197453Y12538D02*
X197953Y12038D01*
X196953Y12538D02*
X197453D01*
X196953D02*
X197453Y13038D01*
X196953Y13538D02*
X197453Y13038D01*
X196953Y13538D02*
X197453D01*
X197953Y14038D01*
X198453Y13538D01*
X198953D01*
X198453Y13038D02*
X198953Y13538D01*
X198453Y13038D02*
X198953Y12538D01*
X198453D02*
X198953D01*
X197953Y12038D02*
X198453Y12538D01*
X197453Y7767D02*
X197953Y7267D01*
X196953Y7767D02*
X197453D01*
X196953D02*
X197453Y8267D01*
X196953Y8767D02*
X197453Y8267D01*
X196953Y8767D02*
X197453D01*
X197953Y9267D01*
X198453Y8767D01*
X198953D01*
X198453Y8267D02*
X198953Y8767D01*
X198453Y8267D02*
X198953Y7767D01*
X198453D02*
X198953D01*
X197953Y7267D02*
X198453Y7767D01*
X197453Y2996D02*
X197953Y2496D01*
X196953Y2996D02*
X197453D01*
X196953D02*
X197453Y3496D01*
X196953Y3996D02*
X197453Y3496D01*
X196953Y3996D02*
X197453D01*
X197953Y4496D01*
X198453Y3996D01*
X198953D01*
X198453Y3496D02*
X198953Y3996D01*
X198453Y3496D02*
X198953Y2996D01*
X198453D02*
X198953D01*
X197953Y2496D02*
X198453Y2996D01*
X174051Y4705D02*
X174551Y4205D01*
X173551Y4705D02*
X174051D01*
X173551D02*
X174051Y5205D01*
X173551Y5705D02*
X174051Y5205D01*
X173551Y5705D02*
X174051D01*
X174551Y6205D01*
X175051Y5705D01*
X175551D01*
X175051Y5205D02*
X175551Y5705D01*
X175051Y5205D02*
X175551Y4705D01*
X175051D02*
X175551D01*
X174551Y4205D02*
X175051Y4705D01*
X118398Y34539D02*
X118898Y34039D01*
X117898Y34539D02*
X118398D01*
X117898D02*
X118398Y35039D01*
X117898Y35539D02*
X118398Y35039D01*
X117898Y35539D02*
X118398D01*
X118898Y36039D01*
X119398Y35539D01*
X119898D01*
X119398Y35039D02*
X119898Y35539D01*
X119398Y35039D02*
X119898Y34539D01*
X119398D02*
X119898D01*
X118898Y34039D02*
X119398Y34539D01*
X140909Y83280D02*
X141409Y82780D01*
X140409Y83280D02*
X140909D01*
X140409D02*
X140909Y83780D01*
X140409Y84280D02*
X140909Y83780D01*
X140409Y84280D02*
X140909D01*
X141409Y84780D01*
X141909Y84280D01*
X142409D01*
X141909Y83780D02*
X142409Y84280D01*
X141909Y83780D02*
X142409Y83280D01*
X141909D02*
X142409D01*
X141409Y82780D02*
X141909Y83280D01*
X137797D02*
X138297Y82780D01*
X137297Y83280D02*
X137797D01*
X137297D02*
X137797Y83780D01*
X137297Y84280D02*
X137797Y83780D01*
X137297Y84280D02*
X137797D01*
X138297Y84780D01*
X138797Y84280D01*
X139297D01*
X138797Y83780D02*
X139297Y84280D01*
X138797Y83780D02*
X139297Y83280D01*
X138797D02*
X139297D01*
X138297Y82780D02*
X138797Y83280D01*
X137797Y86209D02*
X138297Y85709D01*
X137297Y86209D02*
X137797D01*
X137297D02*
X137797Y86709D01*
X137297Y87209D02*
X137797Y86709D01*
X137297Y87209D02*
X137797D01*
X138297Y87709D01*
X138797Y87209D01*
X139297D01*
X138797Y86709D02*
X139297Y87209D01*
X138797Y86709D02*
X139297Y86209D01*
X138797D02*
X139297D01*
X138297Y85709D02*
X138797Y86209D01*
X140909D02*
X141409Y85709D01*
X140409Y86209D02*
X140909D01*
X140409D02*
X140909Y86709D01*
X140409Y87209D02*
X140909Y86709D01*
X140409Y87209D02*
X140909D01*
X141409Y87709D01*
X141909Y87209D01*
X142409D01*
X141909Y86709D02*
X142409Y87209D01*
X141909Y86709D02*
X142409Y86209D01*
X141909D02*
X142409D01*
X141409Y85709D02*
X141909Y86209D01*
X140820Y91933D02*
X141320Y91433D01*
X140320Y91933D02*
X140820D01*
X140320D02*
X140820Y92433D01*
X140320Y92933D02*
X140820Y92433D01*
X140320Y92933D02*
X140820D01*
X141320Y93433D01*
X141820Y92933D01*
X142320D01*
X141820Y92433D02*
X142320Y92933D01*
X141820Y92433D02*
X142320Y91933D01*
X141820D02*
X142320D01*
X141320Y91433D02*
X141820Y91933D01*
X137707D02*
X138207Y91433D01*
X137207Y91933D02*
X137707D01*
X137207D02*
X137707Y92433D01*
X137207Y92933D02*
X137707Y92433D01*
X137207Y92933D02*
X137707D01*
X138207Y93433D01*
X138707Y92933D01*
X139207D01*
X138707Y92433D02*
X139207Y92933D01*
X138707Y92433D02*
X139207Y91933D01*
X138707D02*
X139207D01*
X138207Y91433D02*
X138707Y91933D01*
X137707Y89004D02*
X138207Y88504D01*
X137207Y89004D02*
X137707D01*
X137207D02*
X137707Y89504D01*
X137207Y90004D02*
X137707Y89504D01*
X137207Y90004D02*
X137707D01*
X138207Y90504D01*
X138707Y90004D01*
X139207D01*
X138707Y89504D02*
X139207Y90004D01*
X138707Y89504D02*
X139207Y89004D01*
X138707D02*
X139207D01*
X138207Y88504D02*
X138707Y89004D01*
X140820D02*
X141320Y88504D01*
X140320Y89004D02*
X140820D01*
X140320D02*
X140820Y89504D01*
X140320Y90004D02*
X140820Y89504D01*
X140320Y90004D02*
X140820D01*
X141320Y90504D01*
X141820Y90004D01*
X142320D01*
X141820Y89504D02*
X142320Y90004D01*
X141820Y89504D02*
X142320Y89004D01*
X141820D02*
X142320D01*
X141320Y88504D02*
X141820Y89004D01*
X139185Y101398D02*
X139685Y100898D01*
X138685Y101398D02*
X139185D01*
X138685D02*
X139185Y101898D01*
X138685Y102398D02*
X139185Y101898D01*
X138685Y102398D02*
X139185D01*
X139685Y102898D01*
X140185Y102398D01*
X140685D01*
X140185Y101898D02*
X140685Y102398D01*
X140185Y101898D02*
X140685Y101398D01*
X140185D02*
X140685D01*
X139685Y100898D02*
X140185Y101398D01*
X139185Y104510D02*
X139685Y104010D01*
X138685Y104510D02*
X139185D01*
X138685D02*
X139185Y105010D01*
X138685Y105510D02*
X139185Y105010D01*
X138685Y105510D02*
X139185D01*
X139685Y106010D01*
X140185Y105510D01*
X140685D01*
X140185Y105010D02*
X140685Y105510D01*
X140185Y105010D02*
X140685Y104510D01*
X140185D02*
X140685D01*
X139685Y104010D02*
X140185Y104510D01*
X142114D02*
X142614Y104010D01*
X141614Y104510D02*
X142114D01*
X141614D02*
X142114Y105010D01*
X141614Y105510D02*
X142114Y105010D01*
X141614Y105510D02*
X142114D01*
X142614Y106010D01*
X143114Y105510D01*
X143614D01*
X143114Y105010D02*
X143614Y105510D01*
X143114Y105010D02*
X143614Y104510D01*
X143114D02*
X143614D01*
X142614Y104010D02*
X143114Y104510D01*
X142114Y101398D02*
X142614Y100898D01*
X141614Y101398D02*
X142114D01*
X141614D02*
X142114Y101898D01*
X141614Y102398D02*
X142114Y101898D01*
X141614Y102398D02*
X142114D01*
X142614Y102898D01*
X143114Y102398D01*
X143614D01*
X143114Y101898D02*
X143614Y102398D01*
X143114Y101898D02*
X143614Y101398D01*
X143114D02*
X143614D01*
X142614Y100898D02*
X143114Y101398D01*
X147839Y101487D02*
X148339Y100987D01*
X147339Y101487D02*
X147839D01*
X147339D02*
X147839Y101987D01*
X147339Y102487D02*
X147839Y101987D01*
X147339Y102487D02*
X147839D01*
X148339Y102987D01*
X148839Y102487D01*
X149339D01*
X148839Y101987D02*
X149339Y102487D01*
X148839Y101987D02*
X149339Y101487D01*
X148839D02*
X149339D01*
X148339Y100987D02*
X148839Y101487D01*
X147839Y104600D02*
X148339Y104100D01*
X147339Y104600D02*
X147839D01*
X147339D02*
X147839Y105100D01*
X147339Y105600D02*
X147839Y105100D01*
X147339Y105600D02*
X147839D01*
X148339Y106100D01*
X148839Y105600D01*
X149339D01*
X148839Y105100D02*
X149339Y105600D01*
X148839Y105100D02*
X149339Y104600D01*
X148839D02*
X149339D01*
X148339Y104100D02*
X148839Y104600D01*
X144910D02*
X145410Y104100D01*
X144410Y104600D02*
X144910D01*
X144410D02*
X144910Y105100D01*
X144410Y105600D02*
X144910Y105100D01*
X144410Y105600D02*
X144910D01*
X145410Y106100D01*
X145910Y105600D01*
X146409D01*
X145910Y105100D02*
X146409Y105600D01*
X145910Y105100D02*
X146409Y104600D01*
X145910D02*
X146409D01*
X145410Y104100D02*
X145910Y104600D01*
X144910Y101487D02*
X145410Y100987D01*
X144410Y101487D02*
X144910D01*
X144410D02*
X144910Y101987D01*
X144410Y102487D02*
X144910Y101987D01*
X144410Y102487D02*
X144910D01*
X145410Y102987D01*
X145910Y102487D01*
X146409D01*
X145910Y101987D02*
X146409Y102487D01*
X145910Y101987D02*
X146409Y101487D01*
X145910D02*
X146409D01*
X145410Y100987D02*
X145910Y101487D01*
X68665Y84292D02*
X69165Y83792D01*
X68165Y84292D02*
X68665D01*
X68165D02*
X68665Y84792D01*
X68165Y85292D02*
X68665Y84792D01*
X68165Y85292D02*
X68665D01*
X69165Y85792D01*
X69665Y85292D01*
X70165D01*
X69665Y84792D02*
X70165Y85292D01*
X69665Y84792D02*
X70165Y84292D01*
X69665D02*
X70165D01*
X69165Y83792D02*
X69665Y84292D01*
X65553D02*
X66053Y83792D01*
X65052Y84292D02*
X65553D01*
X65052D02*
X65553Y84792D01*
X65052Y85292D02*
X65553Y84792D01*
X65052Y85292D02*
X65553D01*
X66053Y85792D01*
X66553Y85292D01*
X67053D01*
X66553Y84792D02*
X67053Y85292D01*
X66553Y84792D02*
X67053Y84292D01*
X66553D02*
X67053D01*
X66053Y83792D02*
X66553Y84292D01*
X65553Y87221D02*
X66053Y86721D01*
X65052Y87221D02*
X65553D01*
X65052D02*
X65553Y87721D01*
X65052Y88221D02*
X65553Y87721D01*
X65052Y88221D02*
X65553D01*
X66053Y88721D01*
X66553Y88221D01*
X67053D01*
X66553Y87721D02*
X67053Y88221D01*
X66553Y87721D02*
X67053Y87221D01*
X66553D02*
X67053D01*
X66053Y86721D02*
X66553Y87221D01*
X68665D02*
X69165Y86721D01*
X68165Y87221D02*
X68665D01*
X68165D02*
X68665Y87721D01*
X68165Y88221D02*
X68665Y87721D01*
X68165Y88221D02*
X68665D01*
X69165Y88721D01*
X69665Y88221D01*
X70165D01*
X69665Y87721D02*
X70165Y88221D01*
X69665Y87721D02*
X70165Y87221D01*
X69665D02*
X70165D01*
X69165Y86721D02*
X69665Y87221D01*
X68665Y92945D02*
X69165Y92445D01*
X68165Y92945D02*
X68665D01*
X68165D02*
X68665Y93445D01*
X68165Y93945D02*
X68665Y93445D01*
X68165Y93945D02*
X68665D01*
X69165Y94445D01*
X69665Y93945D01*
X70165D01*
X69665Y93445D02*
X70165Y93945D01*
X69665Y93445D02*
X70165Y92945D01*
X69665D02*
X70165D01*
X69165Y92445D02*
X69665Y92945D01*
X65553D02*
X66053Y92445D01*
X65052Y92945D02*
X65553D01*
X65052D02*
X65553Y93445D01*
X65052Y93945D02*
X65553Y93445D01*
X65052Y93945D02*
X65553D01*
X66053Y94445D01*
X66553Y93945D01*
X67053D01*
X66553Y93445D02*
X67053Y93945D01*
X66553Y93445D02*
X67053Y92945D01*
X66553D02*
X67053D01*
X66053Y92445D02*
X66553Y92945D01*
X65553Y90016D02*
X66053Y89516D01*
X65052Y90016D02*
X65553D01*
X65052D02*
X65553Y90516D01*
X65052Y91016D02*
X65553Y90516D01*
X65052Y91016D02*
X65553D01*
X66053Y91516D01*
X66553Y91016D01*
X67053D01*
X66553Y90516D02*
X67053Y91016D01*
X66553Y90516D02*
X67053Y90016D01*
X66553D02*
X67053D01*
X66053Y89516D02*
X66553Y90016D01*
X68665D02*
X69165Y89516D01*
X68165Y90016D02*
X68665D01*
X68165D02*
X68665Y90516D01*
X68165Y91016D02*
X68665Y90516D01*
X68165Y91016D02*
X68665D01*
X69165Y91516D01*
X69665Y91016D01*
X70165D01*
X69665Y90516D02*
X70165Y91016D01*
X69665Y90516D02*
X70165Y90016D01*
X69665D02*
X70165D01*
X69165Y89516D02*
X69665Y90016D01*
X68665Y26390D02*
X69165Y25890D01*
X68165Y26390D02*
X68665D01*
X68165D02*
X68665Y26890D01*
X68165Y27390D02*
X68665Y26890D01*
X68165Y27390D02*
X68665D01*
X69165Y27890D01*
X69665Y27390D01*
X70165D01*
X69665Y26890D02*
X70165Y27390D01*
X69665Y26890D02*
X70165Y26390D01*
X69665D02*
X70165D01*
X69165Y25890D02*
X69665Y26390D01*
X65553D02*
X66053Y25890D01*
X65052Y26390D02*
X65553D01*
X65052D02*
X65553Y26890D01*
X65052Y27390D02*
X65553Y26890D01*
X65052Y27390D02*
X65553D01*
X66053Y27890D01*
X66553Y27390D01*
X67053D01*
X66553Y26890D02*
X67053Y27390D01*
X66553Y26890D02*
X67053Y26390D01*
X66553D02*
X67053D01*
X66053Y25890D02*
X66553Y26390D01*
X65553Y29319D02*
X66053Y28819D01*
X65052Y29319D02*
X65553D01*
X65052D02*
X65553Y29819D01*
X65052Y30319D02*
X65553Y29819D01*
X65052Y30319D02*
X65553D01*
X66053Y30819D01*
X66553Y30319D01*
X67053D01*
X66553Y29819D02*
X67053Y30319D01*
X66553Y29819D02*
X67053Y29319D01*
X66553D02*
X67053D01*
X66053Y28819D02*
X66553Y29319D01*
X68665D02*
X69165Y28819D01*
X68165Y29319D02*
X68665D01*
X68165D02*
X68665Y29819D01*
X68165Y30319D02*
X68665Y29819D01*
X68165Y30319D02*
X68665D01*
X69165Y30819D01*
X69665Y30319D01*
X70165D01*
X69665Y29819D02*
X70165Y30319D01*
X69665Y29819D02*
X70165Y29319D01*
X69665D02*
X70165D01*
X69165Y28819D02*
X69665Y29319D01*
X68665Y35043D02*
X69165Y34543D01*
X68165Y35043D02*
X68665D01*
X68165D02*
X68665Y35543D01*
X68165Y36043D02*
X68665Y35543D01*
X68165Y36043D02*
X68665D01*
X69165Y36543D01*
X69665Y36043D01*
X70165D01*
X69665Y35543D02*
X70165Y36043D01*
X69665Y35543D02*
X70165Y35043D01*
X69665D02*
X70165D01*
X69165Y34543D02*
X69665Y35043D01*
X65553D02*
X66053Y34543D01*
X65052Y35043D02*
X65553D01*
X65052D02*
X65553Y35543D01*
X65052Y36043D02*
X65553Y35543D01*
X65052Y36043D02*
X65553D01*
X66053Y36543D01*
X66553Y36043D01*
X67053D01*
X66553Y35543D02*
X67053Y36043D01*
X66553Y35543D02*
X67053Y35043D01*
X66553D02*
X67053D01*
X66053Y34543D02*
X66553Y35043D01*
X65553Y32114D02*
X66053Y31614D01*
X65052Y32114D02*
X65553D01*
X65052D02*
X65553Y32614D01*
X65052Y33114D02*
X65553Y32614D01*
X65052Y33114D02*
X65553D01*
X66053Y33614D01*
X66553Y33114D01*
X67053D01*
X66553Y32614D02*
X67053Y33114D01*
X66553Y32614D02*
X67053Y32114D01*
X66553D02*
X67053D01*
X66053Y31614D02*
X66553Y32114D01*
X68665D02*
X69165Y31614D01*
X68165Y32114D02*
X68665D01*
X68165D02*
X68665Y32614D01*
X68165Y33114D02*
X68665Y32614D01*
X68165Y33114D02*
X68665D01*
X69165Y33614D01*
X69665Y33114D01*
X70165D01*
X69665Y32614D02*
X70165Y33114D01*
X69665Y32614D02*
X70165Y32114D01*
X69665D02*
X70165D01*
X69165Y31614D02*
X69665Y32114D01*
X36002Y54146D02*
X36502Y53646D01*
X35502Y54146D02*
X36002D01*
X35502D02*
X36002Y54646D01*
X35502Y55146D02*
X36002Y54646D01*
X35502Y55146D02*
X36002D01*
X36502Y55646D01*
X37002Y55146D01*
X37502D01*
X37002Y54646D02*
X37502Y55146D01*
X37002Y54646D02*
X37502Y54146D01*
X37002D02*
X37502D01*
X36502Y53646D02*
X37002Y54146D01*
X32889D02*
X33389Y53646D01*
X32389Y54146D02*
X32889D01*
X32389D02*
X32889Y54646D01*
X32389Y55146D02*
X32889Y54646D01*
X32389Y55146D02*
X32889D01*
X33389Y55646D01*
X33889Y55146D01*
X34389D01*
X33889Y54646D02*
X34389Y55146D01*
X33889Y54646D02*
X34389Y54146D01*
X33889D02*
X34389D01*
X33389Y53646D02*
X33889Y54146D01*
X32889Y57075D02*
X33389Y56575D01*
X32389Y57075D02*
X32889D01*
X32389D02*
X32889Y57575D01*
X32389Y58075D02*
X32889Y57575D01*
X32389Y58075D02*
X32889D01*
X33389Y58575D01*
X33889Y58075D01*
X34389D01*
X33889Y57575D02*
X34389Y58075D01*
X33889Y57575D02*
X34389Y57075D01*
X33889D02*
X34389D01*
X33389Y56575D02*
X33889Y57075D01*
X36002D02*
X36502Y56575D01*
X35502Y57075D02*
X36002D01*
X35502D02*
X36002Y57575D01*
X35502Y58075D02*
X36002Y57575D01*
X35502Y58075D02*
X36002D01*
X36502Y58575D01*
X37002Y58075D01*
X37502D01*
X37002Y57575D02*
X37502Y58075D01*
X37002Y57575D02*
X37502Y57075D01*
X37002D02*
X37502D01*
X36502Y56575D02*
X37002Y57075D01*
X35913Y62799D02*
X36413Y62299D01*
X35413Y62799D02*
X35913D01*
X35413D02*
X35913Y63299D01*
X35413Y63799D02*
X35913Y63299D01*
X35413Y63799D02*
X35913D01*
X36413Y64299D01*
X36913Y63799D01*
X37413D01*
X36913Y63299D02*
X37413Y63799D01*
X36913Y63299D02*
X37413Y62799D01*
X36913D02*
X37413D01*
X36413Y62299D02*
X36913Y62799D01*
X32800D02*
X33300Y62299D01*
X32300Y62799D02*
X32800D01*
X32300D02*
X32800Y63299D01*
X32300Y63799D02*
X32800Y63299D01*
X32300Y63799D02*
X32800D01*
X33300Y64299D01*
X33800Y63799D01*
X34300D01*
X33800Y63299D02*
X34300Y63799D01*
X33800Y63299D02*
X34300Y62799D01*
X33800D02*
X34300D01*
X33300Y62299D02*
X33800Y62799D01*
X32800Y59870D02*
X33300Y59370D01*
X32300Y59870D02*
X32800D01*
X32300D02*
X32800Y60370D01*
X32300Y60870D02*
X32800Y60370D01*
X32300Y60870D02*
X32800D01*
X33300Y61370D01*
X33800Y60870D01*
X34300D01*
X33800Y60370D02*
X34300Y60870D01*
X33800Y60370D02*
X34300Y59870D01*
X33800D02*
X34300D01*
X33300Y59370D02*
X33800Y59870D01*
X35913D02*
X36413Y59370D01*
X35413Y59870D02*
X35913D01*
X35413D02*
X35913Y60370D01*
X35413Y60870D02*
X35913Y60370D01*
X35413Y60870D02*
X35913D01*
X36413Y61370D01*
X36913Y60870D01*
X37413D01*
X36913Y60370D02*
X37413Y60870D01*
X36913Y60370D02*
X37413Y59870D01*
X36913D02*
X37413D01*
X36413Y59370D02*
X36913Y59870D01*
X14980Y62965D02*
X15480Y62465D01*
X14480Y62965D02*
X14980D01*
X14480D02*
X14980Y63465D01*
X14480Y63965D02*
X14980Y63465D01*
X14480Y63965D02*
X14980D01*
X15480Y64465D01*
X15980Y63965D01*
X16480D01*
X15980Y63465D02*
X16480Y63965D01*
X15980Y63465D02*
X16480Y62965D01*
X15980D02*
X16480D01*
X15480Y62465D02*
X15980Y62965D01*
X18093D02*
X18593Y62465D01*
X17593Y62965D02*
X18093D01*
X17593D02*
X18093Y63465D01*
X17593Y63965D02*
X18093Y63465D01*
X17593Y63965D02*
X18093D01*
X18593Y64465D01*
X19093Y63965D01*
X19593D01*
X19093Y63465D02*
X19593Y63965D01*
X19093Y63465D02*
X19593Y62965D01*
X19093D02*
X19593D01*
X18593Y62465D02*
X19093Y62965D01*
X18093Y60035D02*
X18593Y59535D01*
X17593Y60035D02*
X18093D01*
X17593D02*
X18093Y60535D01*
X17593Y61035D02*
X18093Y60535D01*
X17593Y61035D02*
X18093D01*
X18593Y61535D01*
X19093Y61035D01*
X19593D01*
X19093Y60535D02*
X19593Y61035D01*
X19093Y60535D02*
X19593Y60035D01*
X19093D02*
X19593D01*
X18593Y59535D02*
X19093Y60035D01*
X14980D02*
X15480Y59535D01*
X14480Y60035D02*
X14980D01*
X14480D02*
X14980Y60535D01*
X14480Y61035D02*
X14980Y60535D01*
X14480Y61035D02*
X14980D01*
X15480Y61535D01*
X15980Y61035D01*
X16480D01*
X15980Y60535D02*
X16480Y61035D01*
X15980Y60535D02*
X16480Y60035D01*
X15980D02*
X16480D01*
X15480Y59535D02*
X15980Y60035D01*
X15070Y54311D02*
X15570Y53811D01*
X14570Y54311D02*
X15070D01*
X14570D02*
X15070Y54811D01*
X14570Y55311D02*
X15070Y54811D01*
X14570Y55311D02*
X15070D01*
X15570Y55811D01*
X16070Y55311D01*
X16570D01*
X16070Y54811D02*
X16570Y55311D01*
X16070Y54811D02*
X16570Y54311D01*
X16070D02*
X16570D01*
X15570Y53811D02*
X16070Y54311D01*
X18182D02*
X18682Y53811D01*
X17682Y54311D02*
X18182D01*
X17682D02*
X18182Y54811D01*
X17682Y55311D02*
X18182Y54811D01*
X17682Y55311D02*
X18182D01*
X18682Y55811D01*
X19182Y55311D01*
X19682D01*
X19182Y54811D02*
X19682Y55311D01*
X19182Y54811D02*
X19682Y54311D01*
X19182D02*
X19682D01*
X18682Y53811D02*
X19182Y54311D01*
X18182Y57240D02*
X18682Y56740D01*
X17682Y57240D02*
X18182D01*
X17682D02*
X18182Y57740D01*
X17682Y58240D02*
X18182Y57740D01*
X17682Y58240D02*
X18182D01*
X18682Y58740D01*
X19182Y58240D01*
X19682D01*
X19182Y57740D02*
X19682Y58240D01*
X19182Y57740D02*
X19682Y57240D01*
X19182D02*
X19682D01*
X18682Y56740D02*
X19182Y57240D01*
X15070D02*
X15570Y56740D01*
X14570Y57240D02*
X15070D01*
X14570D02*
X15070Y57740D01*
X14570Y58240D02*
X15070Y57740D01*
X14570Y58240D02*
X15070D01*
X15570Y58740D01*
X16070Y58240D01*
X16570D01*
X16070Y57740D02*
X16570Y58240D01*
X16070Y57740D02*
X16570Y57240D01*
X16070D02*
X16570D01*
X15570Y56740D02*
X16070Y57240D01*
X80739Y8155D02*
X81239Y7655D01*
X80239Y8155D02*
X80739D01*
X80239D02*
X80739Y8655D01*
X80239Y9155D02*
X80739Y8655D01*
X80239Y9155D02*
X80739D01*
X81239Y9655D01*
X81739Y9155D01*
X82239D01*
X81739Y8655D02*
X82239Y9155D01*
X81739Y8655D02*
X82239Y8155D01*
X81739D02*
X82239D01*
X81239Y7655D02*
X81739Y8155D01*
X83852D02*
X84352Y7655D01*
X83352Y8155D02*
X83852D01*
X83352D02*
X83852Y8655D01*
X83352Y9155D02*
X83852Y8655D01*
X83352Y9155D02*
X83852D01*
X84352Y9655D01*
X84852Y9155D01*
X85352D01*
X84852Y8655D02*
X85352Y9155D01*
X84852Y8655D02*
X85352Y8155D01*
X84852D02*
X85352D01*
X84352Y7655D02*
X84852Y8155D01*
X83852Y11084D02*
X84352Y10584D01*
X83352Y11084D02*
X83852D01*
X83352D02*
X83852Y11584D01*
X83352Y12084D02*
X83852Y11584D01*
X83352Y12084D02*
X83852D01*
X84352Y12584D01*
X84852Y12084D01*
X85352D01*
X84852Y11584D02*
X85352Y12084D01*
X84852Y11584D02*
X85352Y11084D01*
X84852D02*
X85352D01*
X84352Y10584D02*
X84852Y11084D01*
X80739D02*
X81239Y10584D01*
X80239Y11084D02*
X80739D01*
X80239D02*
X80739Y11584D01*
X80239Y12084D02*
X80739Y11584D01*
X80239Y12084D02*
X80739D01*
X81239Y12584D01*
X81739Y12084D01*
X82239D01*
X81739Y11584D02*
X82239Y12084D01*
X81739Y11584D02*
X82239Y11084D01*
X81739D02*
X82239D01*
X81239Y10584D02*
X81739Y11084D01*
X139697Y51004D02*
X140197Y50504D01*
X139197Y51004D02*
X139697D01*
X139197D02*
X139697Y51504D01*
X139197Y52004D02*
X139697Y51504D01*
X139197Y52004D02*
X139697D01*
X140197Y52504D01*
X140697Y52004D01*
X141197D01*
X140697Y51504D02*
X141197Y52004D01*
X140697Y51504D02*
X141197Y51004D01*
X140697D02*
X141197D01*
X140197Y50504D02*
X140697Y51004D01*
X142626D02*
X143126Y50504D01*
X142126Y51004D02*
X142626D01*
X142126D02*
X142626Y51504D01*
X142126Y52004D02*
X142626Y51504D01*
X142126Y52004D02*
X142626D01*
X143126Y52504D01*
X143626Y52004D01*
X144126D01*
X143626Y51504D02*
X144126Y52004D01*
X143626Y51504D02*
X144126Y51004D01*
X143626D02*
X144126D01*
X143126Y50504D02*
X143626Y51004D01*
X148350Y51093D02*
X148850Y50593D01*
X147850Y51093D02*
X148350D01*
X147850D02*
X148350Y51593D01*
X147850Y52093D02*
X148350Y51593D01*
X147850Y52093D02*
X148350D01*
X148850Y52593D01*
X149350Y52093D01*
X149850D01*
X149350Y51593D02*
X149850Y52093D01*
X149350Y51593D02*
X149850Y51093D01*
X149350D02*
X149850D01*
X148850Y50593D02*
X149350Y51093D01*
X145421D02*
X145921Y50593D01*
X144921Y51093D02*
X145421D01*
X144921D02*
X145421Y51593D01*
X144921Y52093D02*
X145421Y51593D01*
X144921Y52093D02*
X145421D01*
X145921Y52593D01*
X146421Y52093D01*
X146921D01*
X146421Y51593D02*
X146921Y52093D01*
X146421Y51593D02*
X146921Y51093D01*
X146421D02*
X146921D01*
X145921Y50593D02*
X146421Y51093D01*
X18665Y28856D02*
X19165Y28356D01*
X18165Y28856D02*
X18665D01*
X18165D02*
X18665Y29356D01*
X18165Y29856D02*
X18665Y29356D01*
X18165Y29856D02*
X18665D01*
X19165Y30356D01*
X19665Y29856D01*
X20165D01*
X19665Y29356D02*
X20165Y29856D01*
X19665Y29356D02*
X20165Y28856D01*
X19665D02*
X20165D01*
X19165Y28356D02*
X19665Y28856D01*
X18665Y31785D02*
X19165Y31285D01*
X18165Y31785D02*
X18665D01*
X18165D02*
X18665Y32285D01*
X18165Y32785D02*
X18665Y32285D01*
X18165Y32785D02*
X18665D01*
X19165Y33285D01*
X19665Y32785D01*
X20165D01*
X19665Y32285D02*
X20165Y32785D01*
X19665Y32285D02*
X20165Y31785D01*
X19665D02*
X20165D01*
X19165Y31285D02*
X19665Y31785D01*
X18576Y37510D02*
X19076Y37010D01*
X18076Y37510D02*
X18576D01*
X18076D02*
X18576Y38010D01*
X18076Y38510D02*
X18576Y38010D01*
X18076Y38510D02*
X18576D01*
X19076Y39009D01*
X19576Y38510D01*
X20076D01*
X19576Y38010D02*
X20076Y38510D01*
X19576Y38010D02*
X20076Y37510D01*
X19576D02*
X20076D01*
X19076Y37010D02*
X19576Y37510D01*
X18576Y34580D02*
X19076Y34080D01*
X18076Y34580D02*
X18576D01*
X18076D02*
X18576Y35080D01*
X18076Y35580D02*
X18576Y35080D01*
X18076Y35580D02*
X18576D01*
X19076Y36080D01*
X19576Y35580D01*
X20076D01*
X19576Y35080D02*
X20076Y35580D01*
X19576Y35080D02*
X20076Y34580D01*
X19576D02*
X20076D01*
X19076Y34080D02*
X19576Y34580D01*
X18665Y100579D02*
X19165Y100079D01*
X18165Y100579D02*
X18665D01*
X18165D02*
X18665Y101079D01*
X18165Y101579D02*
X18665Y101079D01*
X18165Y101579D02*
X18665D01*
X19165Y102079D01*
X19665Y101579D01*
X20165D01*
X19665Y101079D02*
X20165Y101579D01*
X19665Y101079D02*
X20165Y100579D01*
X19665D02*
X20165D01*
X19165Y100079D02*
X19665Y100579D01*
X18576Y106303D02*
X19076Y105803D01*
X18076Y106303D02*
X18576D01*
X18076D02*
X18576Y106803D01*
X18076Y107303D02*
X18576Y106803D01*
X18076Y107303D02*
X18576D01*
X19076Y107803D01*
X19576Y107303D01*
X20076D01*
X19576Y106803D02*
X20076Y107303D01*
X19576Y106803D02*
X20076Y106303D01*
X19576D02*
X20076D01*
X19076Y105803D02*
X19576Y106303D01*
X18576Y103374D02*
X19076Y102874D01*
X18076Y103374D02*
X18576D01*
X18076D02*
X18576Y103874D01*
X18076Y104374D02*
X18576Y103874D01*
X18076Y104374D02*
X18576D01*
X19076Y104874D01*
X19576Y104374D01*
X20076D01*
X19576Y103874D02*
X20076Y104374D01*
X19576Y103874D02*
X20076Y103374D01*
X19576D02*
X20076D01*
X19076Y102874D02*
X19576Y103374D01*
X147829Y114894D02*
X148329Y114394D01*
X147329Y114894D02*
X147829D01*
X147329D02*
X147829Y115394D01*
X147329Y115894D02*
X147829Y115394D01*
X147329Y115894D02*
X147829D01*
X148329Y116394D01*
X148829Y115894D01*
X149329D01*
X148829Y115394D02*
X149329Y115894D01*
X148829Y115394D02*
X149329Y114894D01*
X148829D02*
X149329D01*
X148329Y114394D02*
X148829Y114894D01*
X143058D02*
X143558Y114394D01*
X142558Y114894D02*
X143058D01*
X142558D02*
X143058Y115394D01*
X142558Y115894D02*
X143058Y115394D01*
X142558Y115894D02*
X143058D01*
X143558Y116394D01*
X144058Y115894D01*
X144558D01*
X144058Y115394D02*
X144558Y115894D01*
X144058Y115394D02*
X144558Y114894D01*
X144058D02*
X144558D01*
X143558Y114394D02*
X144058Y114894D01*
X138287D02*
X138787Y114394D01*
X137787Y114894D02*
X138287D01*
X137787D02*
X138287Y115394D01*
X137787Y115894D02*
X138287Y115394D01*
X137787Y115894D02*
X138287D01*
X138787Y116394D01*
X139287Y115894D01*
X139787D01*
X139287Y115394D02*
X139787Y115894D01*
X139287Y115394D02*
X139787Y114894D01*
X139287D02*
X139787D01*
X138787Y114394D02*
X139287Y114894D01*
X133516D02*
X134016Y114394D01*
X133016Y114894D02*
X133516D01*
X133016D02*
X133516Y115394D01*
X133016Y115894D02*
X133516Y115394D01*
X133016Y115894D02*
X133516D01*
X134016Y116394D01*
X134516Y115894D01*
X135016D01*
X134516Y115394D02*
X135016Y115894D01*
X134516Y115394D02*
X135016Y114894D01*
X134516D02*
X135016D01*
X134016Y114394D02*
X134516Y114894D01*
X152600D02*
X153100Y114394D01*
X152100Y114894D02*
X152600D01*
X152100D02*
X152600Y115394D01*
X152100Y115894D02*
X152600Y115394D01*
X152100Y115894D02*
X152600D01*
X153100Y116394D01*
X153600Y115894D01*
X154100D01*
X153600Y115394D02*
X154100Y115894D01*
X153600Y115394D02*
X154100Y114894D01*
X153600D02*
X154100D01*
X153100Y114394D02*
X153600Y114894D01*
X157371D02*
X157871Y114394D01*
X156871Y114894D02*
X157371D01*
X156871D02*
X157371Y115394D01*
X156871Y115894D02*
X157371Y115394D01*
X156871Y115894D02*
X157371D01*
X157871Y116394D01*
X158371Y115894D01*
X158871D01*
X158371Y115394D02*
X158871Y115894D01*
X158371Y115394D02*
X158871Y114894D01*
X158371D02*
X158871D01*
X157871Y114394D02*
X158371Y114894D01*
X162142D02*
X162642Y114394D01*
X161642Y114894D02*
X162142D01*
X161642D02*
X162142Y115394D01*
X161642Y115894D02*
X162142Y115394D01*
X161642Y115894D02*
X162142D01*
X162642Y116394D01*
X163142Y115894D01*
X163642D01*
X163142Y115394D02*
X163642Y115894D01*
X163142Y115394D02*
X163642Y114894D01*
X163142D02*
X163642D01*
X162642Y114394D02*
X163142Y114894D01*
X166912D02*
X167412Y114394D01*
X166412Y114894D02*
X166912D01*
X166412D02*
X166912Y115394D01*
X166412Y115894D02*
X166912Y115394D01*
X166412Y115894D02*
X166912D01*
X167412Y116394D01*
X167912Y115894D01*
X168412D01*
X167912Y115394D02*
X168412Y115894D01*
X167912Y115394D02*
X168412Y114894D01*
X167912D02*
X168412D01*
X167412Y114394D02*
X167912Y114894D01*
X105309Y1980D02*
X105809Y1480D01*
X104809Y1980D02*
X105309D01*
X104809D02*
X105309Y2480D01*
X104809Y2980D02*
X105309Y2480D01*
X104809Y2980D02*
X105309D01*
X105809Y3480D01*
X106309Y2980D01*
X106809D01*
X106309Y2480D02*
X106809Y2980D01*
X106309Y2480D02*
X106809Y1980D01*
X106309D02*
X106809D01*
X105809Y1480D02*
X106309Y1980D01*
X100538D02*
X101038Y1480D01*
X100038Y1980D02*
X100538D01*
X100038D02*
X100538Y2480D01*
X100038Y2980D02*
X100538Y2480D01*
X100038Y2980D02*
X100538D01*
X101038Y3480D01*
X101538Y2980D01*
X102038D01*
X101538Y2480D02*
X102038Y2980D01*
X101538Y2480D02*
X102038Y1980D01*
X101538D02*
X102038D01*
X101038Y1480D02*
X101538Y1980D01*
X95767D02*
X96267Y1480D01*
X95267Y1980D02*
X95767D01*
X95267D02*
X95767Y2480D01*
X95267Y2980D02*
X95767Y2480D01*
X95267Y2980D02*
X95767D01*
X96267Y3480D01*
X96767Y2980D01*
X97267D01*
X96767Y2480D02*
X97267Y2980D01*
X96767Y2480D02*
X97267Y1980D01*
X96767D02*
X97267D01*
X96267Y1480D02*
X96767Y1980D01*
X90996D02*
X91496Y1480D01*
X90496Y1980D02*
X90996D01*
X90496D02*
X90996Y2480D01*
X90496Y2980D02*
X90996Y2480D01*
X90496Y2980D02*
X90996D01*
X91496Y3480D01*
X91996Y2980D01*
X92496D01*
X91996Y2480D02*
X92496Y2980D01*
X91996Y2480D02*
X92496Y1980D01*
X91996D02*
X92496D01*
X91496Y1480D02*
X91996Y1980D01*
X110080D02*
X110580Y1480D01*
X109580Y1980D02*
X110080D01*
X109580D02*
X110080Y2480D01*
X109580Y2980D02*
X110080Y2480D01*
X109580Y2980D02*
X110080D01*
X110580Y3480D01*
X111080Y2980D01*
X111580D01*
X111080Y2480D02*
X111580Y2980D01*
X111080Y2480D02*
X111580Y1980D01*
X111080D02*
X111580D01*
X110580Y1480D02*
X111080Y1980D01*
X114851D02*
X115351Y1480D01*
X114351Y1980D02*
X114851D01*
X114351D02*
X114851Y2480D01*
X114351Y2980D02*
X114851Y2480D01*
X114351Y2980D02*
X114851D01*
X115351Y3480D01*
X115851Y2980D01*
X116351D01*
X115851Y2480D02*
X116351Y2980D01*
X115851Y2480D02*
X116351Y1980D01*
X115851D02*
X116351D01*
X115351Y1480D02*
X115851Y1980D01*
X134296D02*
X134796Y1480D01*
X133796Y1980D02*
X134296D01*
X133796D02*
X134296Y2480D01*
X133796Y2980D02*
X134296Y2480D01*
X133796Y2980D02*
X134296D01*
X134796Y3480D01*
X135296Y2980D01*
X135796D01*
X135296Y2480D02*
X135796Y2980D01*
X135296Y2480D02*
X135796Y1980D01*
X135296D02*
X135796D01*
X134796Y1480D02*
X135296Y1980D01*
X139067D02*
X139567Y1480D01*
X138567Y1980D02*
X139067D01*
X138567D02*
X139067Y2480D01*
X138567Y2980D02*
X139067Y2480D01*
X138567Y2980D02*
X139067D01*
X139567Y3480D01*
X140067Y2980D01*
X140567D01*
X140067Y2480D02*
X140567Y2980D01*
X140067Y2480D02*
X140567Y1980D01*
X140067D02*
X140567D01*
X139567Y1480D02*
X140067Y1980D01*
X42020Y19106D02*
X42520Y18606D01*
X41520Y19106D02*
X42020D01*
X41520D02*
X42020Y19606D01*
X41520Y20106D02*
X42020Y19606D01*
X41520Y20106D02*
X42020D01*
X42520Y20606D01*
X43020Y20106D01*
X43520D01*
X43020Y19606D02*
X43520Y20106D01*
X43020Y19606D02*
X43520Y19106D01*
X43020D02*
X43520D01*
X42520Y18606D02*
X43020Y19106D01*
X38083Y9560D02*
X38583Y9060D01*
X37583Y9560D02*
X38083D01*
X37583D02*
X38083Y10060D01*
X37583Y10560D02*
X38083Y10060D01*
X37583Y10560D02*
X38083D01*
X38583Y11060D01*
X39083Y10560D01*
X39583D01*
X39083Y10060D02*
X39583Y10560D01*
X39083Y10060D02*
X39583Y9560D01*
X39083D02*
X39583D01*
X38583Y9060D02*
X39083Y9560D01*
X38083Y6631D02*
X38583Y6131D01*
X37583Y6631D02*
X38083D01*
X37583D02*
X38083Y7131D01*
X37583Y7631D02*
X38083Y7131D01*
X37583Y7631D02*
X38083D01*
X38583Y8131D01*
X39083Y7631D01*
X39583D01*
X39083Y7131D02*
X39583Y7631D01*
X39083Y7131D02*
X39583Y6631D01*
X39083D02*
X39583D01*
X38583Y6131D02*
X39083Y6631D01*
X42020Y16177D02*
X42520Y15677D01*
X41520Y16177D02*
X42020D01*
X41520D02*
X42020Y16677D01*
X41520Y17177D02*
X42020Y16677D01*
X41520Y17177D02*
X42020D01*
X42520Y17677D01*
X43020Y17177D01*
X43520D01*
X43020Y16677D02*
X43520Y17177D01*
X43020Y16677D02*
X43520Y16177D01*
X43020D02*
X43520D01*
X42520Y15677D02*
X43020Y16177D01*
X36057Y109295D02*
X36557Y108795D01*
X35557Y109295D02*
X36057D01*
X35557D02*
X36057Y109795D01*
X35557Y110295D02*
X36057Y109795D01*
X35557Y110295D02*
X36057D01*
X36557Y110795D01*
X37057Y110295D01*
X37557D01*
X37057Y109795D02*
X37557Y110295D01*
X37057Y109795D02*
X37557Y109295D01*
X37057D02*
X37557D01*
X36557Y108795D02*
X37057Y109295D01*
X32945D02*
X33445Y108795D01*
X32445Y109295D02*
X32945D01*
X32445D02*
X32945Y109795D01*
X32445Y110295D02*
X32945Y109795D01*
X32445Y110295D02*
X32945D01*
X33445Y110795D01*
X33945Y110295D01*
X34445D01*
X33945Y109795D02*
X34445Y110295D01*
X33945Y109795D02*
X34445Y109295D01*
X33945D02*
X34445D01*
X33445Y108795D02*
X33945Y109295D01*
X32945Y106366D02*
X33445Y105866D01*
X32445Y106366D02*
X32945D01*
X32445D02*
X32945Y106866D01*
X32445Y107366D02*
X32945Y106866D01*
X32445Y107366D02*
X32945D01*
X33445Y107866D01*
X33945Y107366D01*
X34445D01*
X33945Y106866D02*
X34445Y107366D01*
X33945Y106866D02*
X34445Y106366D01*
X33945D02*
X34445D01*
X33445Y105866D02*
X33945Y106366D01*
X36057D02*
X36557Y105866D01*
X35557Y106366D02*
X36057D01*
X35557D02*
X36057Y106866D01*
X35557Y107366D02*
X36057Y106866D01*
X35557Y107366D02*
X36057D01*
X36557Y107866D01*
X37057Y107366D01*
X37557D01*
X37057Y106866D02*
X37557Y107366D01*
X37057Y106866D02*
X37557Y106366D01*
X37057D02*
X37557D01*
X36557Y105866D02*
X37057Y106366D01*
X120401Y83453D02*
X120901Y82953D01*
X119901Y83453D02*
X120401D01*
X119901D02*
X120401Y83953D01*
X119901Y84453D02*
X120401Y83953D01*
X119901Y84453D02*
X120401D01*
X120901Y84953D01*
X121401Y84453D01*
X121901D01*
X121401Y83953D02*
X121901Y84453D01*
X121401Y83953D02*
X121901Y83453D01*
X121401D02*
X121901D01*
X120901Y82953D02*
X121401Y83453D01*
X117288D02*
X117788Y82953D01*
X116788Y83453D02*
X117288D01*
X116788D02*
X117288Y83953D01*
X116788Y84453D02*
X117288Y83953D01*
X116788Y84453D02*
X117288D01*
X117788Y84953D01*
X118288Y84453D01*
X118788D01*
X118288Y83953D02*
X118788Y84453D01*
X118288Y83953D02*
X118788Y83453D01*
X118288D02*
X118788D01*
X117788Y82953D02*
X118288Y83453D01*
X117288Y80524D02*
X117788Y80024D01*
X116788Y80524D02*
X117288D01*
X116788D02*
X117288Y81024D01*
X116788Y81524D02*
X117288Y81024D01*
X116788Y81524D02*
X117288D01*
X117788Y82024D01*
X118288Y81524D01*
X118788D01*
X118288Y81024D02*
X118788Y81524D01*
X118288Y81024D02*
X118788Y80524D01*
X118288D02*
X118788D01*
X117788Y80024D02*
X118288Y80524D01*
X120401D02*
X120901Y80024D01*
X119901Y80524D02*
X120401D01*
X119901D02*
X120401Y81024D01*
X119901Y81524D02*
X120401Y81024D01*
X119901Y81524D02*
X120401D01*
X120901Y82024D01*
X121401Y81524D01*
X121901D01*
X121401Y81024D02*
X121901Y81524D01*
X121401Y81024D02*
X121901Y80524D01*
X121401D02*
X121901D01*
X120901Y80024D02*
X121401Y80524D01*
X102847Y10273D02*
X103347Y9773D01*
X102347Y10273D02*
X102847D01*
X102347D02*
X102847Y10773D01*
X102347Y11273D02*
X102847Y10773D01*
X102347Y11273D02*
X102847D01*
X103347Y11773D01*
X103847Y11273D01*
X104347D01*
X103847Y10773D02*
X104347Y11273D01*
X103847Y10773D02*
X104347Y10273D01*
X103847D02*
X104347D01*
X103347Y9773D02*
X103847Y10273D01*
X79815Y100878D02*
X80315Y100378D01*
X79315Y100878D02*
X79815D01*
X79315D02*
X79815Y101378D01*
X79315Y101878D02*
X79815Y101378D01*
X79315Y101878D02*
X79815D01*
X80315Y102378D01*
X80815Y101878D01*
X81315D01*
X80815Y101378D02*
X81315Y101878D01*
X80815Y101378D02*
X81315Y100878D01*
X80815D02*
X81315D01*
X80315Y100378D02*
X80815Y100878D01*
X79815Y108752D02*
X80315Y108252D01*
X79315Y108752D02*
X79815D01*
X79315D02*
X79815Y109252D01*
X79315Y109752D02*
X79815Y109252D01*
X79315Y109752D02*
X79815D01*
X80315Y110252D01*
X80815Y109752D01*
X81315D01*
X80815Y109252D02*
X81315Y109752D01*
X80815Y109252D02*
X81315Y108752D01*
X80815D02*
X81315D01*
X80315Y108252D02*
X80815Y108752D01*
X173453Y31902D02*
X173953Y31402D01*
X172953Y31902D02*
X173453D01*
X172953D02*
X173453Y32402D01*
X172953Y32902D02*
X173453Y32402D01*
X172953Y32902D02*
X173453D01*
X173953Y33402D01*
X174453Y32902D01*
X174953D01*
X174453Y32402D02*
X174953Y32902D01*
X174453Y32402D02*
X174953Y31902D01*
X174453D02*
X174953D01*
X173953Y31402D02*
X174453Y31902D01*
X173453Y35015D02*
X173953Y34515D01*
X172953Y35015D02*
X173453D01*
X172953D02*
X173453Y35515D01*
X172953Y36015D02*
X173453Y35515D01*
X172953Y36015D02*
X173453D01*
X173953Y36515D01*
X174453Y36015D01*
X174953D01*
X174453Y35515D02*
X174953Y36015D01*
X174453Y35515D02*
X174953Y35015D01*
X174453D02*
X174953D01*
X173953Y34515D02*
X174453Y35015D01*
X176382D02*
X176882Y34515D01*
X175882Y35015D02*
X176382D01*
X175882D02*
X176382Y35515D01*
X175882Y36015D02*
X176382Y35515D01*
X175882Y36015D02*
X176382D01*
X176882Y36515D01*
X177382Y36015D01*
X177882D01*
X177382Y35515D02*
X177882Y36015D01*
X177382Y35515D02*
X177882Y35015D01*
X177382D02*
X177882D01*
X176882Y34515D02*
X177382Y35015D01*
X176382Y31902D02*
X176882Y31402D01*
X175882Y31902D02*
X176382D01*
X175882D02*
X176382Y32402D01*
X175882Y32902D02*
X176382Y32402D01*
X175882Y32902D02*
X176382D01*
X176882Y33402D01*
X177382Y32902D01*
X177882D01*
X177382Y32402D02*
X177882Y32902D01*
X177382Y32402D02*
X177882Y31902D01*
X177382D02*
X177882D01*
X176882Y31402D02*
X177382Y31902D01*
X170658Y31813D02*
X171158Y31313D01*
X170158Y31813D02*
X170658D01*
X170158D02*
X170658Y32313D01*
X170158Y32813D02*
X170658Y32313D01*
X170158Y32813D02*
X170658D01*
X171158Y33313D01*
X171658Y32813D01*
X172158D01*
X171658Y32313D02*
X172158Y32813D01*
X171658Y32313D02*
X172158Y31813D01*
X171658D02*
X172158D01*
X171158Y31313D02*
X171658Y31813D01*
X170658Y34926D02*
X171158Y34426D01*
X170158Y34926D02*
X170658D01*
X170158D02*
X170658Y35426D01*
X170158Y35926D02*
X170658Y35426D01*
X170158Y35926D02*
X170658D01*
X171158Y36426D01*
X171658Y35926D01*
X172158D01*
X171658Y35426D02*
X172158Y35926D01*
X171658Y35426D02*
X172158Y34926D01*
X171658D02*
X172158D01*
X171158Y34426D02*
X171658Y34926D01*
X167728D02*
X168228Y34426D01*
X167228Y34926D02*
X167728D01*
X167228D02*
X167728Y35426D01*
X167228Y35926D02*
X167728Y35426D01*
X167228Y35926D02*
X167728D01*
X168228Y36426D01*
X168728Y35926D01*
X169228D01*
X168728Y35426D02*
X169228Y35926D01*
X168728Y35426D02*
X169228Y34926D01*
X168728D02*
X169228D01*
X168228Y34426D02*
X168728Y34926D01*
X167728Y31813D02*
X168228Y31313D01*
X167228Y31813D02*
X167728D01*
X167228D02*
X167728Y32313D01*
X167228Y32813D02*
X167728Y32313D01*
X167228Y32813D02*
X167728D01*
X168228Y33313D01*
X168728Y32813D01*
X169228D01*
X168728Y32313D02*
X169228Y32813D01*
X168728Y32313D02*
X169228Y31813D01*
X168728D02*
X169228D01*
X168228Y31313D02*
X168728Y31813D01*
X32328Y82564D02*
X32828Y82064D01*
X31828Y82564D02*
X32328D01*
X31828D02*
X32328Y83064D01*
X31828Y83564D02*
X32328Y83064D01*
X31828Y83564D02*
X32328D01*
X32828Y84064D01*
X33328Y83564D01*
X33828D01*
X33328Y83064D02*
X33828Y83564D01*
X33328Y83064D02*
X33828Y82564D01*
X33328D02*
X33828D01*
X32828Y82064D02*
X33328Y82564D01*
X32417Y76839D02*
X32917Y76339D01*
X31917Y76839D02*
X32417D01*
X31917D02*
X32417Y77339D01*
X31917Y77839D02*
X32417Y77339D01*
X31917Y77839D02*
X32417D01*
X32917Y78339D01*
X33417Y77839D01*
X33917D01*
X33417Y77339D02*
X33917Y77839D01*
X33417Y77339D02*
X33917Y76839D01*
X33417D02*
X33917D01*
X32917Y76339D02*
X33417Y76839D01*
X83555Y108752D02*
X84055Y108252D01*
X83055Y108752D02*
X83555D01*
X83055D02*
X83555Y109252D01*
X83055Y109752D02*
X83555Y109252D01*
X83055Y109752D02*
X83555D01*
X84055Y110252D01*
X84555Y109752D01*
X85055D01*
X84555Y109252D02*
X85055Y109752D01*
X84555Y109252D02*
X85055Y108752D01*
X84555D02*
X85055D01*
X84055Y108252D02*
X84555Y108752D01*
X80650Y27059D02*
X81150Y26559D01*
X80150Y27059D02*
X80650D01*
X80150D02*
X80650Y27559D01*
X80150Y28059D02*
X80650Y27559D01*
X80150Y28059D02*
X80650D01*
X81150Y28559D01*
X81650Y28059D01*
X82150D01*
X81650Y27559D02*
X82150Y28059D01*
X81650Y27559D02*
X82150Y27059D01*
X81650D02*
X82150D01*
X81150Y26559D02*
X81650Y27059D01*
X141518Y19484D02*
X142018Y18984D01*
X141018Y19484D02*
X141518D01*
X141018D02*
X141518Y19984D01*
X141018Y20484D02*
X141518Y19984D01*
X141018Y20484D02*
X141518D01*
X142018Y20984D01*
X142518Y20484D01*
X143018D01*
X142518Y19984D02*
X143018Y20484D01*
X142518Y19984D02*
X143018Y19484D01*
X142518D02*
X143018D01*
X142018Y18984D02*
X142518Y19484D01*
X141608Y16689D02*
X142108Y16189D01*
X141108Y16689D02*
X141608D01*
X141108D02*
X141608Y17189D01*
X141108Y17689D02*
X141608Y17189D01*
X141108Y17689D02*
X141608D01*
X142108Y18189D01*
X142608Y17689D01*
X143108D01*
X142608Y17189D02*
X143108Y17689D01*
X142608Y17189D02*
X143108Y16689D01*
X142608D02*
X143108D01*
X142108Y16189D02*
X142608Y16689D01*
X141608Y13760D02*
X142108Y13260D01*
X141108Y13760D02*
X141608D01*
X141108D02*
X141608Y14260D01*
X141108Y14760D02*
X141608Y14260D01*
X141108Y14760D02*
X141608D01*
X142108Y15260D01*
X142608Y14760D01*
X143108D01*
X142608Y14260D02*
X143108Y14760D01*
X142608Y14260D02*
X143108Y13760D01*
X142608D02*
X143108D01*
X142108Y13260D02*
X142608Y13760D01*
X138495D02*
X138995Y13260D01*
X137995Y13760D02*
X138495D01*
X137995D02*
X138495Y14260D01*
X137995Y14760D02*
X138495Y14260D01*
X137995Y14760D02*
X138495D01*
X138995Y15260D01*
X139495Y14760D01*
X139995D01*
X139495Y14260D02*
X139995Y14760D01*
X139495Y14260D02*
X139995Y13760D01*
X139495D02*
X139995D01*
X138995Y13260D02*
X139495Y13760D01*
X138495Y16689D02*
X138995Y16189D01*
X137995Y16689D02*
X138495D01*
X137995D02*
X138495Y17189D01*
X137995Y17689D02*
X138495Y17189D01*
X137995Y17689D02*
X138495D01*
X138995Y18189D01*
X139495Y17689D01*
X139995D01*
X139495Y17189D02*
X139995Y17689D01*
X139495Y17189D02*
X139995Y16689D01*
X139495D02*
X139995D01*
X138995Y16189D02*
X139495Y16689D01*
X138406Y19484D02*
X138906Y18984D01*
X137906Y19484D02*
X138406D01*
X137906D02*
X138406Y19984D01*
X137906Y20484D02*
X138406Y19984D01*
X137906Y20484D02*
X138406D01*
X138906Y20984D01*
X139406Y20484D01*
X139906D01*
X139406Y19984D02*
X139906Y20484D01*
X139406Y19984D02*
X139906Y19484D01*
X139406D02*
X139906D01*
X138906Y18984D02*
X139406Y19484D01*
X141518Y22413D02*
X142018Y21913D01*
X141018Y22413D02*
X141518D01*
X141018D02*
X141518Y22913D01*
X141018Y23413D02*
X141518Y22913D01*
X141018Y23413D02*
X141518D01*
X142018Y23913D01*
X142518Y23413D01*
X143018D01*
X142518Y22913D02*
X143018Y23413D01*
X142518Y22913D02*
X143018Y22413D01*
X142518D02*
X143018D01*
X142018Y21913D02*
X142518Y22413D01*
X138406D02*
X138906Y21913D01*
X137906Y22413D02*
X138406D01*
X137906D02*
X138406Y22913D01*
X137906Y23413D02*
X138406Y22913D01*
X137906Y23413D02*
X138406D01*
X138906Y23913D01*
X139406Y23413D01*
X139906D01*
X139406Y22913D02*
X139906Y23413D01*
X139406Y22913D02*
X139906Y22413D01*
X139406D02*
X139906D01*
X138906Y21913D02*
X139406Y22413D01*
X136216Y36177D02*
X136716Y35677D01*
X135716Y36177D02*
X136216D01*
X135716D02*
X136216Y36677D01*
X135716Y37177D02*
X136216Y36677D01*
X135716Y37177D02*
X136216D01*
X136716Y37677D01*
X137216Y37177D01*
X137716D01*
X137216Y36677D02*
X137716Y37177D01*
X137216Y36677D02*
X137716Y36177D01*
X137216D02*
X137716D01*
X136716Y35677D02*
X137216Y36177D01*
X131382Y51075D02*
X131882Y50575D01*
X130882Y51075D02*
X131382D01*
X130882D02*
X131382Y51575D01*
X130882Y52075D02*
X131382Y51575D01*
X130882Y52075D02*
X131382D01*
X131882Y52575D01*
X132382Y52075D01*
X132882D01*
X132382Y51575D02*
X132882Y52075D01*
X132382Y51575D02*
X132882Y51075D01*
X132382D02*
X132882D01*
X131882Y50575D02*
X132382Y51075D01*
X189124Y10373D02*
X190124Y12372D01*
X188124D02*
X190124D01*
X188124D02*
X189124Y10373D01*
X189163Y105650D02*
X190163Y107650D01*
X188163D02*
X190163D01*
X188163D02*
X189163Y105650D01*
X25236Y8764D02*
X27236D01*
Y10764D01*
X25236D02*
X27236D01*
X25236Y8764D02*
Y10764D01*
Y18606D02*
X27236D01*
Y20606D01*
X25236D02*
X27236D01*
X25236Y18606D02*
Y20606D01*
Y28449D02*
X27236D01*
Y30449D01*
X25236D02*
X27236D01*
X25236Y28449D02*
Y30449D01*
Y38291D02*
X27236D01*
Y40291D01*
X25236D02*
X27236D01*
X25236Y38291D02*
Y40291D01*
Y48134D02*
X27236D01*
Y50134D01*
X25236D02*
X27236D01*
X25236Y48134D02*
Y50134D01*
X189049Y41878D02*
X189549D01*
X189049D02*
Y42878D01*
X189549D01*
Y43378D01*
X190549D01*
Y42878D02*
Y43378D01*
Y42878D02*
X191049D01*
Y41878D02*
Y42878D01*
X190549Y41878D02*
X191049D01*
X190549Y41378D02*
Y41878D01*
X189549Y41378D02*
X190549D01*
X189549D02*
Y41878D01*
X189049Y75894D02*
X189549D01*
X189049D02*
Y76894D01*
X189549D01*
Y77394D01*
X190549D01*
Y76894D02*
Y77394D01*
Y76894D02*
X191049D01*
Y75894D02*
Y76894D01*
X190549Y75894D02*
X191049D01*
X190549Y75394D02*
Y75894D01*
X189549Y75394D02*
X190549D01*
X189549D02*
Y75894D01*
X174679Y46653D02*
Y47153D01*
X175179Y47653D01*
X174679Y48153D02*
X175179Y47653D01*
X174679Y48153D02*
Y48653D01*
X175179D01*
X175679Y48153D01*
X176179Y48653D01*
X176679D01*
Y48153D02*
Y48653D01*
X176179Y47653D02*
X176679Y48153D01*
X176179Y47653D02*
X176679Y47153D01*
Y46653D02*
Y47153D01*
X176179Y46653D02*
X176679D01*
X175679Y47153D02*
X176179Y46653D01*
X175179D02*
X175679Y47153D01*
X174679Y46653D02*
X175179D01*
X174679Y70118D02*
Y70618D01*
X175179Y71118D01*
X174679Y71618D02*
X175179Y71118D01*
X174679Y71618D02*
Y72118D01*
X175179D01*
X175679Y71618D01*
X176179Y72118D01*
X176679D01*
Y71618D02*
Y72118D01*
X176179Y71118D02*
X176679Y71618D01*
X176179Y71118D02*
X176679Y70618D01*
Y70118D02*
Y70618D01*
X176179Y70118D02*
X176679D01*
X175679Y70618D02*
X176179Y70118D01*
X175179D02*
X175679Y70618D01*
X174679Y70118D02*
X175179D01*
X74260Y9055D02*
X75260Y8055D01*
X76260Y9055D01*
X75260Y10055D02*
X76260Y9055D01*
X74260D02*
X75260Y10055D01*
X62449Y9055D02*
X63449Y8055D01*
X64449Y9055D01*
X63449Y10055D02*
X64449Y9055D01*
X62449D02*
X63449Y10055D01*
X56543Y9055D02*
X57543Y8055D01*
X58543Y9055D01*
X57543Y10055D02*
X58543Y9055D01*
X56543D02*
X57543Y10055D01*
X50638Y9055D02*
X51638Y8055D01*
X52638Y9055D01*
X51638Y10055D02*
X52638Y9055D01*
X50638D02*
X51638Y10055D01*
X68354Y9055D02*
X69354Y8055D01*
X70354Y9055D01*
X69354Y10055D02*
X70354Y9055D01*
X68354D02*
X69354Y10055D01*
X50638Y109055D02*
X51638Y108055D01*
X52638Y109055D01*
X51638Y110055D02*
X52638Y109055D01*
X50638D02*
X51638Y110055D01*
X62449Y109055D02*
X63449Y108055D01*
X64449Y109055D01*
X63449Y110055D02*
X64449Y109055D01*
X62449D02*
X63449Y110055D01*
X68354Y109055D02*
X69354Y108055D01*
X70354Y109055D01*
X69354Y110055D02*
X70354Y109055D01*
X68354D02*
X69354Y110055D01*
X74260Y109055D02*
X75260Y108055D01*
X76260Y109055D01*
X75260Y110055D02*
X76260Y109055D01*
X74260D02*
X75260Y110055D01*
X56543Y109055D02*
X57543Y108055D01*
X58543Y109055D01*
X57543Y110055D02*
X58543Y109055D01*
X56543D02*
X57543Y110055D01*
X51575Y25772D02*
X52575Y27772D01*
X50575D02*
X52575D01*
X50575D02*
X51575Y25772D01*
Y90339D02*
X52575Y92339D01*
X50575D02*
X52575D01*
X50575D02*
X51575Y90339D01*
X25236Y107362D02*
X27236D01*
Y109362D01*
X25236D02*
X27236D01*
X25236Y107362D02*
Y109362D01*
Y97520D02*
X27236D01*
Y99520D01*
X25236D02*
X27236D01*
X25236Y97520D02*
Y99520D01*
Y87677D02*
X27236D01*
Y89677D01*
X25236D02*
X27236D01*
X25236Y87677D02*
Y89677D01*
Y77835D02*
X27236D01*
Y79835D01*
X25236D02*
X27236D01*
X25236Y77835D02*
Y79835D01*
Y67992D02*
X27236D01*
Y69992D01*
X25236D02*
X27236D01*
X25236Y67992D02*
Y69992D01*
D91*
X-90750Y230217D02*
X726998D01*
X-90750Y159350D02*
X726998D01*
X-90750Y150492D02*
X726998D01*
Y239075D01*
X-90750D02*
X726998D01*
X-90750Y150492D02*
Y239075D01*
X642857Y150492D02*
Y239075D01*
X577686Y150492D02*
Y239075D01*
X497620Y150492D02*
Y239075D01*
X417553Y150492D02*
Y239075D01*
X365824Y150492D02*
Y239075D01*
X294750Y150492D02*
Y239075D01*
X249396Y150492D02*
Y239075D01*
X213252Y150492D02*
Y239075D01*
X123877Y150492D02*
Y239075D01*
X79232Y150492D02*
Y239075D01*
X48048Y150492D02*
Y239075D01*
X-20665Y150492D02*
Y239075D01*
X-56907Y150492D02*
Y239075D01*
D92*
X645514Y232874D02*
Y237125D01*
X647639D01*
X648348Y236416D01*
Y234999D01*
X647639Y234291D01*
X645514D01*
X646931D02*
X648348Y232874D01*
X650473D02*
X651890D01*
X652598Y233582D01*
Y234999D01*
X651890Y235708D01*
X650473D01*
X649765Y234999D01*
Y233582D01*
X650473Y232874D01*
X654015Y235708D02*
Y233582D01*
X654724Y232874D01*
X656849D01*
Y235708D01*
X658974Y236416D02*
Y235708D01*
X658266D01*
X659683D01*
X658974D01*
Y233582D01*
X659683Y232874D01*
X663933D02*
X662516D01*
X661808Y233582D01*
Y234999D01*
X662516Y235708D01*
X663933D01*
X664642Y234999D01*
Y234291D01*
X661808D01*
X668892Y237125D02*
Y232874D01*
X666767D01*
X666059Y233582D01*
Y234999D01*
X666767Y235708D01*
X668892D01*
X674560Y232874D02*
Y237125D01*
X676685D01*
X677393Y236416D01*
Y234999D01*
X676685Y234291D01*
X674560D01*
X679519Y235708D02*
X680936D01*
X681644Y234999D01*
Y232874D01*
X679519D01*
X678810Y233582D01*
X679519Y234291D01*
X681644D01*
X683769Y236416D02*
Y235708D01*
X683061D01*
X684478D01*
X683769D01*
Y233582D01*
X684478Y232874D01*
X686603Y237125D02*
Y232874D01*
Y234999D01*
X687312Y235708D01*
X688728D01*
X689437Y234999D01*
Y232874D01*
X695104Y237125D02*
Y232874D01*
X697938D01*
X701480D02*
X700063D01*
X699355Y233582D01*
Y234999D01*
X700063Y235708D01*
X701480D01*
X702189Y234999D01*
Y234291D01*
X699355D01*
X703606Y232874D02*
Y235708D01*
X705731D01*
X706439Y234999D01*
Y232874D01*
X709273Y231457D02*
X709981D01*
X710690Y232166D01*
Y235708D01*
X708565D01*
X707856Y234999D01*
Y233582D01*
X708565Y232874D01*
X710690D01*
X712815Y236416D02*
Y235708D01*
X712107D01*
X713524D01*
X712815D01*
Y233582D01*
X713524Y232874D01*
X715649Y237125D02*
Y232874D01*
Y234999D01*
X716357Y235708D01*
X717774D01*
X718483Y234999D01*
Y232874D01*
X580344Y237125D02*
Y232874D01*
Y234999D01*
X583178D01*
Y237125D01*
Y232874D01*
X585303D02*
X586720D01*
X587428Y233582D01*
Y234999D01*
X586720Y235708D01*
X585303D01*
X584594Y234999D01*
Y233582D01*
X585303Y232874D01*
X588845D02*
X590262D01*
X589553D01*
Y237125D01*
X588845D01*
X594512Y232874D02*
X593096D01*
X592387Y233582D01*
Y234999D01*
X593096Y235708D01*
X594512D01*
X595221Y234999D01*
Y234291D01*
X592387D01*
X600888Y237125D02*
Y232874D01*
X603722D01*
X607264D02*
X605847D01*
X605139Y233582D01*
Y234999D01*
X605847Y235708D01*
X607264D01*
X607973Y234999D01*
Y234291D01*
X605139D01*
X609389Y232874D02*
Y235708D01*
X611515D01*
X612223Y234999D01*
Y232874D01*
X615057Y231457D02*
X615765D01*
X616474Y232166D01*
Y235708D01*
X614349D01*
X613640Y234999D01*
Y233582D01*
X614349Y232874D01*
X616474D01*
X618599Y236416D02*
Y235708D01*
X617891D01*
X619308D01*
X618599D01*
Y233582D01*
X619308Y232874D01*
X621433Y237125D02*
Y232874D01*
Y234999D01*
X622141Y235708D01*
X623558D01*
X624267Y234999D01*
Y232874D01*
X500277Y237125D02*
Y232874D01*
Y234999D01*
X503111D01*
Y237125D01*
Y232874D01*
X505236D02*
X506653D01*
X507361Y233582D01*
Y234999D01*
X506653Y235708D01*
X505236D01*
X504528Y234999D01*
Y233582D01*
X505236Y232874D01*
X508778D02*
X510195D01*
X509487D01*
Y237125D01*
X508778D01*
X514446Y232874D02*
X513029D01*
X512320Y233582D01*
Y234999D01*
X513029Y235708D01*
X514446D01*
X515154Y234999D01*
Y234291D01*
X512320D01*
X520822Y237125D02*
X523655D01*
X522238D01*
Y232874D01*
X525781D02*
X527198D01*
X527906Y233582D01*
Y234999D01*
X527198Y235708D01*
X525781D01*
X525072Y234999D01*
Y233582D01*
X525781Y232874D01*
X529323D02*
X530740D01*
X530031D01*
Y237125D01*
X529323D01*
X534990Y232874D02*
X533573D01*
X532865Y233582D01*
Y234999D01*
X533573Y235708D01*
X534990D01*
X535699Y234999D01*
Y234291D01*
X532865D01*
X537116Y235708D02*
Y232874D01*
Y234291D01*
X537824Y234999D01*
X538532Y235708D01*
X539241D01*
X542075D02*
X543492D01*
X544200Y234999D01*
Y232874D01*
X542075D01*
X541366Y233582D01*
X542075Y234291D01*
X544200D01*
X545617Y232874D02*
Y235708D01*
X547742D01*
X548451Y234999D01*
Y232874D01*
X552701Y235708D02*
X550576D01*
X549867Y234999D01*
Y233582D01*
X550576Y232874D01*
X552701D01*
X556243D02*
X554826D01*
X554118Y233582D01*
Y234999D01*
X554826Y235708D01*
X556243D01*
X556952Y234999D01*
Y234291D01*
X554118D01*
X564036Y232874D02*
X562619Y234291D01*
Y235708D01*
X564036Y237125D01*
X566161Y234999D02*
X568995D01*
X570412Y232874D02*
X571829Y234291D01*
Y235708D01*
X570412Y237125D01*
X420210D02*
Y232874D01*
Y234999D01*
X423044D01*
Y237125D01*
Y232874D01*
X425169D02*
X426586D01*
X427295Y233582D01*
Y234999D01*
X426586Y235708D01*
X425169D01*
X424461Y234999D01*
Y233582D01*
X425169Y232874D01*
X428712D02*
X430128D01*
X429420D01*
Y237125D01*
X428712D01*
X434379Y232874D02*
X432962D01*
X432254Y233582D01*
Y234999D01*
X432962Y235708D01*
X434379D01*
X435087Y234999D01*
Y234291D01*
X432254D01*
X440755Y237125D02*
X443589D01*
X442172D01*
Y232874D01*
X445714D02*
X447131D01*
X447839Y233582D01*
Y234999D01*
X447131Y235708D01*
X445714D01*
X445006Y234999D01*
Y233582D01*
X445714Y232874D01*
X449256D02*
X450673D01*
X449965D01*
Y237125D01*
X449256D01*
X454924Y232874D02*
X453507D01*
X452798Y233582D01*
Y234999D01*
X453507Y235708D01*
X454924D01*
X455632Y234999D01*
Y234291D01*
X452798D01*
X457049Y235708D02*
Y232874D01*
Y234291D01*
X457757Y234999D01*
X458466Y235708D01*
X459174D01*
X462008D02*
X463425D01*
X464133Y234999D01*
Y232874D01*
X462008D01*
X461300Y233582D01*
X462008Y234291D01*
X464133D01*
X465550Y232874D02*
Y235708D01*
X467675D01*
X468384Y234999D01*
Y232874D01*
X472634Y235708D02*
X470509D01*
X469801Y234999D01*
Y233582D01*
X470509Y232874D01*
X472634D01*
X476177D02*
X474760D01*
X474051Y233582D01*
Y234999D01*
X474760Y235708D01*
X476177D01*
X476885Y234999D01*
Y234291D01*
X474051D01*
X483969Y232874D02*
X482552Y234291D01*
Y235708D01*
X483969Y237125D01*
X486095Y234999D02*
X488928D01*
X487511Y236416D02*
Y233582D01*
X490345Y232874D02*
X491762Y234291D01*
Y235708D01*
X490345Y237125D01*
X368481D02*
Y232874D01*
X370606D01*
X371315Y233582D01*
Y236416D01*
X370606Y237125D01*
X368481D01*
X374857Y232874D02*
X373440D01*
X372732Y233582D01*
Y234999D01*
X373440Y235708D01*
X374857D01*
X375565Y234999D01*
Y234291D01*
X372732D01*
X376982Y232874D02*
X379107D01*
X379816Y233582D01*
X379107Y234291D01*
X377691D01*
X376982Y234999D01*
X377691Y235708D01*
X379816D01*
X384067D02*
X381941D01*
X381233Y234999D01*
Y233582D01*
X381941Y232874D01*
X384067D01*
X385483Y235708D02*
Y232874D01*
Y234291D01*
X386192Y234999D01*
X386900Y235708D01*
X387609D01*
X389734Y232874D02*
X391151D01*
X390442D01*
Y235708D01*
X389734D01*
X393276Y231457D02*
Y235708D01*
X395402D01*
X396110Y234999D01*
Y233582D01*
X395402Y232874D01*
X393276D01*
X398235Y236416D02*
Y235708D01*
X397527D01*
X398944D01*
X398235D01*
Y233582D01*
X398944Y232874D01*
X401069D02*
X402486D01*
X401777D01*
Y235708D01*
X401069D01*
X405319Y232874D02*
X406736D01*
X407445Y233582D01*
Y234999D01*
X406736Y235708D01*
X405319D01*
X404611Y234999D01*
Y233582D01*
X405319Y232874D01*
X408862D02*
Y235708D01*
X410987D01*
X411695Y234999D01*
Y232874D01*
X297407Y237125D02*
X300241D01*
X298824D01*
Y232874D01*
X303783D02*
X302366D01*
X301658Y233582D01*
Y234999D01*
X302366Y235708D01*
X303783D01*
X304491Y234999D01*
Y234291D01*
X301658D01*
X305908Y232874D02*
Y235708D01*
X306617D01*
X307325Y234999D01*
Y232874D01*
Y234999D01*
X308034Y235708D01*
X308742Y234999D01*
Y232874D01*
X310159Y231457D02*
Y235708D01*
X312284D01*
X312993Y234999D01*
Y233582D01*
X312284Y232874D01*
X310159D01*
X314409D02*
X315826D01*
X315118D01*
Y237125D01*
X314409D01*
X318660Y235708D02*
X320077D01*
X320785Y234999D01*
Y232874D01*
X318660D01*
X317952Y233582D01*
X318660Y234291D01*
X320785D01*
X322911Y236416D02*
Y235708D01*
X322202D01*
X323619D01*
X322911D01*
Y233582D01*
X323619Y232874D01*
X327870D02*
X326453D01*
X325745Y233582D01*
Y234999D01*
X326453Y235708D01*
X327870D01*
X328578Y234999D01*
Y234291D01*
X325745D01*
X252054Y232874D02*
Y237125D01*
X254179D01*
X254887Y236416D01*
Y234999D01*
X254179Y234291D01*
X252054D01*
X257013Y235708D02*
X258430D01*
X259138Y234999D01*
Y232874D01*
X257013D01*
X256304Y233582D01*
X257013Y234291D01*
X259138D01*
X263389Y237125D02*
Y232874D01*
X261263D01*
X260555Y233582D01*
Y234999D01*
X261263Y235708D01*
X263389D01*
X271890Y236416D02*
X271181Y237125D01*
X269764D01*
X269056Y236416D01*
Y235708D01*
X269764Y234999D01*
X271181D01*
X271890Y234291D01*
Y233582D01*
X271181Y232874D01*
X269764D01*
X269056Y233582D01*
X273307Y237125D02*
Y232874D01*
Y234999D01*
X274015Y235708D01*
X275432D01*
X276140Y234999D01*
Y232874D01*
X278266Y235708D02*
X279683D01*
X280391Y234999D01*
Y232874D01*
X278266D01*
X277557Y233582D01*
X278266Y234291D01*
X280391D01*
X281808Y231457D02*
Y235708D01*
X283933D01*
X284642Y234999D01*
Y233582D01*
X283933Y232874D01*
X281808D01*
X288184D02*
X286767D01*
X286058Y233582D01*
Y234999D01*
X286767Y235708D01*
X288184D01*
X288892Y234999D01*
Y234291D01*
X286058D01*
X215910Y237125D02*
Y234291D01*
X217327Y232874D01*
X218743Y234291D01*
Y237125D01*
X220160Y232874D02*
X221577D01*
X220869D01*
Y235708D01*
X220160D01*
X224411D02*
X225828D01*
X226536Y234999D01*
Y232874D01*
X224411D01*
X223703Y233582D01*
X224411Y234291D01*
X226536D01*
X227953Y232874D02*
X230787Y235708D01*
X232204Y232874D02*
Y237125D01*
X234329D01*
X235037Y236416D01*
Y234999D01*
X234329Y234291D01*
X232204D01*
X237163Y235708D02*
X238580D01*
X239288Y234999D01*
Y232874D01*
X237163D01*
X236454Y233582D01*
X237163Y234291D01*
X239288D01*
X243539Y237125D02*
Y232874D01*
X241413D01*
X240705Y233582D01*
Y234999D01*
X241413Y235708D01*
X243539D01*
X126535Y237125D02*
Y232874D01*
X128660D01*
X129368Y233582D01*
Y236416D01*
X128660Y237125D01*
X126535D01*
X130785Y235708D02*
Y232874D01*
Y234291D01*
X131494Y234999D01*
X132202Y235708D01*
X132911D01*
X135036Y232874D02*
X136453D01*
X135744D01*
Y235708D01*
X135036D01*
X138578Y232874D02*
X139995D01*
X139287D01*
Y237125D01*
X138578D01*
X142120Y232874D02*
X143537D01*
X142829D01*
Y237125D01*
X142120D01*
X149913D02*
Y232874D01*
X152747D01*
X154872Y235708D02*
X156289D01*
X156997Y234999D01*
Y232874D01*
X154872D01*
X154164Y233582D01*
X154872Y234291D01*
X156997D01*
X158414Y235708D02*
Y233582D01*
X159123Y232874D01*
X161248D01*
Y232166D01*
X160540Y231457D01*
X159831D01*
X161248Y232874D02*
Y235708D01*
X164790Y232874D02*
X163373D01*
X162665Y233582D01*
Y234999D01*
X163373Y235708D01*
X164790D01*
X165499Y234999D01*
Y234291D01*
X162665D01*
X166916Y235708D02*
Y232874D01*
Y234291D01*
X167624Y234999D01*
X168332Y235708D01*
X169041D01*
X175417Y232874D02*
Y237125D01*
X177542D01*
X178250Y236416D01*
Y234999D01*
X177542Y234291D01*
X175417D01*
X180376Y235708D02*
X181793D01*
X182501Y234999D01*
Y232874D01*
X180376D01*
X179667Y233582D01*
X180376Y234291D01*
X182501D01*
X183918Y232874D02*
X185335D01*
X184626D01*
Y235708D01*
X183918D01*
X187460D02*
Y232874D01*
Y234291D01*
X188169Y234999D01*
X188877Y235708D01*
X189585D01*
X81890Y237125D02*
Y232874D01*
Y234999D01*
X84724D01*
Y237125D01*
Y232874D01*
X86849D02*
X88266D01*
X88974Y233582D01*
Y234999D01*
X88266Y235708D01*
X86849D01*
X86140Y234999D01*
Y233582D01*
X86849Y232874D01*
X90391D02*
X91808D01*
X91099D01*
Y237125D01*
X90391D01*
X96058Y232874D02*
X94642D01*
X93933Y233582D01*
Y234999D01*
X94642Y235708D01*
X96058D01*
X96767Y234999D01*
Y234291D01*
X93933D01*
X102434Y237125D02*
X105268D01*
X103851D01*
Y232874D01*
X106685Y235708D02*
Y233582D01*
X107393Y232874D01*
X109519D01*
Y232166D01*
X108810Y231457D01*
X108102D01*
X109519Y232874D02*
Y235708D01*
X110935Y231457D02*
Y235708D01*
X113061D01*
X113769Y234999D01*
Y233582D01*
X113061Y232874D01*
X110935D01*
X117311D02*
X115895D01*
X115186Y233582D01*
Y234999D01*
X115895Y235708D01*
X117311D01*
X118020Y234999D01*
Y234291D01*
X115186D01*
X50705Y232874D02*
Y237125D01*
X52830D01*
X53539Y236416D01*
Y234999D01*
X52830Y234291D01*
X50705D01*
X54956Y232874D02*
X56372D01*
X55664D01*
Y237125D01*
X54956D01*
X59206Y235708D02*
X60623D01*
X61331Y234999D01*
Y232874D01*
X59206D01*
X58498Y233582D01*
X59206Y234291D01*
X61331D01*
X63457Y236416D02*
Y235708D01*
X62748D01*
X64165D01*
X63457D01*
Y233582D01*
X64165Y232874D01*
X68416D02*
X66999D01*
X66290Y233582D01*
Y234999D01*
X66999Y235708D01*
X68416D01*
X69124Y234999D01*
Y234291D01*
X66290D01*
X73375Y237125D02*
Y232874D01*
X71250D01*
X70541Y233582D01*
Y234999D01*
X71250Y235708D01*
X73375D01*
X-18008Y237125D02*
Y232874D01*
Y234999D01*
X-15174D01*
Y237125D01*
Y232874D01*
X-13048D02*
X-11632D01*
X-10923Y233582D01*
Y234999D01*
X-11632Y235708D01*
X-13048D01*
X-13757Y234999D01*
Y233582D01*
X-13048Y232874D01*
X-9506D02*
X-8089D01*
X-8798D01*
Y237125D01*
X-9506D01*
X-3839Y232874D02*
X-5256D01*
X-5964Y233582D01*
Y234999D01*
X-5256Y235708D01*
X-3839D01*
X-3130Y234999D01*
Y234291D01*
X-5964D01*
X5371Y236416D02*
X4662Y237125D01*
X3246D01*
X2537Y236416D01*
Y235708D01*
X3246Y234999D01*
X4662D01*
X5371Y234291D01*
Y233582D01*
X4662Y232874D01*
X3246D01*
X2537Y233582D01*
X6788Y232874D02*
X8205D01*
X7496D01*
Y235708D01*
X6788D01*
X10330D02*
X13164D01*
X10330Y232874D01*
X13164D01*
X16706D02*
X15289D01*
X14581Y233582D01*
Y234999D01*
X15289Y235708D01*
X16706D01*
X17414Y234999D01*
Y234291D01*
X14581D01*
X-51416Y236416D02*
X-52125Y237125D01*
X-53542D01*
X-54250Y236416D01*
Y233582D01*
X-53542Y232874D01*
X-52125D01*
X-51416Y233582D01*
X-49291Y232874D02*
X-47874D01*
X-47166Y233582D01*
Y234999D01*
X-47874Y235708D01*
X-49291D01*
X-49999Y234999D01*
Y233582D01*
X-49291Y232874D01*
X-45749Y235708D02*
Y233582D01*
X-45040Y232874D01*
X-42915D01*
Y235708D01*
X-41498Y232874D02*
Y235708D01*
X-39373D01*
X-38664Y234999D01*
Y232874D01*
X-36539Y236416D02*
Y235708D01*
X-37248D01*
X-35831D01*
X-36539D01*
Y233582D01*
X-35831Y232874D01*
X-82601Y236416D02*
X-83310Y237125D01*
X-84726D01*
X-85435Y236416D01*
Y235708D01*
X-84726Y234999D01*
X-83310D01*
X-82601Y234291D01*
Y233582D01*
X-83310Y232874D01*
X-84726D01*
X-85435Y233582D01*
X-81184Y235708D02*
Y233582D01*
X-80476Y232874D01*
X-78351D01*
Y232166D01*
X-79059Y231457D01*
X-79767D01*
X-78351Y232874D02*
Y235708D01*
X-76934Y232874D02*
Y235708D01*
X-76225D01*
X-75517Y234999D01*
Y232874D01*
Y234999D01*
X-74808Y235708D01*
X-74100Y234999D01*
Y232874D01*
X-72683Y237125D02*
Y232874D01*
X-70558D01*
X-69849Y233582D01*
Y234291D01*
Y234999D01*
X-70558Y235708D01*
X-72683D01*
X-67724Y232874D02*
X-66307D01*
X-65599Y233582D01*
Y234999D01*
X-66307Y235708D01*
X-67724D01*
X-68432Y234999D01*
Y233582D01*
X-67724Y232874D01*
X-64182D02*
X-62765D01*
X-63473D01*
Y237125D01*
X-64182D01*
D93*
X-23303Y140588D02*
Y137046D01*
Y138817D01*
X-20941D01*
Y140588D01*
Y137046D01*
X-19170D02*
X-17990D01*
X-17399Y137637D01*
Y138817D01*
X-17990Y139408D01*
X-19170D01*
X-19761Y138817D01*
Y137637D01*
X-19170Y137046D01*
X-16218D02*
X-15038D01*
X-15628D01*
Y140588D01*
X-16218D01*
X-11496Y137046D02*
X-12676D01*
X-13267Y137637D01*
Y138817D01*
X-12676Y139408D01*
X-11496D01*
X-10905Y138817D01*
Y138227D01*
X-13267D01*
X-6182Y140588D02*
Y137046D01*
X-3821D01*
X-869D02*
X-2050D01*
X-2640Y137637D01*
Y138817D01*
X-2050Y139408D01*
X-869D01*
X-279Y138817D01*
Y138227D01*
X-2640D01*
X902Y137046D02*
Y139408D01*
X2673D01*
X3263Y138817D01*
Y137046D01*
X5625Y135866D02*
X6215D01*
X6805Y136456D01*
Y139408D01*
X5034D01*
X4444Y138817D01*
Y137637D01*
X5034Y137046D01*
X6805D01*
X8577Y139998D02*
Y139408D01*
X7986D01*
X9167D01*
X8577D01*
Y137637D01*
X9167Y137046D01*
X10938Y140588D02*
Y137046D01*
Y138817D01*
X11528Y139408D01*
X12709D01*
X13299Y138817D01*
Y137046D01*
X-23303Y143769D02*
Y147311D01*
X-21532D01*
X-20941Y146721D01*
Y145540D01*
X-21532Y144950D01*
X-23303D01*
X-22122D02*
X-20941Y143769D01*
X-19170D02*
X-17990D01*
X-17399Y144360D01*
Y145540D01*
X-17990Y146131D01*
X-19170D01*
X-19761Y145540D01*
Y144360D01*
X-19170Y143769D01*
X-16218Y146131D02*
Y144360D01*
X-15628Y143769D01*
X-13857D01*
Y146131D01*
X-12086Y146721D02*
Y146131D01*
X-12676D01*
X-11496D01*
X-12086D01*
Y144360D01*
X-11496Y143769D01*
X-7954D02*
X-9134D01*
X-9725Y144360D01*
Y145540D01*
X-9134Y146131D01*
X-7954D01*
X-7363Y145540D01*
Y144950D01*
X-9725D01*
X-3821Y147311D02*
Y143769D01*
X-5592D01*
X-6182Y144360D01*
Y145540D01*
X-5592Y146131D01*
X-3821D01*
X902Y143769D02*
Y147311D01*
X2673D01*
X3263Y146721D01*
Y145540D01*
X2673Y144950D01*
X902D01*
X5034Y146131D02*
X6215D01*
X6805Y145540D01*
Y143769D01*
X5034D01*
X4444Y144360D01*
X5034Y144950D01*
X6805D01*
X8577Y146721D02*
Y146131D01*
X7986D01*
X9167D01*
X8577D01*
Y144360D01*
X9167Y143769D01*
X10938Y147311D02*
Y143769D01*
Y145540D01*
X11528Y146131D01*
X12709D01*
X13299Y145540D01*
Y143769D01*
X18022Y147311D02*
Y143769D01*
X20384D01*
X23336D02*
X22155D01*
X21565Y144360D01*
Y145540D01*
X22155Y146131D01*
X23336D01*
X23926Y145540D01*
Y144950D01*
X21565D01*
X25107Y143769D02*
Y146131D01*
X26878D01*
X27468Y145540D01*
Y143769D01*
X29830Y142588D02*
X30420D01*
X31010Y143179D01*
Y146131D01*
X29239D01*
X28649Y145540D01*
Y144360D01*
X29239Y143769D01*
X31010D01*
X32781Y146721D02*
Y146131D01*
X32191D01*
X33372D01*
X32781D01*
Y144360D01*
X33372Y143769D01*
X35143Y147311D02*
Y143769D01*
Y145540D01*
X35733Y146131D01*
X36914D01*
X37504Y145540D01*
Y143769D01*
X-83073Y146721D02*
X-83664Y147311D01*
X-84844D01*
X-85435Y146721D01*
Y146131D01*
X-84844Y145540D01*
X-83664D01*
X-83073Y144950D01*
Y144360D01*
X-83664Y143769D01*
X-84844D01*
X-85435Y144360D01*
X-81893Y143769D02*
X-80712D01*
X-81302D01*
Y147311D01*
X-81893D01*
X-78351Y143769D02*
X-77170D01*
X-76579Y144360D01*
Y145540D01*
X-77170Y146131D01*
X-78351D01*
X-78941Y145540D01*
Y144360D01*
X-78351Y143769D01*
X-74808Y146721D02*
Y146131D01*
X-75399D01*
X-74218D01*
X-74808D01*
Y144360D01*
X-74218Y143769D01*
X-66543Y147311D02*
Y143769D01*
X-68314D01*
X-68905Y144360D01*
Y145540D01*
X-68314Y146131D01*
X-66543D01*
X-63592Y143769D02*
X-64772D01*
X-65363Y144360D01*
Y145540D01*
X-64772Y146131D01*
X-63592D01*
X-63001Y145540D01*
Y144950D01*
X-65363D01*
X-61230Y143769D02*
Y146721D01*
Y145540D01*
X-61821D01*
X-60640D01*
X-61230D01*
Y146721D01*
X-60640Y147311D01*
X-58869Y143769D02*
X-57688D01*
X-58278D01*
Y146131D01*
X-58869D01*
X-55917Y143769D02*
Y146131D01*
X-54146D01*
X-53555Y145540D01*
Y143769D01*
X-52375D02*
X-51194D01*
X-51784D01*
Y146131D01*
X-52375D01*
X-48833Y146721D02*
Y146131D01*
X-49423D01*
X-48242D01*
X-48833D01*
Y144360D01*
X-48242Y143769D01*
X-46471D02*
X-45290D01*
X-45881D01*
Y146131D01*
X-46471D01*
X-42929Y143769D02*
X-41748D01*
X-41158Y144360D01*
Y145540D01*
X-41748Y146131D01*
X-42929D01*
X-43519Y145540D01*
Y144360D01*
X-42929Y143769D01*
X-39977D02*
Y146131D01*
X-38206D01*
X-37616Y145540D01*
Y143769D01*
X-36435D02*
X-34664D01*
X-34074Y144360D01*
X-34664Y144950D01*
X-35845D01*
X-36435Y145540D01*
X-35845Y146131D01*
X-34074D01*
X-29351D02*
X-28760D01*
Y145540D01*
X-29351D01*
Y146131D01*
Y144360D02*
X-28760D01*
Y143769D01*
X-29351D01*
Y144360D01*
M02*
