M48
;Layer_Color=9474304
;FILE_FORMAT=2:5
INCH,LZ
;TYPE=PLATED
T1F00S00C0.01000
T2F00S00C0.01181
T4F00S00C0.02559
T5F00S00C0.03937
T6F00S00C0.10000
;TYPE=NON_PLATED
T7F00S00C0.02756
%
T01
X0081239Y0008655
Y0011584
X0084352
Y0008655
X0091496Y000248
X0096267
X0101038
X0105809
X011058
X0115351
X0134796
X0139567
X0138995Y001426
Y0017189
X0138906Y0019984
Y0022913
X0142018
Y0019984
X0142108Y0017189
Y001426
X0127921Y0014724
X0121724Y0021728
X0117623Y0028646
X0118898Y0035039
X0125827Y0037702
X0136716Y0036677
X0168228Y0035426
X0171158
X0173953Y0035515
X0176882
Y0032402
X0173953
X0171158Y0032313
X0168228
X0168236Y0013858
Y0010929
X0168325Y0008134
Y0005205
X0171438
Y0008134
X0171349Y0010929
Y0013858
X0174462
Y0010929
X0174551Y0008134
Y0005205
X0197953Y0003496
Y0008267
Y0013038
Y0017809
Y002258
Y0027351
Y0032122
Y0036893
X0109362Y0027441
X0103425Y002222
X0103347Y0010773
X0086968Y0020709
X008437Y0023347
X008115Y0027559
X0088346Y0035673
X009176Y0035539
X0069165Y0035543
Y0032614
Y0029819
Y002689
X0066053
Y0029819
Y0032614
Y0035543
X004252Y0019606
Y0016677
X0038583Y001006
Y0007131
X0019165Y0029356
Y0032285
X0019076Y003508
Y003801
X0018682Y0054811
Y005774
X0018593Y0060535
Y0063465
X001548
Y0060535
X001557Y005774
Y0054811
X0033389Y0054646
Y0057575
X00333Y006037
Y0063299
X0036413
Y006037
X0036502Y0057575
Y0054646
X0032795Y0044956
X0035472Y0042011
X0055606Y0045617
X0062646
X0076614Y0040512
X0074016Y0037874
X0069165Y0084792
Y0087721
Y0090516
Y0093445
X0066053
Y0090516
Y0087721
Y0084792
X0032828Y0083064
X0032917Y0077339
X0033445Y0106866
Y0109795
X0036557
Y0106866
X0019076Y0106803
Y0103874
X0019165Y0101079
X0080315Y0101378
X0084055Y0104409
Y0109252
X0080315
X0087772Y0092913
Y0089486
Y0086058
X0100126Y0086472
Y0091827
X0106417
Y0086472
X0117788Y0083953
Y0081024
X0120901
Y0083953
X0138297Y008378
Y0086709
X0138207Y0089504
Y0092433
X014132
Y0089504
X0141409Y0086709
Y008378
X0147142Y0086159
X0146976Y0075036
X0152465Y0075125
X0156608Y0053347
X014885Y0051593
X0145921
X0143126Y0051504
X0140197
X0131882Y0051575
X0126094Y0057449
Y0061063
X0121276Y0061173
X0116642Y0057449
X0109598Y0056756
X0106787
X010411Y0056667
X0106283Y0060102
X0105614Y0044709
X0108961Y0044575
X0111906
X0116776Y0047606
X012837Y0041228
X0108024Y0037882
X0105213
X0102402
X0099079Y0041701
X0097709Y0049885
X0094551Y0049795
Y0053026
X0084094Y0052919
Y0049885
X0079213Y0052402
X0082149Y0059417
X0082895Y0070669
X0086326
X0089758
X0093189
X009785Y0069339
X0091559Y0065858
X0109095Y0074779
X0112964Y0098472
Y0101465
X0116116
Y0098472
X0113244Y0115591
X0099189
X0134016Y0115394
X0138787
X0143558
X0148329
X01531
X0157871
X0162642
X0167412
X0148339Y01051
X014541
X0142614Y010501
X0139685
Y0101898
X0142614
X014541Y0101987
X0148339
X0197953Y0103686
Y0098915
Y0094144
Y0089374
Y0084603
Y0079832
Y0075061
Y007029
Y0065519
Y0060748
Y0055977
Y0051206
Y0046435
Y0041664
X0174685Y0056354
Y0062378
X0174675Y0066275
X0192173Y0085803
X0197953Y0108457
Y0113228
X0135913Y0060102
T02
X0014534Y0025882
X0053403Y0065798
X0123881Y0106465
X0162457Y007148
X0162504Y0047386
T04
X0051638Y0009055
X0057543
X0063449
X0069354
X007526
X007526Y0109055
X0069354
X0063449
X0057543
X0051638
T05
X0026236Y0009764
Y0019606
Y0029449
Y0039291
Y0049134
Y0068992
Y0078835
Y0088677
Y009852
Y0108362
T06
X0189124Y0011372
X0051575Y0026772
Y0091339
X0189163Y010665
T07
X0175679Y0047653
Y0071118
M30
