G04*
G04 #@! TF.GenerationSoftware,Altium Limited,Altium Designer,19.0.4 (130)*
G04*
G04 Layer_Color=16711935*
%FSLAX25Y25*%
%MOIN*%
G70*
G01*
G75*
G04:AMPARAMS|DCode=25|XSize=23.62mil|YSize=100.39mil|CornerRadius=0mil|HoleSize=0mil|Usage=FLASHONLY|Rotation=270.000|XOffset=0mil|YOffset=0mil|HoleType=Round|Shape=Octagon|*
%AMOCTAGOND25*
4,1,8,0.05020,0.00591,0.05020,-0.00591,0.04429,-0.01181,-0.04429,-0.01181,-0.05020,-0.00591,-0.05020,0.00591,-0.04429,0.01181,0.04429,0.01181,0.05020,0.00591,0.0*
%
%ADD25OCTAGOND25*%

%ADD52O,0.08674X0.06312*%
%ADD53R,0.08674X0.06312*%
%ADD54C,0.12800*%
%ADD55C,0.05131*%
%ADD56R,0.05131X0.05131*%
%ADD57C,0.03556*%
%ADD58O,0.07099X0.04737*%
%ADD59O,0.09068X0.04737*%
%ADD86C,0.05524*%
D25*
X5756Y81787D02*
D03*
Y103844D02*
D03*
Y100693D02*
D03*
Y97542D02*
D03*
Y94391D02*
D03*
Y91240D02*
D03*
Y88089D02*
D03*
Y84938D02*
D03*
Y66049D02*
D03*
Y12505D02*
D03*
Y44002D02*
D03*
Y47151D02*
D03*
Y50301D02*
D03*
Y53451D02*
D03*
Y56600D02*
D03*
Y59750D02*
D03*
Y62900D02*
D03*
Y40852D02*
D03*
Y18804D02*
D03*
Y21954D02*
D03*
Y25104D02*
D03*
Y28253D02*
D03*
Y31403D02*
D03*
Y34553D02*
D03*
Y37702D02*
D03*
Y15655D02*
D03*
D52*
X26236Y68992D02*
D03*
Y78835D02*
D03*
Y88677D02*
D03*
Y98520D02*
D03*
Y39291D02*
D03*
Y29449D02*
D03*
Y19606D02*
D03*
Y9764D02*
D03*
D53*
Y108362D02*
D03*
Y49134D02*
D03*
D54*
X51575Y91339D02*
D03*
Y26772D02*
D03*
X189163Y106650D02*
D03*
X189124Y11372D02*
D03*
D55*
X57543Y109055D02*
D03*
X69354D02*
D03*
X63449D02*
D03*
X51638D02*
D03*
X69354Y9055D02*
D03*
X57543D02*
D03*
X63449D02*
D03*
X75260D02*
D03*
D56*
X75260Y109055D02*
D03*
X51638Y9055D02*
D03*
D57*
X175679Y71118D02*
D03*
Y47653D02*
D03*
D58*
X190049Y76394D02*
D03*
Y42378D02*
D03*
D59*
X173592Y76394D02*
D03*
Y42378D02*
D03*
D86*
X91677Y16732D02*
D03*
X121677Y16732D02*
D03*
X81673D02*
D03*
X101677D02*
D03*
X111677D02*
D03*
M02*
