G04*
G04 #@! TF.GenerationSoftware,Altium Limited,Altium Designer,19.0.4 (130)*
G04*
G04 Layer_Color=16711935*
%FSLAX25Y25*%
%MOIN*%
G70*
G01*
G75*
%ADD14C,0.00394*%
D14*
X97079Y38354D02*
G03*
X97079Y38354I-1969J0D01*
G01*
X137874Y26575D02*
X164252D01*
X137874Y12008D02*
X164252D01*
Y26575D01*
X137874Y12008D02*
Y26575D01*
X56504Y60126D02*
Y71622D01*
X51386Y60126D02*
Y71622D01*
Y60126D02*
X56504D01*
X51386Y71622D02*
X56504D01*
Y60126D02*
Y71622D01*
X51386Y60126D02*
Y71622D01*
Y60126D02*
X56504D01*
X51386Y71622D02*
X56504D01*
X51386D02*
X56504D01*
X51386Y60126D02*
X56504D01*
X51386D02*
Y71622D01*
X56504Y60126D02*
Y71622D01*
X119126Y34811D02*
Y62370D01*
X91567Y34811D02*
Y62370D01*
X119126D01*
X91567Y34811D02*
X119126D01*
X138563Y60272D02*
X139744Y61453D01*
X137776Y60665D02*
X138957Y61847D01*
X137402Y63882D02*
X140551D01*
X139764Y62307D02*
Y65457D01*
X138189D02*
X139764Y63882D01*
X138189Y62307D02*
X139764Y63882D01*
X138189Y62307D02*
Y65457D01*
X93496Y26378D02*
X113181D01*
X93496Y13780D02*
X113181D01*
X93496D02*
Y26378D01*
X113181Y13780D02*
Y26378D01*
X111063Y79055D02*
X113031Y81024D01*
Y79055D02*
Y98740D01*
X93347D02*
X113031D01*
X93347Y79055D02*
Y98740D01*
Y79055D02*
X113031D01*
X138028Y59216D02*
X139209Y60398D01*
X138815Y58823D02*
X139996Y60004D01*
X137221Y56787D02*
X140370D01*
X138008Y55213D02*
Y58362D01*
Y56787D02*
X139583Y55213D01*
X138008Y56787D02*
X139583Y58362D01*
Y55213D02*
Y58362D01*
M02*
